<svg width="1735" height="316" viewBox="0 0 1735 316" fill="none" xmlns="http://www.w3.org/2000/svg">
<rect width="1735" height="316" fill="white"/>
<rect x="106.5" y="45.5" width="119" height="57" rx="7.5" fill="#FFF6DF" stroke="#FFE1B4"/>
<rect x="262.5" y="45.5" width="119" height="57" rx="7.5" fill="#FFF6DF" stroke="#FFE1B4"/>
<rect x="418.5" y="45.5" width="119" height="57" rx="7.5" fill="#FFF6DF" stroke="#FFE1B4"/>
<rect x="573.5" y="45.5" width="119" height="57" rx="7.5" fill="#FFF6DF" stroke="#FFE1B4"/>
<rect x="729.5" y="45.5" width="119" height="57" rx="7.5" fill="#FFF6DF" stroke="#FFE1B4"/>
<rect x="885.5" y="45.5" width="119" height="57" rx="7.5" fill="#FFF6DF" stroke="#FFE1B4"/>
<rect x="1041.5" y="45.5" width="119" height="57" rx="7.5" fill="#FFF6DF" stroke="#FFE1B4"/>
<rect x="1197.5" y="45.5" width="119" height="57" rx="7.5" fill="#FFF6DF" stroke="#FFE1B4"/>
<rect x="1353.5" y="45.5" width="119" height="57" rx="7.5" fill="#FFF6DF" stroke="#FFE1B4"/>
<rect x="1509.5" y="45.5" width="119" height="57" rx="7.5" fill="#FFF6DF" stroke="#FFE1B4"/>
<rect x="106.5" y="129.5" width="119" height="57" rx="7.5" fill="#FFF6DF" stroke="#FFE1B4"/>
<rect x="262.5" y="129.5" width="119" height="57" rx="7.5" fill="#FFF6DF" stroke="#FFE1B4"/>
<rect x="418.5" y="129.5" width="119" height="57" rx="7.5" fill="#FFF6DF" stroke="#FFE1B4"/>
<rect x="573.5" y="129.5" width="119" height="57" rx="7.5" fill="#FFF6DF" stroke="#FFE1B4"/>
<rect x="729.5" y="129.5" width="119" height="57" rx="7.5" fill="#FFF6DF" stroke="#FFE1B4"/>
<rect x="885.5" y="129.5" width="119" height="57" rx="7.5" fill="#FFF6DF" stroke="#FFE1B4"/>
<rect x="1041.5" y="129.5" width="119" height="57" rx="7.5" fill="#FFF6DF" stroke="#FFE1B4"/>
<rect x="1197.5" y="129.5" width="119" height="57" rx="7.5" fill="#FFF6DF" stroke="#FFE1B4"/>
<rect x="1353.5" y="129.5" width="119" height="57" rx="7.5" fill="#FFF6DF" stroke="#FFE1B4"/>
<rect x="1509.5" y="129.5" width="119" height="57" rx="7.5" fill="#FFF6DF" stroke="#FFE1B4"/>
<rect x="106.5" y="213.5" width="119" height="57" rx="7.5" fill="#FFF6DF" stroke="#FFE1B4"/>
<rect x="262.5" y="213.5" width="119" height="57" rx="7.5" fill="#FFDFCA" stroke="#FFB584"/>
<rect x="418.5" y="213.5" width="119" height="57" rx="7.5" fill="#FFDFCA" stroke="#FFB584"/>
<rect x="573.5" y="213.5" width="119" height="57" rx="7.5" fill="#FFDFCA" stroke="#FFB584"/>
<rect x="729.5" y="213.5" width="119" height="57" rx="7.5" fill="#FFDFCA" stroke="#FFB584"/>
<rect x="885.5" y="213.5" width="119" height="57" rx="7.5" fill="#FFF6DF" stroke="#FFE1B4"/>
<rect x="1041.5" y="213.5" width="119" height="57" rx="7.5" fill="#FFF6DF" stroke="#FFE1B4"/>
<rect x="1197.5" y="213.5" width="119" height="57" rx="7.5" fill="#FFF6DF" stroke="#FFE1B4"/>
<rect x="1353.5" y="213.5" width="119" height="57" rx="7.5" fill="#FFF6DF" stroke="#FFE1B4"/>
<rect x="1509.5" y="213.5" width="119" height="57" rx="7.5" fill="#FFF6DF" stroke="#FFE1B4"/>
<path d="M146.132 84.04V66.84H149.712V67.78H147.372V83.1H149.712V84.04H146.132ZM157.067 81.24C155.973 81.24 154.993 80.9733 154.127 80.44C153.273 79.8933 152.593 79.1133 152.087 78.1C151.593 77.0867 151.347 75.8667 151.347 74.44C151.347 73.0267 151.6 71.8133 152.107 70.8C152.613 69.7867 153.307 69.0067 154.187 68.46C155.067 67.9133 156.06 67.64 157.167 67.64C157.967 67.64 158.673 67.8067 159.287 68.14C159.9 68.46 160.393 68.8333 160.767 69.26L159.867 70.34C159.52 69.9667 159.127 69.6667 158.687 69.44C158.247 69.2133 157.747 69.1 157.187 69.1C156.36 69.1 155.633 69.32 155.007 69.76C154.393 70.1867 153.913 70.7933 153.567 71.58C153.233 72.3667 153.067 73.3067 153.067 74.4C153.067 75.4933 153.233 76.4467 153.567 77.26C153.9 78.06 154.367 78.68 154.967 79.12C155.58 79.56 156.3 79.78 157.127 79.78C157.753 79.78 158.313 79.6467 158.807 79.38C159.3 79.1133 159.753 78.7533 160.167 78.3L161.087 79.34C160.567 79.94 159.98 80.4067 159.327 80.74C158.673 81.0733 157.92 81.24 157.067 81.24ZM163.532 81V67.88H165.192V79.58H170.932V81H163.532ZM176.45 81.24C175.53 81.24 174.676 81.0667 173.89 80.72C173.103 80.36 172.423 79.8867 171.85 79.3L172.85 78.14C173.316 78.6333 173.863 79.0333 174.49 79.34C175.13 79.6333 175.79 79.78 176.47 79.78C177.336 79.78 178.01 79.5867 178.49 79.2C178.97 78.8 179.21 78.28 179.21 77.64C179.21 77.1867 179.11 76.8267 178.91 76.56C178.723 76.2933 178.463 76.0667 178.13 75.88C177.81 75.6933 177.443 75.5067 177.03 75.32L175.15 74.5C174.736 74.3267 174.323 74.1 173.91 73.82C173.51 73.54 173.17 73.18 172.89 72.74C172.623 72.3 172.49 71.76 172.49 71.12C172.49 70.4533 172.663 69.86 173.01 69.34C173.37 68.8067 173.863 68.3933 174.49 68.1C175.116 67.7933 175.823 67.64 176.61 67.64C177.396 67.64 178.123 67.7933 178.79 68.1C179.456 68.3933 180.023 68.78 180.49 69.26L179.59 70.34C179.19 69.9533 178.743 69.6533 178.25 69.44C177.77 69.2133 177.223 69.1 176.61 69.1C175.876 69.1 175.283 69.2733 174.83 69.62C174.39 69.9667 174.17 70.4333 174.17 71.02C174.17 71.4333 174.276 71.78 174.49 72.06C174.716 72.3267 174.996 72.5467 175.33 72.72C175.663 72.8933 176.003 73.0533 176.35 73.2L178.21 74C178.716 74.2133 179.17 74.4733 179.57 74.78C179.983 75.0733 180.31 75.44 180.55 75.88C180.79 76.3067 180.91 76.8467 180.91 77.5C180.91 78.1933 180.73 78.8267 180.37 79.4C180.01 79.96 179.496 80.4067 178.83 80.74C178.163 81.0733 177.37 81.24 176.45 81.24ZM182.313 84.04V83.1H184.633V67.78H182.313V66.84H185.873V84.04H182.313Z" fill="black"/>
<path d="M151.223 165L148.523 155.28H150.203L151.643 160.9C151.75 161.353 151.85 161.807 151.943 162.26C152.036 162.7 152.13 163.147 152.223 163.6H152.303C152.41 163.147 152.516 162.7 152.623 162.26C152.73 161.807 152.843 161.353 152.963 160.9L154.463 155.28H156.063L157.583 160.9C157.703 161.353 157.816 161.807 157.923 162.26C158.043 162.7 158.156 163.147 158.263 163.6H158.343C158.45 163.147 158.55 162.7 158.643 162.26C158.75 161.807 158.85 161.353 158.943 160.9L160.363 155.28H161.923L159.323 165H157.323L155.923 159.78C155.803 159.313 155.69 158.853 155.583 158.4C155.49 157.947 155.383 157.473 155.263 156.98H155.183C155.076 157.473 154.97 157.953 154.863 158.42C154.756 158.873 154.636 159.333 154.503 159.8L153.143 165H151.223ZM164.038 165V155.28H165.678V165H164.038ZM164.878 153.28C164.558 153.28 164.292 153.187 164.078 153C163.878 152.8 163.778 152.533 163.778 152.2C163.778 151.88 163.878 151.62 164.078 151.42C164.292 151.22 164.558 151.12 164.878 151.12C165.198 151.12 165.458 151.22 165.658 151.42C165.872 151.62 165.978 151.88 165.978 152.2C165.978 152.533 165.872 152.8 165.658 153C165.458 153.187 165.198 153.28 164.878 153.28ZM172.02 165.24C170.98 165.24 170.254 164.94 169.84 164.34C169.44 163.74 169.24 162.96 169.24 162V156.62H167.8V155.38L169.32 155.28L169.52 152.56H170.9V155.28H173.52V156.62H170.9V162.02C170.9 162.62 171.007 163.087 171.22 163.42C171.447 163.74 171.84 163.9 172.4 163.9C172.574 163.9 172.76 163.873 172.96 163.82C173.16 163.753 173.34 163.693 173.5 163.64L173.82 164.88C173.554 164.973 173.26 165.053 172.94 165.12C172.634 165.2 172.327 165.24 172.02 165.24ZM175.718 165V150.76H177.358V154.64L177.298 156.64C177.765 156.2 178.251 155.827 178.758 155.52C179.278 155.2 179.871 155.04 180.538 155.04C181.565 155.04 182.311 155.367 182.778 156.02C183.258 156.66 183.498 157.6 183.498 158.84V165H181.858V159.06C181.858 158.153 181.711 157.493 181.418 157.08C181.125 156.667 180.658 156.46 180.018 156.46C179.525 156.46 179.078 156.587 178.678 156.84C178.291 157.093 177.851 157.467 177.358 157.96V165H175.718Z" fill="black"/>
<path d="M166.51 249.24C166.176 249.24 165.89 249.127 165.65 248.9C165.423 248.66 165.31 248.36 165.31 248C165.31 247.613 165.423 247.307 165.65 247.08C165.89 246.84 166.176 246.72 166.51 246.72C166.83 246.72 167.103 246.84 167.33 247.08C167.57 247.307 167.69 247.613 167.69 248C167.69 248.36 167.57 248.66 167.33 248.9C167.103 249.127 166.83 249.24 166.51 249.24Z" fill="black"/>
<path d="M310.607 165.24C309.993 165.24 309.547 165.053 309.267 164.68C309 164.293 308.867 163.747 308.867 163.04V150.76H310.507V163.16C310.507 163.413 310.553 163.6 310.647 163.72C310.74 163.827 310.847 163.88 310.967 163.88C311.02 163.88 311.067 163.88 311.107 163.88C311.16 163.867 311.233 163.853 311.327 163.84L311.547 165.08C311.44 165.133 311.313 165.173 311.167 165.2C311.02 165.227 310.833 165.24 310.607 165.24ZM317.744 165.24C316.958 165.24 316.218 165.04 315.524 164.64C314.844 164.24 314.291 163.66 313.864 162.9C313.451 162.14 313.244 161.227 313.244 160.16C313.244 159.067 313.451 158.14 313.864 157.38C314.291 156.62 314.844 156.04 315.524 155.64C316.218 155.24 316.958 155.04 317.744 155.04C318.544 155.04 319.284 155.24 319.964 155.64C320.644 156.04 321.191 156.62 321.604 157.38C322.031 158.14 322.244 159.067 322.244 160.16C322.244 161.227 322.031 162.14 321.604 162.9C321.191 163.66 320.644 164.24 319.964 164.64C319.284 165.04 318.544 165.24 317.744 165.24ZM317.744 163.88C318.584 163.88 319.258 163.54 319.764 162.86C320.284 162.167 320.544 161.267 320.544 160.16C320.544 159.04 320.284 158.133 319.764 157.44C319.258 156.747 318.584 156.4 317.744 156.4C316.918 156.4 316.244 156.747 315.724 157.44C315.204 158.133 314.944 159.04 314.944 160.16C314.944 161.267 315.204 162.167 315.724 162.86C316.244 163.54 316.918 163.88 317.744 163.88ZM327.532 165.24C326.492 165.24 325.765 164.94 325.352 164.34C324.952 163.74 324.752 162.96 324.752 162V156.62H323.312V155.38L324.832 155.28L325.032 152.56H326.412V155.28H329.032V156.62H326.412V162.02C326.412 162.62 326.519 163.087 326.732 163.42C326.959 163.74 327.352 163.9 327.912 163.9C328.085 163.9 328.272 163.873 328.472 163.82C328.672 163.753 328.852 163.693 329.012 163.64L329.332 164.88C329.065 164.973 328.772 165.053 328.452 165.12C328.145 165.2 327.839 165.24 327.532 165.24ZM333.575 165.24C332.881 165.24 332.221 165.113 331.595 164.86C330.968 164.593 330.421 164.273 329.955 163.9L330.775 162.8C331.201 163.133 331.641 163.413 332.095 163.64C332.548 163.853 333.061 163.96 333.635 163.96C334.275 163.96 334.755 163.813 335.075 163.52C335.395 163.213 335.555 162.853 335.555 162.44C335.555 162.107 335.441 161.827 335.215 161.6C335.001 161.373 334.721 161.187 334.375 161.04C334.041 160.88 333.695 160.733 333.335 160.6C332.881 160.427 332.435 160.233 331.995 160.02C331.555 159.793 331.195 159.507 330.915 159.16C330.635 158.8 330.495 158.347 330.495 157.8C330.495 157.013 330.788 156.36 331.375 155.84C331.975 155.307 332.801 155.04 333.855 155.04C334.455 155.04 335.015 155.147 335.535 155.36C336.055 155.573 336.501 155.833 336.875 156.14L336.075 157.18C335.741 156.927 335.395 156.72 335.035 156.56C334.675 156.4 334.281 156.32 333.855 156.32C333.241 156.32 332.788 156.46 332.495 156.74C332.215 157.02 332.075 157.347 332.075 157.72C332.075 158.027 332.175 158.28 332.375 158.48C332.575 158.667 332.835 158.833 333.155 158.98C333.475 159.113 333.815 159.253 334.175 159.4C334.641 159.573 335.101 159.773 335.555 160C336.008 160.213 336.381 160.507 336.675 160.88C336.981 161.24 337.135 161.727 337.135 162.34C337.135 162.86 336.995 163.34 336.715 163.78C336.448 164.22 336.048 164.573 335.515 164.84C334.995 165.107 334.348 165.24 333.575 165.24Z" fill="black"/>
<path d="M310.758 249V237.28H306.798V235.88H316.398V237.28H312.438V249H310.758ZM318.601 249V234.76H320.241V238.64L320.181 240.64C320.648 240.2 321.134 239.827 321.641 239.52C322.161 239.2 322.754 239.04 323.421 239.04C324.448 239.04 325.194 239.367 325.661 240.02C326.141 240.66 326.381 241.6 326.381 242.84V249H324.741V243.06C324.741 242.153 324.594 241.493 324.301 241.08C324.008 240.667 323.541 240.46 322.901 240.46C322.408 240.46 321.961 240.587 321.561 240.84C321.174 241.093 320.734 241.467 320.241 241.96V249H318.601ZM333.42 249.24C332.553 249.24 331.767 249.04 331.06 248.64C330.353 248.227 329.793 247.64 329.38 246.88C328.967 246.12 328.76 245.213 328.76 244.16C328.76 243.093 328.967 242.18 329.38 241.42C329.807 240.66 330.353 240.073 331.02 239.66C331.687 239.247 332.387 239.04 333.12 239.04C334.36 239.04 335.313 239.453 335.98 240.28C336.66 241.107 337 242.213 337 243.6C337 243.773 336.993 243.947 336.98 244.12C336.98 244.28 336.967 244.42 336.94 244.54H330.38C330.447 245.567 330.767 246.387 331.34 247C331.927 247.613 332.687 247.92 333.62 247.92C334.087 247.92 334.513 247.853 334.9 247.72C335.3 247.573 335.68 247.387 336.04 247.16L336.62 248.24C336.207 248.507 335.733 248.74 335.2 248.94C334.68 249.14 334.087 249.24 333.42 249.24ZM330.36 243.36H335.56C335.56 242.373 335.347 241.627 334.92 241.12C334.507 240.6 333.92 240.34 333.16 240.34C332.48 240.34 331.867 240.607 331.32 241.14C330.787 241.66 330.467 242.4 330.36 243.36Z" fill="black"/>
<path d="M452.116 249.24C451.303 249.24 450.623 249 450.076 248.52C449.543 248.027 449.276 247.347 449.276 246.48C449.276 245.413 449.75 244.6 450.696 244.04C451.656 243.467 453.17 243.067 455.236 242.84C455.236 242.427 455.176 242.033 455.056 241.66C454.95 241.287 454.75 240.987 454.456 240.76C454.176 240.52 453.77 240.4 453.236 240.4C452.676 240.4 452.15 240.507 451.656 240.72C451.163 240.933 450.723 241.173 450.336 241.44L449.696 240.3C450.15 240.007 450.703 239.727 451.356 239.46C452.023 239.18 452.743 239.04 453.516 239.04C454.703 239.04 455.563 239.407 456.096 240.14C456.63 240.86 456.896 241.827 456.896 243.04V249H455.536L455.396 247.84H455.336C454.883 248.213 454.383 248.54 453.836 248.82C453.303 249.1 452.73 249.24 452.116 249.24ZM452.596 247.92C453.063 247.92 453.503 247.807 453.916 247.58C454.33 247.353 454.77 247.033 455.236 246.62V243.92C453.623 244.12 452.49 244.42 451.836 244.82C451.196 245.22 450.876 245.733 450.876 246.36C450.876 246.907 451.043 247.307 451.376 247.56C451.71 247.8 452.116 247.92 452.596 247.92ZM459.954 249V239.28H461.314L461.454 240.68H461.514C461.981 240.213 462.474 239.827 462.994 239.52C463.514 239.2 464.108 239.04 464.774 239.04C465.801 239.04 466.548 239.367 467.014 240.02C467.494 240.66 467.734 241.6 467.734 242.84V249H466.094V243.06C466.094 242.153 465.948 241.493 465.654 241.08C465.361 240.667 464.894 240.46 464.254 240.46C463.761 240.46 463.314 240.587 462.914 240.84C462.528 241.093 462.088 241.467 461.594 241.96V249H459.954ZM473.432 249.24C472.739 249.24 472.079 249.113 471.452 248.86C470.825 248.593 470.279 248.273 469.812 247.9L470.632 246.8C471.059 247.133 471.499 247.413 471.952 247.64C472.405 247.853 472.919 247.96 473.492 247.96C474.132 247.96 474.612 247.813 474.932 247.52C475.252 247.213 475.412 246.853 475.412 246.44C475.412 246.107 475.299 245.827 475.072 245.6C474.859 245.373 474.579 245.187 474.232 245.04C473.899 244.88 473.552 244.733 473.192 244.6C472.739 244.427 472.292 244.233 471.852 244.02C471.412 243.793 471.052 243.507 470.772 243.16C470.492 242.8 470.352 242.347 470.352 241.8C470.352 241.013 470.645 240.36 471.232 239.84C471.832 239.307 472.659 239.04 473.712 239.04C474.312 239.04 474.872 239.147 475.392 239.36C475.912 239.573 476.359 239.833 476.732 240.14L475.932 241.18C475.599 240.927 475.252 240.72 474.892 240.56C474.532 240.4 474.139 240.32 473.712 240.32C473.099 240.32 472.645 240.46 472.352 240.74C472.072 241.02 471.932 241.347 471.932 241.72C471.932 242.027 472.032 242.28 472.232 242.48C472.432 242.667 472.692 242.833 473.012 242.98C473.332 243.113 473.672 243.253 474.032 243.4C474.499 243.573 474.959 243.773 475.412 244C475.865 244.213 476.239 244.507 476.532 244.88C476.839 245.24 476.992 245.727 476.992 246.34C476.992 246.86 476.852 247.34 476.572 247.78C476.305 248.22 475.905 248.573 475.372 248.84C474.852 249.107 474.205 249.24 473.432 249.24ZM480.811 249L478.111 239.28H479.791L481.231 244.9C481.338 245.353 481.438 245.807 481.531 246.26C481.624 246.7 481.718 247.147 481.811 247.6H481.891C481.998 247.147 482.104 246.7 482.211 246.26C482.318 245.807 482.431 245.353 482.551 244.9L484.051 239.28H485.651L487.171 244.9C487.291 245.353 487.404 245.807 487.511 246.26C487.631 246.7 487.744 247.147 487.851 247.6H487.931C488.038 247.147 488.138 246.7 488.231 246.26C488.338 245.807 488.438 245.353 488.531 244.9L489.951 239.28H491.511L488.911 249H486.911L485.511 243.78C485.391 243.313 485.278 242.853 485.171 242.4C485.078 241.947 484.971 241.473 484.851 240.98H484.771C484.664 241.473 484.558 241.953 484.451 242.42C484.344 242.873 484.224 243.333 484.091 243.8L482.731 249H480.811ZM497.488 249.24C496.622 249.24 495.835 249.04 495.128 248.64C494.422 248.227 493.862 247.64 493.448 246.88C493.035 246.12 492.828 245.213 492.828 244.16C492.828 243.093 493.035 242.18 493.448 241.42C493.875 240.66 494.422 240.073 495.088 239.66C495.755 239.247 496.455 239.04 497.188 239.04C498.428 239.04 499.382 239.453 500.048 240.28C500.728 241.107 501.068 242.213 501.068 243.6C501.068 243.773 501.062 243.947 501.048 244.12C501.048 244.28 501.035 244.42 501.008 244.54H494.448C494.515 245.567 494.835 246.387 495.408 247C495.995 247.613 496.755 247.92 497.688 247.92C498.155 247.92 498.582 247.853 498.968 247.72C499.368 247.573 499.748 247.387 500.108 247.16L500.688 248.24C500.275 248.507 499.802 248.74 499.268 248.94C498.748 249.14 498.155 249.24 497.488 249.24ZM494.428 243.36H499.628C499.628 242.373 499.415 241.627 498.988 241.12C498.575 240.6 497.988 240.34 497.228 240.34C496.548 240.34 495.935 240.607 495.388 241.14C494.855 241.66 494.535 242.4 494.428 243.36ZM503.47 249V239.28H504.83L504.97 241.04H505.03C505.363 240.427 505.77 239.94 506.25 239.58C506.73 239.22 507.243 239.04 507.79 239.04C508.177 239.04 508.523 239.107 508.83 239.24L508.51 240.68C508.35 240.627 508.203 240.587 508.07 240.56C507.937 240.533 507.77 240.52 507.57 240.52C507.157 240.52 506.723 240.687 506.27 241.02C505.83 241.353 505.443 241.933 505.11 242.76V249H503.47Z" fill="black"/>
<path d="M627.99 249V239.28H629.63V249H627.99ZM628.83 237.28C628.51 237.28 628.243 237.187 628.03 237C627.83 236.8 627.73 236.533 627.73 236.2C627.73 235.88 627.83 235.62 628.03 235.42C628.243 235.22 628.51 235.12 628.83 235.12C629.15 235.12 629.41 235.22 629.61 235.42C629.823 235.62 629.93 235.88 629.93 236.2C629.93 236.533 629.823 236.8 629.61 237C629.41 237.187 629.15 237.28 628.83 237.28ZM635.451 249.24C634.758 249.24 634.098 249.113 633.471 248.86C632.845 248.593 632.298 248.273 631.831 247.9L632.651 246.8C633.078 247.133 633.518 247.413 633.971 247.64C634.425 247.853 634.938 247.96 635.511 247.96C636.151 247.96 636.631 247.813 636.951 247.52C637.271 247.213 637.431 246.853 637.431 246.44C637.431 246.107 637.318 245.827 637.091 245.6C636.878 245.373 636.598 245.187 636.251 245.04C635.918 244.88 635.571 244.733 635.211 244.6C634.758 244.427 634.311 244.233 633.871 244.02C633.431 243.793 633.071 243.507 632.791 243.16C632.511 242.8 632.371 242.347 632.371 241.8C632.371 241.013 632.665 240.36 633.251 239.84C633.851 239.307 634.678 239.04 635.731 239.04C636.331 239.04 636.891 239.147 637.411 239.36C637.931 239.573 638.378 239.833 638.751 240.14L637.951 241.18C637.618 240.927 637.271 240.72 636.911 240.56C636.551 240.4 636.158 240.32 635.731 240.32C635.118 240.32 634.665 240.46 634.371 240.74C634.091 241.02 633.951 241.347 633.951 241.72C633.951 242.027 634.051 242.28 634.251 242.48C634.451 242.667 634.711 242.833 635.031 242.98C635.351 243.113 635.691 243.253 636.051 243.4C636.518 243.573 636.978 243.773 637.431 244C637.885 244.213 638.258 244.507 638.551 244.88C638.858 245.24 639.011 245.727 639.011 246.34C639.011 246.86 638.871 247.34 638.591 247.78C638.325 248.22 637.925 248.573 637.391 248.84C636.871 249.107 636.225 249.24 635.451 249.24Z" fill="black"/>
<path d="M771.91 249V234.76H773.55V238.64L773.49 240.64C773.956 240.2 774.443 239.827 774.95 239.52C775.47 239.2 776.063 239.04 776.73 239.04C777.756 239.04 778.503 239.367 778.97 240.02C779.45 240.66 779.69 241.6 779.69 242.84V249H778.05V243.06C778.05 242.153 777.903 241.493 777.61 241.08C777.316 240.667 776.85 240.46 776.21 240.46C775.716 240.46 775.27 240.587 774.87 240.84C774.483 241.093 774.043 241.467 773.55 241.96V249H771.91ZM786.728 249.24C785.862 249.24 785.075 249.04 784.368 248.64C783.662 248.227 783.102 247.64 782.688 246.88C782.275 246.12 782.068 245.213 782.068 244.16C782.068 243.093 782.275 242.18 782.688 241.42C783.115 240.66 783.662 240.073 784.328 239.66C784.995 239.247 785.695 239.04 786.428 239.04C787.668 239.04 788.622 239.453 789.288 240.28C789.968 241.107 790.308 242.213 790.308 243.6C790.308 243.773 790.302 243.947 790.288 244.12C790.288 244.28 790.275 244.42 790.248 244.54H783.688C783.755 245.567 784.075 246.387 784.648 247C785.235 247.613 785.995 247.92 786.928 247.92C787.395 247.92 787.822 247.853 788.208 247.72C788.608 247.573 788.988 247.387 789.348 247.16L789.928 248.24C789.515 248.507 789.042 248.74 788.508 248.94C787.988 249.14 787.395 249.24 786.728 249.24ZM783.668 243.36H788.868C788.868 242.373 788.655 241.627 788.228 241.12C787.815 240.6 787.228 240.34 786.468 240.34C785.788 240.34 785.175 240.607 784.628 241.14C784.095 241.66 783.775 242.4 783.668 243.36ZM792.71 249V239.28H794.07L794.21 241.04H794.27C794.604 240.427 795.01 239.94 795.49 239.58C795.97 239.22 796.484 239.04 797.03 239.04C797.417 239.04 797.764 239.107 798.07 239.24L797.75 240.68C797.59 240.627 797.444 240.587 797.31 240.56C797.177 240.533 797.01 240.52 796.81 240.52C796.397 240.52 795.964 240.687 795.51 241.02C795.07 241.353 794.684 241.933 794.35 242.76V249H792.71ZM803.389 249.24C802.522 249.24 801.735 249.04 801.029 248.64C800.322 248.227 799.762 247.64 799.349 246.88C798.935 246.12 798.729 245.213 798.729 244.16C798.729 243.093 798.935 242.18 799.349 241.42C799.775 240.66 800.322 240.073 800.989 239.66C801.655 239.247 802.355 239.04 803.089 239.04C804.329 239.04 805.282 239.453 805.949 240.28C806.629 241.107 806.969 242.213 806.969 243.6C806.969 243.773 806.962 243.947 806.949 244.12C806.949 244.28 806.935 244.42 806.909 244.54H800.349C800.415 245.567 800.735 246.387 801.309 247C801.895 247.613 802.655 247.92 803.589 247.92C804.055 247.92 804.482 247.853 804.869 247.72C805.269 247.573 805.649 247.387 806.009 247.16L806.589 248.24C806.175 248.507 805.702 248.74 805.169 248.94C804.649 249.14 804.055 249.24 803.389 249.24ZM800.329 243.36H805.529C805.529 242.373 805.315 241.627 804.889 241.12C804.475 240.6 803.889 240.34 803.129 240.34C802.449 240.34 801.835 240.607 801.289 241.14C800.755 241.66 800.435 242.4 800.329 243.36Z" fill="black"/>
<path d="M926.319 249.24C925.625 249.24 924.965 249.113 924.339 248.86C923.712 248.593 923.165 248.273 922.699 247.9L923.519 246.8C923.945 247.133 924.385 247.413 924.839 247.64C925.292 247.853 925.805 247.96 926.379 247.96C927.019 247.96 927.499 247.813 927.819 247.52C928.139 247.213 928.299 246.853 928.299 246.44C928.299 246.107 928.185 245.827 927.959 245.6C927.745 245.373 927.465 245.187 927.119 245.04C926.785 244.88 926.439 244.733 926.079 244.6C925.625 244.427 925.179 244.233 924.739 244.02C924.299 243.793 923.939 243.507 923.659 243.16C923.379 242.8 923.239 242.347 923.239 241.8C923.239 241.013 923.532 240.36 924.119 239.84C924.719 239.307 925.545 239.04 926.599 239.04C927.199 239.04 927.759 239.147 928.279 239.36C928.799 239.573 929.245 239.833 929.619 240.14L928.819 241.18C928.485 240.927 928.139 240.72 927.779 240.56C927.419 240.4 927.025 240.32 926.599 240.32C925.985 240.32 925.532 240.46 925.239 240.74C924.959 241.02 924.819 241.347 924.819 241.72C924.819 242.027 924.919 242.28 925.119 242.48C925.319 242.667 925.579 242.833 925.899 242.98C926.219 243.113 926.559 243.253 926.919 243.4C927.385 243.573 927.845 243.773 928.299 244C928.752 244.213 929.125 244.507 929.419 244.88C929.725 245.24 929.879 245.727 929.879 246.34C929.879 246.86 929.739 247.34 929.459 247.78C929.192 248.22 928.792 248.573 928.259 248.84C927.739 249.107 927.092 249.24 926.319 249.24ZM935.938 249.24C935.151 249.24 934.411 249.04 933.718 248.64C933.038 248.24 932.484 247.66 932.058 246.9C931.644 246.14 931.438 245.227 931.438 244.16C931.438 243.067 931.644 242.14 932.058 241.38C932.484 240.62 933.038 240.04 933.718 239.64C934.411 239.24 935.151 239.04 935.938 239.04C936.738 239.04 937.478 239.24 938.158 239.64C938.838 240.04 939.384 240.62 939.798 241.38C940.224 242.14 940.438 243.067 940.438 244.16C940.438 245.227 940.224 246.14 939.798 246.9C939.384 247.66 938.838 248.24 938.158 248.64C937.478 249.04 936.738 249.24 935.938 249.24ZM935.938 247.88C936.778 247.88 937.451 247.54 937.958 246.86C938.478 246.167 938.738 245.267 938.738 244.16C938.738 243.04 938.478 242.133 937.958 241.44C937.451 240.747 936.778 240.4 935.938 240.4C935.111 240.4 934.438 240.747 933.918 241.44C933.398 242.133 933.138 243.04 933.138 244.16C933.138 245.267 933.398 246.167 933.918 246.86C934.438 247.54 935.111 247.88 935.938 247.88ZM942.997 249V239.28H944.357L944.497 240.68H944.557C944.984 240.213 945.451 239.827 945.957 239.52C946.464 239.2 947.004 239.04 947.577 239.04C948.324 239.04 948.904 239.207 949.317 239.54C949.744 239.86 950.057 240.313 950.257 240.9C950.764 240.353 951.277 239.907 951.797 239.56C952.317 239.213 952.871 239.04 953.457 239.04C954.457 239.04 955.197 239.367 955.677 240.02C956.171 240.66 956.417 241.6 956.417 242.84V249H954.777V243.06C954.777 242.153 954.631 241.493 954.337 241.08C954.044 240.667 953.591 240.46 952.977 240.46C952.257 240.46 951.444 240.96 950.537 241.96V249H948.897V243.06C948.897 242.153 948.751 241.493 948.457 241.08C948.164 240.667 947.704 240.46 947.077 240.46C946.357 240.46 945.544 240.96 944.637 241.96V249H942.997ZM963.519 249.24C962.653 249.24 961.866 249.04 961.159 248.64C960.453 248.227 959.893 247.64 959.479 246.88C959.066 246.12 958.859 245.213 958.859 244.16C958.859 243.093 959.066 242.18 959.479 241.42C959.906 240.66 960.453 240.073 961.119 239.66C961.786 239.247 962.486 239.04 963.219 239.04C964.459 239.04 965.413 239.453 966.079 240.28C966.759 241.107 967.099 242.213 967.099 243.6C967.099 243.773 967.093 243.947 967.079 244.12C967.079 244.28 967.066 244.42 967.039 244.54H960.479C960.546 245.567 960.866 246.387 961.439 247C962.026 247.613 962.786 247.92 963.719 247.92C964.186 247.92 964.613 247.853 964.999 247.72C965.399 247.573 965.779 247.387 966.139 247.16L966.719 248.24C966.306 248.507 965.833 248.74 965.299 248.94C964.779 249.14 964.186 249.24 963.519 249.24ZM960.459 243.36H965.659C965.659 242.373 965.446 241.627 965.019 241.12C964.606 240.6 964.019 240.34 963.259 240.34C962.579 240.34 961.966 240.607 961.419 241.14C960.886 241.66 960.566 242.4 960.459 243.36Z" fill="black"/>
<path d="M1081.1 249V239.28H1082.46L1082.6 240.68H1082.66C1083.09 240.213 1083.55 239.827 1084.06 239.52C1084.57 239.2 1085.11 239.04 1085.68 239.04C1086.43 239.04 1087.01 239.207 1087.42 239.54C1087.85 239.86 1088.16 240.313 1088.36 240.9C1088.87 240.353 1089.38 239.907 1089.9 239.56C1090.42 239.213 1090.97 239.04 1091.56 239.04C1092.56 239.04 1093.3 239.367 1093.78 240.02C1094.27 240.66 1094.52 241.6 1094.52 242.84V249H1092.88V243.06C1092.88 242.153 1092.73 241.493 1092.44 241.08C1092.15 240.667 1091.69 240.46 1091.08 240.46C1090.36 240.46 1089.55 240.96 1088.64 241.96V249H1087V243.06C1087 242.153 1086.85 241.493 1086.56 241.08C1086.27 240.667 1085.81 240.46 1085.18 240.46C1084.46 240.46 1083.65 240.96 1082.74 241.96V249H1081.1ZM1101.46 249.24C1100.67 249.24 1099.93 249.04 1099.24 248.64C1098.56 248.24 1098.01 247.66 1097.58 246.9C1097.17 246.14 1096.96 245.227 1096.96 244.16C1096.96 243.067 1097.17 242.14 1097.58 241.38C1098.01 240.62 1098.56 240.04 1099.24 239.64C1099.93 239.24 1100.67 239.04 1101.46 239.04C1102.26 239.04 1103 239.24 1103.68 239.64C1104.36 240.04 1104.91 240.62 1105.32 241.38C1105.75 242.14 1105.96 243.067 1105.96 244.16C1105.96 245.227 1105.75 246.14 1105.32 246.9C1104.91 247.66 1104.36 248.24 1103.68 248.64C1103 249.04 1102.26 249.24 1101.46 249.24ZM1101.46 247.88C1102.3 247.88 1102.97 247.54 1103.48 246.86C1104 246.167 1104.26 245.267 1104.26 244.16C1104.26 243.04 1104 242.133 1103.48 241.44C1102.97 240.747 1102.3 240.4 1101.46 240.4C1100.63 240.4 1099.96 240.747 1099.44 241.44C1098.92 242.133 1098.66 243.04 1098.66 244.16C1098.66 245.267 1098.92 246.167 1099.44 246.86C1099.96 247.54 1100.63 247.88 1101.46 247.88ZM1108.52 249V239.28H1109.88L1110.02 241.04H1110.08C1110.41 240.427 1110.82 239.94 1111.3 239.58C1111.78 239.22 1112.29 239.04 1112.84 239.04C1113.23 239.04 1113.57 239.107 1113.88 239.24L1113.56 240.68C1113.4 240.627 1113.25 240.587 1113.12 240.56C1112.99 240.533 1112.82 240.52 1112.62 240.52C1112.21 240.52 1111.77 240.687 1111.32 241.02C1110.88 241.353 1110.49 241.933 1110.16 242.76V249H1108.52ZM1119.2 249.24C1118.33 249.24 1117.55 249.04 1116.84 248.64C1116.13 248.227 1115.57 247.64 1115.16 246.88C1114.75 246.12 1114.54 245.213 1114.54 244.16C1114.54 243.093 1114.75 242.18 1115.16 241.42C1115.59 240.66 1116.13 240.073 1116.8 239.66C1117.47 239.247 1118.17 239.04 1118.9 239.04C1120.14 239.04 1121.09 239.453 1121.76 240.28C1122.44 241.107 1122.78 242.213 1122.78 243.6C1122.78 243.773 1122.77 243.947 1122.76 244.12C1122.76 244.28 1122.75 244.42 1122.72 244.54H1116.16C1116.23 245.567 1116.55 246.387 1117.12 247C1117.71 247.613 1118.47 247.92 1119.4 247.92C1119.87 247.92 1120.29 247.853 1120.68 247.72C1121.08 247.573 1121.46 247.387 1121.82 247.16L1122.4 248.24C1121.99 248.507 1121.51 248.74 1120.98 248.94C1120.46 249.14 1119.87 249.24 1119.2 249.24ZM1116.14 243.36H1121.34C1121.34 242.373 1121.13 241.627 1120.7 241.12C1120.29 240.6 1119.7 240.34 1118.94 240.34C1118.26 240.34 1117.65 240.607 1117.1 241.14C1116.57 241.66 1116.25 242.4 1116.14 243.36Z" fill="black"/>
<path d="M1234.52 249L1231.82 239.28H1233.5L1234.94 244.9C1235.04 245.353 1235.14 245.807 1235.24 246.26C1235.33 246.7 1235.42 247.147 1235.52 247.6H1235.6C1235.7 247.147 1235.81 246.7 1235.92 246.26C1236.02 245.807 1236.14 245.353 1236.26 244.9L1237.76 239.28H1239.36L1240.88 244.9C1241 245.353 1241.11 245.807 1241.22 246.26C1241.34 246.7 1241.45 247.147 1241.56 247.6H1241.64C1241.74 247.147 1241.84 246.7 1241.94 246.26C1242.04 245.807 1242.14 245.353 1242.24 244.9L1243.66 239.28H1245.22L1242.62 249H1240.62L1239.22 243.78C1239.1 243.313 1238.98 242.853 1238.88 242.4C1238.78 241.947 1238.68 241.473 1238.56 240.98H1238.48C1238.37 241.473 1238.26 241.953 1238.16 242.42C1238.05 242.873 1237.93 243.333 1237.8 243.8L1236.44 249H1234.52ZM1251.03 249.24C1250.25 249.24 1249.51 249.04 1248.81 248.64C1248.13 248.24 1247.58 247.66 1247.15 246.9C1246.74 246.14 1246.53 245.227 1246.53 244.16C1246.53 243.067 1246.74 242.14 1247.15 241.38C1247.58 240.62 1248.13 240.04 1248.81 239.64C1249.51 239.24 1250.25 239.04 1251.03 239.04C1251.83 239.04 1252.57 239.24 1253.25 239.64C1253.93 240.04 1254.48 240.62 1254.89 241.38C1255.32 242.14 1255.53 243.067 1255.53 244.16C1255.53 245.227 1255.32 246.14 1254.89 246.9C1254.48 247.66 1253.93 248.24 1253.25 248.64C1252.57 249.04 1251.83 249.24 1251.03 249.24ZM1251.03 247.88C1251.87 247.88 1252.55 247.54 1253.05 246.86C1253.57 246.167 1253.83 245.267 1253.83 244.16C1253.83 243.04 1253.57 242.133 1253.05 241.44C1252.55 240.747 1251.87 240.4 1251.03 240.4C1250.21 240.4 1249.53 240.747 1249.01 241.44C1248.49 242.133 1248.23 243.04 1248.23 244.16C1248.23 245.267 1248.49 246.167 1249.01 246.86C1249.53 247.54 1250.21 247.88 1251.03 247.88ZM1258.09 249V239.28H1259.45L1259.59 241.04H1259.65C1259.99 240.427 1260.39 239.94 1260.87 239.58C1261.35 239.22 1261.87 239.04 1262.41 239.04C1262.8 239.04 1263.15 239.107 1263.45 239.24L1263.13 240.68C1262.97 240.627 1262.83 240.587 1262.69 240.56C1262.56 240.533 1262.39 240.52 1262.19 240.52C1261.78 240.52 1261.35 240.687 1260.89 241.02C1260.45 241.353 1260.07 241.933 1259.73 242.76V249H1258.09ZM1268.15 249.24C1266.94 249.24 1265.96 248.8 1265.23 247.92C1264.5 247.027 1264.13 245.773 1264.13 244.16C1264.13 243.107 1264.32 242.2 1264.71 241.44C1265.11 240.667 1265.63 240.073 1266.27 239.66C1266.92 239.247 1267.62 239.04 1268.35 239.04C1268.91 239.04 1269.4 239.14 1269.81 239.34C1270.22 239.54 1270.64 239.813 1271.07 240.16L1270.99 238.5V234.76H1272.65V249H1271.29L1271.15 247.86H1271.09C1270.72 248.233 1270.28 248.56 1269.77 248.84C1269.26 249.107 1268.72 249.24 1268.15 249.24ZM1268.51 247.86C1269.36 247.86 1270.19 247.413 1270.99 246.52V241.44C1270.58 241.067 1270.18 240.807 1269.79 240.66C1269.42 240.5 1269.03 240.42 1268.63 240.42C1268.11 240.42 1267.64 240.58 1267.21 240.9C1266.8 241.207 1266.46 241.64 1266.21 242.2C1265.96 242.747 1265.83 243.393 1265.83 244.14C1265.83 245.3 1266.06 246.213 1266.53 246.88C1267 247.533 1267.66 247.86 1268.51 247.86ZM1278.47 249.24C1277.77 249.24 1277.11 249.113 1276.49 248.86C1275.86 248.593 1275.31 248.273 1274.85 247.9L1275.67 246.8C1276.09 247.133 1276.53 247.413 1276.99 247.64C1277.44 247.853 1277.95 247.96 1278.53 247.96C1279.17 247.96 1279.65 247.813 1279.97 247.52C1280.29 247.213 1280.45 246.853 1280.45 246.44C1280.45 246.107 1280.33 245.827 1280.11 245.6C1279.89 245.373 1279.61 245.187 1279.27 245.04C1278.93 244.88 1278.59 244.733 1278.23 244.6C1277.77 244.427 1277.33 244.233 1276.89 244.02C1276.45 243.793 1276.09 243.507 1275.81 243.16C1275.53 242.8 1275.39 242.347 1275.39 241.8C1275.39 241.013 1275.68 240.36 1276.27 239.84C1276.87 239.307 1277.69 239.04 1278.75 239.04C1279.35 239.04 1279.91 239.147 1280.43 239.36C1280.95 239.573 1281.39 239.833 1281.77 240.14L1280.97 241.18C1280.63 240.927 1280.29 240.72 1279.93 240.56C1279.57 240.4 1279.17 240.32 1278.75 240.32C1278.13 240.32 1277.68 240.46 1277.39 240.74C1277.11 241.02 1276.97 241.347 1276.97 241.72C1276.97 242.027 1277.07 242.28 1277.27 242.48C1277.47 242.667 1277.73 242.833 1278.05 242.98C1278.37 243.113 1278.71 243.253 1279.07 243.4C1279.53 243.573 1279.99 243.773 1280.45 244C1280.9 244.213 1281.27 244.507 1281.57 244.88C1281.87 245.24 1282.03 245.727 1282.03 246.34C1282.03 246.86 1281.89 247.34 1281.61 247.78C1281.34 248.22 1280.94 248.573 1280.41 248.84C1279.89 249.107 1279.24 249.24 1278.47 249.24Z" fill="black"/>
<path d="M1413.51 249.24C1413.18 249.24 1412.89 249.127 1412.65 248.9C1412.42 248.66 1412.31 248.36 1412.31 248C1412.31 247.613 1412.42 247.307 1412.65 247.08C1412.89 246.84 1413.18 246.72 1413.51 246.72C1413.83 246.72 1414.1 246.84 1414.33 247.08C1414.57 247.307 1414.69 247.613 1414.69 248C1414.69 248.36 1414.57 248.66 1414.33 248.9C1414.1 249.127 1413.83 249.24 1413.51 249.24Z" fill="black"/>
<path d="M475.58 165.24C474.793 165.24 474.053 165.04 473.36 164.64C472.68 164.24 472.127 163.66 471.7 162.9C471.287 162.14 471.08 161.227 471.08 160.16C471.08 159.067 471.287 158.14 471.7 157.38C472.127 156.62 472.68 156.04 473.36 155.64C474.053 155.24 474.793 155.04 475.58 155.04C476.38 155.04 477.12 155.24 477.8 155.64C478.48 156.04 479.027 156.62 479.44 157.38C479.867 158.14 480.08 159.067 480.08 160.16C480.08 161.227 479.867 162.14 479.44 162.9C479.027 163.66 478.48 164.24 477.8 164.64C477.12 165.04 476.38 165.24 475.58 165.24ZM475.58 163.88C476.42 163.88 477.093 163.54 477.6 162.86C478.12 162.167 478.38 161.267 478.38 160.16C478.38 159.04 478.12 158.133 477.6 157.44C477.093 156.747 476.42 156.4 475.58 156.4C474.753 156.4 474.08 156.747 473.56 157.44C473.04 158.133 472.78 159.04 472.78 160.16C472.78 161.267 473.04 162.167 473.56 162.86C474.08 163.54 474.753 163.88 475.58 163.88ZM482.92 165V156.62H481.6V155.38L482.92 155.28V153.74C482.92 152.753 483.147 151.973 483.6 151.4C484.067 150.813 484.787 150.52 485.76 150.52C486.067 150.52 486.36 150.553 486.64 150.62C486.92 150.673 487.167 150.747 487.38 150.84L487.02 152.1C486.66 151.94 486.293 151.86 485.92 151.86C485.013 151.86 484.56 152.487 484.56 153.74V155.28H486.62V156.62H484.56V165H482.92Z" fill="black"/>
<path d="M618.968 165V155.28H620.608V165H618.968ZM619.808 153.28C619.488 153.28 619.221 153.187 619.008 153C618.808 152.8 618.708 152.533 618.708 152.2C618.708 151.88 618.808 151.62 619.008 151.42C619.221 151.22 619.488 151.12 619.808 151.12C620.128 151.12 620.388 151.22 620.588 151.42C620.801 151.62 620.908 151.88 620.908 152.2C620.908 152.533 620.801 152.8 620.588 153C620.388 153.187 620.128 153.28 619.808 153.28ZM623.89 165V155.28H625.25L625.39 156.68H625.45C625.917 156.213 626.41 155.827 626.93 155.52C627.45 155.2 628.043 155.04 628.71 155.04C629.737 155.04 630.483 155.367 630.95 156.02C631.43 156.66 631.67 157.6 631.67 158.84V165H630.03V159.06C630.03 158.153 629.883 157.493 629.59 157.08C629.297 156.667 628.83 156.46 628.19 156.46C627.697 156.46 627.25 156.587 626.85 156.84C626.463 157.093 626.023 157.467 625.53 157.96V165H623.89ZM635.108 165V156.62H633.788V155.38L635.108 155.28V153.74C635.108 152.753 635.334 151.973 635.788 151.4C636.254 150.813 636.974 150.52 637.948 150.52C638.254 150.52 638.548 150.553 638.828 150.62C639.108 150.673 639.354 150.747 639.568 150.84L639.208 152.1C638.848 151.94 638.481 151.86 638.108 151.86C637.201 151.86 636.748 152.487 636.748 153.74V155.28H638.808V156.62H636.748V165H635.108ZM644.252 165.24C643.465 165.24 642.725 165.04 642.032 164.64C641.352 164.24 640.799 163.66 640.372 162.9C639.959 162.14 639.752 161.227 639.752 160.16C639.752 159.067 639.959 158.14 640.372 157.38C640.799 156.62 641.352 156.04 642.032 155.64C642.725 155.24 643.465 155.04 644.252 155.04C645.052 155.04 645.792 155.24 646.472 155.64C647.152 156.04 647.699 156.62 648.112 157.38C648.539 158.14 648.752 159.067 648.752 160.16C648.752 161.227 648.539 162.14 648.112 162.9C647.699 163.66 647.152 164.24 646.472 164.64C645.792 165.04 645.052 165.24 644.252 165.24ZM644.252 163.88C645.092 163.88 645.765 163.54 646.272 162.86C646.792 162.167 647.052 161.267 647.052 160.16C647.052 159.04 646.792 158.133 646.272 157.44C645.765 156.747 645.092 156.4 644.252 156.4C643.425 156.4 642.752 156.747 642.232 157.44C641.712 158.133 641.452 159.04 641.452 160.16C641.452 161.267 641.712 162.167 642.232 162.86C642.752 163.54 643.425 163.88 644.252 163.88Z" fill="black"/>
<path d="M764.062 165L764.562 160.92H762.962V159.78H764.702L765.062 156.82H763.362V155.66H765.202L765.662 152H766.722L766.262 155.66H768.922L769.402 152H770.462L769.982 155.66H771.602V156.82H769.862L769.502 159.78H771.202V160.92H769.362L768.862 165H767.802L768.282 160.92H765.642L765.142 165H764.062ZM765.782 159.78H768.422L768.782 156.82H766.142L765.782 159.78ZM774.003 165L774.503 160.92H772.903V159.78H774.643L775.003 156.82H773.303V155.66H775.143L775.603 152H776.663L776.203 155.66H778.863L779.343 152H780.403L779.923 155.66H781.543V156.82H779.803L779.443 159.78H781.143V160.92H779.303L778.803 165H777.743L778.223 160.92H775.583L775.083 165H774.003ZM775.723 159.78H778.363L778.723 156.82H776.083L775.723 159.78ZM783.785 165V155.28H785.145L785.285 157.04H785.345C785.678 156.427 786.085 155.94 786.565 155.58C787.045 155.22 787.558 155.04 788.105 155.04C788.491 155.04 788.838 155.107 789.145 155.24L788.825 156.68C788.665 156.627 788.518 156.587 788.385 156.56C788.251 156.533 788.085 156.52 787.885 156.52C787.471 156.52 787.038 156.687 786.585 157.02C786.145 157.353 785.758 157.933 785.425 158.76V165H783.785ZM790.718 165V155.28H792.078L792.218 156.68H792.278C792.705 156.213 793.171 155.827 793.678 155.52C794.185 155.2 794.725 155.04 795.298 155.04C796.045 155.04 796.625 155.207 797.038 155.54C797.465 155.86 797.778 156.313 797.978 156.9C798.485 156.353 798.998 155.907 799.518 155.56C800.038 155.213 800.591 155.04 801.178 155.04C802.178 155.04 802.918 155.367 803.398 156.02C803.891 156.66 804.138 157.6 804.138 158.84V165H802.498V159.06C802.498 158.153 802.351 157.493 802.058 157.08C801.765 156.667 801.311 156.46 800.698 156.46C799.978 156.46 799.165 156.96 798.258 157.96V165H796.618V159.06C796.618 158.153 796.471 157.493 796.178 157.08C795.885 156.667 795.425 156.46 794.798 156.46C794.078 156.46 793.265 156.96 792.358 157.96V165H790.718ZM809.54 165.24C808.727 165.24 808.047 165 807.5 164.52C806.967 164.027 806.7 163.347 806.7 162.48C806.7 161.413 807.173 160.6 808.12 160.04C809.08 159.467 810.593 159.067 812.66 158.84C812.66 158.427 812.6 158.033 812.48 157.66C812.373 157.287 812.173 156.987 811.88 156.76C811.6 156.52 811.193 156.4 810.66 156.4C810.1 156.4 809.573 156.507 809.08 156.72C808.587 156.933 808.147 157.173 807.76 157.44L807.12 156.3C807.573 156.007 808.127 155.727 808.78 155.46C809.447 155.18 810.167 155.04 810.94 155.04C812.127 155.04 812.987 155.407 813.52 156.14C814.053 156.86 814.32 157.827 814.32 159.04V165H812.96L812.82 163.84H812.76C812.307 164.213 811.807 164.54 811.26 164.82C810.727 165.1 810.153 165.24 809.54 165.24ZM810.02 163.92C810.487 163.92 810.927 163.807 811.34 163.58C811.753 163.353 812.193 163.033 812.66 162.62V159.92C811.047 160.12 809.913 160.42 809.26 160.82C808.62 161.22 808.3 161.733 808.3 162.36C808.3 162.907 808.467 163.307 808.8 163.56C809.133 163.8 809.54 163.92 810.02 163.92Z" fill="black"/>
<path d="M920.13 165L920.63 160.92H919.03V159.78H920.77L921.13 156.82H919.43V155.66H921.27L921.73 152H922.79L922.33 155.66H924.99L925.47 152H926.53L926.05 155.66H927.67V156.82H925.93L925.57 159.78H927.27V160.92H925.43L924.93 165H923.87L924.35 160.92H921.71L921.21 165H920.13ZM921.85 159.78H924.49L924.85 156.82H922.21L921.85 159.78ZM930.071 165L930.571 160.92H928.971V159.78H930.711L931.071 156.82H929.371V155.66H931.211L931.671 152H932.731L932.271 155.66H934.931L935.411 152H936.471L935.991 155.66H937.611V156.82H935.871L935.511 159.78H937.211V160.92H935.371L934.871 165H933.811L934.291 160.92H931.651L931.151 165H930.071ZM931.791 159.78H934.431L934.791 156.82H932.151L931.791 159.78ZM942.913 165.24C941.873 165.24 941.146 164.94 940.733 164.34C940.333 163.74 940.133 162.96 940.133 162V156.62H938.693V155.38L940.213 155.28L940.413 152.56H941.793V155.28H944.413V156.62H941.793V162.02C941.793 162.62 941.9 163.087 942.113 163.42C942.34 163.74 942.733 163.9 943.293 163.9C943.466 163.9 943.653 163.873 943.853 163.82C944.053 163.753 944.233 163.693 944.393 163.64L944.713 164.88C944.446 164.973 944.153 165.053 943.833 165.12C943.526 165.2 943.22 165.24 942.913 165.24ZM946.611 165V155.28H948.251V165H946.611ZM947.451 153.28C947.131 153.28 946.864 153.187 946.651 153C946.451 152.8 946.351 152.533 946.351 152.2C946.351 151.88 946.451 151.62 946.651 151.42C946.864 151.22 947.131 151.12 947.451 151.12C947.771 151.12 948.031 151.22 948.231 151.42C948.444 151.62 948.551 151.88 948.551 152.2C948.551 152.533 948.444 152.8 948.231 153C948.031 153.187 947.771 153.28 947.451 153.28ZM955.313 165.24C954.526 165.24 953.786 165.04 953.093 164.64C952.413 164.24 951.859 163.66 951.433 162.9C951.019 162.14 950.813 161.227 950.813 160.16C950.813 159.067 951.019 158.14 951.433 157.38C951.859 156.62 952.413 156.04 953.093 155.64C953.786 155.24 954.526 155.04 955.313 155.04C956.113 155.04 956.853 155.24 957.533 155.64C958.213 156.04 958.759 156.62 959.173 157.38C959.599 158.14 959.813 159.067 959.813 160.16C959.813 161.227 959.599 162.14 959.173 162.9C958.759 163.66 958.213 164.24 957.533 164.64C956.853 165.04 956.113 165.24 955.313 165.24ZM955.313 163.88C956.153 163.88 956.826 163.54 957.333 162.86C957.853 162.167 958.113 161.267 958.113 160.16C958.113 159.04 957.853 158.133 957.333 157.44C956.826 156.747 956.153 156.4 955.313 156.4C954.486 156.4 953.813 156.747 953.293 157.44C952.773 158.133 952.513 159.04 952.513 160.16C952.513 161.267 952.773 162.167 953.293 162.86C953.813 163.54 954.486 163.88 955.313 163.88ZM962.372 165V155.28H963.732L963.872 156.68H963.932C964.399 156.213 964.892 155.827 965.412 155.52C965.932 155.2 966.526 155.04 967.192 155.04C968.219 155.04 968.966 155.367 969.432 156.02C969.912 156.66 970.152 157.6 970.152 158.84V165H968.512V159.06C968.512 158.153 968.366 157.493 968.072 157.08C967.779 156.667 967.312 156.46 966.672 156.46C966.179 156.46 965.732 156.587 965.332 156.84C964.946 157.093 964.506 157.467 964.012 157.96V165H962.372Z" fill="black"/>
<path d="M1101.51 165.24C1101.18 165.24 1100.89 165.127 1100.65 164.9C1100.42 164.66 1100.31 164.36 1100.31 164C1100.31 163.613 1100.42 163.307 1100.65 163.08C1100.89 162.84 1101.18 162.72 1101.51 162.72C1101.83 162.72 1102.1 162.84 1102.33 163.08C1102.57 163.307 1102.69 163.613 1102.69 164C1102.69 164.36 1102.57 164.66 1102.33 164.9C1102.1 165.127 1101.83 165.24 1101.51 165.24Z" fill="black"/>
<path d="M1238.93 165.24C1238.01 165.24 1237.15 165.067 1236.37 164.72C1235.58 164.36 1234.9 163.887 1234.33 163.3L1235.33 162.14C1235.79 162.633 1236.34 163.033 1236.97 163.34C1237.61 163.633 1238.27 163.78 1238.95 163.78C1239.81 163.78 1240.49 163.587 1240.97 163.2C1241.45 162.8 1241.69 162.28 1241.69 161.64C1241.69 161.187 1241.59 160.827 1241.39 160.56C1241.2 160.293 1240.94 160.067 1240.61 159.88C1240.29 159.693 1239.92 159.507 1239.51 159.32L1237.63 158.5C1237.21 158.327 1236.8 158.1 1236.39 157.82C1235.99 157.54 1235.65 157.18 1235.37 156.74C1235.1 156.3 1234.97 155.76 1234.97 155.12C1234.97 154.453 1235.14 153.86 1235.49 153.34C1235.85 152.807 1236.34 152.393 1236.97 152.1C1237.59 151.793 1238.3 151.64 1239.09 151.64C1239.87 151.64 1240.6 151.793 1241.27 152.1C1241.93 152.393 1242.5 152.78 1242.97 153.26L1242.07 154.34C1241.67 153.953 1241.22 153.653 1240.73 153.44C1240.25 153.213 1239.7 153.1 1239.09 153.1C1238.35 153.1 1237.76 153.273 1237.31 153.62C1236.87 153.967 1236.65 154.433 1236.65 155.02C1236.65 155.433 1236.75 155.78 1236.97 156.06C1237.19 156.327 1237.47 156.547 1237.81 156.72C1238.14 156.893 1238.48 157.053 1238.83 157.2L1240.69 158C1241.19 158.213 1241.65 158.473 1242.05 158.78C1242.46 159.073 1242.79 159.44 1243.03 159.88C1243.27 160.307 1243.39 160.847 1243.39 161.5C1243.39 162.193 1243.21 162.827 1242.85 163.4C1242.49 163.96 1241.97 164.407 1241.31 164.74C1240.64 165.073 1239.85 165.24 1238.93 165.24ZM1249.59 165.24C1248.8 165.24 1248.06 165.04 1247.37 164.64C1246.69 164.24 1246.14 163.66 1245.71 162.9C1245.3 162.14 1245.09 161.227 1245.09 160.16C1245.09 159.067 1245.3 158.14 1245.71 157.38C1246.14 156.62 1246.69 156.04 1247.37 155.64C1248.06 155.24 1248.8 155.04 1249.59 155.04C1250.39 155.04 1251.13 155.24 1251.81 155.64C1252.49 156.04 1253.04 156.62 1253.45 157.38C1253.88 158.14 1254.09 159.067 1254.09 160.16C1254.09 161.227 1253.88 162.14 1253.45 162.9C1253.04 163.66 1252.49 164.24 1251.81 164.64C1251.13 165.04 1250.39 165.24 1249.59 165.24ZM1249.59 163.88C1250.43 163.88 1251.1 163.54 1251.61 162.86C1252.13 162.167 1252.39 161.267 1252.39 160.16C1252.39 159.04 1252.13 158.133 1251.61 157.44C1251.1 156.747 1250.43 156.4 1249.59 156.4C1248.76 156.4 1248.09 156.747 1247.57 157.44C1247.05 158.133 1246.79 159.04 1246.79 160.16C1246.79 161.267 1247.05 162.167 1247.57 162.86C1248.09 163.54 1248.76 163.88 1249.59 163.88ZM1256.65 165V155.28H1258.01L1258.15 156.68H1258.21C1258.64 156.213 1259.1 155.827 1259.61 155.52C1260.12 155.2 1260.66 155.04 1261.23 155.04C1261.98 155.04 1262.56 155.207 1262.97 155.54C1263.4 155.86 1263.71 156.313 1263.91 156.9C1264.42 156.353 1264.93 155.907 1265.45 155.56C1265.97 155.213 1266.52 155.04 1267.11 155.04C1268.11 155.04 1268.85 155.367 1269.33 156.02C1269.82 156.66 1270.07 157.6 1270.07 158.84V165H1268.43V159.06C1268.43 158.153 1268.28 157.493 1267.99 157.08C1267.7 156.667 1267.24 156.46 1266.63 156.46C1265.91 156.46 1265.1 156.96 1264.19 157.96V165H1262.55V159.06C1262.55 158.153 1262.4 157.493 1262.11 157.08C1261.82 156.667 1261.36 156.46 1260.73 156.46C1260.01 156.46 1259.2 156.96 1258.29 157.96V165H1256.65ZM1277.17 165.24C1276.31 165.24 1275.52 165.04 1274.81 164.64C1274.11 164.227 1273.55 163.64 1273.13 162.88C1272.72 162.12 1272.51 161.213 1272.51 160.16C1272.51 159.093 1272.72 158.18 1273.13 157.42C1273.56 156.66 1274.11 156.073 1274.77 155.66C1275.44 155.247 1276.14 155.04 1276.87 155.04C1278.11 155.04 1279.07 155.453 1279.73 156.28C1280.41 157.107 1280.75 158.213 1280.75 159.6C1280.75 159.773 1280.75 159.947 1280.73 160.12C1280.73 160.28 1280.72 160.42 1280.69 160.54H1274.13C1274.2 161.567 1274.52 162.387 1275.09 163C1275.68 163.613 1276.44 163.92 1277.37 163.92C1277.84 163.92 1278.27 163.853 1278.65 163.72C1279.05 163.573 1279.43 163.387 1279.79 163.16L1280.37 164.24C1279.96 164.507 1279.49 164.74 1278.95 164.94C1278.43 165.14 1277.84 165.24 1277.17 165.24ZM1274.11 159.36H1279.31C1279.31 158.373 1279.1 157.627 1278.67 157.12C1278.26 156.6 1277.67 156.34 1276.91 156.34C1276.23 156.34 1275.62 156.607 1275.07 157.14C1274.54 157.66 1274.22 158.4 1274.11 159.36Z" fill="black"/>
<path d="M1402.89 165.24C1401.86 165.24 1401.11 164.92 1400.63 164.28C1400.15 163.627 1399.91 162.68 1399.91 161.44V155.28H1401.57V161.22C1401.57 162.127 1401.71 162.787 1401.99 163.2C1402.28 163.613 1402.75 163.82 1403.39 163.82C1403.9 163.82 1404.34 163.693 1404.73 163.44C1405.13 163.173 1405.56 162.753 1406.01 162.18V155.28H1407.65V165H1406.29L1406.15 163.48H1406.09C1405.64 164.013 1405.16 164.44 1404.65 164.76C1404.14 165.08 1403.56 165.24 1402.89 165.24ZM1413.47 165.24C1412.78 165.24 1412.12 165.113 1411.49 164.86C1410.86 164.593 1410.32 164.273 1409.85 163.9L1410.67 162.8C1411.1 163.133 1411.54 163.413 1411.99 163.64C1412.44 163.853 1412.96 163.96 1413.53 163.96C1414.17 163.96 1414.65 163.813 1414.97 163.52C1415.29 163.213 1415.45 162.853 1415.45 162.44C1415.45 162.107 1415.34 161.827 1415.11 161.6C1414.9 161.373 1414.62 161.187 1414.27 161.04C1413.94 160.88 1413.59 160.733 1413.23 160.6C1412.78 160.427 1412.33 160.233 1411.89 160.02C1411.45 159.793 1411.09 159.507 1410.81 159.16C1410.53 158.8 1410.39 158.347 1410.39 157.8C1410.39 157.013 1410.68 156.36 1411.27 155.84C1411.87 155.307 1412.7 155.04 1413.75 155.04C1414.35 155.04 1414.91 155.147 1415.43 155.36C1415.95 155.573 1416.4 155.833 1416.77 156.14L1415.97 157.18C1415.64 156.927 1415.29 156.72 1414.93 156.56C1414.57 156.4 1414.18 156.32 1413.75 156.32C1413.14 156.32 1412.68 156.46 1412.39 156.74C1412.11 157.02 1411.97 157.347 1411.97 157.72C1411.97 158.027 1412.07 158.28 1412.27 158.48C1412.47 158.667 1412.73 158.833 1413.05 158.98C1413.37 159.113 1413.71 159.253 1414.07 159.4C1414.54 159.573 1415 159.773 1415.45 160C1415.9 160.213 1416.28 160.507 1416.57 160.88C1416.88 161.24 1417.03 161.727 1417.03 162.34C1417.03 162.86 1416.89 163.34 1416.61 163.78C1416.34 164.22 1415.94 164.573 1415.41 164.84C1414.89 165.107 1414.24 165.24 1413.47 165.24ZM1423.25 165.24C1422.38 165.24 1421.59 165.04 1420.89 164.64C1420.18 164.227 1419.62 163.64 1419.21 162.88C1418.79 162.12 1418.59 161.213 1418.59 160.16C1418.59 159.093 1418.79 158.18 1419.21 157.42C1419.63 156.66 1420.18 156.073 1420.85 155.66C1421.51 155.247 1422.21 155.04 1422.95 155.04C1424.19 155.04 1425.14 155.453 1425.81 156.28C1426.49 157.107 1426.83 158.213 1426.83 159.6C1426.83 159.773 1426.82 159.947 1426.81 160.12C1426.81 160.28 1426.79 160.42 1426.77 160.54H1420.21C1420.27 161.567 1420.59 162.387 1421.17 163C1421.75 163.613 1422.51 163.92 1423.45 163.92C1423.91 163.92 1424.34 163.853 1424.73 163.72C1425.13 163.573 1425.51 163.387 1425.87 163.16L1426.45 164.24C1426.03 164.507 1425.56 164.74 1425.03 164.94C1424.51 165.14 1423.91 165.24 1423.25 165.24ZM1420.19 159.36H1425.39C1425.39 158.373 1425.17 157.627 1424.75 157.12C1424.33 156.6 1423.75 156.34 1422.99 156.34C1422.31 156.34 1421.69 156.607 1421.15 157.14C1420.61 157.66 1420.29 158.4 1420.19 159.36Z" fill="black"/>
<path d="M1544.97 165L1545.47 160.92H1543.87V159.78H1545.61L1545.97 156.82H1544.27V155.66H1546.11L1546.57 152H1547.63L1547.17 155.66H1549.83L1550.31 152H1551.37L1550.89 155.66H1552.51V156.82H1550.77L1550.41 159.78H1552.11V160.92H1550.27L1549.77 165H1548.71L1549.19 160.92H1546.55L1546.05 165H1544.97ZM1546.69 159.78H1549.33L1549.69 156.82H1547.05L1546.69 159.78ZM1554.91 165L1555.41 160.92H1553.81V159.78H1555.55L1555.91 156.82H1554.21V155.66H1556.05L1556.51 152H1557.57L1557.11 155.66H1559.77L1560.25 152H1561.31L1560.83 155.66H1562.45V156.82H1560.71L1560.35 159.78H1562.05V160.92H1560.21L1559.71 165H1558.65L1559.13 160.92H1556.49L1555.99 165H1554.91ZM1556.63 159.78H1559.27L1559.63 156.82H1556.99L1556.63 159.78ZM1566.43 165.24C1565.82 165.24 1565.37 165.053 1565.09 164.68C1564.83 164.293 1564.69 163.747 1564.69 163.04V150.76H1566.33V163.16C1566.33 163.413 1566.38 163.6 1566.47 163.72C1566.57 163.827 1566.67 163.88 1566.79 163.88C1566.85 163.88 1566.89 163.88 1566.93 163.88C1566.99 163.867 1567.06 163.853 1567.15 163.84L1567.37 165.08C1567.27 165.133 1567.14 165.173 1566.99 165.2C1566.85 165.227 1566.66 165.24 1566.43 165.24ZM1573.73 165.24C1572.86 165.24 1572.08 165.04 1571.37 164.64C1570.66 164.227 1570.1 163.64 1569.69 162.88C1569.28 162.12 1569.07 161.213 1569.07 160.16C1569.07 159.093 1569.28 158.18 1569.69 157.42C1570.12 156.66 1570.66 156.073 1571.33 155.66C1572 155.247 1572.7 155.04 1573.43 155.04C1574.67 155.04 1575.62 155.453 1576.29 156.28C1576.97 157.107 1577.31 158.213 1577.31 159.6C1577.31 159.773 1577.3 159.947 1577.29 160.12C1577.29 160.28 1577.28 160.42 1577.25 160.54H1570.69C1570.76 161.567 1571.08 162.387 1571.65 163C1572.24 163.613 1573 163.92 1573.93 163.92C1574.4 163.92 1574.82 163.853 1575.21 163.72C1575.61 163.573 1575.99 163.387 1576.35 163.16L1576.93 164.24C1576.52 164.507 1576.04 164.74 1575.51 164.94C1574.99 165.14 1574.4 165.24 1573.73 165.24ZM1570.67 159.36H1575.87C1575.87 158.373 1575.66 157.627 1575.23 157.12C1574.82 156.6 1574.23 156.34 1573.47 156.34C1572.79 156.34 1572.18 156.607 1571.63 157.14C1571.1 157.66 1570.78 158.4 1570.67 159.36ZM1582.25 165.24C1581.56 165.24 1580.9 165.113 1580.27 164.86C1579.65 164.593 1579.1 164.273 1578.63 163.9L1579.45 162.8C1579.88 163.133 1580.32 163.413 1580.77 163.64C1581.23 163.853 1581.74 163.96 1582.31 163.96C1582.95 163.96 1583.43 163.813 1583.75 163.52C1584.07 163.213 1584.23 162.853 1584.23 162.44C1584.23 162.107 1584.12 161.827 1583.89 161.6C1583.68 161.373 1583.4 161.187 1583.05 161.04C1582.72 160.88 1582.37 160.733 1582.01 160.6C1581.56 160.427 1581.11 160.233 1580.67 160.02C1580.23 159.793 1579.87 159.507 1579.59 159.16C1579.31 158.8 1579.17 158.347 1579.17 157.8C1579.17 157.013 1579.47 156.36 1580.05 155.84C1580.65 155.307 1581.48 155.04 1582.53 155.04C1583.13 155.04 1583.69 155.147 1584.21 155.36C1584.73 155.573 1585.18 155.833 1585.55 156.14L1584.75 157.18C1584.42 156.927 1584.07 156.72 1583.71 156.56C1583.35 156.4 1582.96 156.32 1582.53 156.32C1581.92 156.32 1581.47 156.46 1581.17 156.74C1580.89 157.02 1580.75 157.347 1580.75 157.72C1580.75 158.027 1580.85 158.28 1581.05 158.48C1581.25 158.667 1581.51 158.833 1581.83 158.98C1582.15 159.113 1582.49 159.253 1582.85 159.4C1583.32 159.573 1583.78 159.773 1584.23 160C1584.69 160.213 1585.06 160.507 1585.35 160.88C1585.66 161.24 1585.81 161.727 1585.81 162.34C1585.81 162.86 1585.67 163.34 1585.39 163.78C1585.13 164.22 1584.73 164.573 1584.19 164.84C1583.67 165.107 1583.03 165.24 1582.25 165.24ZM1590.63 165.24C1589.94 165.24 1589.28 165.113 1588.65 164.86C1588.02 164.593 1587.48 164.273 1587.01 163.9L1587.83 162.8C1588.26 163.133 1588.7 163.413 1589.15 163.64C1589.6 163.853 1590.12 163.96 1590.69 163.96C1591.33 163.96 1591.81 163.813 1592.13 163.52C1592.45 163.213 1592.61 162.853 1592.61 162.44C1592.61 162.107 1592.5 161.827 1592.27 161.6C1592.06 161.373 1591.78 161.187 1591.43 161.04C1591.1 160.88 1590.75 160.733 1590.39 160.6C1589.94 160.427 1589.49 160.233 1589.05 160.02C1588.61 159.793 1588.25 159.507 1587.97 159.16C1587.69 158.8 1587.55 158.347 1587.55 157.8C1587.55 157.013 1587.84 156.36 1588.43 155.84C1589.03 155.307 1589.86 155.04 1590.91 155.04C1591.51 155.04 1592.07 155.147 1592.59 155.36C1593.11 155.573 1593.56 155.833 1593.93 156.14L1593.13 157.18C1592.8 156.927 1592.45 156.72 1592.09 156.56C1591.73 156.4 1591.34 156.32 1590.91 156.32C1590.3 156.32 1589.84 156.46 1589.55 156.74C1589.27 157.02 1589.13 157.347 1589.13 157.72C1589.13 158.027 1589.23 158.28 1589.43 158.48C1589.63 158.667 1589.89 158.833 1590.21 158.98C1590.53 159.113 1590.87 159.253 1591.23 159.4C1591.7 159.573 1592.16 159.773 1592.61 160C1593.06 160.213 1593.44 160.507 1593.73 160.88C1594.04 161.24 1594.19 161.727 1594.19 162.34C1594.19 162.86 1594.05 163.34 1593.77 163.78C1593.5 164.22 1593.1 164.573 1592.57 164.84C1592.05 165.107 1591.4 165.24 1590.63 165.24Z" fill="black"/>
<path d="M1549.05 252.04V234.84H1552.63V235.78H1550.29V251.1H1552.63V252.04H1549.05ZM1558.66 249.24C1557.74 249.24 1556.89 249.067 1556.1 248.72C1555.31 248.36 1554.63 247.887 1554.06 247.3L1555.06 246.14C1555.53 246.633 1556.07 247.033 1556.7 247.34C1557.34 247.633 1558 247.78 1558.68 247.78C1559.55 247.78 1560.22 247.587 1560.7 247.2C1561.18 246.8 1561.42 246.28 1561.42 245.64C1561.42 245.187 1561.32 244.827 1561.12 244.56C1560.93 244.293 1560.67 244.067 1560.34 243.88C1560.02 243.693 1559.65 243.507 1559.24 243.32L1557.36 242.5C1556.95 242.327 1556.53 242.1 1556.12 241.82C1555.72 241.54 1555.38 241.18 1555.1 240.74C1554.83 240.3 1554.7 239.76 1554.7 239.12C1554.7 238.453 1554.87 237.86 1555.22 237.34C1555.58 236.807 1556.07 236.393 1556.7 236.1C1557.33 235.793 1558.03 235.64 1558.82 235.64C1559.61 235.64 1560.33 235.793 1561 236.1C1561.67 236.393 1562.23 236.78 1562.7 237.26L1561.8 238.34C1561.4 237.953 1560.95 237.653 1560.46 237.44C1559.98 237.213 1559.43 237.1 1558.82 237.1C1558.09 237.1 1557.49 237.273 1557.04 237.62C1556.6 237.967 1556.38 238.433 1556.38 239.02C1556.38 239.433 1556.49 239.78 1556.7 240.06C1556.93 240.327 1557.21 240.547 1557.54 240.72C1557.87 240.893 1558.21 241.053 1558.56 241.2L1560.42 242C1560.93 242.213 1561.38 242.473 1561.78 242.78C1562.19 243.073 1562.52 243.44 1562.76 243.88C1563 244.307 1563.12 244.847 1563.12 245.5C1563.12 246.193 1562.94 246.827 1562.58 247.4C1562.22 247.96 1561.71 248.407 1561.04 248.74C1560.37 249.073 1559.58 249.24 1558.66 249.24ZM1565.7 249V235.88H1573.26V237.28H1567.36V241.4H1572.34V242.82H1567.36V247.58H1573.46V249H1565.7ZM1576.25 249V235.88H1579.99C1580.98 235.88 1581.84 236 1582.57 236.24C1583.3 236.48 1583.88 236.887 1584.29 237.46C1584.7 238.02 1584.91 238.78 1584.91 239.74C1584.91 241.113 1584.46 242.133 1583.57 242.8C1582.68 243.467 1581.51 243.8 1580.07 243.8H1577.91V249H1576.25ZM1577.91 242.44H1579.87C1581.02 242.44 1581.86 242.227 1582.41 241.8C1582.97 241.36 1583.25 240.673 1583.25 239.74C1583.25 238.793 1582.96 238.14 1582.37 237.78C1581.8 237.407 1580.94 237.22 1579.79 237.22H1577.91V242.44ZM1586.4 252.04V251.1H1588.72V235.78H1586.4V234.84H1589.96V252.04H1586.4Z" fill="black"/>
<path d="M309.569 81V69.28H305.609V67.88H315.209V69.28H311.249V81H309.569ZM317.411 81V66.76H319.051V70.64L318.991 72.64C319.458 72.2 319.945 71.8267 320.451 71.52C320.971 71.2 321.565 71.04 322.231 71.04C323.258 71.04 324.005 71.3667 324.471 72.02C324.951 72.66 325.191 73.6 325.191 74.84V81H323.551V75.06C323.551 74.1533 323.405 73.4933 323.111 73.08C322.818 72.6667 322.351 72.46 321.711 72.46C321.218 72.46 320.771 72.5867 320.371 72.84C319.985 73.0933 319.545 73.4667 319.051 73.96V81H317.411ZM328.29 81V71.28H329.93V81H328.29ZM329.13 69.28C328.81 69.28 328.544 69.1867 328.33 69C328.13 68.8 328.03 68.5333 328.03 68.2C328.03 67.88 328.13 67.62 328.33 67.42C328.544 67.22 328.81 67.12 329.13 67.12C329.45 67.12 329.71 67.22 329.91 67.42C330.124 67.62 330.23 67.88 330.23 68.2C330.23 68.5333 330.124 68.8 329.91 69C329.71 69.1867 329.45 69.28 329.13 69.28ZM335.752 81.24C335.059 81.24 334.399 81.1133 333.772 80.86C333.146 80.5933 332.599 80.2733 332.132 79.9L332.952 78.8C333.379 79.1333 333.819 79.4133 334.272 79.64C334.726 79.8533 335.239 79.96 335.812 79.96C336.452 79.96 336.932 79.8133 337.252 79.52C337.572 79.2133 337.732 78.8533 337.732 78.44C337.732 78.1067 337.619 77.8267 337.392 77.6C337.179 77.3733 336.899 77.1867 336.552 77.04C336.219 76.88 335.872 76.7333 335.512 76.6C335.059 76.4267 334.612 76.2333 334.172 76.02C333.732 75.7933 333.372 75.5067 333.092 75.16C332.812 74.8 332.672 74.3467 332.672 73.8C332.672 73.0133 332.966 72.36 333.552 71.84C334.152 71.3067 334.979 71.04 336.032 71.04C336.632 71.04 337.192 71.1467 337.712 71.36C338.232 71.5733 338.679 71.8333 339.052 72.14L338.252 73.18C337.919 72.9267 337.572 72.72 337.212 72.56C336.852 72.4 336.459 72.32 336.032 72.32C335.419 72.32 334.966 72.46 334.672 72.74C334.392 73.02 334.252 73.3467 334.252 73.72C334.252 74.0267 334.352 74.28 334.552 74.48C334.752 74.6667 335.012 74.8333 335.332 74.98C335.652 75.1133 335.992 75.2533 336.352 75.4C336.819 75.5733 337.279 75.7733 337.732 76C338.186 76.2133 338.559 76.5067 338.852 76.88C339.159 77.24 339.312 77.7267 339.312 78.34C339.312 78.86 339.172 79.34 338.892 79.78C338.626 80.22 338.226 80.5733 337.692 80.84C337.172 81.1067 336.526 81.24 335.752 81.24Z" fill="black"/>
<path d="M473.99 81V71.28H475.63V81H473.99ZM474.83 69.28C474.51 69.28 474.243 69.1867 474.03 69C473.83 68.8 473.73 68.5333 473.73 68.2C473.73 67.88 473.83 67.62 474.03 67.42C474.243 67.22 474.51 67.12 474.83 67.12C475.15 67.12 475.41 67.22 475.61 67.42C475.823 67.62 475.93 67.88 475.93 68.2C475.93 68.5333 475.823 68.8 475.61 69C475.41 69.1867 475.15 69.28 474.83 69.28ZM481.451 81.24C480.758 81.24 480.098 81.1133 479.471 80.86C478.845 80.5933 478.298 80.2733 477.831 79.9L478.651 78.8C479.078 79.1333 479.518 79.4133 479.971 79.64C480.425 79.8533 480.938 79.96 481.511 79.96C482.151 79.96 482.631 79.8133 482.951 79.52C483.271 79.2133 483.431 78.8533 483.431 78.44C483.431 78.1067 483.318 77.8267 483.091 77.6C482.878 77.3733 482.598 77.1867 482.251 77.04C481.918 76.88 481.571 76.7333 481.211 76.6C480.758 76.4267 480.311 76.2333 479.871 76.02C479.431 75.7933 479.071 75.5067 478.791 75.16C478.511 74.8 478.371 74.3467 478.371 73.8C478.371 73.0133 478.665 72.36 479.251 71.84C479.851 71.3067 480.678 71.04 481.731 71.04C482.331 71.04 482.891 71.1467 483.411 71.36C483.931 71.5733 484.378 71.8333 484.751 72.14L483.951 73.18C483.618 72.9267 483.271 72.72 482.911 72.56C482.551 72.4 482.158 72.32 481.731 72.32C481.118 72.32 480.665 72.46 480.371 72.74C480.091 73.02 479.951 73.3467 479.951 73.72C479.951 74.0267 480.051 74.28 480.251 74.48C480.451 74.6667 480.711 74.8333 481.031 74.98C481.351 75.1133 481.691 75.2533 482.051 75.4C482.518 75.5733 482.978 75.7733 483.431 76C483.885 76.2133 484.258 76.5067 484.551 76.88C484.858 77.24 485.011 77.7267 485.011 78.34C485.011 78.86 484.871 79.34 484.591 79.78C484.325 80.22 483.925 80.5733 483.391 80.84C482.871 81.1067 482.225 81.24 481.451 81.24Z" fill="black"/>
<path d="M623.921 81.24C622.881 81.24 622.154 80.94 621.741 80.34C621.341 79.74 621.141 78.96 621.141 78V72.62H619.701V71.38L621.221 71.28L621.421 68.56H622.801V71.28H625.421V72.62H622.801V78.02C622.801 78.62 622.907 79.0867 623.121 79.42C623.347 79.74 623.741 79.9 624.301 79.9C624.474 79.9 624.661 79.8733 624.861 79.82C625.061 79.7533 625.241 79.6933 625.401 79.64L625.721 80.88C625.454 80.9733 625.161 81.0533 624.841 81.12C624.534 81.2 624.227 81.24 623.921 81.24ZM627.619 81V66.76H629.259V70.64L629.199 72.64C629.665 72.2 630.152 71.8267 630.659 71.52C631.179 71.2 631.772 71.04 632.439 71.04C633.465 71.04 634.212 71.3667 634.679 72.02C635.159 72.66 635.399 73.6 635.399 74.84V81H633.759V75.06C633.759 74.1533 633.612 73.4933 633.319 73.08C633.025 72.6667 632.559 72.46 631.919 72.46C631.425 72.46 630.979 72.5867 630.579 72.84C630.192 73.0933 629.752 73.4667 629.259 73.96V81H627.619ZM642.437 81.24C641.571 81.24 640.784 81.04 640.077 80.64C639.371 80.2267 638.811 79.64 638.397 78.88C637.984 78.12 637.777 77.2133 637.777 76.16C637.777 75.0933 637.984 74.18 638.397 73.42C638.824 72.66 639.371 72.0733 640.037 71.66C640.704 71.2467 641.404 71.04 642.137 71.04C643.377 71.04 644.331 71.4533 644.997 72.28C645.677 73.1067 646.017 74.2133 646.017 75.6C646.017 75.7733 646.011 75.9467 645.997 76.12C645.997 76.28 645.984 76.42 645.957 76.54H639.397C639.464 77.5667 639.784 78.3867 640.357 79C640.944 79.6133 641.704 79.92 642.637 79.92C643.104 79.92 643.531 79.8533 643.917 79.72C644.317 79.5733 644.697 79.3867 645.057 79.16L645.637 80.24C645.224 80.5067 644.751 80.74 644.217 80.94C643.697 81.14 643.104 81.24 642.437 81.24ZM639.377 75.36H644.577C644.577 74.3733 644.364 73.6267 643.937 73.12C643.524 72.6 642.937 72.34 642.177 72.34C641.497 72.34 640.884 72.6067 640.337 73.14C639.804 73.66 639.484 74.4 639.377 75.36Z" fill="black"/>
<path d="M760.13 85.1V81.64L760.21 79.88C759.823 80.2533 759.377 80.5733 758.87 80.84C758.377 81.1067 757.85 81.24 757.29 81.24C756.077 81.24 755.103 80.8 754.37 79.92C753.637 79.0267 753.27 77.7733 753.27 76.16C753.27 75.1067 753.463 74.2 753.85 73.44C754.25 72.6667 754.77 72.0733 755.41 71.66C756.063 71.2467 756.757 71.04 757.49 71.04C758.05 71.04 758.543 71.14 758.97 71.34C759.397 71.5267 759.83 71.8133 760.27 72.2H760.31L760.47 71.28H761.79V85.1H760.13ZM757.65 79.86C758.503 79.86 759.33 79.4133 760.13 78.52V73.44C759.717 73.0667 759.317 72.8067 758.93 72.66C758.557 72.5 758.17 72.42 757.77 72.42C757.25 72.42 756.777 72.58 756.35 72.9C755.937 73.2067 755.603 73.64 755.35 74.2C755.097 74.7467 754.97 75.3933 754.97 76.14C754.97 77.3 755.203 78.2133 755.67 78.88C756.137 79.5333 756.797 79.86 757.65 79.86ZM767.904 81.24C766.877 81.24 766.124 80.92 765.644 80.28C765.164 79.6267 764.924 78.68 764.924 77.44V71.28H766.584V77.22C766.584 78.1267 766.724 78.7867 767.004 79.2C767.297 79.6133 767.764 79.82 768.404 79.82C768.91 79.82 769.357 79.6933 769.744 79.44C770.144 79.1733 770.57 78.7533 771.024 78.18V71.28H772.664V81H771.304L771.164 79.48H771.104C770.65 80.0133 770.17 80.44 769.664 80.76C769.157 81.08 768.57 81.24 767.904 81.24ZM779.883 81.24C779.016 81.24 778.229 81.04 777.523 80.64C776.816 80.2267 776.256 79.64 775.843 78.88C775.429 78.12 775.223 77.2133 775.223 76.16C775.223 75.0933 775.429 74.18 775.843 73.42C776.269 72.66 776.816 72.0733 777.483 71.66C778.149 71.2467 778.849 71.04 779.583 71.04C780.823 71.04 781.776 71.4533 782.443 72.28C783.123 73.1067 783.463 74.2133 783.463 75.6C783.463 75.7733 783.456 75.9467 783.443 76.12C783.443 76.28 783.429 76.42 783.403 76.54H776.843C776.909 77.5667 777.229 78.3867 777.803 79C778.389 79.6133 779.149 79.92 780.083 79.92C780.549 79.92 780.976 79.8533 781.363 79.72C781.763 79.5733 782.143 79.3867 782.503 79.16L783.083 80.24C782.669 80.5067 782.196 80.74 781.663 80.94C781.143 81.14 780.549 81.24 779.883 81.24ZM776.823 75.36H782.023C782.023 74.3733 781.809 73.6267 781.383 73.12C780.969 72.6 780.383 72.34 779.623 72.34C778.943 72.34 778.329 72.6067 777.783 73.14C777.249 73.66 776.929 74.4 776.823 75.36ZM788.405 81.24C787.711 81.24 787.051 81.1133 786.425 80.86C785.798 80.5933 785.251 80.2733 784.785 79.9L785.605 78.8C786.031 79.1333 786.471 79.4133 786.925 79.64C787.378 79.8533 787.891 79.96 788.465 79.96C789.105 79.96 789.585 79.8133 789.905 79.52C790.225 79.2133 790.385 78.8533 790.385 78.44C790.385 78.1067 790.271 77.8267 790.045 77.6C789.831 77.3733 789.551 77.1867 789.205 77.04C788.871 76.88 788.525 76.7333 788.165 76.6C787.711 76.4267 787.265 76.2333 786.825 76.02C786.385 75.7933 786.025 75.5067 785.745 75.16C785.465 74.8 785.325 74.3467 785.325 73.8C785.325 73.0133 785.618 72.36 786.205 71.84C786.805 71.3067 787.631 71.04 788.685 71.04C789.285 71.04 789.845 71.1467 790.365 71.36C790.885 71.5733 791.331 71.8333 791.705 72.14L790.905 73.18C790.571 72.9267 790.225 72.72 789.865 72.56C789.505 72.4 789.111 72.32 788.685 72.32C788.071 72.32 787.618 72.46 787.325 72.74C787.045 73.02 786.905 73.3467 786.905 73.72C786.905 74.0267 787.005 74.28 787.205 74.48C787.405 74.6667 787.665 74.8333 787.985 74.98C788.305 75.1133 788.645 75.2533 789.005 75.4C789.471 75.5733 789.931 75.7733 790.385 76C790.838 76.2133 791.211 76.5067 791.505 76.88C791.811 77.24 791.965 77.7267 791.965 78.34C791.965 78.86 791.825 79.34 791.545 79.78C791.278 80.22 790.878 80.5733 790.345 80.84C789.825 81.1067 789.178 81.24 788.405 81.24ZM796.913 81.24C795.873 81.24 795.146 80.94 794.733 80.34C794.333 79.74 794.133 78.96 794.133 78V72.62H792.693V71.38L794.213 71.28L794.413 68.56H795.793V71.28H798.413V72.62H795.793V78.02C795.793 78.62 795.9 79.0867 796.113 79.42C796.34 79.74 796.733 79.9 797.293 79.9C797.466 79.9 797.653 79.8733 797.853 79.82C798.053 79.7533 798.233 79.6933 798.393 79.64L798.713 80.88C798.446 80.9733 798.153 81.0533 797.833 81.12C797.526 81.2 797.22 81.24 796.913 81.24ZM800.611 81V71.28H802.251V81H800.611ZM801.451 69.28C801.131 69.28 800.864 69.1867 800.651 69C800.451 68.8 800.351 68.5333 800.351 68.2C800.351 67.88 800.451 67.62 800.651 67.42C800.864 67.22 801.131 67.12 801.451 67.12C801.771 67.12 802.031 67.22 802.231 67.42C802.444 67.62 802.551 67.88 802.551 68.2C802.551 68.5333 802.444 68.8 802.231 69C802.031 69.1867 801.771 69.28 801.451 69.28ZM809.313 81.24C808.526 81.24 807.786 81.04 807.093 80.64C806.413 80.24 805.859 79.66 805.433 78.9C805.019 78.14 804.813 77.2267 804.813 76.16C804.813 75.0667 805.019 74.14 805.433 73.38C805.859 72.62 806.413 72.04 807.093 71.64C807.786 71.24 808.526 71.04 809.313 71.04C810.113 71.04 810.853 71.24 811.533 71.64C812.213 72.04 812.759 72.62 813.173 73.38C813.599 74.14 813.813 75.0667 813.813 76.16C813.813 77.2267 813.599 78.14 813.173 78.9C812.759 79.66 812.213 80.24 811.533 80.64C810.853 81.04 810.113 81.24 809.313 81.24ZM809.313 79.88C810.153 79.88 810.826 79.54 811.333 78.86C811.853 78.1667 812.113 77.2667 812.113 76.16C812.113 75.04 811.853 74.1333 811.333 73.44C810.826 72.7467 810.153 72.4 809.313 72.4C808.486 72.4 807.813 72.7467 807.293 73.44C806.773 74.1333 806.513 75.04 806.513 76.16C806.513 77.2667 806.773 78.1667 807.293 78.86C807.813 79.54 808.486 79.88 809.313 79.88ZM816.372 81V71.28H817.732L817.872 72.68H817.932C818.399 72.2133 818.892 71.8267 819.412 71.52C819.932 71.2 820.526 71.04 821.192 71.04C822.219 71.04 822.966 71.3667 823.432 72.02C823.912 72.66 824.152 73.6 824.152 74.84V81H822.512V75.06C822.512 74.1533 822.366 73.4933 822.072 73.08C821.779 72.6667 821.312 72.46 820.672 72.46C820.179 72.46 819.732 72.5867 819.332 72.84C818.946 73.0933 818.506 73.4667 818.012 73.96V81H816.372Z" fill="black"/>
<path d="M925.046 84.04V66.84H928.626V67.78H926.286V83.1H928.626V84.04H925.046ZM934.661 81.24C933.741 81.24 932.887 81.0667 932.101 80.72C931.314 80.36 930.634 79.8867 930.061 79.3L931.061 78.14C931.527 78.6333 932.074 79.0333 932.701 79.34C933.341 79.6333 934.001 79.78 934.681 79.78C935.547 79.78 936.221 79.5867 936.701 79.2C937.181 78.8 937.421 78.28 937.421 77.64C937.421 77.1867 937.321 76.8267 937.121 76.56C936.934 76.2933 936.674 76.0667 936.341 75.88C936.021 75.6933 935.654 75.5067 935.241 75.32L933.361 74.5C932.947 74.3267 932.534 74.1 932.121 73.82C931.721 73.54 931.381 73.18 931.101 72.74C930.834 72.3 930.701 71.76 930.701 71.12C930.701 70.4533 930.874 69.86 931.221 69.34C931.581 68.8067 932.074 68.3933 932.701 68.1C933.327 67.7933 934.034 67.64 934.821 67.64C935.607 67.64 936.334 67.7933 937.001 68.1C937.667 68.3933 938.234 68.78 938.701 69.26L937.801 70.34C937.401 69.9533 936.954 69.6533 936.461 69.44C935.981 69.2133 935.434 69.1 934.821 69.1C934.087 69.1 933.494 69.2733 933.041 69.62C932.601 69.9667 932.381 70.4333 932.381 71.02C932.381 71.4333 932.487 71.78 932.701 72.06C932.927 72.3267 933.207 72.5467 933.541 72.72C933.874 72.8933 934.214 73.0533 934.561 73.2L936.421 74C936.927 74.2133 937.381 74.4733 937.781 74.78C938.194 75.0733 938.521 75.44 938.761 75.88C939.001 76.3067 939.121 76.8467 939.121 77.5C939.121 78.1933 938.941 78.8267 938.581 79.4C938.221 79.96 937.707 80.4067 937.041 80.74C936.374 81.0733 935.581 81.24 934.661 81.24ZM941.704 81V67.88H949.264V69.28H943.364V73.4H948.344V74.82H943.364V79.58H949.464V81H941.704ZM952.251 81V67.88H955.991C956.978 67.88 957.838 68 958.571 68.24C959.305 68.48 959.878 68.8867 960.291 69.46C960.705 70.02 960.911 70.78 960.911 71.74C960.911 73.1133 960.465 74.1333 959.571 74.8C958.678 75.4667 957.511 75.8 956.071 75.8H953.911V81H952.251ZM953.911 74.44H955.871C957.018 74.44 957.865 74.2267 958.411 73.8C958.971 73.36 959.251 72.6733 959.251 71.74C959.251 70.7933 958.958 70.14 958.371 69.78C957.798 69.4067 956.938 69.22 955.791 69.22H953.911V74.44ZM962.399 84.04V83.1H964.719V67.78H962.399V66.84H965.959V84.04H962.399Z" fill="black"/>
<path d="M1088.57 81V69.28H1084.61V67.88H1094.21V69.28H1090.25V81H1088.57ZM1096.41 81V66.76H1098.05V70.64L1097.99 72.64C1098.46 72.2 1098.94 71.8267 1099.45 71.52C1099.97 71.2 1100.56 71.04 1101.23 71.04C1102.26 71.04 1103 71.3667 1103.47 72.02C1103.95 72.66 1104.19 73.6 1104.19 74.84V81H1102.55V75.06C1102.55 74.1533 1102.4 73.4933 1102.11 73.08C1101.82 72.6667 1101.35 72.46 1100.71 72.46C1100.22 72.46 1099.77 72.5867 1099.37 72.84C1098.98 73.0933 1098.54 73.4667 1098.05 73.96V81H1096.41ZM1107.29 81V71.28H1108.93V81H1107.29ZM1108.13 69.28C1107.81 69.28 1107.54 69.1867 1107.33 69C1107.13 68.8 1107.03 68.5333 1107.03 68.2C1107.03 67.88 1107.13 67.62 1107.33 67.42C1107.54 67.22 1107.81 67.12 1108.13 67.12C1108.45 67.12 1108.71 67.22 1108.91 67.42C1109.12 67.62 1109.23 67.88 1109.23 68.2C1109.23 68.5333 1109.12 68.8 1108.91 69C1108.71 69.1867 1108.45 69.28 1108.13 69.28ZM1114.75 81.24C1114.06 81.24 1113.4 81.1133 1112.77 80.86C1112.15 80.5933 1111.6 80.2733 1111.13 79.9L1111.95 78.8C1112.38 79.1333 1112.82 79.4133 1113.27 79.64C1113.73 79.8533 1114.24 79.96 1114.81 79.96C1115.45 79.96 1115.93 79.8133 1116.25 79.52C1116.57 79.2133 1116.73 78.8533 1116.73 78.44C1116.73 78.1067 1116.62 77.8267 1116.39 77.6C1116.18 77.3733 1115.9 77.1867 1115.55 77.04C1115.22 76.88 1114.87 76.7333 1114.51 76.6C1114.06 76.4267 1113.61 76.2333 1113.17 76.02C1112.73 75.7933 1112.37 75.5067 1112.09 75.16C1111.81 74.8 1111.67 74.3467 1111.67 73.8C1111.67 73.0133 1111.97 72.36 1112.55 71.84C1113.15 71.3067 1113.98 71.04 1115.03 71.04C1115.63 71.04 1116.19 71.1467 1116.71 71.36C1117.23 71.5733 1117.68 71.8333 1118.05 72.14L1117.25 73.18C1116.92 72.9267 1116.57 72.72 1116.21 72.56C1115.85 72.4 1115.46 72.32 1115.03 72.32C1114.42 72.32 1113.97 72.46 1113.67 72.74C1113.39 73.02 1113.25 73.3467 1113.25 73.72C1113.25 74.0267 1113.35 74.28 1113.55 74.48C1113.75 74.6667 1114.01 74.8333 1114.33 74.98C1114.65 75.1133 1114.99 75.2533 1115.35 75.4C1115.82 75.5733 1116.28 75.7733 1116.73 76C1117.19 76.2133 1117.56 76.5067 1117.85 76.88C1118.16 77.24 1118.31 77.7267 1118.31 78.34C1118.31 78.86 1118.17 79.34 1117.89 79.78C1117.63 80.22 1117.23 80.5733 1116.69 80.84C1116.17 81.1067 1115.53 81.24 1114.75 81.24Z" fill="black"/>
<path d="M1251.99 81V71.28H1253.63V81H1251.99ZM1252.83 69.28C1252.51 69.28 1252.24 69.1867 1252.03 69C1251.83 68.8 1251.73 68.5333 1251.73 68.2C1251.73 67.88 1251.83 67.62 1252.03 67.42C1252.24 67.22 1252.51 67.12 1252.83 67.12C1253.15 67.12 1253.41 67.22 1253.61 67.42C1253.82 67.62 1253.93 67.88 1253.93 68.2C1253.93 68.5333 1253.82 68.8 1253.61 69C1253.41 69.1867 1253.15 69.28 1252.83 69.28ZM1259.45 81.24C1258.76 81.24 1258.1 81.1133 1257.47 80.86C1256.84 80.5933 1256.3 80.2733 1255.83 79.9L1256.65 78.8C1257.08 79.1333 1257.52 79.4133 1257.97 79.64C1258.42 79.8533 1258.94 79.96 1259.51 79.96C1260.15 79.96 1260.63 79.8133 1260.95 79.52C1261.27 79.2133 1261.43 78.8533 1261.43 78.44C1261.43 78.1067 1261.32 77.8267 1261.09 77.6C1260.88 77.3733 1260.6 77.1867 1260.25 77.04C1259.92 76.88 1259.57 76.7333 1259.21 76.6C1258.76 76.4267 1258.31 76.2333 1257.87 76.02C1257.43 75.7933 1257.07 75.5067 1256.79 75.16C1256.51 74.8 1256.37 74.3467 1256.37 73.8C1256.37 73.0133 1256.66 72.36 1257.25 71.84C1257.85 71.3067 1258.68 71.04 1259.73 71.04C1260.33 71.04 1260.89 71.1467 1261.41 71.36C1261.93 71.5733 1262.38 71.8333 1262.75 72.14L1261.95 73.18C1261.62 72.9267 1261.27 72.72 1260.91 72.56C1260.55 72.4 1260.16 72.32 1259.73 72.32C1259.12 72.32 1258.66 72.46 1258.37 72.74C1258.09 73.02 1257.95 73.3467 1257.95 73.72C1257.95 74.0267 1258.05 74.28 1258.25 74.48C1258.45 74.6667 1258.71 74.8333 1259.03 74.98C1259.35 75.1133 1259.69 75.2533 1260.05 75.4C1260.52 75.5733 1260.98 75.7733 1261.43 76C1261.88 76.2133 1262.26 76.5067 1262.55 76.88C1262.86 77.24 1263.01 77.7267 1263.01 78.34C1263.01 78.86 1262.87 79.34 1262.59 79.78C1262.32 80.22 1261.92 80.5733 1261.39 80.84C1260.87 81.1067 1260.22 81.24 1259.45 81.24Z" fill="black"/>
<path d="M1403.92 81.24C1402.88 81.24 1402.15 80.94 1401.74 80.34C1401.34 79.74 1401.14 78.96 1401.14 78V72.62H1399.7V71.38L1401.22 71.28L1401.42 68.56H1402.8V71.28H1405.42V72.62H1402.8V78.02C1402.8 78.62 1402.91 79.0867 1403.12 79.42C1403.35 79.74 1403.74 79.9 1404.3 79.9C1404.47 79.9 1404.66 79.8733 1404.86 79.82C1405.06 79.7533 1405.24 79.6933 1405.4 79.64L1405.72 80.88C1405.45 80.9733 1405.16 81.0533 1404.84 81.12C1404.53 81.2 1404.23 81.24 1403.92 81.24ZM1407.62 81V66.76H1409.26V70.64L1409.2 72.64C1409.67 72.2 1410.15 71.8267 1410.66 71.52C1411.18 71.2 1411.77 71.04 1412.44 71.04C1413.47 71.04 1414.21 71.3667 1414.68 72.02C1415.16 72.66 1415.4 73.6 1415.4 74.84V81H1413.76V75.06C1413.76 74.1533 1413.61 73.4933 1413.32 73.08C1413.03 72.6667 1412.56 72.46 1411.92 72.46C1411.43 72.46 1410.98 72.5867 1410.58 72.84C1410.19 73.0933 1409.75 73.4667 1409.26 73.96V81H1407.62ZM1422.44 81.24C1421.57 81.24 1420.78 81.04 1420.08 80.64C1419.37 80.2267 1418.81 79.64 1418.4 78.88C1417.98 78.12 1417.78 77.2133 1417.78 76.16C1417.78 75.0933 1417.98 74.18 1418.4 73.42C1418.82 72.66 1419.37 72.0733 1420.04 71.66C1420.7 71.2467 1421.4 71.04 1422.14 71.04C1423.38 71.04 1424.33 71.4533 1425 72.28C1425.68 73.1067 1426.02 74.2133 1426.02 75.6C1426.02 75.7733 1426.01 75.9467 1426 76.12C1426 76.28 1425.98 76.42 1425.96 76.54H1419.4C1419.46 77.5667 1419.78 78.3867 1420.36 79C1420.94 79.6133 1421.7 79.92 1422.64 79.92C1423.1 79.92 1423.53 79.8533 1423.92 79.72C1424.32 79.5733 1424.7 79.3867 1425.06 79.16L1425.64 80.24C1425.22 80.5067 1424.75 80.74 1424.22 80.94C1423.7 81.14 1423.1 81.24 1422.44 81.24ZM1419.38 75.36H1424.58C1424.58 74.3733 1424.36 73.6267 1423.94 73.12C1423.52 72.6 1422.94 72.34 1422.18 72.34C1421.5 72.34 1420.88 72.6067 1420.34 73.14C1419.8 73.66 1419.48 74.4 1419.38 75.36Z" fill="black"/>
<path d="M1543.51 81.24C1542.66 81.24 1541.89 81.04 1541.19 80.64C1540.5 80.24 1539.95 79.66 1539.55 78.9C1539.15 78.14 1538.95 77.2267 1538.95 76.16C1538.95 75.0667 1539.17 74.14 1539.59 73.38C1540.03 72.62 1540.61 72.04 1541.31 71.64C1542.03 71.24 1542.81 71.04 1543.63 71.04C1544.27 71.04 1544.82 71.1533 1545.27 71.38C1545.74 71.6067 1546.14 71.8733 1546.47 72.18L1545.63 73.26C1545.35 73.0067 1545.05 72.8 1544.73 72.64C1544.43 72.48 1544.08 72.4 1543.69 72.4C1543.11 72.4 1542.58 72.56 1542.11 72.88C1541.66 73.1867 1541.3 73.6267 1541.03 74.2C1540.78 74.76 1540.65 75.4133 1540.65 76.16C1540.65 77.2667 1540.93 78.1667 1541.47 78.86C1542.03 79.54 1542.76 79.88 1543.65 79.88C1544.11 79.88 1544.53 79.7867 1544.91 79.6C1545.3 79.4 1545.64 79.1667 1545.93 78.9L1546.65 80C1546.21 80.3867 1545.73 80.6933 1545.19 80.92C1544.66 81.1333 1544.1 81.24 1543.51 81.24ZM1552.14 81.24C1551.36 81.24 1550.62 81.04 1549.92 80.64C1549.24 80.24 1548.69 79.66 1548.26 78.9C1547.85 78.14 1547.64 77.2267 1547.64 76.16C1547.64 75.0667 1547.85 74.14 1548.26 73.38C1548.69 72.62 1549.24 72.04 1549.92 71.64C1550.62 71.24 1551.36 71.04 1552.14 71.04C1552.94 71.04 1553.68 71.24 1554.36 71.64C1555.04 72.04 1555.59 72.62 1556 73.38C1556.43 74.14 1556.64 75.0667 1556.64 76.16C1556.64 77.2267 1556.43 78.14 1556 78.9C1555.59 79.66 1555.04 80.24 1554.36 80.64C1553.68 81.04 1552.94 81.24 1552.14 81.24ZM1552.14 79.88C1552.98 79.88 1553.66 79.54 1554.16 78.86C1554.68 78.1667 1554.94 77.2667 1554.94 76.16C1554.94 75.04 1554.68 74.1333 1554.16 73.44C1553.66 72.7467 1552.98 72.4 1552.14 72.4C1551.32 72.4 1550.64 72.7467 1550.12 73.44C1549.6 74.1333 1549.34 75.04 1549.34 76.16C1549.34 77.2667 1549.6 78.1667 1550.12 78.86C1550.64 79.54 1551.32 79.88 1552.14 79.88ZM1559.2 81V71.28H1560.56L1560.7 72.68H1560.76C1561.23 72.2133 1561.72 71.8267 1562.24 71.52C1562.76 71.2 1563.36 71.04 1564.02 71.04C1565.05 71.04 1565.8 71.3667 1566.26 72.02C1566.74 72.66 1566.98 73.6 1566.98 74.84V81H1565.34V75.06C1565.34 74.1533 1565.2 73.4933 1564.9 73.08C1564.61 72.6667 1564.14 72.46 1563.5 72.46C1563.01 72.46 1562.56 72.5867 1562.16 72.84C1561.78 73.0933 1561.34 73.4667 1560.84 73.96V81H1559.2ZM1573.2 81.24C1572.16 81.24 1571.44 80.94 1571.02 80.34C1570.62 79.74 1570.42 78.96 1570.42 78V72.62H1568.98V71.38L1570.5 71.28L1570.7 68.56H1572.08V71.28H1574.7V72.62H1572.08V78.02C1572.08 78.62 1572.19 79.0867 1572.4 79.42C1572.63 79.74 1573.02 79.9 1573.58 79.9C1573.76 79.9 1573.94 79.8733 1574.14 79.82C1574.34 79.7533 1574.52 79.6933 1574.68 79.64L1575 80.88C1574.74 80.9733 1574.44 81.0533 1574.12 81.12C1573.82 81.2 1573.51 81.24 1573.2 81.24ZM1580.57 81.24C1579.7 81.24 1578.91 81.04 1578.21 80.64C1577.5 80.2267 1576.94 79.64 1576.53 78.88C1576.11 78.12 1575.91 77.2133 1575.91 76.16C1575.91 75.0933 1576.11 74.18 1576.53 73.42C1576.95 72.66 1577.5 72.0733 1578.17 71.66C1578.83 71.2467 1579.53 71.04 1580.27 71.04C1581.51 71.04 1582.46 71.4533 1583.13 72.28C1583.81 73.1067 1584.15 74.2133 1584.15 75.6C1584.15 75.7733 1584.14 75.9467 1584.13 76.12C1584.13 76.28 1584.11 76.42 1584.09 76.54H1577.53C1577.59 77.5667 1577.91 78.3867 1578.49 79C1579.07 79.6133 1579.83 79.92 1580.77 79.92C1581.23 79.92 1581.66 79.8533 1582.05 79.72C1582.45 79.5733 1582.83 79.3867 1583.19 79.16L1583.77 80.24C1583.35 80.5067 1582.88 80.74 1582.35 80.94C1581.83 81.14 1581.23 81.24 1580.57 81.24ZM1577.51 75.36H1582.71C1582.71 74.3733 1582.49 73.6267 1582.07 73.12C1581.65 72.6 1581.07 72.34 1580.31 72.34C1579.63 72.34 1579.01 72.6067 1578.47 73.14C1577.93 73.66 1577.61 74.4 1577.51 75.36ZM1585.05 81L1588.23 75.92L1585.29 71.28H1587.07L1588.37 73.42C1588.52 73.6733 1588.67 73.94 1588.83 74.22C1588.99 74.5 1589.16 74.7733 1589.33 75.04H1589.41C1589.56 74.7733 1589.7 74.5 1589.85 74.22C1590 73.94 1590.14 73.6733 1590.29 73.42L1591.47 71.28H1593.19L1590.25 76.1L1593.41 81H1591.63L1590.21 78.74C1590.04 78.4467 1589.86 78.1533 1589.69 77.86C1589.52 77.5667 1589.34 77.28 1589.15 77H1589.07C1588.9 77.28 1588.73 77.5667 1588.57 77.86C1588.41 78.14 1588.25 78.4333 1588.09 78.74L1586.77 81H1585.05ZM1597.91 81.24C1596.87 81.24 1596.14 80.94 1595.73 80.34C1595.33 79.74 1595.13 78.96 1595.13 78V72.62H1593.69V71.38L1595.21 71.28L1595.41 68.56H1596.79V71.28H1599.41V72.62H1596.79V78.02C1596.79 78.62 1596.9 79.0867 1597.11 79.42C1597.34 79.74 1597.73 79.9 1598.29 79.9C1598.46 79.9 1598.65 79.8733 1598.85 79.82C1599.05 79.7533 1599.23 79.6933 1599.39 79.64L1599.71 80.88C1599.44 80.9733 1599.15 81.0533 1598.83 81.12C1598.52 81.2 1598.22 81.24 1597.91 81.24Z" fill="black"/>
</svg>
