<?xml version="1.0" encoding="UTF-8" standalone="no"?>
<svg
   width="1093.8568"
   height="172"
   viewBox="0 0 1093.8568 172"
   fill="none"
   version="1.1"
   id="svg24"
   sodipodi:docname="bpe_subword.svg"
   inkscape:version="1.2.2 (732a01da63, 2022-12-09)"
   inkscape:export-filename="bpe_subword.png"
   inkscape:export-xdpi="300"
   inkscape:export-ydpi="300"
   xmlns:inkscape="http://www.inkscape.org/namespaces/inkscape"
   xmlns:sodipodi="http://sodipodi.sourceforge.net/DTD/sodipodi-0.dtd"
   xmlns="http://www.w3.org/2000/svg"
   xmlns:svg="http://www.w3.org/2000/svg">
  <defs
     id="defs28" />
  <sodipodi:namedview
     id="namedview26"
     pagecolor="#ffffff"
     bordercolor="#000000"
     borderopacity="0.25"
     inkscape:showpageshadow="2"
     inkscape:pageopacity="0.0"
     inkscape:pagecheckerboard="0"
     inkscape:deskcolor="#d1d1d1"
     showgrid="false"
     inkscape:zoom="0.68838992"
     inkscape:cx="913"
     inkscape:cy="82.801909"
     inkscape:window-width="2560"
     inkscape:window-height="1369"
     inkscape:window-x="2872"
     inkscape:window-y="-8"
     inkscape:window-maximized="1"
     inkscape:current-layer="svg24" />
  <rect
     width="1093.8568"
     height="172"
     fill="#ffffff"
     id="rect2"
     x="0"
     y="0"
     style="stroke-width:0.77398" />
  <rect
     x="41.438522"
     y="34.858562"
     width="1009.2343"
     height="96.472198"
     rx="2.9034359"
     fill="#f5f1ff"
     stroke="#dbceff"
     stroke-width="1.5278"
     id="rect4" />
  <path
     d="m 76.506,93.544672 v -24.928 h 3.154 v 22.23 h 10.906 v 2.698 z m 25.217,0.456 c -1.647,0 -3.141,-0.38 -4.484,-1.14 -1.343,-0.7853 -2.407,-1.9 -3.192,-3.344 -0.785,-1.444 -1.178,-3.1667 -1.178,-5.168 0,-2.0267 0.393,-3.762 1.178,-5.206 0.811,-1.444 1.849,-2.5587 3.116,-3.344 1.267,-0.7853 2.597,-1.178 3.99,-1.178 2.356,0 4.167,0.7853 5.434,2.356 1.292,1.5707 1.938,3.6733 1.938,6.308 0,0.3293 -0.013,0.6587 -0.038,0.988 0,0.304 -0.025,0.57 -0.076,0.798 H 95.947 c 0.127,1.9507 0.735,3.5087 1.824,4.674 1.115,1.1653 2.559,1.748 4.332,1.748 0.887,0 1.697,-0.1267 2.432,-0.38 0.76,-0.2787 1.482,-0.6333 2.166,-1.064 l 1.102,2.052 c -0.785,0.5067 -1.685,0.95 -2.698,1.33 -0.988,0.38 -2.115,0.57 -3.382,0.57 z m -5.814,-11.172 h 9.88 c 0,-1.8747 -0.405,-3.2933 -1.216,-4.256 -0.785,-0.988 -1.9,-1.482 -3.344,-1.482 -1.292,0 -2.457,0.5067 -3.496,1.52 -1.013,0.988 -1.621,2.394 -1.824,4.218 z m 22.623,11.172 c -1.976,0 -3.357,-0.57 -4.142,-1.71 -0.76,-1.14 -1.14,-2.622 -1.14,-4.446 v -10.222 h -2.736 v -2.356 l 2.888,-0.19 0.38,-5.168 h 2.622 v 5.168 h 4.978 v 2.546 h -4.978 v 10.26 c 0,1.14 0.202,2.0267 0.608,2.66 0.43,0.608 1.178,0.912 2.242,0.912 0.329,0 0.684,-0.0507 1.064,-0.152 0.38,-0.1267 0.722,-0.2407 1.026,-0.342 l 0.608,2.356 c -0.507,0.1773 -1.064,0.329 -1.672,0.456 -0.583,0.152 -1.166,0.228 -1.748,0.228 z m 7.177,-16.834 -0.874,-1.444 c 0.963,-0.6333 1.672,-1.3047 2.128,-2.014 0.482,-0.7347 0.722,-1.6467 0.722,-2.736 -0.076,0.0253 -0.177,0.038 -0.304,0.038 -0.532,0 -1,-0.1647 -1.406,-0.494 -0.405,-0.3293 -0.608,-0.798 -0.608,-1.406 0,-0.6587 0.19,-1.178 0.57,-1.558 0.38,-0.38 0.862,-0.57 1.444,-0.57 0.735,0 1.318,0.304 1.748,0.912 0.431,0.5827 0.646,1.4313 0.646,2.546 0,1.52 -0.354,2.8373 -1.064,3.952 -0.684,1.0893 -1.684,2.014 -3.002,2.774 z m 12.282,16.834 c -1.318,0 -2.572,-0.241 -3.762,-0.722 -1.191,-0.5067 -2.23,-1.1147 -3.116,-1.824 l 1.558,-2.09 c 0.81,0.6333 1.646,1.1653 2.508,1.596 0.861,0.4053 1.836,0.608 2.926,0.608 1.216,0 2.128,-0.2787 2.736,-0.836 0.608,-0.5827 0.912,-1.2667 0.912,-2.052 0,-0.6333 -0.216,-1.1653 -0.646,-1.596 -0.406,-0.4307 -0.938,-0.7853 -1.596,-1.064 -0.634,-0.304 -1.292,-0.5827 -1.976,-0.836 -0.862,-0.3293 -1.71,-0.6967 -2.546,-1.102 -0.836,-0.4307 -1.52,-0.9753 -2.052,-1.634 -0.532,-0.684 -0.798,-1.5453 -0.798,-2.584 0,-1.4947 0.557,-2.736 1.672,-3.724 1.14,-1.0133 2.71,-1.52 4.712,-1.52 1.14,0 2.204,0.2027 3.192,0.608 0.988,0.4053 1.836,0.8993 2.546,1.482 l -1.52,1.976 c -0.634,-0.4813 -1.292,-0.874 -1.976,-1.178 -0.684,-0.304 -1.432,-0.456 -2.242,-0.456 -1.166,0 -2.027,0.266 -2.584,0.798 -0.532,0.532 -0.798,1.1527 -0.798,1.862 0,0.5827 0.19,1.064 0.57,1.444 0.38,0.3547 0.874,0.6713 1.482,0.95 0.608,0.2533 1.254,0.5193 1.938,0.798 0.886,0.3293 1.76,0.7093 2.622,1.14 0.861,0.4053 1.57,0.9627 2.128,1.672 0.582,0.684 0.874,1.6087 0.874,2.774 0,0.988 -0.266,1.9 -0.798,2.736 -0.507,0.836 -1.267,1.5073 -2.28,2.014 -0.988,0.507 -2.217,0.76 -3.686,0.76 z m 33.179,-5.434 -16.302,-6.384 v -2.508 l 16.302,-6.384 v 2.698 l -8.018,2.964 -5.092,1.9 v 0.152 l 5.092,1.9 8.018,2.964 z m 1.675,11.058 10.146,-33.06 h 2.28 l -10.146,33.06 z m 18.947,-6.08 -5.13,-18.468 h 3.192 l 2.736,10.678 c 0.203,0.8613 0.393,1.7227 0.57,2.584 0.177,0.836 0.355,1.6847 0.532,2.546 h 0.152 c 0.203,-0.8613 0.405,-1.71 0.608,-2.546 0.203,-0.8613 0.418,-1.7227 0.646,-2.584 l 2.85,-10.678 h 3.04 l 2.888,10.678 c 0.228,0.8613 0.443,1.7227 0.646,2.584 0.228,0.836 0.443,1.6847 0.646,2.546 h 0.152 c 0.203,-0.8613 0.393,-1.71 0.57,-2.546 0.203,-0.8613 0.393,-1.7227 0.57,-2.584 l 2.698,-10.678 h 2.964 l -4.94,18.468 h -3.8 l -2.66,-9.918 c -0.228,-0.8867 -0.443,-1.7607 -0.646,-2.622 -0.177,-0.8613 -0.38,-1.7607 -0.608,-2.698 h -0.152 c -0.203,0.9373 -0.405,1.8493 -0.608,2.736 -0.203,0.8613 -0.431,1.7353 -0.684,2.622 l -2.584,9.88 z m 22.525,-4.978 v -2.698 l 8.018,-2.964 5.092,-1.9 v -0.152 l -5.092,-1.9 -8.018,-2.964 v -2.698 l 16.302,6.384 v 2.508 z"
     fill="#29175c"
     id="path6" />
  <path
     d="m 311.30969,94.038672 c -2.305,0 -4.155,-0.836 -5.548,-2.508 -1.393,-1.6973 -2.09,-4.0787 -2.09,-7.144 0,-2.0013 0.367,-3.724 1.102,-5.168 0.76,-1.4693 1.748,-2.5967 2.964,-3.382 1.241,-0.7853 2.559,-1.178 3.952,-1.178 1.064,0 1.989,0.19 2.774,0.57 0.785,0.38 1.583,0.8993 2.394,1.558 l -0.152,-3.154 v -7.106 h 3.154 v 27.056 h -2.584 l -0.266,-2.166 h -0.114 c -0.709,0.7093 -1.545,1.33 -2.508,1.862 -0.963,0.507 -1.989,0.76 -3.078,0.76 z m 0.684,-2.622 c 1.621,0 3.192,-0.8487 4.712,-2.546 v -9.652 c -0.785,-0.7093 -1.545,-1.2033 -2.28,-1.482 -0.709,-0.304 -1.444,-0.456 -2.204,-0.456 -0.988,0 -1.887,0.304 -2.698,0.912 -0.785,0.5827 -1.419,1.406 -1.89999,2.47 -0.481,1.0387 -0.722,2.2673 -0.722,3.686 0,2.204 0.443,3.9393 1.33,5.206 0.887,1.2413 2.14101,1.862 3.76199,1.862 z m 21.268,2.622 c -1.494,0 -2.9,-0.38 -4.218,-1.14 -1.292,-0.76 -2.343,-1.862 -3.154,-3.306 -0.785,-1.444 -1.178,-3.1793 -1.178,-5.206 0,-2.0773 0.393,-3.838 1.178,-5.282 0.811,-1.444 1.862,-2.546 3.154,-3.306 1.318,-0.76 2.724,-1.14 4.218,-1.14 1.52,0 2.926,0.38 4.218,1.14 1.292,0.76 2.331,1.862 3.116,3.306 0.811,1.444 1.216,3.2047 1.216,5.282 0,2.0267 -0.405,3.762 -1.216,5.206 -0.785,1.444 -1.824,2.546 -3.116,3.306 -1.29199,0.76 -2.698,1.14 -4.218,1.14 z m 0,-2.584 c 1.596,0 2.876,-0.646 3.838,-1.938 0.988,-1.3173 1.48201,-3.0273 1.48201,-5.13 0,-2.128 -0.49401,-3.8507 -1.48201,-5.168 -0.962,-1.3173 -2.242,-1.976 -3.838,-1.976 -1.57,0 -2.85,0.6587 -3.838,1.976 -0.988,1.3173 -1.482,3.04 -1.482,5.168 0,2.1027 0.494,3.8127 1.482,5.13 0.988,1.292 2.268,1.938 3.838,1.938 z m 27.892,-2.85 -16.302,-6.384 v -2.508 l 16.302,-6.384 v 2.698 l -8.018,2.964 -5.092,1.9 v 0.152 l 5.092,1.9 8.01801,2.964 z m 1.675,11.058 10.146,-33.06 h 2.28 l -10.146,33.06 z m 18.947,-6.08 -5.13,-18.468 h 3.192 l 2.736,10.678 c 0.202,0.8613 0.39201,1.7227 0.57002,2.584 0.177,0.836 0.35401,1.6847 0.53201,2.546 h 0.152 c 0.202,-0.8613 0.405,-1.71 0.60799,-2.546 0.202,-0.8613 0.41801,-1.7227 0.64599,-2.584 l 2.85001,-10.678 h 3.03999 l 2.88801,10.678 c 0.22799,0.8613 0.44299,1.7227 0.64598,2.584 0.228,0.836 0.443,1.6847 0.646,2.546 h 0.152 c 0.202,-0.8613 0.39202,-1.71 0.57003,-2.546 0.202,-0.8613 0.39202,-1.7227 0.57,-2.584 l 2.69801,-10.678 h 2.96399 l -4.94,18.468 h -3.8 l -2.65998,-9.918 c -0.22801,-0.8867 -0.44399,-1.7607 -0.64599,-2.622 -0.17801,-0.8613 -0.38002,-1.7607 -0.608,-2.698 h -0.152 c -0.203,0.9373 -0.406,1.8493 -0.608,2.736 -0.203,0.8613 -0.431,1.7353 -0.684,2.622 l -2.584,9.88 z m 22.525,-4.978 v -2.698 l 8.018,-2.964 5.092,-1.9 v -0.152 l -5.092,-1.9 -8.018,-2.964 v -2.698 l 16.302,6.384 v 2.508 z"
     fill="#29175c"
     id="path8" />
  <path
     d="m 535.27988,96.850672 c -1.976,0 -3.356,-0.57 -4.142,-1.71 -0.76,-1.14 -1.14,-2.622 -1.14,-4.446 v -10.222 h -2.736 v -2.356 l 2.888,-0.19 0.38,-5.168 h 2.622 v 5.168 h 4.978 v 2.546 h -4.978 v 10.26 c 0,1.14 0.203,2.0267 0.608,2.66 0.431,0.608 1.178,0.912 2.24199,0.912 0.33001,0 0.684,-0.0507 1.064,-0.152 0.38,-0.1267 0.722,-0.2407 1.026,-0.342 l 0.608,2.356 c -0.506,0.1773 -1.064,0.329 -1.672,0.456 -0.582,0.152 -1.165,0.228 -1.74799,0.228 z m 13.689,0 c -1.495,0 -2.901,-0.38 -4.218,-1.14 -1.292,-0.76 -2.344,-1.862 -3.154,-3.306 -0.78599,-1.444 -1.178,-3.1793 -1.178,-5.206 0,-2.0773 0.39201,-3.838 1.178,-5.282 0.81,-1.444 1.862,-2.546 3.154,-3.306 1.317,-0.76 2.723,-1.14 4.218,-1.14 1.52,0 2.926,0.38 4.218,1.14 1.292,0.76 2.33,1.862 3.116,3.306 0.80999,1.444 1.216,3.2047 1.216,5.282 0,2.0267 -0.406,3.762 -1.216,5.206 -0.786,1.444 -1.824,2.546 -3.116,3.306 -1.292,0.76 -2.698,1.14 -4.218,1.14 z m 0,-2.584 c 1.596,0 2.875,-0.646 3.838,-1.938 0.988,-1.3173 1.482,-3.0273 1.482,-5.13 0,-2.128 -0.494,-3.8507 -1.482,-5.168 -0.963,-1.3173 -2.242,-1.976 -3.838,-1.976 -1.571,0 -2.85,0.6587 -3.838,1.976 -0.988,1.3173 -1.482,3.04 -1.482,5.168 0,2.1027 0.49401,3.8127 1.482,5.13 0.98801,1.292 2.26701,1.938 3.838,1.938 z m 13.413,2.128 v -27.056 h 3.078 v 18.316 h 0.114 l 7.866,-9.728 h 3.458 l -6.194,7.41 7.03,11.058 h -3.42 l -5.39599,-8.892 -3.45799,4.028 v 4.864 z m 25.633,0.456 c -1.647,0 -3.14099,-0.38 -4.484,-1.14 -1.343,-0.7853 -2.407,-1.9 -3.192,-3.344 -0.785,-1.444 -1.178,-3.1667 -1.178,-5.168 0,-2.0267 0.393,-3.762 1.178,-5.206 0.811,-1.444 1.849,-2.5587 3.116,-3.344 1.267,-0.7853 2.597,-1.178 3.99,-1.178 2.356,0 4.167,0.7853 5.434,2.356 1.292,1.5707 1.938,3.6733 1.938,6.308 0,0.3293 -0.013,0.6587 -0.038,0.988 0,0.304 -0.025,0.57 -0.076,0.798 h -12.46401 c 0.127,1.9507 0.735,3.5087 1.824,4.674 1.115,1.1653 2.559,1.748 4.332,1.748 0.887,0 1.697,-0.1267 2.432,-0.38 0.76,-0.2787 1.482,-0.6333 2.166,-1.064 l 1.102,2.052 c -0.785,0.5067 -1.68499,0.95 -2.698,1.33 -0.988,0.38 -2.115,0.57 -3.38199,0.57 z m -5.81399,-11.172 h 9.88 c 0,-1.8747 -0.40499,-3.2933 -1.216,-4.256 -0.78499,-0.988 -1.9,-1.482 -3.34401,-1.482 -1.292,0 -2.457,0.5067 -3.496,1.52 -1.013,0.988 -1.621,2.394 -1.82399,4.218 z m 17.17899,10.716 v -18.468 h 2.584 l 0.266,2.66 h 0.114 c 0.887,-0.8867 1.824,-1.6213 2.812,-2.204 0.98801,-0.608 2.116,-0.912 3.382,-0.912 1.951,0 3.37,0.6207 4.256,1.862 0.912,1.216 1.368,3.002 1.368,5.358 v 11.704 h -3.116 v -11.286 c 0,-1.7227 -0.278,-2.9767 -0.836,-3.762 -0.557,-0.7853 -1.444,-1.178 -2.66,-1.178 -0.937,0 -1.78599,0.2407 -2.546,0.722 -0.734,0.4813 -1.57,1.1907 -2.508,2.128 v 13.376 z"
     fill="#29175c"
     id="path10" />
  <path
     d="m 689.17656,93.544672 v -18.468 h 3.11 v 18.468 z m 1.59,-22.268 c -0.61,0 -1.11,-0.1773 -1.52,-0.532 -0.3801,-0.38 -0.57,-0.8867 -0.57,-1.52 0,-0.608 0.19,-1.102 0.57,-1.482 0.41,-0.38 0.91,-0.57 1.52,-0.57 0.6099,0 1.0999,0.19 1.48,0.57 0.41,0.38 0.6099,0.874 0.6099,1.482 0,0.6333 -0.2,1.14 -0.6099,1.52 -0.3801,0.3547 -0.87,0.532 -1.48,0.532 z m 5.82,22.268 v -1.672 l 9.73003,-14.25 h -8.67013 v -2.546 h 12.61983 v 1.672 l -9.73003,14.25 h 10.03003 v 2.546 z m 21.45008,0.456 c -1.55,0 -2.84005,-0.456 -3.88015,-1.368 -1.01,-0.9373 -1.52,-2.2293 -1.52,-3.876 0,-2.0267 0.9001,-3.572 2.7001,-4.636 1.81995,-1.0893 4.70005,-1.8493 8.61985,-2.28 0,-0.7853 -0.1098,-1.5327 -0.3399,-2.242 -0.2,-0.7093 -0.5799,-1.2793 -1.1401,-1.71 -0.52999,-0.456 -1.29989,-0.684 -2.31989,-0.684 -1.0599,0 -2.0599,0.2027 -3,0.608 -0.94011,0.4053 -1.77,0.8613 -2.51005,1.368 l -1.2101,-2.166 c 0.8599,-0.5573 1.9102,-1.0893 3.15025,-1.596 1.2699,-0.532 2.64,-0.798 4.1098,-0.798 2.25,0 3.88019,0.6967 4.90016,2.09 1.0099,1.368 1.5199,3.2047 1.5199,5.51 v 11.324 h -2.58986 l -0.26,-2.204 h -0.12 c -0.86001,0.7093 -1.81,1.33 -2.85001,1.862 -1.01,0.532 -2.1,0.798 -3.26,0.798 z m 0.91,-2.508 c 0.88,0 1.72,-0.2153 2.51,-0.646 0.78,-0.4307 1.62,-1.0387 2.5,-1.824 v -5.13 c -3.06,0.38 -5.21001,0.95 -6.46001,1.71 -1.21,0.76 -1.82,1.7353 -1.82,2.926 0,1.0387 0.32,1.7987 0.95,2.28 0.63,0.456 1.41,0.684 2.32001,0.684 z m 19.26996,2.508 c -1.97001,0 -3.35,-0.57 -4.13999,-1.71 -0.76,-1.14 -1.14021,-2.622 -1.14021,-4.446 v -10.222 h -2.73 v -2.356 l 2.8802,-0.19 0.38,-5.168 h 2.62999 v 5.168 h 4.97 v 2.546 h -4.97 v 10.26 c 0,1.14 0.2,2.0267 0.6,2.66 0.43,0.608 1.18,0.912 2.25,0.912 0.32,0 0.68,-0.0507 1.06,-0.152 0.38,-0.1267 0.72,-0.2407 1.03,-0.342 l 0.5999,2.356 c -0.5,0.1773 -1.0599,0.329 -1.6701,0.456 -0.5799,0.152 -1.1601,0.228 -1.74979,0.228 z m 7.02999,-0.456 v -18.468 h 3.10992 v 18.468 z m 1.59002,-22.268 c -0.6,0 -1.11001,-0.1773 -1.52002,-0.532 -0.3802,-0.38 -0.57,-0.8867 -0.57,-1.52 0,-0.608 0.19,-1.102 0.57,-1.482 0.41,-0.38 0.92002,-0.57 1.52002,-0.57 0.6098,0 1.1098,0.19 1.49,0.57 0.4,0.38 0.59991,0.874 0.59991,1.482 0,0.6333 -0.2001,1.14 -0.59991,1.52 -0.38019,0.3547 -0.88019,0.532 -1.49,0.532 z m 14.94004,22.724 c -1.49,0 -2.9001,-0.38 -4.22,-1.14 -1.29,-0.76 -2.34004,-1.862 -3.15014,-3.306 -0.78,-1.444 -1.1801,-3.1793 -1.1801,-5.206 0,-2.0773 0.4001,-3.838 1.1801,-5.282 0.8099,-1.444 1.85984,-2.546 3.15014,-3.306 1.3199,-0.76 2.73,-1.14 4.22,-1.14 1.52,0 2.93,0.38 4.22,1.14 1.28996,0.76 2.32996,1.862 3.11986,3.306 0.81,1.444 1.2101,3.2047 1.2101,5.282 0,2.0267 -0.40009,3.762 -1.2101,5.206 -0.7899,1.444 -1.82989,2.546 -3.11986,3.306 -1.29,0.76 -2.7,1.14 -4.22,1.14 z m 0,-2.584 c 1.5999,0 2.88,-0.646 3.8399,-1.938 0.98996,-1.3173 1.48006,-3.0273 1.48006,-5.13 0,-2.128 -0.4901,-3.8507 -1.48006,-5.168 -0.96,-1.3173 -2.24,-1.976 -3.8399,-1.976 -1.57,0 -2.85,0.6587 -3.84,1.976 -0.98,1.3173 -1.48,3.04 -1.48,5.168 0,2.1027 0.5,3.8127 1.48,5.13 0.99,1.292 2.27,1.938 3.84,1.938 z m 13.41996,2.128 v -18.468 h 2.57997 l 0.27,2.66 h 0.1099 c 0.8901,-0.8867 1.8199,-1.6213 2.8099,-2.204 0.99,-0.608 2.1199,-0.912 3.3802,-0.912 1.95,0 3.3698,0.6207 4.2599,1.862 0.9101,1.216 1.3699,3.002 1.3699,5.358 v 11.704 h -3.11989 v -11.286 c 0,-1.7227 -0.2799,-2.9767 -0.8299,-3.762 -0.56,-0.7853 -1.45,-1.178 -2.6601,-1.178 -0.94001,0 -1.7899,0.2407 -2.5499,0.722 -0.73,0.4813 -1.57,1.1907 -2.51,2.128 v 13.376 z m 35.26004,-4.978 -16.31007,-6.384 v -2.508 l 16.31007,-6.384 v 2.698 l -8.02004,2.964 -5.09001,1.9 v 0.152 l 5.09001,1.9 8.02004,2.964 z m 1.66999,11.058 10.14996,-33.06 h 2.28 l -10.14996,33.06 z m 18.94996,-6.08 -5.12999,-18.468 h 3.18998 l 2.74,10.678 c 0.20001,0.8613 0.39,1.7227 0.57001,2.584 0.16999,0.836 0.35,1.6847 0.53,2.546 h 0.14999 c 0.20001,-0.8613 0.4,-1.71 0.61,-2.546 0.20001,-0.8613 0.42,-1.7227 0.64,-2.584 l 2.85001,-10.678 h 3.04002 l 2.89,10.678 c 0.23,0.8613 0.44,1.7227 0.64999,2.584 0.23001,0.836 0.44001,1.6847 0.64,2.546 h 0.16011 c 0.19989,-0.8613 0.3899,-1.71 0.5699,-2.546 0.2001,-0.8613 0.39009,-1.7227 0.57,-2.584 l 2.69014,-10.678 h 2.9699 l -4.94004,18.468 h -3.7999 l -2.6601,-9.918 c -0.23,-0.8867 -0.45,-1.7607 -0.65,-2.622 -0.18,-0.8613 -0.38,-1.7607 -0.61,-2.698 h -0.15 c -0.2,0.9373 -0.4,1.8493 -0.61,2.736 -0.2,0.8613 -0.43,1.7353 -0.68002,2.622 l -2.5799,9.88 z m 22.52006,-4.978 v -2.698 l 8.01996,-2.964 5.09,-1.9 v -0.152 l -5.09,-1.9 -8.01996,-2.964 v -2.698 l 16.29993,6.384 v 2.508 z"
     fill="#29175c"
     id="path12" />
  <path
     d="m 946.64134,86.020672 -0.4201,-14.364 -0.08,-3.572 h 3.16012 l -0.08,3.572 -0.41999,14.364 z m 1.09991,7.98 c -0.63,0 -1.18,-0.215 -1.64,-0.646 -0.43001,-0.456 -0.64001,-1.026 -0.64001,-1.71 0,-0.7347 0.21,-1.3173 0.64001,-1.748 0.46,-0.456 1.01,-0.684 1.64,-0.684 0.61,0 1.1301,0.228 1.55999,0.684 0.45001,0.4307 0.68,1.0133 0.68,1.748 0,0.684 -0.23001,1.254 -0.68,1.71 -0.42999,0.431 -0.95,0.646 -1.55999,0.646 z m 23.07001,-5.434 -16.30001,-6.384 v -2.508 l 16.30001,-6.384 v 2.698 l -8.02,2.964 -5.08991,1.9 v 0.152 l 5.08991,1.9 8.02,2.964 z m 1.67,11.058 10.15011,-33.06 h 2.28 l -10.1501,33.06 z m 18.95012,-6.08 -5.13011,-18.468 h 3.19001 l 2.74,10.678 c 0.2001,0.8613 0.3901,1.7227 0.57,2.584 0.17,0.836 0.35,1.6847 0.53,2.546 h 0.15 c 0.2001,-0.8613 0.4101,-1.71 0.61,-2.546 0.2,-0.8613 0.42,-1.7227 0.65,-2.584 l 2.85,-10.678 h 3.04002 l 2.88,10.678 c 0.23,0.8613 0.4501,1.7227 0.6501,2.584 0.23,0.836 0.4401,1.6847 0.6501,2.546 h 0.15 c 0.2,-0.8613 0.39,-1.71 0.57,-2.546 0.2,-0.8613 0.39,-1.7227 0.57,-2.584 l 2.7,-10.678 h 2.96 l -4.94,18.468 h -3.8 l -2.66,-9.918 c -0.2301,-0.8867 -0.44012,-1.7607 -0.65012,-2.622 -0.1701,-0.8613 -0.3801,-1.7607 -0.5999,-2.698 h -0.1601 c -0.2001,0.9373 -0.4001,1.8493 -0.5999,2.736 -0.2101,0.8613 -0.4401,1.7353 -0.6901,2.622 l -2.5799,9.88 z m 22.52002,-4.978 v -2.698 l 8.0199,-2.964 5.09,-1.9 v -0.152 l -5.09,-1.9 -8.0199,-2.964 v -2.698 l 16.3099,6.384 v 2.508 z"
     fill="#29175c"
     id="path14" />
  <line
     x1="257.84985"
     y1="36.094673"
     x2="257.84985"
     y2="130.09467"
     stroke="#dbceff"
     stroke-width="3"
     id="line16" />
  <line
     x1="466.42453"
     y1="36.094673"
     x2="466.42453"
     y2="130.09467"
     stroke="#dbceff"
     stroke-width="3"
     id="line18" />
  <line
     x1="674.99921"
     y1="36.094673"
     x2="674.99921"
     y2="130.09467"
     stroke="#dbceff"
     stroke-width="3"
     id="line20" />
  <line
     x1="883.57391"
     y1="36.094673"
     x2="883.57391"
     y2="130.09467"
     stroke="#dbceff"
     stroke-width="3"
     id="line22" />
</svg>
