<svg width="1826" height="172" viewBox="0 0 1826 172" fill="none" xmlns="http://www.w3.org/2000/svg">
<rect width="1826" height="172" fill="white"/>
<rect x="1" y="38" width="1738" height="96" rx="5" fill="#F5F1FF" stroke="#DBCEFF" stroke-width="2"/>
<path d="M148.506 100V75.072H151.66V97.302H162.566V100H148.506ZM173.723 100.456C172.076 100.456 170.582 100.076 169.239 99.316C167.896 98.5307 166.832 97.416 166.047 95.972C165.262 94.528 164.869 92.8053 164.869 90.804C164.869 88.7773 165.262 87.042 166.047 85.598C166.858 84.154 167.896 83.0393 169.163 82.254C170.43 81.4687 171.76 81.076 173.153 81.076C175.509 81.076 177.32 81.8613 178.587 83.432C179.879 85.0027 180.525 87.1053 180.525 89.74C180.525 90.0693 180.512 90.3987 180.487 90.728C180.487 91.032 180.462 91.298 180.411 91.526H167.947C168.074 93.4767 168.682 95.0347 169.771 96.2C170.886 97.3653 172.33 97.948 174.103 97.948C174.99 97.948 175.8 97.8213 176.535 97.568C177.295 97.2893 178.017 96.9347 178.701 96.504L179.803 98.556C179.018 99.0627 178.118 99.506 177.105 99.886C176.117 100.266 174.99 100.456 173.723 100.456ZM167.909 89.284H177.789C177.789 87.4093 177.384 85.9907 176.573 85.028C175.788 84.04 174.673 83.546 173.229 83.546C171.937 83.546 170.772 84.0527 169.733 85.066C168.72 86.054 168.112 87.46 167.909 89.284ZM190.532 100.456C188.556 100.456 187.175 99.886 186.39 98.746C185.63 97.606 185.25 96.124 185.25 94.3V84.078H182.514V81.722L185.402 81.532L185.782 76.364H188.404V81.532H193.382V84.078H188.404V94.338C188.404 95.478 188.606 96.3647 189.012 96.998C189.442 97.606 190.19 97.91 191.254 97.91C191.583 97.91 191.938 97.8593 192.318 97.758C192.698 97.6313 193.04 97.5173 193.344 97.416L193.952 99.772C193.445 99.9493 192.888 100.101 192.28 100.228C191.697 100.38 191.114 100.456 190.532 100.456ZM197.709 83.622L196.835 82.178C197.798 81.5447 198.507 80.8733 198.963 80.164C199.445 79.4293 199.685 78.5173 199.685 77.428C199.609 77.4533 199.508 77.466 199.381 77.466C198.849 77.466 198.381 77.3013 197.975 76.972C197.57 76.6427 197.367 76.174 197.367 75.566C197.367 74.9073 197.557 74.388 197.937 74.008C198.317 73.628 198.799 73.438 199.381 73.438C200.116 73.438 200.699 73.742 201.129 74.35C201.56 74.9327 201.775 75.7813 201.775 76.896C201.775 78.416 201.421 79.7333 200.711 80.848C200.027 81.9373 199.027 82.862 197.709 83.622ZM209.991 100.456C208.673 100.456 207.419 100.215 206.229 99.734C205.038 99.2273 203.999 98.6193 203.113 97.91L204.671 95.82C205.481 96.4533 206.317 96.9853 207.179 97.416C208.04 97.8213 209.015 98.024 210.105 98.024C211.321 98.024 212.233 97.7453 212.841 97.188C213.449 96.6053 213.753 95.9213 213.753 95.136C213.753 94.5027 213.537 93.9707 213.107 93.54C212.701 93.1093 212.169 92.7547 211.511 92.476C210.877 92.172 210.219 91.8933 209.535 91.64C208.673 91.3107 207.825 90.9433 206.989 90.538C206.153 90.1073 205.469 89.5627 204.937 88.904C204.405 88.22 204.139 87.3587 204.139 86.32C204.139 84.8253 204.696 83.584 205.811 82.596C206.951 81.5827 208.521 81.076 210.523 81.076C211.663 81.076 212.727 81.2787 213.715 81.684C214.703 82.0893 215.551 82.5833 216.261 83.166L214.741 85.142C214.107 84.6607 213.449 84.268 212.765 83.964C212.081 83.66 211.333 83.508 210.523 83.508C209.357 83.508 208.496 83.774 207.939 84.306C207.407 84.838 207.141 85.4587 207.141 86.168C207.141 86.7507 207.331 87.232 207.711 87.612C208.091 87.9667 208.585 88.2833 209.193 88.562C209.801 88.8153 210.447 89.0813 211.131 89.36C212.017 89.6893 212.891 90.0693 213.753 90.5C214.614 90.9053 215.323 91.4627 215.881 92.172C216.463 92.856 216.755 93.7807 216.755 94.946C216.755 95.934 216.489 96.846 215.957 97.682C215.45 98.518 214.69 99.1893 213.677 99.696C212.689 100.203 211.46 100.456 209.991 100.456ZM243.17 95.022L226.868 88.638V86.13L243.17 79.746V82.444L235.152 85.408L230.06 87.308V87.46L235.152 89.36L243.17 92.324V95.022ZM244.845 106.08L254.991 73.02H257.271L247.125 106.08H244.845ZM263.792 100L258.662 81.532H261.854L264.59 92.21C264.793 93.0713 264.983 93.9327 265.16 94.794C265.337 95.63 265.515 96.4787 265.692 97.34H265.844C266.047 96.4787 266.249 95.63 266.452 94.794C266.655 93.9327 266.87 93.0713 267.098 92.21L269.948 81.532H272.988L275.876 92.21C276.104 93.0713 276.319 93.9327 276.522 94.794C276.75 95.63 276.965 96.4787 277.168 97.34H277.32C277.523 96.4787 277.713 95.63 277.89 94.794C278.093 93.9327 278.283 93.0713 278.46 92.21L281.158 81.532H284.122L279.182 100H275.382L272.722 90.082C272.494 89.1953 272.279 88.3213 272.076 87.46C271.899 86.5987 271.696 85.6993 271.468 84.762H271.316C271.113 85.6993 270.911 86.6113 270.708 87.498C270.505 88.3593 270.277 89.2333 270.024 90.12L267.44 100H263.792ZM286.317 95.022V92.324L294.335 89.36L299.427 87.46V87.308L294.335 85.408L286.317 82.444V79.746L302.619 86.13V88.638L286.317 95.022Z" fill="#29175C"/>
<path d="M536.918 100.456C534.613 100.456 532.763 99.62 531.37 97.948C529.977 96.2507 529.28 93.8693 529.28 90.804C529.28 88.8027 529.647 87.08 530.382 85.636C531.142 84.1667 532.13 83.0393 533.346 82.254C534.587 81.4687 535.905 81.076 537.298 81.076C538.362 81.076 539.287 81.266 540.072 81.646C540.857 82.026 541.655 82.5453 542.466 83.204L542.314 80.05V72.944H545.468V100H542.884L542.618 97.834H542.504C541.795 98.5433 540.959 99.164 539.996 99.696C539.033 100.203 538.007 100.456 536.918 100.456ZM537.602 97.834C539.223 97.834 540.794 96.9853 542.314 95.288V85.636C541.529 84.9267 540.769 84.4327 540.034 84.154C539.325 83.85 538.59 83.698 537.83 83.698C536.842 83.698 535.943 84.002 535.132 84.61C534.347 85.1927 533.713 86.016 533.232 87.08C532.751 88.1187 532.51 89.3473 532.51 90.766C532.51 92.97 532.953 94.7053 533.84 95.972C534.727 97.2133 535.981 97.834 537.602 97.834ZM558.87 100.456C557.376 100.456 555.97 100.076 554.652 99.316C553.36 98.556 552.309 97.454 551.498 96.01C550.713 94.566 550.32 92.8307 550.32 90.804C550.32 88.7267 550.713 86.966 551.498 85.522C552.309 84.078 553.36 82.976 554.652 82.216C555.97 81.456 557.376 81.076 558.87 81.076C560.39 81.076 561.796 81.456 563.088 82.216C564.38 82.976 565.419 84.078 566.204 85.522C567.015 86.966 567.42 88.7267 567.42 90.804C567.42 92.8307 567.015 94.566 566.204 96.01C565.419 97.454 564.38 98.556 563.088 99.316C561.796 100.076 560.39 100.456 558.87 100.456ZM558.87 97.872C560.466 97.872 561.746 97.226 562.708 95.934C563.696 94.6167 564.19 92.9067 564.19 90.804C564.19 88.676 563.696 86.9533 562.708 85.636C561.746 84.3187 560.466 83.66 558.87 83.66C557.3 83.66 556.02 84.3187 555.032 85.636C554.044 86.9533 553.55 88.676 553.55 90.804C553.55 92.9067 554.044 94.6167 555.032 95.934C556.02 97.226 557.3 97.872 558.87 97.872ZM586.762 95.022L570.46 88.638V86.13L586.762 79.746V82.444L578.744 85.408L573.652 87.308V87.46L578.744 89.36L586.762 92.324V95.022ZM588.437 106.08L598.583 73.02H600.863L590.717 106.08H588.437ZM607.384 100L602.254 81.532H605.446L608.182 92.21C608.384 93.0713 608.574 93.9327 608.752 94.794C608.929 95.63 609.106 96.4787 609.284 97.34H609.436C609.638 96.4787 609.841 95.63 610.044 94.794C610.246 93.9327 610.462 93.0713 610.69 92.21L613.54 81.532H616.58L619.468 92.21C619.696 93.0713 619.911 93.9327 620.114 94.794C620.342 95.63 620.557 96.4787 620.76 97.34H620.912C621.114 96.4787 621.304 95.63 621.482 94.794C621.684 93.9327 621.874 93.0713 622.052 92.21L624.75 81.532H627.714L622.774 100H618.974L616.314 90.082C616.086 89.1953 615.87 88.3213 615.668 87.46C615.49 86.5987 615.288 85.6993 615.06 84.762H614.908C614.705 85.6993 614.502 86.6113 614.3 87.498C614.097 88.3593 613.869 89.2333 613.616 90.12L611.032 100H607.384ZM629.909 95.022V92.324L637.927 89.36L643.019 87.46V87.308L637.927 85.408L629.909 82.444V79.746L646.211 86.13V88.638L629.909 95.022Z" fill="#29175C"/>
<path d="M898.082 100.456C896.106 100.456 894.726 99.886 893.94 98.746C893.18 97.606 892.8 96.124 892.8 94.3V84.078H890.064V81.722L892.952 81.532L893.332 76.364H895.954V81.532H900.932V84.078H895.954V94.338C895.954 95.478 896.157 96.3647 896.562 96.998C896.993 97.606 897.74 97.91 898.804 97.91C899.134 97.91 899.488 97.8593 899.868 97.758C900.248 97.6313 900.59 97.5173 900.894 97.416L901.502 99.772C900.996 99.9493 900.438 100.101 899.83 100.228C899.248 100.38 898.665 100.456 898.082 100.456ZM911.771 100.456C910.276 100.456 908.87 100.076 907.553 99.316C906.261 98.556 905.209 97.454 904.399 96.01C903.613 94.566 903.221 92.8307 903.221 90.804C903.221 88.7267 903.613 86.966 904.399 85.522C905.209 84.078 906.261 82.976 907.553 82.216C908.87 81.456 910.276 81.076 911.771 81.076C913.291 81.076 914.697 81.456 915.989 82.216C917.281 82.976 918.319 84.078 919.105 85.522C919.915 86.966 920.321 88.7267 920.321 90.804C920.321 92.8307 919.915 94.566 919.105 96.01C918.319 97.454 917.281 98.556 915.989 99.316C914.697 100.076 913.291 100.456 911.771 100.456ZM911.771 97.872C913.367 97.872 914.646 97.226 915.609 95.934C916.597 94.6167 917.091 92.9067 917.091 90.804C917.091 88.676 916.597 86.9533 915.609 85.636C914.646 84.3187 913.367 83.66 911.771 83.66C910.2 83.66 908.921 84.3187 907.933 85.636C906.945 86.9533 906.451 88.676 906.451 90.804C906.451 92.9067 906.945 94.6167 907.933 95.934C908.921 97.226 910.2 97.872 911.771 97.872ZM925.184 100V72.944H928.262V91.26H928.376L936.242 81.532H939.7L933.506 88.942L940.536 100H937.116L931.72 91.108L928.262 95.136V100H925.184ZM950.817 100.456C949.17 100.456 947.676 100.076 946.333 99.316C944.99 98.5307 943.926 97.416 943.141 95.972C942.356 94.528 941.963 92.8053 941.963 90.804C941.963 88.7773 942.356 87.042 943.141 85.598C943.952 84.154 944.99 83.0393 946.257 82.254C947.524 81.4687 948.854 81.076 950.247 81.076C952.603 81.076 954.414 81.8613 955.681 83.432C956.973 85.0027 957.619 87.1053 957.619 89.74C957.619 90.0693 957.606 90.3987 957.581 90.728C957.581 91.032 957.556 91.298 957.505 91.526H945.041C945.168 93.4767 945.776 95.0347 946.865 96.2C947.98 97.3653 949.424 97.948 951.197 97.948C952.084 97.948 952.894 97.8213 953.629 97.568C954.389 97.2893 955.111 96.9347 955.795 96.504L956.897 98.556C956.112 99.0627 955.212 99.506 954.199 99.886C953.211 100.266 952.084 100.456 950.817 100.456ZM945.003 89.284H954.883C954.883 87.4093 954.478 85.9907 953.667 85.028C952.882 84.04 951.767 83.546 950.323 83.546C949.031 83.546 947.866 84.0527 946.827 85.066C945.814 86.054 945.206 87.46 945.003 89.284ZM962.182 100V81.532H964.766L965.032 84.192H965.146C966.033 83.3053 966.97 82.5707 967.958 81.988C968.946 81.38 970.074 81.076 971.34 81.076C973.291 81.076 974.71 81.6967 975.596 82.938C976.508 84.154 976.964 85.94 976.964 88.296V100H973.848V88.714C973.848 86.9913 973.57 85.7373 973.012 84.952C972.455 84.1667 971.568 83.774 970.352 83.774C969.415 83.774 968.566 84.0147 967.806 84.496C967.072 84.9773 966.236 85.6867 965.298 86.624V100H962.182Z" fill="#29175C"/>
<path d="M1193.55 100V81.532H1196.66V100H1193.55ZM1195.14 77.732C1194.53 77.732 1194.03 77.5547 1193.62 77.2C1193.24 76.82 1193.05 76.3133 1193.05 75.68C1193.05 75.072 1193.24 74.578 1193.62 74.198C1194.03 73.818 1194.53 73.628 1195.14 73.628C1195.75 73.628 1196.24 73.818 1196.62 74.198C1197.03 74.578 1197.23 75.072 1197.23 75.68C1197.23 76.3133 1197.03 76.82 1196.62 77.2C1196.24 77.5547 1195.75 77.732 1195.14 77.732ZM1200.96 100V98.328L1210.69 84.078H1202.02V81.532H1214.64V83.204L1204.91 97.454H1214.94V100H1200.96ZM1222.41 100.456C1220.86 100.456 1219.57 100 1218.53 99.088C1217.52 98.1507 1217.01 96.8587 1217.01 95.212C1217.01 93.1853 1217.91 91.64 1219.71 90.576C1221.53 89.4867 1224.41 88.7267 1228.33 88.296C1228.33 87.5107 1228.22 86.7633 1227.99 86.054C1227.79 85.3447 1227.41 84.7747 1226.85 84.344C1226.32 83.888 1225.55 83.66 1224.53 83.66C1223.47 83.66 1222.47 83.8627 1221.53 84.268C1220.59 84.6733 1219.76 85.1293 1219.02 85.636L1217.81 83.47C1218.67 82.9127 1219.72 82.3807 1220.96 81.874C1222.23 81.342 1223.6 81.076 1225.07 81.076C1227.32 81.076 1228.95 81.7727 1229.97 83.166C1230.98 84.534 1231.49 86.3707 1231.49 88.676V100H1228.9L1228.64 97.796H1228.52C1227.66 98.5053 1226.71 99.126 1225.67 99.658C1224.66 100.19 1223.57 100.456 1222.41 100.456ZM1223.32 97.948C1224.2 97.948 1225.04 97.7327 1225.83 97.302C1226.61 96.8713 1227.45 96.2633 1228.33 95.478V90.348C1225.27 90.728 1223.12 91.298 1221.87 92.058C1220.66 92.818 1220.05 93.7933 1220.05 94.984C1220.05 96.0227 1220.37 96.7827 1221 97.264C1221.63 97.72 1222.41 97.948 1223.32 97.948ZM1242.59 100.456C1240.62 100.456 1239.24 99.886 1238.45 98.746C1237.69 97.606 1237.31 96.124 1237.31 94.3V84.078H1234.58V81.722L1237.46 81.532L1237.84 76.364H1240.47V81.532H1245.44V84.078H1240.47V94.338C1240.47 95.478 1240.67 96.3647 1241.07 96.998C1241.5 97.606 1242.25 97.91 1243.32 97.91C1243.64 97.91 1244 97.8593 1244.38 97.758C1244.76 97.6313 1245.1 97.5173 1245.41 97.416L1246.01 99.772C1245.51 99.9493 1244.95 100.101 1244.34 100.228C1243.76 100.38 1243.18 100.456 1242.59 100.456ZM1249.62 100V81.532H1252.73V100H1249.62ZM1251.21 77.732C1250.61 77.732 1250.1 77.5547 1249.69 77.2C1249.31 76.82 1249.12 76.3133 1249.12 75.68C1249.12 75.072 1249.31 74.578 1249.69 74.198C1250.1 73.818 1250.61 73.628 1251.21 73.628C1251.82 73.628 1252.32 73.818 1252.7 74.198C1253.1 74.578 1253.3 75.072 1253.3 75.68C1253.3 76.3133 1253.1 76.82 1252.7 77.2C1252.32 77.5547 1251.82 77.732 1251.21 77.732ZM1266.15 100.456C1264.66 100.456 1263.25 100.076 1261.93 99.316C1260.64 98.556 1259.59 97.454 1258.78 96.01C1258 94.566 1257.6 92.8307 1257.6 90.804C1257.6 88.7267 1258 86.966 1258.78 85.522C1259.59 84.078 1260.64 82.976 1261.93 82.216C1263.25 81.456 1264.66 81.076 1266.15 81.076C1267.67 81.076 1269.08 81.456 1270.37 82.216C1271.66 82.976 1272.7 84.078 1273.49 85.522C1274.3 86.966 1274.7 88.7267 1274.7 90.804C1274.7 92.8307 1274.3 94.566 1273.49 96.01C1272.7 97.454 1271.66 98.556 1270.37 99.316C1269.08 100.076 1267.67 100.456 1266.15 100.456ZM1266.15 97.872C1267.75 97.872 1269.03 97.226 1269.99 95.934C1270.98 94.6167 1271.47 92.9067 1271.47 90.804C1271.47 88.676 1270.98 86.9533 1269.99 85.636C1269.03 84.3187 1267.75 83.66 1266.15 83.66C1264.58 83.66 1263.3 84.3187 1262.31 85.636C1261.33 86.9533 1260.83 88.676 1260.83 90.804C1260.83 92.9067 1261.33 94.6167 1262.31 95.934C1263.3 97.226 1264.58 97.872 1266.15 97.872ZM1279.57 100V81.532H1282.15L1282.42 84.192H1282.53C1283.42 83.3053 1284.35 82.5707 1285.34 81.988C1286.33 81.38 1287.46 81.076 1288.72 81.076C1290.67 81.076 1292.09 81.6967 1292.98 82.938C1293.89 84.154 1294.35 85.94 1294.35 88.296V100H1291.23V88.714C1291.23 86.9913 1290.95 85.7373 1290.4 84.952C1289.84 84.1667 1288.95 83.774 1287.74 83.774C1286.8 83.774 1285.95 84.0147 1285.19 84.496C1284.46 84.9773 1283.62 85.6867 1282.68 86.624V100H1279.57ZM1314.83 95.022L1298.52 88.638V86.13L1314.83 79.746V82.444L1306.81 85.408L1301.72 87.308V87.46L1306.81 89.36L1314.83 92.324V95.022ZM1316.5 106.08L1326.65 73.02H1328.93L1318.78 106.08H1316.5ZM1335.45 100L1330.32 81.532H1333.51L1336.25 92.21C1336.45 93.0713 1336.64 93.9327 1336.82 94.794C1336.99 95.63 1337.17 96.4787 1337.35 97.34H1337.5C1337.7 96.4787 1337.9 95.63 1338.11 94.794C1338.31 93.9327 1338.53 93.0713 1338.75 92.21L1341.6 81.532H1344.64L1347.53 92.21C1347.76 93.0713 1347.97 93.9327 1348.18 94.794C1348.41 95.63 1348.62 96.4787 1348.82 97.34H1348.98C1349.18 96.4787 1349.37 95.63 1349.55 94.794C1349.75 93.9327 1349.94 93.0713 1350.12 92.21L1352.81 81.532H1355.78L1350.84 100H1347.04L1344.38 90.082C1344.15 89.1953 1343.93 88.3213 1343.73 87.46C1343.55 86.5987 1343.35 85.6993 1343.12 84.762H1342.97C1342.77 85.6993 1342.57 86.6113 1342.36 87.498C1342.16 88.3593 1341.93 89.2333 1341.68 90.12L1339.1 100H1335.45ZM1357.97 95.022V92.324L1365.99 89.36L1371.08 87.46V87.308L1365.99 85.408L1357.97 82.444V79.746L1374.27 86.13V88.638L1357.97 95.022Z" fill="#29175C"/>
<path d="M1560.75 92.476L1560.33 78.112L1560.25 74.54H1563.41L1563.33 78.112L1562.91 92.476H1560.75ZM1561.85 100.456C1561.22 100.456 1560.67 100.241 1560.21 99.81C1559.78 99.354 1559.57 98.784 1559.57 98.1C1559.57 97.3653 1559.78 96.7827 1560.21 96.352C1560.67 95.896 1561.22 95.668 1561.85 95.668C1562.46 95.668 1562.98 95.896 1563.41 96.352C1563.86 96.7827 1564.09 97.3653 1564.09 98.1C1564.09 98.784 1563.86 99.354 1563.41 99.81C1562.98 100.241 1562.46 100.456 1561.85 100.456ZM1584.92 95.022L1568.62 88.638V86.13L1584.92 79.746V82.444L1576.9 85.408L1571.81 87.308V87.46L1576.9 89.36L1584.92 92.324V95.022ZM1586.59 106.08L1596.74 73.02H1599.02L1588.87 106.08H1586.59ZM1605.54 100L1600.41 81.532H1603.6L1606.34 92.21C1606.54 93.0713 1606.73 93.9327 1606.91 94.794C1607.08 95.63 1607.26 96.4787 1607.44 97.34H1607.59C1607.79 96.4787 1608 95.63 1608.2 94.794C1608.4 93.9327 1608.62 93.0713 1608.85 92.21L1611.7 81.532H1614.74L1617.62 92.21C1617.85 93.0713 1618.07 93.9327 1618.27 94.794C1618.5 95.63 1618.71 96.4787 1618.92 97.34H1619.07C1619.27 96.4787 1619.46 95.63 1619.64 94.794C1619.84 93.9327 1620.03 93.0713 1620.21 92.21L1622.91 81.532H1625.87L1620.93 100H1617.13L1614.47 90.082C1614.24 89.1953 1614.03 88.3213 1613.82 87.46C1613.65 86.5987 1613.44 85.6993 1613.22 84.762H1613.06C1612.86 85.6993 1612.66 86.6113 1612.46 87.498C1612.25 88.3593 1612.02 89.2333 1611.77 90.12L1609.19 100H1605.54ZM1628.06 95.022V92.324L1636.08 89.36L1641.17 87.46V87.308L1636.08 85.408L1628.06 82.444V79.746L1644.37 86.13V88.638L1628.06 95.022Z" fill="#29175C"/>
<line x1="407.5" y1="39" x2="407.5" y2="133" stroke="#DBCEFF" stroke-width="3"/>
<line x1="769.5" y1="39" x2="769.5" y2="133" stroke="#DBCEFF" stroke-width="3"/>
<line x1="1101.5" y1="39" x2="1101.5" y2="133" stroke="#DBCEFF" stroke-width="3"/>
<line x1="1467.5" y1="39" x2="1467.5" y2="133" stroke="#DBCEFF" stroke-width="3"/>
</svg>
