<svg width="1779" height="172" viewBox="0 0 1779 172" fill="none" xmlns="http://www.w3.org/2000/svg">
<rect width="1779" height="172" fill="white"/>
<rect x="1" y="38" width="1685" height="96" rx="5" fill="#F5F1FF" stroke="#DBCEFF" stroke-width="2"/>
<path d="M51.6798 100V75.072H54.8338V97.302H65.7398V100H51.6798Z" fill="#29175C"/>
<path d="M151.676 100.456C150.03 100.456 148.535 100.076 147.192 99.316C145.85 98.5307 144.786 97.416 144 95.972C143.215 94.528 142.822 92.8053 142.822 90.804C142.822 88.7773 143.215 87.042 144 85.598C144.811 84.154 145.85 83.0393 147.116 82.254C148.383 81.4687 149.713 81.076 151.106 81.076C153.462 81.076 155.274 81.8613 156.54 83.432C157.832 85.0027 158.478 87.1053 158.478 89.74C158.478 90.0693 158.466 90.3987 158.44 90.728C158.44 91.032 158.415 91.298 158.364 91.526H145.9C146.027 93.4767 146.635 95.0347 147.724 96.2C148.839 97.3653 150.283 97.948 152.056 97.948C152.943 97.948 153.754 97.8213 154.488 97.568C155.248 97.2893 155.97 96.9347 156.654 96.504L157.756 98.556C156.971 99.0627 156.072 99.506 155.058 99.886C154.07 100.266 152.943 100.456 151.676 100.456ZM145.862 89.284H155.742C155.742 87.4093 155.337 85.9907 154.526 85.028C153.741 84.04 152.626 83.546 151.182 83.546C149.89 83.546 148.725 84.0527 147.686 85.066C146.673 86.054 146.065 87.46 145.862 89.284Z" fill="#29175C"/>
<path d="M239.01 100.456C237.034 100.456 235.653 99.886 234.868 98.746C234.108 97.606 233.728 96.124 233.728 94.3V84.078H230.992V81.722L233.88 81.532L234.26 76.364H236.882V81.532H241.86V84.078H236.882V94.338C236.882 95.478 237.085 96.3647 237.49 96.998C237.921 97.606 238.668 97.91 239.732 97.91C240.061 97.91 240.416 97.8593 240.796 97.758C241.176 97.6313 241.518 97.5173 241.822 97.416L242.43 99.772C241.923 99.9493 241.366 100.101 240.758 100.228C240.175 100.38 239.593 100.456 239.01 100.456Z" fill="#29175C"/>
<path d="M320.829 84.736C320.069 84.736 319.473 84.4447 319.043 83.862C318.637 83.254 318.435 82.4053 318.435 81.316C318.435 79.796 318.777 78.4787 319.461 77.364C320.145 76.2493 321.145 75.312 322.463 74.552L323.375 76.034C322.412 76.6673 321.69 77.3513 321.209 78.086C320.727 78.7953 320.487 79.682 320.487 80.746C320.563 80.7207 320.677 80.708 320.829 80.708C321.335 80.708 321.791 80.8727 322.197 81.202C322.627 81.5313 322.843 82.0127 322.843 82.646C322.843 83.2793 322.653 83.786 322.273 84.166C321.893 84.546 321.411 84.736 320.829 84.736Z" fill="#29175C"/>
<path d="M403.982 100.456C402.665 100.456 401.411 100.215 400.22 99.734C399.029 99.2273 397.991 98.6193 397.104 97.91L398.662 95.82C399.473 96.4533 400.309 96.9853 401.17 97.416C402.031 97.8213 403.007 98.024 404.096 98.024C405.312 98.024 406.224 97.7453 406.832 97.188C407.44 96.6053 407.744 95.9213 407.744 95.136C407.744 94.5027 407.529 93.9707 407.098 93.54C406.693 93.1093 406.161 92.7547 405.502 92.476C404.869 92.172 404.21 91.8933 403.526 91.64C402.665 91.3107 401.816 90.9433 400.98 90.538C400.144 90.1073 399.46 89.5627 398.928 88.904C398.396 88.22 398.13 87.3587 398.13 86.32C398.13 84.8253 398.687 83.584 399.802 82.596C400.942 81.5827 402.513 81.076 404.514 81.076C405.654 81.076 406.718 81.2787 407.706 81.684C408.694 82.0893 409.543 82.5833 410.252 83.166L408.732 85.142C408.099 84.6607 407.44 84.268 406.756 83.964C406.072 83.66 405.325 83.508 404.514 83.508C403.349 83.508 402.487 83.774 401.93 84.306C401.398 84.838 401.132 85.4587 401.132 86.168C401.132 86.7507 401.322 87.232 401.702 87.612C402.082 87.9667 402.576 88.2833 403.184 88.562C403.792 88.8153 404.438 89.0813 405.122 89.36C406.009 89.6893 406.883 90.0693 407.744 90.5C408.605 90.9053 409.315 91.4627 409.872 92.172C410.455 92.856 410.746 93.7807 410.746 94.946C410.746 95.934 410.48 96.846 409.948 97.682C409.441 98.518 408.681 99.1893 407.668 99.696C406.68 100.203 405.451 100.456 403.982 100.456Z" fill="#29175C"/>
<path d="M487.885 100.456C485.58 100.456 483.73 99.62 482.337 97.948C480.944 96.2507 480.247 93.8693 480.247 90.804C480.247 88.8027 480.614 87.08 481.349 85.636C482.109 84.1667 483.097 83.0393 484.313 82.254C485.554 81.4687 486.872 81.076 488.265 81.076C489.329 81.076 490.254 81.266 491.039 81.646C491.824 82.026 492.622 82.5453 493.433 83.204L493.281 80.05V72.944H496.435V100H493.851L493.585 97.834H493.471C492.762 98.5433 491.926 99.164 490.963 99.696C490 100.203 488.974 100.456 487.885 100.456ZM488.569 97.834C490.19 97.834 491.761 96.9853 493.281 95.288V85.636C492.496 84.9267 491.736 84.4327 491.001 84.154C490.292 83.85 489.557 83.698 488.797 83.698C487.809 83.698 486.91 84.002 486.099 84.61C485.314 85.1927 484.68 86.016 484.199 87.08C483.718 88.1187 483.477 89.3473 483.477 90.766C483.477 92.97 483.92 94.7053 484.807 95.972C485.694 97.2133 486.948 97.834 488.569 97.834Z" fill="#29175C"/>
<path d="M572.5 100.456C571.005 100.456 569.599 100.076 568.282 99.316C566.99 98.556 565.939 97.454 565.128 96.01C564.343 94.566 563.95 92.8307 563.95 90.804C563.95 88.7267 564.343 86.966 565.128 85.522C565.939 84.078 566.99 82.976 568.282 82.216C569.599 81.456 571.005 81.076 572.5 81.076C574.02 81.076 575.426 81.456 576.718 82.216C578.01 82.976 579.049 84.078 579.834 85.522C580.645 86.966 581.05 88.7267 581.05 90.804C581.05 92.8307 580.645 94.566 579.834 96.01C579.049 97.454 578.01 98.556 576.718 99.316C575.426 100.076 574.02 100.456 572.5 100.456ZM572.5 97.872C574.096 97.872 575.375 97.226 576.338 95.934C577.326 94.6167 577.82 92.9067 577.82 90.804C577.82 88.676 577.326 86.9533 576.338 85.636C575.375 84.3187 574.096 83.66 572.5 83.66C570.929 83.66 569.65 84.3187 568.662 85.636C567.674 86.9533 567.18 88.676 567.18 90.804C567.18 92.9067 567.674 94.6167 568.662 95.934C569.65 97.226 570.929 97.872 572.5 97.872Z" fill="#29175C"/>
<path d="M657.01 101.456C655.034 101.456 653.653 100.886 652.868 99.746C652.108 98.606 651.728 97.124 651.728 95.3V85.078H648.992V82.722L651.88 82.532L652.26 77.364H654.882V82.532H659.86V85.078H654.882V95.338C654.882 96.478 655.085 97.3647 655.49 97.998C655.921 98.606 656.668 98.91 657.732 98.91C658.061 98.91 658.416 98.8593 658.796 98.758C659.176 98.6313 659.518 98.5173 659.822 98.416L660.43 100.772C659.923 100.949 659.366 101.101 658.758 101.228C658.175 101.38 657.593 101.456 657.01 101.456Z" fill="#29175C"/>
<path d="M737.5 100.456C736.005 100.456 734.599 100.076 733.282 99.316C731.99 98.556 730.939 97.454 730.128 96.01C729.343 94.566 728.95 92.8307 728.95 90.804C728.95 88.7267 729.343 86.966 730.128 85.522C730.939 84.078 731.99 82.976 733.282 82.216C734.599 81.456 736.005 81.076 737.5 81.076C739.02 81.076 740.426 81.456 741.718 82.216C743.01 82.976 744.049 84.078 744.834 85.522C745.645 86.966 746.05 88.7267 746.05 90.804C746.05 92.8307 745.645 94.566 744.834 96.01C744.049 97.454 743.01 98.556 741.718 99.316C740.426 100.076 739.02 100.456 737.5 100.456ZM737.5 97.872C739.096 97.872 740.375 97.226 741.338 95.934C742.326 94.6167 742.82 92.9067 742.82 90.804C742.82 88.676 742.326 86.9533 741.338 85.636C740.375 84.3187 739.096 83.66 737.5 83.66C735.929 83.66 734.65 84.3187 733.662 85.636C732.674 86.9533 732.18 88.676 732.18 90.804C732.18 92.9067 732.674 94.6167 733.662 95.934C734.65 97.226 735.929 97.872 737.5 97.872Z" fill="#29175C"/>
<path d="M815.209 100V72.944H818.287V91.26H818.401L826.267 81.532H829.725L823.531 88.942L830.561 100H827.141L821.745 91.108L818.287 95.136V100H815.209Z" fill="#29175C"/>
<path d="M907.676 100.456C906.03 100.456 904.535 100.076 903.192 99.316C901.85 98.5307 900.786 97.416 900 95.972C899.215 94.528 898.822 92.8053 898.822 90.804C898.822 88.7773 899.215 87.042 900 85.598C900.811 84.154 901.85 83.0393 903.116 82.254C904.383 81.4687 905.713 81.076 907.106 81.076C909.462 81.076 911.274 81.8613 912.54 83.432C913.832 85.0027 914.478 87.1053 914.478 89.74C914.478 90.0693 914.466 90.3987 914.44 90.728C914.44 91.032 914.415 91.298 914.364 91.526H901.9C902.027 93.4767 902.635 95.0347 903.724 96.2C904.839 97.3653 906.283 97.948 908.056 97.948C908.943 97.948 909.754 97.8213 910.488 97.568C911.248 97.2893 911.97 96.9347 912.654 96.504L913.756 98.556C912.971 99.0627 912.072 99.506 911.058 99.886C910.07 100.266 908.943 100.456 907.676 100.456ZM901.862 89.284H911.742C911.742 87.4093 911.337 85.9907 910.526 85.028C909.741 84.04 908.626 83.546 907.182 83.546C905.89 83.546 904.725 84.0527 903.686 85.066C902.673 86.054 902.065 87.46 901.862 89.284Z" fill="#29175C"/>
<path d="M981.225 100V81.532H983.809L984.075 84.192H984.189C985.076 83.3053 986.013 82.5707 987.001 81.988C987.989 81.38 989.117 81.076 990.383 81.076C992.334 81.076 993.753 81.6967 994.639 82.938C995.551 84.154 996.007 85.94 996.007 88.296V100H992.891V88.714C992.891 86.9913 992.613 85.7373 992.055 84.952C991.498 84.1667 990.611 83.774 989.395 83.774C988.458 83.774 987.609 84.0147 986.849 84.496C986.115 84.9773 985.279 85.6867 984.341 86.624V100H981.225Z" fill="#29175C"/>
<path d="M1066.44 100V81.532H1069.56V100H1066.44ZM1068.04 77.732C1067.43 77.732 1066.92 77.5547 1066.52 77.2C1066.14 76.82 1065.95 76.3133 1065.95 75.68C1065.95 75.072 1066.14 74.578 1066.52 74.198C1066.92 73.818 1067.43 73.628 1068.04 73.628C1068.64 73.628 1069.14 73.818 1069.52 74.198C1069.92 74.578 1070.13 75.072 1070.13 75.68C1070.13 76.3133 1069.92 76.82 1069.52 77.2C1069.14 77.5547 1068.64 77.732 1068.04 77.732Z" fill="#29175C"/>
<path d="M1141.61 100V98.328L1151.33 84.078H1142.67V81.532H1155.29V83.204L1145.56 97.454H1155.59V100H1141.61Z" fill="#29175C"/>
<path d="M1225.8 100.456C1224.25 100.456 1222.96 100 1221.92 99.088C1220.91 98.1507 1220.4 96.8587 1220.4 95.212C1220.4 93.1853 1221.3 91.64 1223.1 90.576C1224.92 89.4867 1227.8 88.7267 1231.73 88.296C1231.73 87.5107 1231.61 86.7633 1231.38 86.054C1231.18 85.3447 1230.8 84.7747 1230.24 84.344C1229.71 83.888 1228.94 83.66 1227.93 83.66C1226.86 83.66 1225.86 83.8627 1224.92 84.268C1223.99 84.6733 1223.15 85.1293 1222.42 85.636L1221.2 83.47C1222.06 82.9127 1223.11 82.3807 1224.35 81.874C1225.62 81.342 1226.99 81.076 1228.46 81.076C1230.71 81.076 1232.35 81.7727 1233.36 83.166C1234.37 84.534 1234.88 86.3707 1234.88 88.676V100H1232.3L1232.03 97.796H1231.92C1231.05 98.5053 1230.1 99.126 1229.07 99.658C1228.05 100.19 1226.96 100.456 1225.8 100.456ZM1226.71 97.948C1227.6 97.948 1228.43 97.7327 1229.22 97.302C1230 96.8713 1230.84 96.2633 1231.73 95.478V90.348C1228.66 90.728 1226.51 91.298 1225.27 92.058C1224.05 92.818 1223.44 93.7933 1223.44 94.984C1223.44 96.0227 1223.76 96.7827 1224.39 97.264C1225.03 97.72 1225.8 97.948 1226.71 97.948Z" fill="#29175C"/>
<path d="M1311.01 100.456C1309.03 100.456 1307.65 99.886 1306.87 98.746C1306.11 97.606 1305.73 96.124 1305.73 94.3V84.078H1302.99V81.722L1305.88 81.532L1306.26 76.364H1308.88V81.532H1313.86V84.078H1308.88V94.338C1308.88 95.478 1309.08 96.3647 1309.49 96.998C1309.92 97.606 1310.67 97.91 1311.73 97.91C1312.06 97.91 1312.42 97.8593 1312.8 97.758C1313.18 97.6313 1313.52 97.5173 1313.82 97.416L1314.43 99.772C1313.92 99.9493 1313.37 100.101 1312.76 100.228C1312.18 100.38 1311.59 100.456 1311.01 100.456Z" fill="#29175C"/>
<path d="M1386.44 100V81.532H1389.56V100H1386.44ZM1388.04 77.732C1387.43 77.732 1386.92 77.5547 1386.52 77.2C1386.14 76.82 1385.95 76.3133 1385.95 75.68C1385.95 75.072 1386.14 74.578 1386.52 74.198C1386.92 73.818 1387.43 73.628 1388.04 73.628C1388.64 73.628 1389.14 73.818 1389.52 74.198C1389.92 74.578 1390.13 75.072 1390.13 75.68C1390.13 76.3133 1389.92 76.82 1389.52 77.2C1389.14 77.5547 1388.64 77.732 1388.04 77.732Z" fill="#29175C"/>
<path d="M1468.5 100.456C1467.01 100.456 1465.6 100.076 1464.28 99.316C1462.99 98.556 1461.94 97.454 1461.13 96.01C1460.34 94.566 1459.95 92.8307 1459.95 90.804C1459.95 88.7267 1460.34 86.966 1461.13 85.522C1461.94 84.078 1462.99 82.976 1464.28 82.216C1465.6 81.456 1467.01 81.076 1468.5 81.076C1470.02 81.076 1471.43 81.456 1472.72 82.216C1474.01 82.976 1475.05 84.078 1475.83 85.522C1476.64 86.966 1477.05 88.7267 1477.05 90.804C1477.05 92.8307 1476.64 94.566 1475.83 96.01C1475.05 97.454 1474.01 98.556 1472.72 99.316C1471.43 100.076 1470.02 100.456 1468.5 100.456ZM1468.5 97.872C1470.1 97.872 1471.38 97.226 1472.34 95.934C1473.33 94.6167 1473.82 92.9067 1473.82 90.804C1473.82 88.676 1473.33 86.9533 1472.34 85.636C1471.38 84.3187 1470.1 83.66 1468.5 83.66C1466.93 83.66 1465.65 84.3187 1464.66 85.636C1463.67 86.9533 1463.18 88.676 1463.18 90.804C1463.18 92.9067 1463.67 94.6167 1464.66 95.934C1465.65 97.226 1466.93 97.872 1468.5 97.872Z" fill="#29175C"/>
<path d="M1541.23 100V81.532H1543.81L1544.08 84.192H1544.19C1545.08 83.3053 1546.01 82.5707 1547 81.988C1547.99 81.38 1549.12 81.076 1550.38 81.076C1552.33 81.076 1553.75 81.6967 1554.64 82.938C1555.55 84.154 1556.01 85.94 1556.01 88.296V100H1552.89V88.714C1552.89 86.9913 1552.61 85.7373 1552.06 84.952C1551.5 84.1667 1550.61 83.774 1549.4 83.774C1548.46 83.774 1547.61 84.0147 1546.85 84.496C1546.11 84.9773 1545.28 85.6867 1544.34 86.624V100H1541.23Z" fill="#29175C"/>
<path d="M1634.42 92.476L1634 78.112L1633.92 74.54H1637.08L1637 78.112L1636.58 92.476H1634.42ZM1635.52 100.456C1634.88 100.456 1634.34 100.241 1633.88 99.81C1633.45 99.354 1633.24 98.784 1633.24 98.1C1633.24 97.3653 1633.45 96.7827 1633.88 96.352C1634.34 95.896 1634.88 95.668 1635.52 95.668C1636.13 95.668 1636.65 95.896 1637.08 96.352C1637.53 96.7827 1637.76 97.3653 1637.76 98.1C1637.76 98.784 1637.53 99.354 1637.08 99.81C1636.65 100.241 1636.13 100.456 1635.52 100.456Z" fill="#29175C"/>
<line x1="110.5" y1="39" x2="110.5" y2="133" stroke="#DBCEFF" stroke-width="3"/>
<line x1="195.5" y1="39" x2="195.5" y2="133" stroke="#DBCEFF" stroke-width="3"/>
<line x1="280.5" y1="39" x2="280.5" y2="133" stroke="#DBCEFF" stroke-width="3"/>
<line x1="365.5" y1="39" x2="365.5" y2="133" stroke="#DBCEFF" stroke-width="3"/>
<line x1="448.5" y1="39" x2="448.5" y2="133" stroke="#DBCEFF" stroke-width="3"/>
<line x1="532.5" y1="39" x2="532.5" y2="133" stroke="#DBCEFF" stroke-width="3"/>
<line x1="615.5" y1="39" x2="615.5" y2="133" stroke="#DBCEFF" stroke-width="3"/>
<line x1="695.5" y1="39" x2="695.5" y2="133" stroke="#DBCEFF" stroke-width="3"/>
<line x1="779.5" y1="39" x2="779.5" y2="133" stroke="#DBCEFF" stroke-width="3"/>
<line x1="865.5" y1="39" x2="865.5" y2="133" stroke="#DBCEFF" stroke-width="3"/>
<line x1="949.5" y1="39" x2="949.5" y2="133" stroke="#DBCEFF" stroke-width="3"/>
<line x1="1029.5" y1="39" x2="1029.5" y2="133" stroke="#DBCEFF" stroke-width="3"/>
<line x1="1109.5" y1="39" x2="1109.5" y2="133" stroke="#DBCEFF" stroke-width="3"/>
<line x1="1189.5" y1="39" x2="1189.5" y2="133" stroke="#DBCEFF" stroke-width="3"/>
<line x1="1269.5" y1="39" x2="1269.5" y2="133" stroke="#DBCEFF" stroke-width="3"/>
<line x1="1349.5" y1="39" x2="1349.5" y2="133" stroke="#DBCEFF" stroke-width="3"/>
<line x1="1429.5" y1="39" x2="1429.5" y2="133" stroke="#DBCEFF" stroke-width="3"/>
<line x1="1509.5" y1="39" x2="1509.5" y2="133" stroke="#DBCEFF" stroke-width="3"/>
<line x1="1589.5" y1="39" x2="1589.5" y2="133" stroke="#DBCEFF" stroke-width="3"/>
</svg>
