<?xml version="1.0" encoding="UTF-8" standalone="no"?>
<svg
   width="1135.5328"
   height="172"
   viewBox="0 0 1135.5328 172"
   fill="none"
   version="1.1"
   id="svg84"
   sodipodi:docname="character_based_tokenization.svg"
   inkscape:version="1.2.2 (732a01da63, 2022-12-09)"
   inkscape:export-filename="character_based_tokenization.png"
   inkscape:export-xdpi="300"
   inkscape:export-ydpi="300"
   xmlns:inkscape="http://www.inkscape.org/namespaces/inkscape"
   xmlns:sodipodi="http://sodipodi.sourceforge.net/DTD/sodipodi-0.dtd"
   xmlns="http://www.w3.org/2000/svg"
   xmlns:svg="http://www.w3.org/2000/svg">
  <defs
     id="defs88" />
  <sodipodi:namedview
     id="namedview86"
     pagecolor="#ffffff"
     bordercolor="#000000"
     borderopacity="0.25"
     inkscape:showpageshadow="2"
     inkscape:pageopacity="0.0"
     inkscape:pagecheckerboard="0"
     inkscape:deskcolor="#d1d1d1"
     showgrid="false"
     inkscape:zoom="0.70710678"
     inkscape:cx="738.92659"
     inkscape:cy="-38.183766"
     inkscape:window-width="2560"
     inkscape:window-height="1369"
     inkscape:window-x="2872"
     inkscape:window-y="-8"
     inkscape:window-maximized="1"
     inkscape:current-layer="svg84" />
  <rect
     width="1135.5328"
     height="172"
     fill="#ffffff"
     id="rect2"
     x="0"
     y="0"
     style="stroke-width:0.798936" />
  <rect
     x="22.737989"
     y="37.548611"
     width="1071.173"
     height="96.402039"
     rx="3.1785545"
     fill="#f5f1ff"
     stroke="#dbceff"
     stroke-width="1.59797"
     id="rect4" />
  <path
     d="m 39.652221,96.79836 v -24.928 h 3.154 v 22.23 h 10.906 v 2.698 z"
     fill="#29175c"
     id="path6" />
  <path
     d="m 101.90822,94.02436 c -1.646,0 -3.140999,-0.38 -4.483999,-1.14 -1.342,-0.7853 -2.406,-1.9 -3.192,-3.344 -0.785,-1.444 -1.178,-3.1667 -1.178,-5.168 0,-2.0267 0.393,-3.762 1.178,-5.206 0.811,-1.444 1.85,-2.5587 3.116,-3.344 1.267,-0.7853 2.597,-1.178 3.989999,-1.178 2.356,0 4.168,0.7853 5.434,2.356 1.292,1.5707 1.938,3.6733 1.938,6.308 0,0.3293 -0.012,0.6587 -0.038,0.988 0,0.304 -0.025,0.57 -0.076,0.798 H 96.132221 c 0.127,1.9507 0.735,3.5087 1.824,4.674 1.115,1.1653 2.558999,1.748 4.331999,1.748 0.887,0 1.698,-0.1267 2.432,-0.38 0.76,-0.2787 1.482,-0.6333 2.166,-1.064 l 1.102,2.052 c -0.785,0.5067 -1.684,0.95 -2.698,1.33 -0.988,0.38 -2.115,0.57 -3.382,0.57 z m -5.813999,-11.172 h 9.879999 c 0,-1.8747 -0.405,-3.2933 -1.216,-4.256 -0.785,-0.988 -1.9,-1.482 -3.344,-1.482 -1.292,0 -2.456999,0.5067 -3.495999,1.52 -1.013,0.988 -1.621,2.394 -1.824,4.218 z"
     fill="#29175c"
     id="path8" />
  <path
     d="m 157.38122,96.38036 c -1.976,0 -3.357,-0.57 -4.142,-1.71 -0.76,-1.14 -1.14,-2.622 -1.14,-4.446 v -10.222 h -2.736 v -2.356 l 2.888,-0.19 0.38,-5.168 h 2.622 v 5.168 h 4.978 v 2.546 h -4.978 v 10.26 c 0,1.14 0.203,2.0267 0.608,2.66 0.431,0.608 1.178,0.912 2.242,0.912 0.329,0 0.684,-0.0507 1.064,-0.152 0.38,-0.1267 0.722,-0.2407 1.026,-0.342 l 0.608,2.356 c -0.507,0.1773 -1.064,0.329 -1.672,0.456 -0.583,0.152 -1.165,0.228 -1.748,0.228 z"
     fill="#29175c"
     id="path10" />
  <path
     d="m 209.20622,83.42636 c -0.76,0 -1.356,-0.2913 -1.786,-0.874 -0.406,-0.608 -0.608,-1.4567 -0.608,-2.546 0,-1.52 0.342,-2.8373 1.026,-3.952 0.684,-1.1147 1.684,-2.052 3.002,-2.812 l 0.912,1.482 c -0.963,0.6333 -1.685,1.3173 -2.166,2.052 -0.482,0.7093 -0.722,1.596 -0.722,2.66 0.076,-0.0253 0.19,-0.038 0.342,-0.038 0.506,0 0.962,0.1647 1.368,0.494 0.43,0.3293 0.646,0.8107 0.646,1.444 0,0.6333 -0.19,1.14 -0.57,1.52 -0.38,0.38 -0.862,0.57 -1.444,0.57 z"
     fill="#29175c"
     id="path12" />
  <path
     d="m 263.53922,94.02436 c -1.317,0 -2.571,-0.241 -3.762,-0.722 -1.191,-0.5067 -2.229,-1.1147 -3.116,-1.824 l 1.558,-2.09 c 0.811,0.6333 1.647,1.1653 2.508,1.596 0.861,0.4053 1.837,0.608 2.926,0.608 1.216,0 2.128,-0.2787 2.736,-0.836 0.608,-0.5827 0.912,-1.2667 0.912,-2.052 0,-0.6333 -0.215,-1.1653 -0.646,-1.596 -0.405,-0.4307 -0.937,-0.7853 -1.596,-1.064 -0.633,-0.304 -1.292,-0.5827 -1.976,-0.836 -0.861,-0.3293 -1.71,-0.6967 -2.546,-1.102 -0.836,-0.4307 -1.52,-0.9753 -2.052,-1.634 -0.532,-0.684 -0.798,-1.5453 -0.798,-2.584 0,-1.4947 0.557,-2.736 1.672,-3.724 1.14,-1.0133 2.711,-1.52 4.712,-1.52 1.14,0 2.204,0.2027 3.192,0.608 0.988,0.4053 1.837,0.8993 2.546,1.482 l -1.52,1.976 c -0.633,-0.4813 -1.292,-0.874 -1.976,-1.178 -0.684,-0.304 -1.431,-0.456 -2.242,-0.456 -1.165,0 -2.027,0.266 -2.584,0.798 -0.532,0.532 -0.798,1.1527 -0.798,1.862 0,0.5827 0.19,1.064 0.57,1.444 0.38,0.3547 0.874,0.6713 1.482,0.95 0.608,0.2533 1.254,0.5193 1.938,0.798 0.887,0.3293 1.761,0.7093 2.622,1.14 0.861,0.4053 1.571,0.9627 2.128,1.672 0.583,0.684 0.874,1.6087 0.874,2.774 0,0.988 -0.266,1.9 -0.798,2.736 -0.507,0.836 -1.267,1.5073 -2.28,2.014 -0.988,0.507 -2.217,0.76 -3.686,0.76 z"
     fill="#29175c"
     id="path14" />
  <path
     d="m 317.22622,98.09036 c -2.305,0 -4.155,-0.836 -5.548,-2.508 -1.393,-1.6973 -2.09,-4.0787 -2.09,-7.144 0,-2.0013 0.367,-3.724 1.102,-5.168 0.76,-1.4693 1.748,-2.5967 2.964,-3.382 1.241,-0.7853 2.559,-1.178 3.952,-1.178 1.064,0 1.989,0.19 2.774,0.57 0.785,0.38 1.583,0.8993 2.394,1.558 l -0.152,-3.154 v -7.106 h 3.154 v 27.056 h -2.584 l -0.266,-2.166 h -0.114 c -0.709,0.7093 -1.545,1.33 -2.508,1.862 -0.963,0.507 -1.989,0.76 -3.078,0.76 z m 0.684,-2.622 c 1.621,0 3.192,-0.8487 4.712,-2.546 v -9.652 c -0.785,-0.7093 -1.545,-1.2033 -2.28,-1.482 -0.709,-0.304 -1.444,-0.456 -2.204,-0.456 -0.988,0 -1.887,0.304 -2.698,0.912 -0.785,0.5827 -1.419,1.406 -1.9,2.47 -0.481,1.0387 -0.722,2.2673 -0.722,3.686 0,2.204 0.443,3.9393 1.33,5.206 0.887,1.2413 2.141,1.862 3.762,1.862 z"
     fill="#29175c"
     id="path16" />
  <path
     d="m 371.88222,94.02436 c -1.495,0 -2.901,-0.38 -4.218,-1.14 -1.292,-0.76 -2.343,-1.862 -3.154,-3.306 -0.785,-1.444 -1.178,-3.1793 -1.178,-5.206 0,-2.0773 0.393,-3.838 1.178,-5.282 0.811,-1.444 1.862,-2.546 3.154,-3.306 1.317,-0.76 2.723,-1.14 4.218,-1.14 1.52,0 2.926,0.38 4.218,1.14 1.292,0.76 2.331,1.862 3.116,3.306 0.811,1.444 1.216,3.2047 1.216,5.282 0,2.0267 -0.405,3.762 -1.216,5.206 -0.785,1.444 -1.824,2.546 -3.116,3.306 -1.292,0.76 -2.698,1.14 -4.218,1.14 z m 0,-2.584 c 1.596,0 2.875,-0.646 3.838,-1.938 0.988,-1.3173 1.482,-3.0273 1.482,-5.13 0,-2.128 -0.494,-3.8507 -1.482,-5.168 -0.963,-1.3173 -2.242,-1.976 -3.838,-1.976 -1.571,0 -2.85,0.6587 -3.838,1.976 -0.988,1.3173 -1.482,3.04 -1.482,5.168 0,2.1027 0.494,3.8127 1.482,5.13 0.988,1.292 2.267,1.938 3.838,1.938 z"
     fill="#29175c"
     id="path18" />
  <path
     d="m 428.38122,96.38036 c -1.976,0 -3.357,-0.57 -4.142,-1.71 -0.76,-1.14 -1.14,-2.622 -1.14,-4.446 v -10.222 h -2.736 v -2.356 l 2.888,-0.19 0.38,-5.168 h 2.622 v 5.168 h 4.978 v 2.546 h -4.978 v 10.26 c 0,1.14 0.203,2.0267 0.608,2.66 0.431,0.608 1.178,0.912 2.242,0.912 0.329,0 0.684,-0.0507 1.064,-0.152 0.38,-0.1267 0.722,-0.2407 1.026,-0.342 l 0.608,2.356 c -0.507,0.177 -1.064,0.329 -1.672,0.456 -0.583,0.152 -1.165,0.228 -1.748,0.228 z"
     fill="#29175c"
     id="path20" />
  <path
     d="m 480.28222,94.02436 c -1.495,0 -2.901,-0.38 -4.218,-1.14 -1.292,-0.76 -2.343,-1.862 -3.154,-3.306 -0.785,-1.444 -1.178,-3.1793 -1.178,-5.206 0,-2.0773 0.393,-3.838 1.178,-5.282 0.811,-1.444 1.862,-2.546 3.154,-3.306 1.317,-0.76 2.723,-1.14 4.218,-1.14 1.52,0 2.926,0.38 4.218,1.14 1.292,0.76 2.331,1.862 3.116,3.306 0.811,1.444 1.216,3.2047 1.216,5.282 0,2.0267 -0.405,3.762 -1.216,5.206 -0.785,1.444 -1.824,2.546 -3.116,3.306 -1.292,0.76 -2.698,1.14 -4.218,1.14 z m 0,-2.584 c 1.596,0 2.875,-0.646 3.838,-1.938 0.988,-1.3173 1.482,-3.0273 1.482,-5.13 0,-2.128 -0.494,-3.8507 -1.482,-5.168 -0.963,-1.3173 -2.242,-1.976 -3.838,-1.976 -1.571,0 -2.85,0.6587 -3.838,1.976 -0.988,1.3173 -1.482,3.04 -1.482,5.168 0,2.1027 0.494,3.8127 1.482,5.13 0.988,1.292 2.267,1.938 3.838,1.938 z"
     fill="#29175c"
     id="path22" />
  <path
     d="m 526.80622,97.86236 v -27.056 h 3.078 v 18.316 h 0.114 l 7.866,-9.728 h 3.458 l -6.194,7.41 7.03,11.058 h -3.42 l -5.396,-8.892 -3.458,4.028 v 4.864 z"
     fill="#29175c"
     id="path24" />
  <path
     d="m 589.70822,94.02436 c -1.646,0 -3.141,-0.38 -4.484,-1.14 -1.342,-0.7853 -2.406,-1.9 -3.192,-3.344 -0.785,-1.444 -1.178,-3.1667 -1.178,-5.168 0,-2.0267 0.393,-3.762 1.178,-5.206 0.811,-1.444 1.85,-2.5587 3.116,-3.344 1.267,-0.7853 2.597,-1.178 3.99,-1.178 2.356,0 4.168,0.7853 5.434,2.356 1.292,1.5707 1.938,3.6733 1.938,6.308 0,0.3293 -0.012,0.6587 -0.038,0.988 0,0.304 -0.025,0.57 -0.076,0.798 h -12.464 c 0.127,1.9507 0.735,3.5087 1.824,4.674 1.115,1.1653 2.559,1.748 4.332,1.748 0.887,0 1.698,-0.1267 2.432,-0.38 0.76,-0.2787 1.482,-0.6333 2.166,-1.064 l 1.102,2.052 c -0.785,0.5067 -1.684,0.95 -2.698,1.33 -0.988,0.38 -2.115,0.57 -3.382,0.57 z m -5.814,-11.172 h 9.88 c 0,-1.8747 -0.405,-3.2933 -1.216,-4.256 -0.785,-0.988 -1.9,-1.482 -3.344,-1.482 -1.292,0 -2.457,0.5067 -3.496,1.52 -1.013,0.988 -1.621,2.394 -1.824,4.218 z"
     fill="#29175c"
     id="path26" />
  <path
     d="m 635.49122,93.79636 v -18.468 h 2.584 l 0.266,2.66 h 0.114 c 0.887,-0.8867 1.824,-1.6213 2.812,-2.204 0.988,-0.608 2.116,-0.912 3.382,-0.912 1.951,0 3.37,0.6207 4.256,1.862 0.912,1.216 1.368,3.002 1.368,5.358 v 11.704 h -3.116 v -11.286 c 0,-1.7227 -0.278,-2.9767 -0.836,-3.762 -0.557,-0.7853 -1.444,-1.178 -2.66,-1.178 -0.937,0 -1.786,0.2407 -2.546,0.722 -0.734,0.4813 -1.57,1.1907 -2.508,2.128 v 13.376 z"
     fill="#29175c"
     id="path28" />
  <path
     d="m 695.48222,97.52036 v -18.468 h 3.12 v 18.468 z m 1.6,-22.268 c -0.61,0 -1.12,-0.1773 -1.52,-0.532 -0.38,-0.38 -0.57,-0.8867 -0.57,-1.52 0,-0.608 0.19,-1.102 0.57,-1.482 0.4,-0.38 0.91,-0.57 1.52,-0.57 0.6,0 1.1,0.19 1.48,0.57 0.4,0.38 0.61,0.874 0.61,1.482 0,0.6333 -0.21,1.14 -0.61,1.52 -0.38,0.3547 -0.88,0.532 -1.48,0.532 z"
     fill="#29175c"
     id="path30" />
  <path
     d="m 744.29222,93.56836 v -1.672 l 9.72,-14.25 h -8.66 v -2.546 h 12.62 v 1.672 l -9.73,14.25 h 10.03 v 2.546 z"
     fill="#29175c"
     id="path32" />
  <path
     d="m 803.64222,94.02436 c -1.55,0 -2.84,-0.456 -3.88,-1.368 -1.01,-0.9373 -1.52,-2.2293 -1.52,-3.876 0,-2.0267 0.9,-3.572 2.7,-4.636 1.82,-1.0893 4.7,-1.8493 8.63,-2.28 0,-0.7853 -0.12,-1.5327 -0.35,-2.242 -0.2,-0.7093 -0.58,-1.2793 -1.14,-1.71 -0.53,-0.456 -1.3,-0.684 -2.31,-0.684 -1.07,0 -2.07,0.2027 -3.01,0.608 -0.93,0.4053 -1.77,0.8613 -2.5,1.368 l -1.22,-2.166 c 0.86,-0.5573 1.91,-1.0893 3.15,-1.596 1.27,-0.532 2.64,-0.798 4.11,-0.798 2.25,0 3.89,0.6967 4.9,2.09 1.01,1.368 1.52,3.2047 1.52,5.51 v 11.324 h -2.58 l -0.27,-2.204 h -0.11 c -0.87,0.7093 -1.82,1.33 -2.85,1.862 -1.02,0.532 -2.11,0.798 -3.27,0.798 z m 0.91,-2.508 c 0.89,0 1.72,-0.2153 2.51,-0.646 0.78,-0.4307 1.62,-1.0387 2.51,-1.824 v -5.13 c -3.07,0.38 -5.22,0.95 -6.46,1.71 -1.22,0.76 -1.83,1.7353 -1.83,2.926 0,1.0387 0.32,1.7987 0.95,2.28 0.64,0.456 1.41,0.684 2.32,0.684 z"
     fill="#29175c"
     id="path34" />
  <path
     d="m 861.98222,96.38036 c -1.98,0 -3.36,-0.57 -4.14,-1.71 -0.76,-1.14 -1.14,-2.622 -1.14,-4.446 v -10.222 h -2.74 v -2.356 l 2.89,-0.19 0.38,-5.168 h 2.62 v 5.168 h 4.98 v 2.546 h -4.98 v 10.26 c 0,1.14 0.2,2.0267 0.61,2.66 0.43,0.608 1.18,0.912 2.24,0.912 0.33,0 0.69,-0.0507 1.07,-0.152 0.38,-0.1267 0.72,-0.2407 1.02,-0.342 l 0.61,2.356 c -0.51,0.1773 -1.06,0.329 -1.67,0.456 -0.58,0.152 -1.17,0.228 -1.75,0.228 z"
     fill="#29175c"
     id="path36" />
  <path
     d="m 912.28222,97.52036 v -18.468 h 3.12 v 18.468 z m 1.6,-22.268 c -0.61,0 -1.12,-0.1773 -1.52,-0.532 -0.38,-0.38 -0.57,-0.8867 -0.57,-1.52 0,-0.608 0.19,-1.102 0.57,-1.482 0.4,-0.38 0.91,-0.57 1.52,-0.57 0.6,0 1.1,0.19 1.48,0.57 0.4,0.38 0.61,0.874 0.61,1.482 0,0.6333 -0.21,1.14 -0.61,1.52 -0.38,0.3547 -0.88,0.532 -1.48,0.532 z"
     fill="#29175c"
     id="path38" />
  <path
     d="m 968.08222,94.02436 c -1.49,0 -2.9,-0.38 -4.22,-1.14 -1.29,-0.76 -2.34,-1.862 -3.15,-3.306 -0.79,-1.444 -1.18,-3.1793 -1.18,-5.206 0,-2.0773 0.39,-3.838 1.18,-5.282 0.81,-1.444 1.86,-2.546 3.15,-3.306 1.32,-0.76 2.73,-1.14 4.22,-1.14 1.52,0 2.93,0.38 4.22,1.14 1.29,0.76 2.33,1.862 3.11,3.306 0.81,1.444 1.22,3.2047 1.22,5.282 0,2.0267 -0.41,3.762 -1.22,5.206 -0.78,1.444 -1.82,2.546 -3.11,3.306 -1.29,0.76 -2.7,1.14 -4.22,1.14 z m 0,-2.584 c 1.6,0 2.88,-0.646 3.84,-1.938 0.99,-1.3173 1.48,-3.0273 1.48,-5.13 0,-2.128 -0.49,-3.8507 -1.48,-5.168 -0.96,-1.3173 -2.24,-1.976 -3.84,-1.976 -1.57,0 -2.85,0.6587 -3.84,1.976 -0.99,1.3173 -1.48,3.04 -1.48,5.168 0,2.1027 0.49,3.8127 1.48,5.13 0.99,1.292 2.27,1.938 3.84,1.938 z"
     fill="#29175c"
     id="path40" />
  <path
     d="m 1014.8922,93.79636 v -18.468 h 2.58 l 0.27,2.66 h 0.11 c 0.89,-0.8867 1.82,-1.6213 2.81,-2.204 0.99,-0.608 2.12,-0.912 3.38,-0.912 1.95,0 3.37,0.6207 4.26,1.862 0.91,1.216 1.37,3.002 1.37,5.358 v 11.704 h -3.12 v -11.286 c 0,-1.7227 -0.28,-2.9767 -0.83,-3.762 -0.56,-0.7853 -1.45,-1.178 -2.66,-1.178 -0.94,0 -1.79,0.2407 -2.55,0.722 -0.74,0.4813 -1.57,1.1907 -2.51,2.128 v 13.376 z"
     fill="#29175c"
     id="path42" />
  <path
     d="m 1075.4022,89.31236 -0.42,-14.364 -0.08,-3.572 h 3.16 l -0.08,3.572 -0.42,14.364 z m 1.1,7.98 c -0.64,0 -1.18,-0.215 -1.64,-0.646 -0.43,-0.456 -0.64,-1.026 -0.64,-1.71 0,-0.7347 0.21,-1.3173 0.64,-1.748 0.46,-0.456 1,-0.684 1.64,-0.684 0.61,0 1.13,0.228 1.56,0.684 0.45,0.4307 0.68,1.0133 0.68,1.748 0,0.684 -0.23,1.254 -0.68,1.71 -0.43,0.431 -0.95,0.646 -1.56,0.646 z"
     fill="#29175c"
     id="path44" />
  <line
     x1="73.782219"
     y1="37.334358"
     x2="73.782219"
     y2="131.33437"
     stroke="#dbceff"
     stroke-width="3"
     id="line46" />
  <line
     x1="127.98222"
     y1="37.334358"
     x2="127.98222"
     y2="131.33437"
     stroke="#dbceff"
     stroke-width="3"
     id="line48" />
  <line
     x1="182.18222"
     y1="37.334358"
     x2="182.18222"
     y2="131.33437"
     stroke="#dbceff"
     stroke-width="3"
     id="line50" />
  <line
     x1="236.38223"
     y1="37.334358"
     x2="236.38223"
     y2="131.33437"
     stroke="#dbceff"
     stroke-width="3"
     id="line52" />
  <line
     x1="290.58221"
     y1="37.334358"
     x2="290.58221"
     y2="131.33437"
     stroke="#dbceff"
     stroke-width="3"
     id="line54" />
  <line
     x1="344.78223"
     y1="37.334358"
     x2="344.78223"
     y2="131.33437"
     stroke="#dbceff"
     stroke-width="3"
     id="line56" />
  <line
     x1="398.98221"
     y1="37.334358"
     x2="398.98221"
     y2="131.33437"
     stroke="#dbceff"
     stroke-width="3"
     id="line58" />
  <line
     x1="453.18222"
     y1="37.334358"
     x2="453.18222"
     y2="131.33437"
     stroke="#dbceff"
     stroke-width="3"
     id="line60" />
  <line
     x1="507.3822"
     y1="37.334358"
     x2="507.3822"
     y2="131.33437"
     stroke="#dbceff"
     stroke-width="3"
     id="line62" />
  <line
     x1="561.58221"
     y1="37.334358"
     x2="561.58221"
     y2="131.33437"
     stroke="#dbceff"
     stroke-width="3"
     id="line64" />
  <line
     x1="615.78223"
     y1="37.334358"
     x2="615.78223"
     y2="131.33437"
     stroke="#dbceff"
     stroke-width="3"
     id="line66" />
  <line
     x1="669.98224"
     y1="37.334358"
     x2="669.98224"
     y2="131.33437"
     stroke="#dbceff"
     stroke-width="3"
     id="line68" />
  <line
     x1="724.18219"
     y1="37.334358"
     x2="724.18219"
     y2="131.33437"
     stroke="#dbceff"
     stroke-width="3"
     id="line70" />
  <line
     x1="778.3822"
     y1="37.334358"
     x2="778.3822"
     y2="131.33437"
     stroke="#dbceff"
     stroke-width="3"
     id="line72" />
  <line
     x1="832.58221"
     y1="37.334358"
     x2="832.58221"
     y2="131.33437"
     stroke="#dbceff"
     stroke-width="3"
     id="line74" />
  <line
     x1="886.78223"
     y1="37.334358"
     x2="886.78223"
     y2="131.33437"
     stroke="#dbceff"
     stroke-width="3"
     id="line76" />
  <line
     x1="940.98224"
     y1="37.334358"
     x2="940.98224"
     y2="131.33437"
     stroke="#dbceff"
     stroke-width="3"
     id="line78" />
  <line
     x1="995.18219"
     y1="37.334358"
     x2="995.18219"
     y2="131.33437"
     stroke="#dbceff"
     stroke-width="3"
     id="line80" />
  <line
     x1="1049.3822"
     y1="37.334358"
     x2="1049.3822"
     y2="131.33437"
     stroke="#dbceff"
     stroke-width="3"
     id="line82" />
</svg>
