<?xml version="1.0" encoding="UTF-8" standalone="no"?>
<svg
   width="1335"
   height="385"
   viewBox="0 0 1335 385"
   fill="none"
   version="1.1"
   id="svg112"
   sodipodi:docname="IOB_versions.svg"
   inkscape:export-filename="IOB_versions.png"
   inkscape:export-xdpi="300"
   inkscape:export-ydpi="300"
   inkscape:version="1.2.2 (732a01da63, 2022-12-09)"
   xmlns:inkscape="http://www.inkscape.org/namespaces/inkscape"
   xmlns:sodipodi="http://sodipodi.sourceforge.net/DTD/sodipodi-0.dtd"
   xmlns="http://www.w3.org/2000/svg"
   xmlns:svg="http://www.w3.org/2000/svg">
  <defs
     id="defs116" />
  <sodipodi:namedview
     id="namedview114"
     pagecolor="#ffffff"
     bordercolor="#000000"
     borderopacity="0.25"
     inkscape:showpageshadow="2"
     inkscape:pageopacity="0.0"
     inkscape:pagecheckerboard="0"
     inkscape:deskcolor="#d1d1d1"
     showgrid="false"
     inkscape:zoom="0.72449568"
     inkscape:cx="867.5"
     inkscape:cy="191.8576"
     inkscape:window-width="2560"
     inkscape:window-height="1369"
     inkscape:window-x="2872"
     inkscape:window-y="-8"
     inkscape:window-maximized="1"
     inkscape:current-layer="svg112" />
  <rect
     x="40.5"
     y="38.5"
     width="119"
     height="57"
     rx="7.5"
     fill="#fff6df"
     stroke="#ffe1b4"
     id="rect4" />
  <rect
     x="196.5"
     y="38.5"
     width="119"
     height="57"
     rx="7.5"
     fill="#fff6df"
     stroke="#ffe1b4"
     id="rect6" />
  <rect
     x="352.5"
     y="38.5"
     width="119"
     height="57"
     rx="7.5"
     fill="#fff6df"
     stroke="#ffe1b4"
     id="rect8" />
  <rect
     x="507.5"
     y="38.5"
     width="119"
     height="57"
     rx="7.5"
     fill="#fff6df"
     stroke="#ffe1b4"
     id="rect10" />
  <rect
     x="713.5"
     y="38.5"
     width="119"
     height="57"
     rx="7.5"
     fill="#fff6df"
     stroke="#ffe1b4"
     id="rect12" />
  <rect
     x="869.5"
     y="38.5"
     width="119"
     height="57"
     rx="7.5"
     fill="#fff6df"
     stroke="#ffe1b4"
     id="rect14" />
  <rect
     x="1025.5"
     y="38.5"
     width="119"
     height="57"
     rx="7.5"
     fill="#fff6df"
     stroke="#ffe1b4"
     id="rect16" />
  <rect
     x="1181.5"
     y="38.5"
     width="119"
     height="57"
     rx="7.5"
     fill="#fff6df"
     stroke="#ffe1b4"
     id="rect18" />
  <rect
     x="40.5"
     y="122.5"
     width="119"
     height="57"
     rx="7.5"
     fill="#f6f3ff"
     stroke="#d7ddff"
     id="rect20" />
  <rect
     x="196.5"
     y="122.5"
     width="119"
     height="57"
     rx="7.5"
     fill="#f6f3ff"
     stroke="#d7ddff"
     id="rect22" />
  <rect
     x="352.5"
     y="122.5"
     width="119"
     height="57"
     rx="7.5"
     fill="#f6f3ff"
     stroke="#d7ddff"
     id="rect24" />
  <rect
     x="507.5"
     y="122.5"
     width="119"
     height="57"
     rx="7.5"
     fill="#f6f3ff"
     stroke="#d7ddff"
     id="rect26" />
  <rect
     x="196.5"
     y="290.5"
     width="275"
     height="57"
     rx="7.5"
     fill="#fff6df"
     stroke="#ffe1b4"
     id="rect28" />
  <rect
     x="713.5"
     y="290.5"
     width="275"
     height="57"
     rx="7.5"
     fill="#fff6df"
     stroke="#ffe1b4"
     id="rect30" />
  <rect
     x="713.5"
     y="122.5"
     width="119"
     height="57"
     rx="7.5"
     fill="#f6f3ff"
     stroke="#d7ddff"
     id="rect32" />
  <rect
     x="869.5"
     y="122.5"
     width="119"
     height="57"
     rx="7.5"
     fill="#f6f3ff"
     stroke="#d7ddff"
     id="rect34" />
  <rect
     x="1025.5"
     y="122.5"
     width="119"
     height="57"
     rx="7.5"
     fill="#f6f3ff"
     stroke="#d7ddff"
     id="rect36" />
  <rect
     x="1181.5"
     y="122.5"
     width="119"
     height="57"
     rx="7.5"
     fill="#f6f3ff"
     stroke="#d7ddff"
     id="rect38" />
  <rect
     x="40.5"
     y="206.5"
     width="119"
     height="57"
     rx="7.5"
     fill="#fff4ec"
     stroke="#ffe1b4"
     id="rect40" />
  <rect
     x="196.5"
     y="206.5"
     width="119"
     height="57"
     rx="7.5"
     fill="#fff4ec"
     stroke="#ffdfca"
     id="rect42" />
  <rect
     x="352.5"
     y="206.5"
     width="119"
     height="57"
     rx="7.5"
     fill="#fff4ec"
     stroke="#ffdfca"
     id="rect44" />
  <rect
     x="507.5"
     y="206.5"
     width="119"
     height="57"
     rx="7.5"
     fill="#fff4ec"
     stroke="#ffdfca"
     id="rect46" />
  <rect
     x="713.5"
     y="206.5"
     width="119"
     height="57"
     rx="7.5"
     fill="#fff4ec"
     stroke="#ffe1b4"
     id="rect48" />
  <rect
     x="869.5"
     y="206.5"
     width="119"
     height="57"
     rx="7.5"
     fill="#fff4ec"
     stroke="#ffe1b4"
     id="rect50" />
  <rect
     x="1025.5"
     y="206.5"
     width="119"
     height="57"
     rx="7.5"
     fill="#fff4ec"
     stroke="#ffe1b4"
     id="rect52" />
  <rect
     x="1181.5"
     y="206.5"
     width="119"
     height="57"
     rx="7.5"
     fill="#fff4ec"
     stroke="#ffe1b4"
     id="rect54" />
  <rect
     x="1025.5"
     y="290.5"
     width="275"
     height="57"
     rx="7.5"
     fill="#fff6df"
     stroke="#ffe1b4"
     id="rect56" />
  <path
     d="m 100.598,74.24 c -0.92,0 -1.773,-0.1733 -2.56,-0.52 -0.786,-0.36 -1.466,-0.8333 -2.04,-1.42 l 1,-1.16 c 0.467,0.4933 1.014,0.8933 1.64,1.2 0.64,0.2933 1.3,0.44 1.98,0.44 0.867,0 1.54,-0.1933 2.02,-0.58 0.48,-0.4 0.72,-0.92 0.72,-1.56 0,-0.4533 -0.1,-0.8133 -0.3,-1.08 -0.186,-0.2667 -0.446,-0.4933 -0.78,-0.68 -0.32,-0.1867 -0.686,-0.3733 -1.1,-0.56 l -1.88,-0.82 c -0.413,-0.1733 -0.826,-0.4 -1.24,-0.68 -0.4,-0.28 -0.74,-0.64 -1.02,-1.08 -0.266,-0.44 -0.4,-0.98 -0.4,-1.62 0,-0.6667 0.174,-1.26 0.52,-1.78 0.36,-0.5333 0.854,-0.9467 1.48,-1.24 0.627,-0.3067 1.334,-0.46 2.12,-0.46 0.787,0 1.514,0.1533 2.18,0.46 0.667,0.2933 1.234,0.68 1.7,1.16 l -0.9,1.08 c -0.4,-0.3867 -0.846,-0.6867 -1.34,-0.9 -0.48,-0.2267 -1.026,-0.34 -1.64,-0.34 -0.733,0 -1.326,0.1733 -1.78,0.52 -0.44,0.3467 -0.66,0.8133 -0.66,1.4 0,0.4133 0.107,0.76 0.32,1.04 0.227,0.2667 0.507,0.4867 0.84,0.66 0.334,0.1733 0.674,0.3333 1.02,0.48 l 1.86,0.8 c 0.507,0.2133 0.96,0.4733 1.36,0.78 0.414,0.2933 0.74,0.66 0.98,1.1 0.24,0.4267 0.36,0.9667 0.36,1.62 0,0.6933 -0.18,1.3267 -0.54,1.9 -0.36,0.56 -0.873,1.0067 -1.54,1.34 -0.666,0.3333 -1.46,0.5 -2.38,0.5 z"
     fill="#000000"
     id="path58" />
  <path
     d="m 79.937,158 v -13.12 h 1.66 V 158 Z m 4.274,-4.38 v -1.26 h 4.6 v 1.26 z m 7.191,4.38 v -13.12 h 3.74 c 0.986,0 1.846,0.12 2.58,0.36 0.733,0.24 1.306,0.647 1.72,1.22 0.413,0.56 0.62,1.32 0.62,2.28 0,1.373 -0.447,2.393 -1.34,3.06 -0.894,0.667 -2.06,1 -3.5,1 h -2.16 v 5.2 z m 1.66,-6.56 h 1.96 c 1.146,0 1.993,-0.213 2.54,-0.64 0.56,-0.44 0.84,-1.127 0.84,-2.06 0,-0.947 -0.294,-1.6 -0.88,-1.96 -0.574,-0.373 -1.434,-0.56 -2.58,-0.56 h -1.88 z m 9.668,6.56 v -13.12 h 7.56 v 1.4 h -5.9 v 4.12 h 4.98 v 1.42 h -4.98 v 4.76 h 6.1 V 158 Z m 10.547,0 v -13.12 h 4.1 c 0.893,0 1.686,0.12 2.38,0.36 0.693,0.227 1.233,0.613 1.62,1.16 0.4,0.533 0.6,1.253 0.6,2.16 0,1.013 -0.267,1.833 -0.8,2.46 -0.534,0.613 -1.254,1.033 -2.16,1.26 l 3.34,5.72 h -1.88 l -3.16,-5.54 h -2.38 V 158 Z m 1.66,-6.9 h 2.2 c 1.026,0 1.813,-0.207 2.36,-0.62 0.546,-0.427 0.82,-1.067 0.82,-1.92 0,-0.867 -0.274,-1.473 -0.82,-1.82 -0.547,-0.347 -1.334,-0.52 -2.36,-0.52 h -2.2 z"
     fill="#000000"
     id="path60" />
  <path
     d="m 76.185,242 v -13.12 h 3.9 c 0.893,0 1.673,0.107 2.34,0.32 0.68,0.213 1.206,0.553 1.58,1.02 0.386,0.467 0.58,1.087 0.58,1.86 0,0.653 -0.167,1.247 -0.5,1.78 -0.32,0.52 -0.794,0.88 -1.42,1.08 v 0.08 c 0.786,0.147 1.426,0.48 1.92,1 0.506,0.52 0.76,1.233 0.76,2.14 0,0.853 -0.214,1.567 -0.64,2.14 -0.414,0.573 -0.994,1 -1.74,1.28 -0.747,0.28 -1.614,0.42 -2.6,0.42 z m 1.66,-7.54 h 1.94 c 1.12,0 1.926,-0.193 2.42,-0.58 0.493,-0.387 0.74,-0.913 0.74,-1.58 0,-0.76 -0.26,-1.3 -0.78,-1.62 -0.507,-0.32 -1.274,-0.48 -2.3,-0.48 h -2.02 z m 0,6.22 h 2.28 c 1.133,0 2.013,-0.207 2.64,-0.62 0.626,-0.427 0.94,-1.08 0.94,-1.96 0,-0.813 -0.314,-1.407 -0.94,-1.78 -0.614,-0.387 -1.494,-0.58 -2.64,-0.58 h -2.28 z m 9.118,-3.06 v -1.26 h 4.6 v 1.26 z m 7.191,4.38 v -13.12 h 3.74 c 0.986,0 1.846,0.12 2.58,0.36 0.733,0.24 1.306,0.647 1.72,1.22 0.413,0.56 0.62,1.32 0.62,2.28 0,1.373 -0.447,2.393 -1.34,3.06 -0.894,0.667 -2.06,1 -3.5,1 h -2.16 v 5.2 z m 1.66,-6.56 h 1.96 c 1.146,0 1.993,-0.213 2.54,-0.64 0.56,-0.44 0.84,-1.127 0.84,-2.06 0,-0.947 -0.294,-1.6 -0.88,-1.96 -0.574,-0.373 -1.434,-0.56 -2.58,-0.56 h -1.88 z m 9.668,6.56 v -13.12 h 7.56 v 1.4 h -5.9 v 4.12 h 4.98 v 1.42 h -4.98 v 4.76 h 6.1 V 242 Z m 10.547,0 v -13.12 h 4.1 c 0.893,0 1.686,0.12 2.38,0.36 0.693,0.227 1.233,0.613 1.62,1.16 0.4,0.533 0.6,1.253 0.6,2.16 0,1.013 -0.267,1.833 -0.8,2.46 -0.534,0.613 -1.254,1.033 -2.16,1.26 l 3.34,5.72 h -1.88 l -3.16,-5.54 h -2.38 V 242 Z m 1.66,-6.9 h 2.2 c 1.026,0 1.813,-0.207 2.36,-0.62 0.546,-0.427 0.82,-1.067 0.82,-1.92 0,-0.867 -0.274,-1.473 -0.82,-1.82 -0.547,-0.347 -1.334,-0.52 -2.36,-0.52 h -2.2 z"
     fill="#000000"
     id="path62" />
  <path
     d="m 235.937,158 v -13.12 h 1.66 V 158 Z m 4.274,-4.38 v -1.26 h 4.6 v 1.26 z m 7.191,4.38 v -13.12 h 3.74 c 0.986,0 1.846,0.12 2.58,0.36 0.733,0.24 1.306,0.647 1.72,1.22 0.413,0.56 0.62,1.32 0.62,2.28 0,1.373 -0.447,2.393 -1.34,3.06 -0.894,0.667 -2.06,1 -3.5,1 h -2.16 v 5.2 z m 1.66,-6.56 h 1.96 c 1.146,0 1.993,-0.213 2.54,-0.64 0.56,-0.44 0.84,-1.127 0.84,-2.06 0,-0.947 -0.294,-1.6 -0.88,-1.96 -0.574,-0.373 -1.434,-0.56 -2.58,-0.56 h -1.88 z m 9.668,6.56 v -13.12 h 7.56 v 1.4 h -5.9 v 4.12 h 4.98 v 1.42 h -4.98 v 4.76 h 6.1 V 158 Z m 10.547,0 v -13.12 h 4.1 c 0.893,0 1.686,0.12 2.38,0.36 0.693,0.227 1.233,0.613 1.62,1.16 0.4,0.533 0.6,1.253 0.6,2.16 0,1.013 -0.267,1.833 -0.8,2.46 -0.534,0.613 -1.254,1.033 -2.16,1.26 l 3.34,5.72 h -1.88 l -3.16,-5.54 h -2.38 V 158 Z m 1.66,-6.9 h 2.2 c 1.026,0 1.813,-0.207 2.36,-0.62 0.546,-0.427 0.82,-1.067 0.82,-1.92 0,-0.867 -0.274,-1.473 -0.82,-1.82 -0.547,-0.347 -1.334,-0.52 -2.36,-0.52 h -2.2 z"
     fill="#000000"
     id="path64" />
  <path
     d="m 235.937,242 v -13.12 h 1.66 V 242 Z m 4.274,-4.38 v -1.26 h 4.6 v 1.26 z m 7.191,4.38 v -13.12 h 3.74 c 0.986,0 1.846,0.12 2.58,0.36 0.733,0.24 1.306,0.647 1.72,1.22 0.413,0.56 0.62,1.32 0.62,2.28 0,1.373 -0.447,2.393 -1.34,3.06 -0.894,0.667 -2.06,1 -3.5,1 h -2.16 v 5.2 z m 1.66,-6.56 h 1.96 c 1.146,0 1.993,-0.213 2.54,-0.64 0.56,-0.44 0.84,-1.127 0.84,-2.06 0,-0.947 -0.294,-1.6 -0.88,-1.96 -0.574,-0.373 -1.434,-0.56 -2.58,-0.56 h -1.88 z m 9.668,6.56 v -13.12 h 7.56 v 1.4 h -5.9 v 4.12 h 4.98 v 1.42 h -4.98 v 4.76 h 6.1 V 242 Z m 10.547,0 v -13.12 h 4.1 c 0.893,0 1.686,0.12 2.38,0.36 0.693,0.227 1.233,0.613 1.62,1.16 0.4,0.533 0.6,1.253 0.6,2.16 0,1.013 -0.267,1.833 -0.8,2.46 -0.534,0.613 -1.254,1.033 -2.16,1.26 l 3.34,5.72 h -1.88 l -3.16,-5.54 h -2.38 V 242 Z m 1.66,-6.9 h 2.2 c 1.026,0 1.813,-0.207 2.36,-0.62 0.546,-0.427 0.82,-1.067 0.82,-1.92 0,-0.867 -0.274,-1.473 -0.82,-1.82 -0.547,-0.347 -1.334,-0.52 -2.36,-0.52 h -2.2 z"
     fill="#000000"
     id="path66" />
  <path
     d="m 284.753,326.24 c -0.92,0 -1.774,-0.173 -2.56,-0.52 -0.787,-0.36 -1.467,-0.833 -2.04,-1.42 l 1,-1.16 c 0.466,0.493 1.013,0.893 1.64,1.2 0.64,0.293 1.3,0.44 1.98,0.44 0.866,0 1.54,-0.193 2.02,-0.58 0.48,-0.4 0.72,-0.92 0.72,-1.56 0,-0.453 -0.1,-0.813 -0.3,-1.08 -0.187,-0.267 -0.447,-0.493 -0.78,-0.68 -0.32,-0.187 -0.687,-0.373 -1.1,-0.56 l -1.88,-0.82 c -0.414,-0.173 -0.827,-0.4 -1.24,-0.68 -0.4,-0.28 -0.74,-0.64 -1.02,-1.08 -0.267,-0.44 -0.4,-0.98 -0.4,-1.62 0,-0.667 0.173,-1.26 0.52,-1.78 0.36,-0.533 0.853,-0.947 1.48,-1.24 0.626,-0.307 1.333,-0.46 2.12,-0.46 0.786,0 1.513,0.153 2.18,0.46 0.666,0.293 1.233,0.68 1.7,1.16 l -0.9,1.08 c -0.4,-0.387 -0.847,-0.687 -1.34,-0.9 -0.48,-0.227 -1.027,-0.34 -1.64,-0.34 -0.734,0 -1.327,0.173 -1.78,0.52 -0.44,0.347 -0.66,0.813 -0.66,1.4 0,0.413 0.106,0.76 0.32,1.04 0.226,0.267 0.506,0.487 0.84,0.66 0.333,0.173 0.673,0.333 1.02,0.48 l 1.86,0.8 c 0.506,0.213 0.96,0.473 1.36,0.78 0.413,0.293 0.74,0.66 0.98,1.1 0.24,0.427 0.36,0.967 0.36,1.62 0,0.693 -0.18,1.327 -0.54,1.9 -0.36,0.56 -0.874,1.007 -1.54,1.34 -0.667,0.333 -1.46,0.5 -2.38,0.5 z m 7.043,3.94 c -0.213,0 -0.42,-0.02 -0.62,-0.06 -0.187,-0.04 -0.36,-0.087 -0.52,-0.14 l 0.32,-1.3 c 0.107,0.027 0.227,0.053 0.36,0.08 0.133,0.04 0.26,0.06 0.38,0.06 0.547,0 1,-0.2 1.36,-0.6 0.36,-0.387 0.64,-0.88 0.84,-1.48 l 0.22,-0.72 -3.9,-9.74 h 1.7 l 1.98,5.38 c 0.147,0.413 0.3,0.86 0.46,1.34 0.173,0.48 0.333,0.947 0.48,1.4 h 0.08 c 0.147,-0.44 0.287,-0.9 0.42,-1.38 0.133,-0.48 0.267,-0.933 0.4,-1.36 l 1.74,-5.38 h 1.6 l -3.66,10.52 c -0.227,0.64 -0.5,1.213 -0.82,1.72 -0.307,0.507 -0.693,0.907 -1.16,1.2 -0.453,0.307 -1.007,0.46 -1.66,0.46 z m 10.916,-3.94 c -0.613,0 -1.06,-0.187 -1.34,-0.56 -0.267,-0.387 -0.4,-0.933 -0.4,-1.64 v -12.28 h 1.64 v 12.4 c 0,0.253 0.047,0.44 0.14,0.56 0.093,0.107 0.2,0.16 0.32,0.16 0.053,0 0.1,0 0.14,0 0.053,-0.013 0.127,-0.027 0.22,-0.04 l 0.22,1.24 c -0.107,0.053 -0.233,0.093 -0.38,0.12 -0.147,0.027 -0.333,0.04 -0.56,0.04 z m 5.458,-0.24 -3.5,-9.72 h 1.7 l 1.84,5.52 c 0.146,0.48 0.293,0.96 0.44,1.44 0.16,0.48 0.313,0.953 0.46,1.42 h 0.08 c 0.146,-0.467 0.293,-0.94 0.44,-1.42 0.16,-0.48 0.306,-0.96 0.44,-1.44 l 1.84,-5.52 h 1.62 l -3.44,9.72 z m 9.085,0.24 c -0.813,0 -1.493,-0.24 -2.04,-0.72 -0.533,-0.493 -0.8,-1.173 -0.8,-2.04 0,-1.067 0.473,-1.88 1.42,-2.44 0.96,-0.573 2.473,-0.973 4.54,-1.2 0,-0.413 -0.06,-0.807 -0.18,-1.18 -0.107,-0.373 -0.307,-0.673 -0.6,-0.9 -0.28,-0.24 -0.687,-0.36 -1.22,-0.36 -0.56,0 -1.087,0.107 -1.58,0.32 -0.493,0.213 -0.933,0.453 -1.32,0.72 l -0.64,-1.14 c 0.453,-0.293 1.007,-0.573 1.66,-0.84 0.667,-0.28 1.387,-0.42 2.16,-0.42 1.187,0 2.047,0.367 2.58,1.1 0.533,0.72 0.8,1.687 0.8,2.9 V 326 h -1.36 l -0.14,-1.16 h -0.06 c -0.453,0.373 -0.953,0.7 -1.5,0.98 -0.533,0.28 -1.107,0.42 -1.72,0.42 z m 0.48,-1.32 c 0.467,0 0.907,-0.113 1.32,-0.34 0.413,-0.227 0.853,-0.547 1.32,-0.96 v -2.7 c -1.613,0.2 -2.747,0.5 -3.4,0.9 -0.64,0.4 -0.96,0.913 -0.96,1.54 0,0.547 0.167,0.947 0.5,1.2 0.333,0.24 0.74,0.36 1.22,0.36 z m 7.358,1.08 v -9.72 h 1.64 V 326 Z m 0.84,-11.72 c -0.32,0 -0.587,-0.093 -0.8,-0.28 -0.2,-0.2 -0.3,-0.467 -0.3,-0.8 0,-0.32 0.1,-0.58 0.3,-0.78 0.213,-0.2 0.48,-0.3 0.8,-0.3 0.32,0 0.58,0.1 0.78,0.3 0.213,0.2 0.32,0.46 0.32,0.78 0,0.333 -0.107,0.6 -0.32,0.8 -0.2,0.187 -0.46,0.28 -0.78,0.28 z m 4.082,11.72 v -9.72 h 1.36 l 0.14,1.4 h 0.06 c 0.467,-0.467 0.96,-0.853 1.48,-1.16 0.52,-0.32 1.113,-0.48 1.78,-0.48 1.027,0 1.773,0.327 2.24,0.98 0.48,0.64 0.72,1.58 0.72,2.82 V 326 h -1.64 v -5.94 c 0,-0.907 -0.147,-1.567 -0.44,-1.98 -0.293,-0.413 -0.76,-0.62 -1.4,-0.62 -0.493,0 -0.94,0.127 -1.34,0.38 -0.387,0.253 -0.827,0.627 -1.32,1.12 V 326 Z m 15.181,3.04 v -17.2 h 3.58 v 0.94 h -2.34 v 15.32 h 2.34 v 0.94 z m 5.975,-3.04 v -13.12 h 3.74 c 0.987,0 1.847,0.12 2.58,0.36 0.733,0.24 1.307,0.647 1.72,1.22 0.413,0.56 0.62,1.32 0.62,2.28 0,1.373 -0.447,2.393 -1.34,3.06 -0.893,0.667 -2.06,1 -3.5,1 h -2.16 v 5.2 z m 1.66,-6.56 h 1.96 c 1.147,0 1.993,-0.213 2.54,-0.64 0.56,-0.44 0.84,-1.127 0.84,-2.06 0,-0.947 -0.293,-1.6 -0.88,-1.96 -0.573,-0.373 -1.433,-0.56 -2.58,-0.56 h -1.88 z m 9.668,6.56 v -13.12 h 7.56 v 1.4 h -5.9 v 4.12 h 4.98 v 1.42 h -4.98 v 4.76 h 6.1 V 326 Z m 10.547,0 v -13.12 h 4.1 c 0.893,0 1.687,0.12 2.38,0.36 0.693,0.227 1.233,0.613 1.62,1.16 0.4,0.533 0.6,1.253 0.6,2.16 0,1.013 -0.267,1.833 -0.8,2.46 -0.533,0.613 -1.253,1.033 -2.16,1.26 l 3.34,5.72 h -1.88 l -3.16,-5.54 h -2.38 V 326 Z m 1.66,-6.9 h 2.2 c 1.027,0 1.813,-0.207 2.36,-0.62 0.547,-0.427 0.82,-1.067 0.82,-1.92 0,-0.867 -0.273,-1.473 -0.82,-1.82 -0.547,-0.347 -1.333,-0.52 -2.36,-0.52 h -2.2 z m 8.547,9.94 v -0.94 h 2.32 v -15.32 h -2.32 v -0.94 h 3.56 v 17.2 z"
     fill="#000000"
     id="path68" />
  <path
     d="m 811.12,318.66 -0.62,2 h 3.94 l -0.62,-2 c -0.24,-0.733 -0.47,-1.46 -0.68,-2.18 -0.22,-0.733 -0.43,-1.48 -0.64,-2.24 h -0.08 c -0.2,0.76 -0.41,1.507 -0.62,2.24 -0.22,0.72 -0.44,1.447 -0.68,2.18 z m -4,7.34 4.44,-13.12 h 1.88 l 4.44,13.12 h -1.78 l -1.24,-4 h -4.78 l -1.26,4 z m 14.2,0.24 c -0.62,0 -1.06,-0.187 -1.34,-0.56 -0.27,-0.387 -0.4,-0.933 -0.4,-1.64 v -12.28 h 1.64 v 12.4 c 0,0.253 0.04,0.44 0.14,0.56 0.09,0.107 0.2,0.16 0.32,0.16 0.05,0 0.1,0 0.14,0 0.05,-0.013 0.12,-0.027 0.22,-0.04 l 0.22,1.24 c -0.11,0.053 -0.24,0.093 -0.38,0.12 -0.15,0.027 -0.34,0.04 -0.56,0.04 z m 3.35,-0.24 v -9.72 h 1.64 V 326 Z m 0.84,-11.72 c -0.32,0 -0.58,-0.093 -0.8,-0.28 -0.2,-0.2 -0.3,-0.467 -0.3,-0.8 0,-0.32 0.1,-0.58 0.3,-0.78 0.22,-0.2 0.48,-0.3 0.8,-0.3 0.32,0 0.58,0.1 0.78,0.3 0.22,0.2 0.32,0.46 0.32,0.78 0,0.333 -0.1,0.6 -0.32,0.8 -0.2,0.187 -0.46,0.28 -0.78,0.28 z m 7.93,11.96 c -0.86,0 -1.63,-0.2 -2.32,-0.6 -0.7,-0.4 -1.24,-0.98 -1.64,-1.74 -0.4,-0.76 -0.6,-1.673 -0.6,-2.74 0,-1.093 0.21,-2.02 0.64,-2.78 0.44,-0.76 1.01,-1.34 1.72,-1.74 0.72,-0.4 1.49,-0.6 2.32,-0.6 0.64,0 1.18,0.113 1.64,0.34 0.46,0.227 0.86,0.493 1.2,0.8 l -0.84,1.08 c -0.28,-0.253 -0.58,-0.46 -0.9,-0.62 -0.31,-0.16 -0.66,-0.24 -1.04,-0.24 -0.59,0 -1.12,0.16 -1.58,0.48 -0.46,0.307 -0.82,0.747 -1.08,1.32 -0.26,0.56 -0.38,1.213 -0.38,1.96 0,1.107 0.27,2.007 0.82,2.7 0.56,0.68 1.28,1.02 2.18,1.02 0.45,0 0.87,-0.093 1.26,-0.28 0.38,-0.2 0.72,-0.433 1.02,-0.7 l 0.72,1.1 c -0.44,0.387 -0.93,0.693 -1.46,0.92 -0.54,0.213 -1.1,0.32 -1.68,0.32 z m 8.79,0 c -0.87,0 -1.66,-0.2 -2.36,-0.6 -0.71,-0.413 -1.27,-1 -1.68,-1.76 -0.42,-0.76 -0.62,-1.667 -0.62,-2.72 0,-1.067 0.2,-1.98 0.62,-2.74 0.42,-0.76 0.97,-1.347 1.64,-1.76 0.66,-0.413 1.36,-0.62 2.1,-0.62 1.24,0 2.19,0.413 2.86,1.24 0.68,0.827 1.02,1.933 1.02,3.32 0,0.173 -0.01,0.347 -0.02,0.52 0,0.16 -0.02,0.3 -0.04,0.42 h -6.56 c 0.06,1.027 0.38,1.847 0.96,2.46 0.58,0.613 1.34,0.92 2.28,0.92 0.46,0 0.89,-0.067 1.28,-0.2 0.4,-0.147 0.78,-0.333 1.14,-0.56 l 0.58,1.08 c -0.42,0.267 -0.89,0.5 -1.42,0.7 -0.52,0.2 -1.12,0.3 -1.78,0.3 z m -3.06,-5.88 h 5.2 c 0,-0.987 -0.22,-1.733 -0.64,-2.24 -0.42,-0.52 -1,-0.78 -1.76,-0.78 -0.68,0 -1.3,0.267 -1.84,0.8 -0.54,0.52 -0.86,1.26 -0.96,2.22 z m 13.28,8.68 v -17.2 h 3.58 v 0.94 h -2.34 v 15.32 h 2.34 v 0.94 z m 5.98,-3.04 v -13.12 h 3.74 c 0.98,0 1.84,0.12 2.58,0.36 0.73,0.24 1.3,0.647 1.72,1.22 0.41,0.56 0.62,1.32 0.62,2.28 0,1.373 -0.45,2.393 -1.34,3.06 -0.9,0.667 -2.06,1 -3.5,1 h -2.16 v 5.2 z m 1.66,-6.56 h 1.96 c 1.14,0 1.99,-0.213 2.54,-0.64 0.56,-0.44 0.84,-1.127 0.84,-2.06 0,-0.947 -0.3,-1.6 -0.88,-1.96 -0.58,-0.373 -1.44,-0.56 -2.58,-0.56 h -1.88 z m 9.67,6.56 v -13.12 h 7.56 v 1.4 h -5.9 v 4.12 h 4.98 v 1.42 h -4.98 v 4.76 h 6.1 V 326 Z m 10.54,0 v -13.12 h 4.1 c 0.9,0 1.69,0.12 2.38,0.36 0.7,0.227 1.24,0.613 1.62,1.16 0.4,0.533 0.6,1.253 0.6,2.16 0,1.013 -0.26,1.833 -0.8,2.46 -0.53,0.613 -1.25,1.033 -2.16,1.26 l 3.34,5.72 h -1.88 l -3.16,-5.54 h -2.38 V 326 Z m 1.66,-6.9 h 2.2 c 1.03,0 1.82,-0.207 2.36,-0.62 0.55,-0.427 0.82,-1.067 0.82,-1.92 0,-0.867 -0.27,-1.473 -0.82,-1.82 -0.54,-0.347 -1.33,-0.52 -2.36,-0.52 h -2.2 z m 8.55,9.94 v -0.94 h 2.32 v -15.32 h -2.32 v -0.94 h 3.56 v 17.2 z"
     fill="#000000"
     id="path70" />
  <path
     d="m 1123.29,326 v -13.12 h 3.9 c 0.89,0 1.67,0.107 2.34,0.32 0.68,0.213 1.2,0.553 1.58,1.02 0.38,0.467 0.58,1.087 0.58,1.86 0,0.653 -0.17,1.247 -0.5,1.78 -0.32,0.52 -0.8,0.88 -1.42,1.08 v 0.08 c 0.78,0.147 1.42,0.48 1.92,1 0.5,0.52 0.76,1.233 0.76,2.14 0,0.853 -0.22,1.567 -0.64,2.14 -0.42,0.573 -1,1 -1.74,1.28 -0.75,0.28 -1.62,0.42 -2.6,0.42 z m 1.66,-7.54 h 1.94 c 1.12,0 1.92,-0.193 2.42,-0.58 0.49,-0.387 0.74,-0.913 0.74,-1.58 0,-0.76 -0.26,-1.3 -0.78,-1.62 -0.51,-0.32 -1.28,-0.48 -2.3,-0.48 h -2.02 z m 0,6.22 h 2.28 c 1.13,0 2.01,-0.207 2.64,-0.62 0.62,-0.427 0.94,-1.08 0.94,-1.96 0,-0.813 -0.32,-1.407 -0.94,-1.78 -0.62,-0.387 -1.5,-0.58 -2.64,-0.58 h -2.28 z m 13.71,1.56 c -0.78,0 -1.52,-0.2 -2.22,-0.6 -0.68,-0.4 -1.23,-0.98 -1.66,-1.74 -0.41,-0.76 -0.62,-1.673 -0.62,-2.74 0,-1.093 0.21,-2.02 0.62,-2.78 0.43,-0.76 0.98,-1.34 1.66,-1.74 0.7,-0.4 1.44,-0.6 2.22,-0.6 0.8,0 1.54,0.2 2.22,0.6 0.68,0.4 1.23,0.98 1.64,1.74 0.43,0.76 0.64,1.687 0.64,2.78 0,1.067 -0.21,1.98 -0.64,2.74 -0.41,0.76 -0.96,1.34 -1.64,1.74 -0.68,0.4 -1.42,0.6 -2.22,0.6 z m 0,-1.36 c 0.84,0 1.52,-0.34 2.02,-1.02 0.52,-0.693 0.78,-1.593 0.78,-2.7 0,-1.12 -0.26,-2.027 -0.78,-2.72 -0.5,-0.693 -1.18,-1.04 -2.02,-1.04 -0.82,0 -1.5,0.347 -2.02,1.04 -0.52,0.693 -0.78,1.6 -0.78,2.72 0,1.107 0.26,2.007 0.78,2.7 0.52,0.68 1.2,1.02 2.02,1.02 z m 11.36,1.36 c -0.45,0 -0.92,-0.107 -1.42,-0.32 -0.48,-0.227 -0.93,-0.533 -1.36,-0.92 h -0.06 l -0.14,1 h -1.32 v -14.24 h 1.64 v 3.88 l -0.04,1.76 c 0.44,-0.387 0.92,-0.707 1.44,-0.96 0.54,-0.267 1.07,-0.4 1.6,-0.4 1.27,0 2.23,0.447 2.88,1.34 0.66,0.893 0.98,2.093 0.98,3.6 0,1.107 -0.2,2.053 -0.6,2.84 -0.38,0.787 -0.9,1.387 -1.54,1.8 -0.62,0.413 -1.31,0.62 -2.06,0.62 z m -0.28,-1.38 c 0.8,0 1.46,-0.34 1.98,-1.02 0.54,-0.693 0.8,-1.64 0.8,-2.84 0,-1.067 -0.2,-1.927 -0.6,-2.58 -0.38,-0.667 -1.04,-1 -1.96,-1 -0.41,0 -0.83,0.113 -1.26,0.34 -0.42,0.227 -0.87,0.553 -1.34,0.98 v 5.1 c 0.43,0.373 0.85,0.64 1.26,0.8 0.43,0.147 0.8,0.22 1.12,0.22 z m 11.28,4.18 v -17.2 h 3.58 v 0.94 h -2.34 v 15.32 h 2.34 v 0.94 z M 1167,326 v -13.12 h 3.74 c 0.98,0 1.84,0.12 2.58,0.36 0.73,0.24 1.3,0.647 1.72,1.22 0.41,0.56 0.62,1.32 0.62,2.28 0,1.373 -0.45,2.393 -1.34,3.06 -0.9,0.667 -2.06,1 -3.5,1 h -2.16 v 5.2 z m 1.66,-6.56 h 1.96 c 1.14,0 1.99,-0.213 2.54,-0.64 0.56,-0.44 0.84,-1.127 0.84,-2.06 0,-0.947 -0.3,-1.6 -0.88,-1.96 -0.58,-0.373 -1.44,-0.56 -2.58,-0.56 h -1.88 z m 9.67,6.56 v -13.12 h 7.56 v 1.4 h -5.9 v 4.12 h 4.98 v 1.42 h -4.98 v 4.76 h 6.1 V 326 Z m 10.54,0 v -13.12 h 4.1 c 0.9,0 1.69,0.12 2.38,0.36 0.7,0.227 1.24,0.613 1.62,1.16 0.4,0.533 0.6,1.253 0.6,2.16 0,1.013 -0.26,1.833 -0.8,2.46 -0.53,0.613 -1.25,1.033 -2.16,1.26 l 3.34,5.72 h -1.88 l -3.16,-5.54 h -2.38 V 326 Z m 1.66,-6.9 h 2.2 c 1.03,0 1.82,-0.207 2.36,-0.62 0.55,-0.427 0.82,-1.067 0.82,-1.92 0,-0.867 -0.27,-1.473 -0.82,-1.82 -0.54,-0.347 -1.33,-0.52 -2.36,-0.52 h -2.2 z m 8.55,9.94 v -0.94 h 2.32 v -15.32 h -2.32 v -0.94 h 3.56 v 17.2 z"
     fill="#000000"
     id="path72" />
  <path
     d="m 391.937,242 v -13.12 h 1.66 V 242 Z m 4.274,-4.38 v -1.26 h 4.6 v 1.26 z m 7.191,4.38 v -13.12 h 3.74 c 0.986,0 1.846,0.12 2.58,0.36 0.733,0.24 1.306,0.647 1.72,1.22 0.413,0.56 0.62,1.32 0.62,2.28 0,1.373 -0.447,2.393 -1.34,3.06 -0.894,0.667 -2.06,1 -3.5,1 h -2.16 v 5.2 z m 1.66,-6.56 h 1.96 c 1.146,0 1.993,-0.213 2.54,-0.64 0.56,-0.44 0.84,-1.127 0.84,-2.06 0,-0.947 -0.294,-1.6 -0.88,-1.96 -0.574,-0.373 -1.434,-0.56 -2.58,-0.56 h -1.88 z m 9.668,6.56 v -13.12 h 7.56 v 1.4 h -5.9 v 4.12 h 4.98 v 1.42 h -4.98 v 4.76 h 6.1 V 242 Z m 10.547,0 v -13.12 h 4.1 c 0.893,0 1.686,0.12 2.38,0.36 0.693,0.227 1.233,0.613 1.62,1.16 0.4,0.533 0.6,1.253 0.6,2.16 0,1.013 -0.267,1.833 -0.8,2.46 -0.534,0.613 -1.254,1.033 -2.16,1.26 l 3.34,5.72 h -1.88 l -3.16,-5.54 h -2.38 V 242 Z m 1.66,-6.9 h 2.2 c 1.026,0 1.813,-0.207 2.36,-0.62 0.546,-0.427 0.82,-1.067 0.82,-1.92 0,-0.867 -0.274,-1.473 -0.82,-1.82 -0.547,-0.347 -1.334,-0.52 -2.36,-0.52 h -2.2 z"
     fill="#000000"
     id="path74" />
  <path
     d="m 546.937,242 v -13.12 h 1.66 V 242 Z m 4.274,-4.38 v -1.26 h 4.6 v 1.26 z m 7.191,4.38 v -13.12 h 3.74 c 0.986,0 1.846,0.12 2.58,0.36 0.733,0.24 1.306,0.647 1.72,1.22 0.413,0.56 0.62,1.32 0.62,2.28 0,1.373 -0.447,2.393 -1.34,3.06 -0.894,0.667 -2.06,1 -3.5,1 h -2.16 v 5.2 z m 1.66,-6.56 h 1.96 c 1.146,0 1.993,-0.213 2.54,-0.64 0.56,-0.44 0.84,-1.127 0.84,-2.06 0,-0.947 -0.294,-1.6 -0.88,-1.96 -0.574,-0.373 -1.434,-0.56 -2.58,-0.56 h -1.88 z m 9.668,6.56 v -13.12 h 7.56 v 1.4 h -5.9 v 4.12 h 4.98 v 1.42 h -4.98 v 4.76 h 6.1 V 242 Z m 10.547,0 v -13.12 h 4.1 c 0.893,0 1.686,0.12 2.38,0.36 0.693,0.227 1.233,0.613 1.62,1.16 0.4,0.533 0.6,1.253 0.6,2.16 0,1.013 -0.267,1.833 -0.8,2.46 -0.534,0.613 -1.254,1.033 -2.16,1.26 l 3.34,5.72 h -1.88 l -3.16,-5.54 h -2.38 V 242 Z m 1.66,-6.9 h 2.2 c 1.026,0 1.813,-0.207 2.36,-0.62 0.546,-0.427 0.82,-1.067 0.82,-1.92 0,-0.867 -0.274,-1.473 -0.82,-1.82 -0.547,-0.347 -1.334,-0.52 -2.36,-0.52 h -2.2 z"
     fill="#000000"
     id="path76" />
  <path
     d="m 749.185,242 v -13.12 h 3.895 c 0.9,0 1.68,0.107 2.34,0.32 0.68,0.213 1.21,0.553 1.58,1.02 0.39,0.467 0.58,1.087 0.58,1.86 0,0.653 -0.16,1.247 -0.5,1.78 -0.32,0.52 -0.79,0.88 -1.42,1.08 v 0.08 c 0.79,0.147 1.43,0.48 1.92,1 0.51,0.52 0.76,1.233 0.76,2.14 0,0.853 -0.21,1.567 -0.64,2.14 -0.41,0.573 -0.99,1 -1.74,1.28 -0.74,0.28 -1.61,0.42 -2.6,0.42 z m 1.655,-7.54 h 1.94 c 1.12,0 1.93,-0.193 2.42,-0.58 0.5,-0.387 0.74,-0.913 0.74,-1.58 0,-0.76 -0.26,-1.3 -0.78,-1.62 -0.5,-0.32 -1.27,-0.48 -2.3,-0.48 h -2.02 z m 0,6.22 h 2.28 c 1.14,0 2.02,-0.207 2.64,-0.62 0.63,-0.427 0.94,-1.08 0.94,-1.96 0,-0.813 -0.31,-1.407 -0.94,-1.78 -0.61,-0.387 -1.49,-0.58 -2.64,-0.58 h -2.28 z m 9.12,-3.06 v -1.26 h 4.6 v 1.26 z m 7.19,4.38 v -13.12 h 3.74 c 0.99,0 1.85,0.12 2.58,0.36 0.74,0.24 1.31,0.647 1.72,1.22 0.42,0.56 0.62,1.32 0.62,2.28 0,1.373 -0.44,2.393 -1.34,3.06 -0.89,0.667 -2.06,1 -3.5,1 h -2.16 v 5.2 z m 1.66,-6.56 h 1.96 c 1.15,0 2,-0.213 2.54,-0.64 0.56,-0.44 0.84,-1.127 0.84,-2.06 0,-0.947 -0.29,-1.6 -0.88,-1.96 -0.57,-0.373 -1.43,-0.56 -2.58,-0.56 h -1.88 z m 9.67,6.56 v -13.12 h 7.56 v 1.4 h -5.9 v 4.12 h 4.98 v 1.42 h -4.98 v 4.76 h 6.1 V 242 Z m 10.55,0 v -13.12 h 4.1 c 0.89,0 1.69,0.12 2.38,0.36 0.69,0.227 1.23,0.613 1.62,1.16 0.4,0.533 0.6,1.253 0.6,2.16 0,1.013 -0.27,1.833 -0.8,2.46 -0.53,0.613 -1.25,1.033 -2.16,1.26 l 3.34,5.72 h -1.88 l -3.16,-5.54 h -2.38 V 242 Z m 1.66,-6.9 h 2.2 c 1.03,0 1.81,-0.207 2.36,-0.62 0.55,-0.427 0.82,-1.067 0.82,-1.92 0,-0.867 -0.27,-1.473 -0.82,-1.82 -0.55,-0.347 -1.33,-0.52 -2.36,-0.52 h -2.2 z"
     fill="#000000"
     id="path78" />
  <path
     d="m 908.94,242 v -13.12 h 1.66 V 242 Z m 4.27,-4.38 v -1.26 h 4.6 v 1.26 z m 7.19,4.38 v -13.12 h 3.74 c 0.99,0 1.85,0.12 2.58,0.36 0.73,0.24 1.31,0.647 1.72,1.22 0.41,0.56 0.62,1.32 0.62,2.28 0,1.373 -0.45,2.393 -1.34,3.06 -0.89,0.667 -2.06,1 -3.5,1 h -2.16 v 5.2 z m 1.66,-6.56 h 1.96 c 1.15,0 1.99,-0.213 2.54,-0.64 0.56,-0.44 0.84,-1.127 0.84,-2.06 0,-0.947 -0.29,-1.6 -0.88,-1.96 -0.57,-0.373 -1.43,-0.56 -2.58,-0.56 h -1.88 z m 9.67,6.56 v -13.12 h 7.56 v 1.4 h -5.9 v 4.12 h 4.98 v 1.42 h -4.98 v 4.76 h 6.1 V 242 Z m 10.55,0 v -13.12 h 4.1 c 0.89,0 1.68,0.12 2.38,0.36 0.69,0.227 1.23,0.613 1.62,1.16 0.4,0.533 0.6,1.253 0.6,2.16 0,1.013 -0.27,1.833 -0.8,2.46 -0.54,0.613 -1.26,1.033 -2.16,1.26 l 3.34,5.72 h -1.88 l -3.16,-5.54 h -2.38 V 242 Z m 1.66,-6.9 h 2.2 c 1.02,0 1.81,-0.207 2.36,-0.62 0.54,-0.427 0.82,-1.067 0.82,-1.92 0,-0.867 -0.28,-1.473 -0.82,-1.82 -0.55,-0.347 -1.34,-0.52 -2.36,-0.52 h -2.2 z"
     fill="#000000"
     id="path80" />
  <path
     d="m 1064.94,242 v -13.12 h 1.66 V 242 Z m 4.27,-4.38 v -1.26 h 4.6 v 1.26 z m 7.19,4.38 v -13.12 h 3.74 c 0.99,0 1.85,0.12 2.58,0.36 0.73,0.24 1.31,0.647 1.72,1.22 0.41,0.56 0.62,1.32 0.62,2.28 0,1.373 -0.45,2.393 -1.34,3.06 -0.89,0.667 -2.06,1 -3.5,1 h -2.16 v 5.2 z m 1.66,-6.56 h 1.96 c 1.15,0 1.99,-0.213 2.54,-0.64 0.56,-0.44 0.84,-1.127 0.84,-2.06 0,-0.947 -0.29,-1.6 -0.88,-1.96 -0.57,-0.373 -1.43,-0.56 -2.58,-0.56 h -1.88 z m 9.67,6.56 v -13.12 h 7.56 v 1.4 h -5.9 v 4.12 h 4.98 v 1.42 h -4.98 v 4.76 h 6.1 V 242 Z m 10.55,0 v -13.12 h 4.1 c 0.89,0 1.68,0.12 2.38,0.36 0.69,0.227 1.23,0.613 1.62,1.16 0.4,0.533 0.6,1.253 0.6,2.16 0,1.013 -0.27,1.833 -0.8,2.46 -0.54,0.613 -1.26,1.033 -2.16,1.26 l 3.34,5.72 h -1.88 l -3.16,-5.54 h -2.38 V 242 Z m 1.66,-6.9 h 2.2 c 1.02,0 1.81,-0.207 2.36,-0.62 0.54,-0.427 0.82,-1.067 0.82,-1.92 0,-0.867 -0.28,-1.473 -0.82,-1.82 -0.55,-0.347 -1.34,-0.52 -2.36,-0.52 h -2.2 z"
     fill="#000000"
     id="path82" />
  <path
     d="m 391.937,158 v -13.12 h 1.66 V 158 Z m 4.274,-4.38 v -1.26 h 4.6 v 1.26 z m 7.191,4.38 v -13.12 h 3.74 c 0.986,0 1.846,0.12 2.58,0.36 0.733,0.24 1.306,0.647 1.72,1.22 0.413,0.56 0.62,1.32 0.62,2.28 0,1.373 -0.447,2.393 -1.34,3.06 -0.894,0.667 -2.06,1 -3.5,1 h -2.16 v 5.2 z m 1.66,-6.56 h 1.96 c 1.146,0 1.993,-0.213 2.54,-0.64 0.56,-0.44 0.84,-1.127 0.84,-2.06 0,-0.947 -0.294,-1.6 -0.88,-1.96 -0.574,-0.373 -1.434,-0.56 -2.58,-0.56 h -1.88 z m 9.668,6.56 v -13.12 h 7.56 v 1.4 h -5.9 v 4.12 h 4.98 v 1.42 h -4.98 v 4.76 h 6.1 V 158 Z m 10.547,0 v -13.12 h 4.1 c 0.893,0 1.686,0.12 2.38,0.36 0.693,0.227 1.233,0.613 1.62,1.16 0.4,0.533 0.6,1.253 0.6,2.16 0,1.013 -0.267,1.833 -0.8,2.46 -0.534,0.613 -1.254,1.033 -2.16,1.26 l 3.34,5.72 h -1.88 l -3.16,-5.54 h -2.38 V 158 Z m 1.66,-6.9 h 2.2 c 1.026,0 1.813,-0.207 2.36,-0.62 0.546,-0.427 0.82,-1.067 0.82,-1.92 0,-0.867 -0.274,-1.473 -0.82,-1.82 -0.547,-0.347 -1.334,-0.52 -2.36,-0.52 h -2.2 z"
     fill="#000000"
     id="path84" />
  <path
     d="m 546.937,158 v -13.12 h 1.66 V 158 Z m 4.274,-4.38 v -1.26 h 4.6 v 1.26 z m 7.191,4.38 v -13.12 h 3.74 c 0.986,0 1.846,0.12 2.58,0.36 0.733,0.24 1.306,0.647 1.72,1.22 0.413,0.56 0.62,1.32 0.62,2.28 0,1.373 -0.447,2.393 -1.34,3.06 -0.894,0.667 -2.06,1 -3.5,1 h -2.16 v 5.2 z m 1.66,-6.56 h 1.96 c 1.146,0 1.993,-0.213 2.54,-0.64 0.56,-0.44 0.84,-1.127 0.84,-2.06 0,-0.947 -0.294,-1.6 -0.88,-1.96 -0.574,-0.373 -1.434,-0.56 -2.58,-0.56 h -1.88 z m 9.668,6.56 v -13.12 h 7.56 v 1.4 h -5.9 v 4.12 h 4.98 v 1.42 h -4.98 v 4.76 h 6.1 V 158 Z m 10.547,0 v -13.12 h 4.1 c 0.893,0 1.686,0.12 2.38,0.36 0.693,0.227 1.233,0.613 1.62,1.16 0.4,0.533 0.6,1.253 0.6,2.16 0,1.013 -0.267,1.833 -0.8,2.46 -0.534,0.613 -1.254,1.033 -2.16,1.26 l 3.34,5.72 h -1.88 l -3.16,-5.54 h -2.38 V 158 Z m 1.66,-6.9 h 2.2 c 1.026,0 1.813,-0.207 2.36,-0.62 0.546,-0.427 0.82,-1.067 0.82,-1.92 0,-0.867 -0.274,-1.473 -0.82,-1.82 -0.547,-0.347 -1.334,-0.52 -2.36,-0.52 h -2.2 z"
     fill="#000000"
     id="path86" />
  <path
     d="m 752.94,158 v -13.12 h 1.66 V 158 Z m 4.27,-4.38 v -1.26 h 4.6 v 1.26 z m 7.19,4.38 v -13.12 h 3.74 c 0.99,0 1.85,0.12 2.58,0.36 0.73,0.24 1.31,0.647 1.72,1.22 0.41,0.56 0.62,1.32 0.62,2.28 0,1.373 -0.45,2.393 -1.34,3.06 -0.89,0.667 -2.06,1 -3.5,1 h -2.16 v 5.2 z m 1.66,-6.56 h 1.96 c 1.15,0 1.99,-0.213 2.54,-0.64 0.56,-0.44 0.84,-1.127 0.84,-2.06 0,-0.947 -0.29,-1.6 -0.88,-1.96 -0.57,-0.373 -1.43,-0.56 -2.58,-0.56 h -1.88 z m 9.67,6.56 v -13.12 h 7.56 v 1.4 h -5.9 v 4.12 h 4.98 v 1.42 h -4.98 v 4.76 h 6.1 V 158 Z m 10.55,0 v -13.12 h 4.1 c 0.89,0 1.68,0.12 2.38,0.36 0.69,0.227 1.23,0.613 1.62,1.16 0.4,0.533 0.6,1.253 0.6,2.16 0,1.013 -0.27,1.833 -0.8,2.46 -0.54,0.613 -1.26,1.033 -2.16,1.26 l 3.34,5.72 h -1.88 l -3.16,-5.54 h -2.38 V 158 Z m 1.66,-6.9 h 2.2 c 1.02,0 1.81,-0.207 2.36,-0.62 0.54,-0.427 0.82,-1.067 0.82,-1.92 0,-0.867 -0.28,-1.473 -0.82,-1.82 -0.55,-0.347 -1.34,-0.52 -2.36,-0.52 h -2.2 z"
     fill="#000000"
     id="path88" />
  <path
     d="m 908.94,158 v -13.12 h 1.66 V 158 Z m 4.27,-4.38 v -1.26 h 4.6 v 1.26 z m 7.19,4.38 v -13.12 h 3.74 c 0.99,0 1.85,0.12 2.58,0.36 0.73,0.24 1.31,0.647 1.72,1.22 0.41,0.56 0.62,1.32 0.62,2.28 0,1.373 -0.45,2.393 -1.34,3.06 -0.89,0.667 -2.06,1 -3.5,1 h -2.16 v 5.2 z m 1.66,-6.56 h 1.96 c 1.15,0 1.99,-0.213 2.54,-0.64 0.56,-0.44 0.84,-1.127 0.84,-2.06 0,-0.947 -0.29,-1.6 -0.88,-1.96 -0.57,-0.373 -1.43,-0.56 -2.58,-0.56 h -1.88 z m 9.67,6.56 v -13.12 h 7.56 v 1.4 h -5.9 v 4.12 h 4.98 v 1.42 h -4.98 v 4.76 h 6.1 V 158 Z m 10.55,0 v -13.12 h 4.1 c 0.89,0 1.68,0.12 2.38,0.36 0.69,0.227 1.23,0.613 1.62,1.16 0.4,0.533 0.6,1.253 0.6,2.16 0,1.013 -0.27,1.833 -0.8,2.46 -0.54,0.613 -1.26,1.033 -2.16,1.26 l 3.34,5.72 h -1.88 l -3.16,-5.54 h -2.38 V 158 Z m 1.66,-6.9 h 2.2 c 1.02,0 1.81,-0.207 2.36,-0.62 0.54,-0.427 0.82,-1.067 0.82,-1.92 0,-0.867 -0.28,-1.473 -0.82,-1.82 -0.55,-0.347 -1.34,-0.52 -2.36,-0.52 h -2.2 z"
     fill="#000000"
     id="path90" />
  <path
     d="m 1064.94,158 v -13.12 h 1.66 V 158 Z m 4.27,-4.38 v -1.26 h 4.6 v 1.26 z m 7.19,4.38 v -13.12 h 3.74 c 0.99,0 1.85,0.12 2.58,0.36 0.73,0.24 1.31,0.647 1.72,1.22 0.41,0.56 0.62,1.32 0.62,2.28 0,1.373 -0.45,2.393 -1.34,3.06 -0.89,0.667 -2.06,1 -3.5,1 h -2.16 v 5.2 z m 1.66,-6.56 h 1.96 c 1.15,0 1.99,-0.213 2.54,-0.64 0.56,-0.44 0.84,-1.127 0.84,-2.06 0,-0.947 -0.29,-1.6 -0.88,-1.96 -0.57,-0.373 -1.43,-0.56 -2.58,-0.56 h -1.88 z m 9.67,6.56 v -13.12 h 7.56 v 1.4 h -5.9 v 4.12 h 4.98 v 1.42 h -4.98 v 4.76 h 6.1 V 158 Z m 10.55,0 v -13.12 h 4.1 c 0.89,0 1.68,0.12 2.38,0.36 0.69,0.227 1.23,0.613 1.62,1.16 0.4,0.533 0.6,1.253 0.6,2.16 0,1.013 -0.27,1.833 -0.8,2.46 -0.54,0.613 -1.26,1.033 -2.16,1.26 l 3.34,5.72 h -1.88 l -3.16,-5.54 h -2.38 V 158 Z m 1.66,-6.9 h 2.2 c 1.02,0 1.81,-0.207 2.36,-0.62 0.54,-0.427 0.82,-1.067 0.82,-1.92 0,-0.867 -0.28,-1.473 -0.82,-1.82 -0.55,-0.347 -1.34,-0.52 -2.36,-0.52 h -2.2 z"
     fill="#000000"
     id="path92" />
  <path
     d="m 1217.18,158 v -13.12 h 3.9 c 0.9,0 1.68,0.107 2.34,0.32 0.68,0.213 1.21,0.553 1.58,1.02 0.39,0.467 0.58,1.087 0.58,1.86 0,0.653 -0.16,1.247 -0.5,1.78 -0.32,0.52 -0.79,0.88 -1.42,1.08 v 0.08 c 0.79,0.147 1.43,0.48 1.92,1 0.51,0.52 0.76,1.233 0.76,2.14 0,0.853 -0.21,1.567 -0.64,2.14 -0.41,0.573 -0.99,1 -1.74,1.28 -0.74,0.28 -1.61,0.42 -2.6,0.42 z m 1.66,-7.54 h 1.94 c 1.12,0 1.93,-0.193 2.42,-0.58 0.5,-0.387 0.74,-0.913 0.74,-1.58 0,-0.76 -0.26,-1.3 -0.78,-1.62 -0.5,-0.32 -1.27,-0.48 -2.3,-0.48 h -2.02 z m 0,6.22 h 2.28 c 1.14,0 2.02,-0.207 2.64,-0.62 0.63,-0.427 0.94,-1.08 0.94,-1.96 0,-0.813 -0.31,-1.407 -0.94,-1.78 -0.61,-0.387 -1.49,-0.58 -2.64,-0.58 h -2.28 z m 9.12,-3.06 v -1.26 h 4.6 v 1.26 z m 7.19,4.38 v -13.12 h 3.74 c 0.99,0 1.85,0.12 2.58,0.36 0.74,0.24 1.31,0.647 1.72,1.22 0.42,0.56 0.62,1.32 0.62,2.28 0,1.373 -0.44,2.393 -1.34,3.06 -0.89,0.667 -2.06,1 -3.5,1 h -2.16 v 5.2 z m 1.66,-6.56 h 1.96 c 1.15,0 2,-0.213 2.54,-0.64 0.56,-0.44 0.84,-1.127 0.84,-2.06 0,-0.947 -0.29,-1.6 -0.88,-1.96 -0.57,-0.373 -1.43,-0.56 -2.58,-0.56 h -1.88 z m 9.67,6.56 v -13.12 h 7.56 v 1.4 h -5.9 v 4.12 h 4.98 v 1.42 h -4.98 v 4.76 h 6.1 V 158 Z m 10.55,0 v -13.12 h 4.1 c 0.89,0 1.69,0.12 2.38,0.36 0.69,0.227 1.23,0.613 1.62,1.16 0.4,0.533 0.6,1.253 0.6,2.16 0,1.013 -0.27,1.833 -0.8,2.46 -0.53,0.613 -1.25,1.033 -2.16,1.26 l 3.34,5.72 h -1.88 l -3.16,-5.54 h -2.38 V 158 Z m 1.66,-6.9 h 2.2 c 1.03,0 1.81,-0.207 2.36,-0.62 0.55,-0.427 0.82,-1.067 0.82,-1.92 0,-0.867 -0.27,-1.473 -0.82,-1.82 -0.55,-0.347 -1.33,-0.52 -2.36,-0.52 h -2.2 z"
     fill="#000000"
     id="path94" />
  <path
     d="m 1217.18,242 v -13.12 h 3.9 c 0.9,0 1.68,0.107 2.34,0.32 0.68,0.213 1.21,0.553 1.58,1.02 0.39,0.467 0.58,1.087 0.58,1.86 0,0.653 -0.16,1.247 -0.5,1.78 -0.32,0.52 -0.79,0.88 -1.42,1.08 v 0.08 c 0.79,0.147 1.43,0.48 1.92,1 0.51,0.52 0.76,1.233 0.76,2.14 0,0.853 -0.21,1.567 -0.64,2.14 -0.41,0.573 -0.99,1 -1.74,1.28 -0.74,0.28 -1.61,0.42 -2.6,0.42 z m 1.66,-7.54 h 1.94 c 1.12,0 1.93,-0.193 2.42,-0.58 0.5,-0.387 0.74,-0.913 0.74,-1.58 0,-0.76 -0.26,-1.3 -0.78,-1.62 -0.5,-0.32 -1.27,-0.48 -2.3,-0.48 h -2.02 z m 0,6.22 h 2.28 c 1.14,0 2.02,-0.207 2.64,-0.62 0.63,-0.427 0.94,-1.08 0.94,-1.96 0,-0.813 -0.31,-1.407 -0.94,-1.78 -0.61,-0.387 -1.49,-0.58 -2.64,-0.58 h -2.28 z m 9.12,-3.06 v -1.26 h 4.6 v 1.26 z m 7.19,4.38 v -13.12 h 3.74 c 0.99,0 1.85,0.12 2.58,0.36 0.74,0.24 1.31,0.647 1.72,1.22 0.42,0.56 0.62,1.32 0.62,2.28 0,1.373 -0.44,2.393 -1.34,3.06 -0.89,0.667 -2.06,1 -3.5,1 h -2.16 v 5.2 z m 1.66,-6.56 h 1.96 c 1.15,0 2,-0.213 2.54,-0.64 0.56,-0.44 0.84,-1.127 0.84,-2.06 0,-0.947 -0.29,-1.6 -0.88,-1.96 -0.57,-0.373 -1.43,-0.56 -2.58,-0.56 h -1.88 z m 9.67,6.56 v -13.12 h 7.56 v 1.4 h -5.9 v 4.12 h 4.98 v 1.42 h -4.98 v 4.76 h 6.1 V 242 Z m 10.55,0 v -13.12 h 4.1 c 0.89,0 1.69,0.12 2.38,0.36 0.69,0.227 1.23,0.613 1.62,1.16 0.4,0.533 0.6,1.253 0.6,2.16 0,1.013 -0.27,1.833 -0.8,2.46 -0.53,0.613 -1.25,1.033 -2.16,1.26 l 3.34,5.72 h -1.88 l -3.16,-5.54 h -2.38 V 242 Z m 1.66,-6.9 h 2.2 c 1.03,0 1.81,-0.207 2.36,-0.62 0.55,-0.427 0.82,-1.067 0.82,-1.92 0,-0.867 -0.27,-1.473 -0.82,-1.82 -0.55,-0.347 -1.33,-0.52 -2.36,-0.52 h -2.2 z"
     fill="#000000"
     id="path96" />
  <path
     d="m 241.142,74 0.5,-4.08 h -1.6 v -1.14 h 1.74 l 0.36,-2.96 h -1.7 v -1.16 h 1.84 l 0.46,-3.66 h 1.06 l -0.46,3.66 h 2.66 l 0.48,-3.66 h 1.06 l -0.48,3.66 h 1.62 v 1.16 h -1.74 l -0.36,2.96 h 1.7 v 1.14 h -1.84 l -0.5,4.08 h -1.06 l 0.48,-4.08 h -2.64 l -0.5,4.08 z m 1.72,-5.22 h 2.64 l 0.36,-2.96 h -2.64 z m 8.221,5.22 0.5,-4.08 h -1.6 v -1.14 h 1.74 l 0.36,-2.96 h -1.7 v -1.16 h 1.84 l 0.46,-3.66 h 1.06 l -0.46,3.66 h 2.66 l 0.48,-3.66 h 1.06 l -0.48,3.66 h 1.62 v 1.16 h -1.74 l -0.36,2.96 h 1.7 v 1.14 h -1.84 l -0.5,4.08 h -1.06 l 0.48,-4.08 h -2.64 l -0.5,4.08 z m 1.72,-5.22 h 2.64 l 0.36,-2.96 h -2.64 z m 8.222,9.4 c -0.214,0 -0.42,-0.02 -0.62,-0.06 -0.187,-0.04 -0.36,-0.0867 -0.52,-0.14 l 0.32,-1.3 c 0.106,0.0267 0.226,0.0533 0.36,0.08 0.133,0.04 0.26,0.06 0.38,0.06 0.546,0 1,-0.2 1.36,-0.6 0.36,-0.3867 0.64,-0.88 0.84,-1.48 l 0.22,-0.72 -3.9,-9.74 h 1.7 l 1.98,5.38 c 0.146,0.4133 0.3,0.86 0.46,1.34 0.173,0.48 0.333,0.9467 0.48,1.4 h 0.08 c 0.146,-0.44 0.286,-0.9 0.42,-1.38 0.133,-0.48 0.266,-0.9333 0.4,-1.36 l 1.74,-5.38 h 1.6 l -3.66,10.52 c -0.227,0.64 -0.5,1.2133 -0.82,1.72 -0.307,0.5067 -0.694,0.9067 -1.16,1.2 -0.454,0.3067 -1.007,0.46 -1.66,0.46 z m 10.916,-3.94 c -0.614,0 -1.06,-0.1867 -1.34,-0.56 -0.267,-0.3867 -0.4,-0.9333 -0.4,-1.64 V 59.76 h 1.64 v 12.4 c 0,0.2533 0.046,0.44 0.14,0.56 0.093,0.1067 0.2,0.16 0.32,0.16 0.053,0 0.1,0 0.14,0 0.053,-0.0133 0.126,-0.0267 0.22,-0.04 l 0.22,1.24 c -0.107,0.0533 -0.234,0.0933 -0.38,0.12 -0.147,0.0267 -0.334,0.04 -0.56,0.04 z"
     fill="#000000"
     id="path98" />
  <path
     d="m 395.847,74 0.5,-4.08 h -1.6 v -1.14 h 1.74 l 0.36,-2.96 h -1.7 v -1.16 h 1.84 l 0.46,-3.66 h 1.06 l -0.46,3.66 h 2.66 l 0.48,-3.66 h 1.06 l -0.48,3.66 h 1.62 v 1.16 h -1.74 l -0.36,2.96 h 1.7 v 1.14 h -1.84 l -0.5,4.08 h -1.06 l 0.48,-4.08 h -2.64 l -0.5,4.08 z m 1.72,-5.22 h 2.64 l 0.36,-2.96 h -2.64 z m 8.221,5.22 0.5,-4.08 h -1.6 v -1.14 h 1.74 l 0.36,-2.96 h -1.7 v -1.16 h 1.84 l 0.46,-3.66 h 1.06 l -0.46,3.66 h 2.66 l 0.48,-3.66 h 1.06 l -0.48,3.66 h 1.62 v 1.16 h -1.74 l -0.36,2.96 h 1.7 v 1.14 h -1.84 l -0.5,4.08 h -1.06 l 0.48,-4.08 h -2.64 l -0.5,4.08 z m 1.72,-5.22 h 2.64 l 0.36,-2.96 h -2.64 z m 10.162,5.22 -3.5,-9.72 h 1.7 l 1.84,5.52 c 0.146,0.48 0.293,0.96 0.44,1.44 0.16,0.48 0.313,0.9533 0.46,1.42 h 0.08 c 0.146,-0.4667 0.293,-0.94 0.44,-1.42 0.16,-0.48 0.306,-0.96 0.44,-1.44 l 1.84,-5.52 h 1.62 L 419.59,74 Z m 9.085,0.24 c -0.813,0 -1.493,-0.24 -2.04,-0.72 -0.533,-0.4933 -0.8,-1.1733 -0.8,-2.04 0,-1.0667 0.473,-1.88 1.42,-2.44 0.96,-0.5733 2.473,-0.9733 4.54,-1.2 0,-0.4133 -0.06,-0.8067 -0.18,-1.18 -0.107,-0.3733 -0.307,-0.6733 -0.6,-0.9 -0.28,-0.24 -0.687,-0.36 -1.22,-0.36 -0.56,0 -1.087,0.1067 -1.58,0.32 -0.493,0.2133 -0.933,0.4533 -1.32,0.72 l -0.64,-1.14 c 0.453,-0.2933 1.007,-0.5733 1.66,-0.84 0.667,-0.28 1.387,-0.42 2.16,-0.42 1.187,0 2.047,0.3667 2.58,1.1 0.533,0.72 0.8,1.6867 0.8,2.9 V 74 h -1.36 l -0.14,-1.16 h -0.06 c -0.453,0.3733 -0.953,0.7 -1.5,0.98 -0.533,0.28 -1.107,0.42 -1.72,0.42 z m 0.48,-1.32 c 0.467,0 0.907,-0.1133 1.32,-0.34 0.413,-0.2267 0.853,-0.5467 1.32,-0.96 v -2.7 c -1.613,0.2 -2.747,0.5 -3.4,0.9 -0.64,0.4 -0.96,0.9133 -0.96,1.54 0,0.5467 0.167,0.9467 0.5,1.2 0.333,0.24 0.74,0.36 1.22,0.36 z"
     fill="#000000"
     id="path100" />
  <path
     d="m 550.929,74 0.5,-4.08 h -1.6 v -1.14 h 1.74 l 0.36,-2.96 h -1.7 v -1.16 h 1.84 l 0.46,-3.66 h 1.06 l -0.46,3.66 h 2.66 l 0.48,-3.66 h 1.06 l -0.48,3.66 h 1.62 v 1.16 h -1.74 l -0.36,2.96 h 1.7 v 1.14 h -1.84 l -0.5,4.08 h -1.06 l 0.48,-4.08 h -2.64 l -0.5,4.08 z m 1.72,-5.22 h 2.64 l 0.36,-2.96 h -2.64 z m 8.221,5.22 0.5,-4.08 h -1.6 v -1.14 h 1.74 l 0.36,-2.96 h -1.7 v -1.16 h 1.84 L 562.47,61 h 1.06 l -0.46,3.66 h 2.66 L 566.21,61 h 1.06 l -0.48,3.66 h 1.62 v 1.16 h -1.74 l -0.36,2.96 h 1.7 v 1.14 h -1.84 l -0.5,4.08 h -1.06 l 0.48,-4.08 h -2.64 l -0.5,4.08 z m 1.72,-5.22 h 2.64 l 0.36,-2.96 h -2.64 z m 8.062,5.22 v -9.72 h 1.64 V 74 Z m 0.84,-11.72 c -0.32,0 -0.587,-0.0933 -0.8,-0.28 -0.2,-0.2 -0.3,-0.4667 -0.3,-0.8 0,-0.32 0.1,-0.58 0.3,-0.78 0.213,-0.2 0.48,-0.3 0.8,-0.3 0.32,0 0.58,0.1 0.78,0.3 0.213,0.2 0.32,0.46 0.32,0.78 0,0.3333 -0.107,0.6 -0.32,0.8 -0.2,0.1867 -0.46,0.28 -0.78,0.28 z M 575.574,74 v -9.72 h 1.36 l 0.14,1.4 h 0.06 c 0.466,-0.4667 0.96,-0.8533 1.48,-1.16 0.52,-0.32 1.113,-0.48 1.78,-0.48 1.026,0 1.773,0.3267 2.24,0.98 0.48,0.64 0.72,1.58 0.72,2.82 V 74 h -1.64 v -5.94 c 0,-0.9067 -0.147,-1.5667 -0.44,-1.98 -0.294,-0.4133 -0.76,-0.62 -1.4,-0.62 -0.494,0 -0.94,0.1267 -1.34,0.38 -0.387,0.2533 -0.827,0.6267 -1.32,1.12 V 74 Z"
     fill="#000000"
     id="path102" />
  <path
     d="m 772.12,66.66 -0.62,2 h 3.94 l -0.62,-2 c -0.24,-0.7333 -0.47,-1.46 -0.68,-2.18 -0.21,-0.7333 -0.43,-1.48 -0.64,-2.24 h -0.08 c -0.2,0.76 -0.41,1.5067 -0.62,2.24 -0.21,0.72 -0.44,1.4467 -0.68,2.18 z m -4,7.34 4.44,-13.12 h 1.88 L 778.88,74 h -1.78 l -1.24,-4 h -4.78 l -1.26,4 z"
     fill="#000000"
     id="path104" />
  <path
     d="m 915.85,74 0.5,-4.08 h -1.6 v -1.14 h 1.74 l 0.36,-2.96 h -1.7 v -1.16 h 1.84 L 917.45,61 h 1.06 l -0.46,3.66 h 2.66 L 921.19,61 h 1.06 l -0.48,3.66 h 1.62 v 1.16 h -1.74 l -0.36,2.96 h 1.7 v 1.14 h -1.84 l -0.5,4.08 h -1.06 l 0.48,-4.08 h -2.64 l -0.5,4.08 z m 1.72,-5.22 h 2.64 l 0.36,-2.96 h -2.64 z m 8.22,5.22 0.5,-4.08 h -1.6 v -1.14 h 1.74 l 0.36,-2.96 h -1.7 v -1.16 h 1.84 L 927.39,61 h 1.06 l -0.46,3.66 h 2.66 L 931.13,61 h 1.06 l -0.48,3.66 h 1.62 v 1.16 h -1.74 l -0.36,2.96 h 1.7 v 1.14 h -1.84 l -0.5,4.08 h -1.06 l 0.48,-4.08 h -2.64 l -0.5,4.08 z m 1.72,-5.22 h 2.64 l 0.36,-2.96 h -2.64 z m 9.8,5.46 c -0.61,0 -1.06,-0.1867 -1.34,-0.56 -0.27,-0.3867 -0.4,-0.9333 -0.4,-1.64 V 59.76 h 1.64 v 12.4 c 0,0.2533 0.05,0.44 0.14,0.56 0.09,0.1067 0.2,0.16 0.32,0.16 0.05,0 0.1,0 0.14,0 0.05,-0.0133 0.13,-0.0267 0.22,-0.04 l 0.22,1.24 c -0.11,0.0533 -0.23,0.0933 -0.38,0.12 -0.15,0.0267 -0.33,0.04 -0.56,0.04 z M 940.67,74 v -9.72 h 1.64 V 74 Z m 0.84,-11.72 c -0.32,0 -0.59,-0.0933 -0.8,-0.28 -0.2,-0.2 -0.3,-0.4667 -0.3,-0.8 0,-0.32 0.1,-0.58 0.3,-0.78 0.21,-0.2 0.48,-0.3 0.8,-0.3 0.32,0 0.58,0.1 0.78,0.3 0.21,0.2 0.32,0.46 0.32,0.78 0,0.3333 -0.11,0.6 -0.32,0.8 -0.2,0.1867 -0.46,0.28 -0.78,0.28 z"
     fill="#000000"
     id="path106" />
  <path
     d="m 1068.05,74 0.5,-4.08 h -1.6 v -1.14 h 1.74 l 0.36,-2.96 h -1.7 v -1.16 h 1.84 l 0.46,-3.66 h 1.06 l -0.46,3.66 h 2.66 l 0.48,-3.66 h 1.06 l -0.48,3.66 h 1.62 v 1.16 h -1.74 l -0.36,2.96 h 1.7 v 1.14 h -1.84 l -0.5,4.08 h -1.06 l 0.48,-4.08 h -2.64 l -0.5,4.08 z m 1.72,-5.22 h 2.64 l 0.36,-2.96 h -2.64 z m 8.22,5.22 0.5,-4.08 h -1.6 v -1.14 h 1.74 l 0.36,-2.96 h -1.7 v -1.16 h 1.84 l 0.46,-3.66 h 1.06 l -0.46,3.66 h 2.66 l 0.48,-3.66 h 1.06 l -0.48,3.66 h 1.62 v 1.16 h -1.74 l -0.36,2.96 h 1.7 v 1.14 h -1.84 l -0.5,4.08 h -1.06 l 0.48,-4.08 h -2.64 l -0.5,4.08 z m 1.72,-5.22 h 2.64 l 0.36,-2.96 h -2.64 z m 11.9,5.46 c -0.85,0 -1.62,-0.2 -2.32,-0.6 -0.69,-0.4 -1.24,-0.98 -1.64,-1.74 -0.4,-0.76 -0.6,-1.6733 -0.6,-2.74 0,-1.0933 0.22,-2.02 0.64,-2.78 0.44,-0.76 1.02,-1.34 1.72,-1.74 0.72,-0.4 1.5,-0.6 2.32,-0.6 0.64,0 1.19,0.1133 1.64,0.34 0.47,0.2267 0.87,0.4933 1.2,0.8 l -0.84,1.08 c -0.28,-0.2533 -0.58,-0.46 -0.9,-0.62 -0.3,-0.16 -0.65,-0.24 -1.04,-0.24 -0.58,0 -1.11,0.16 -1.58,0.48 -0.45,0.3067 -0.81,0.7467 -1.08,1.32 -0.25,0.56 -0.38,1.2133 -0.38,1.96 0,1.1067 0.28,2.0067 0.82,2.7 0.56,0.68 1.29,1.02 2.18,1.02 0.46,0 0.88,-0.0933 1.26,-0.28 0.39,-0.2 0.73,-0.4333 1.02,-0.7 l 0.72,1.1 c -0.44,0.3867 -0.92,0.6933 -1.46,0.92 -0.53,0.2133 -1.09,0.32 -1.68,0.32 z m 8.8,0 c -0.87,0 -1.66,-0.2 -2.36,-0.6 -0.71,-0.4133 -1.27,-1 -1.68,-1.76 -0.42,-0.76 -0.62,-1.6667 -0.62,-2.72 0,-1.0667 0.2,-1.98 0.62,-2.74 0.42,-0.76 0.97,-1.3467 1.64,-1.76 0.66,-0.4133 1.36,-0.62 2.1,-0.62 1.24,0 2.19,0.4133 2.86,1.24 0.68,0.8267 1.02,1.9333 1.02,3.32 0,0.1733 -0.01,0.3467 -0.02,0.52 0,0.16 -0.02,0.3 -0.04,0.42 h -6.56 c 0.06,1.0267 0.38,1.8467 0.96,2.46 0.58,0.6133 1.34,0.92 2.28,0.92 0.46,0 0.89,-0.0667 1.28,-0.2 0.4,-0.1467 0.78,-0.3333 1.14,-0.56 l 0.58,1.08 c -0.42,0.2667 -0.89,0.5 -1.42,0.7 -0.52,0.2 -1.12,0.3 -1.78,0.3 z m -3.06,-5.88 h 5.2 c 0,-0.9867 -0.22,-1.7333 -0.64,-2.24 -0.42,-0.52 -1,-0.78 -1.76,-0.78 -0.68,0 -1.3,0.2667 -1.84,0.8 -0.54,0.52 -0.86,1.26 -0.96,2.22 z"
     fill="#000000"
     id="path108" />
  <path
     d="M 1225.97,74 V 60.88 h 3.9 c 0.9,0 1.68,0.1067 2.34,0.32 0.68,0.2133 1.21,0.5533 1.58,1.02 0.39,0.4667 0.58,1.0867 0.58,1.86 0,0.6533 -0.16,1.2467 -0.5,1.78 -0.32,0.52 -0.79,0.88 -1.42,1.08 v 0.08 c 0.79,0.1467 1.43,0.48 1.92,1 0.51,0.52 0.76,1.2333 0.76,2.14 0,0.8533 -0.21,1.5667 -0.64,2.14 -0.41,0.5733 -0.99,1 -1.74,1.28 -0.74,0.28 -1.61,0.42 -2.6,0.42 z m 1.66,-7.54 h 1.94 c 1.12,0 1.93,-0.1933 2.42,-0.58 0.5,-0.3867 0.74,-0.9133 0.74,-1.58 0,-0.76 -0.26,-1.3 -0.78,-1.62 -0.5,-0.32 -1.27,-0.48 -2.3,-0.48 h -2.02 z m 0,6.22 h 2.28 c 1.14,0 2.02,-0.2067 2.64,-0.62 0.63,-0.4267 0.94,-1.08 0.94,-1.96 0,-0.8133 -0.31,-1.4067 -0.94,-1.78 -0.61,-0.3867 -1.49,-0.58 -2.64,-0.58 h -2.28 z m 13.72,1.56 c -0.79,0 -1.53,-0.2 -2.22,-0.6 -0.68,-0.4 -1.23,-0.98 -1.66,-1.74 -0.41,-0.76 -0.62,-1.6733 -0.62,-2.74 0,-1.0933 0.21,-2.02 0.62,-2.78 0.43,-0.76 0.98,-1.34 1.66,-1.74 0.69,-0.4 1.43,-0.6 2.22,-0.6 0.8,0 1.54,0.2 2.22,0.6 0.68,0.4 1.23,0.98 1.64,1.74 0.43,0.76 0.64,1.6867 0.64,2.78 0,1.0667 -0.21,1.98 -0.64,2.74 -0.41,0.76 -0.96,1.34 -1.64,1.74 -0.68,0.4 -1.42,0.6 -2.22,0.6 z m 0,-1.36 c 0.84,0 1.51,-0.34 2.02,-1.02 0.52,-0.6933 0.78,-1.5933 0.78,-2.7 0,-1.12 -0.26,-2.0267 -0.78,-2.72 -0.51,-0.6933 -1.18,-1.04 -2.02,-1.04 -0.83,0 -1.5,0.3467 -2.02,1.04 -0.52,0.6933 -0.78,1.6 -0.78,2.72 0,1.1067 0.26,2.0067 0.78,2.7 0.52,0.68 1.19,1.02 2.02,1.02 z m 11.36,1.36 c -0.45,0 -0.93,-0.1067 -1.42,-0.32 -0.48,-0.2267 -0.93,-0.5333 -1.36,-0.92 h -0.06 l -0.14,1 h -1.32 V 59.76 h 1.64 v 3.88 l -0.04,1.76 c 0.44,-0.3867 0.92,-0.7067 1.44,-0.96 0.53,-0.2667 1.07,-0.4 1.6,-0.4 1.27,0 2.23,0.4467 2.88,1.34 0.65,0.8933 0.98,2.0933 0.98,3.6 0,1.1067 -0.2,2.0533 -0.6,2.84 -0.39,0.7867 -0.9,1.3867 -1.54,1.8 -0.63,0.4133 -1.31,0.62 -2.06,0.62 z m -0.28,-1.38 c 0.8,0 1.46,-0.34 1.98,-1.02 0.53,-0.6933 0.8,-1.64 0.8,-2.84 0,-1.0667 -0.2,-1.9267 -0.6,-2.58 -0.39,-0.6667 -1.04,-1 -1.96,-1 -0.41,0 -0.83,0.1133 -1.26,0.34 -0.43,0.2267 -0.87,0.5533 -1.34,0.98 v 5.1 c 0.43,0.3733 0.85,0.64 1.26,0.8 0.43,0.1467 0.8,0.22 1.12,0.22 z"
     fill="#000000"
     id="path110" />
</svg>
