<?xml version="1.0" encoding="UTF-8" standalone="no"?>
<svg
   width="1816.0000000000002"
   height="501.00000000000006"
   fill="none"
   version="1.1"
   id="svg21"
   sodipodi:docname="pretraining.svg"
   inkscape:export-filename="pretraining.png"
   inkscape:export-xdpi="300"
   inkscape:export-ydpi="300"
   inkscape:version="1.2.2 (732a01da63, 2022-12-09)"
   xmlns:inkscape="http://www.inkscape.org/namespaces/inkscape"
   xmlns:sodipodi="http://sodipodi.sourceforge.net/DTD/sodipodi-0.dtd"
   xmlns="http://www.w3.org/2000/svg"
   xmlns:svg="http://www.w3.org/2000/svg">
  <defs
     id="defs25" />
  <sodipodi:namedview
     id="namedview23"
     pagecolor="#ffffff"
     bordercolor="#000000"
     borderopacity="0.25"
     inkscape:showpageshadow="2"
     inkscape:pageopacity="0.0"
     inkscape:pagecheckerboard="0"
     inkscape:deskcolor="#d1d1d1"
     showgrid="false"
     inkscape:zoom="0.69218062"
     inkscape:cx="908"
     inkscape:cy="249.93477"
     inkscape:window-width="2560"
     inkscape:window-height="1369"
     inkscape:window-x="2872"
     inkscape:window-y="-8"
     inkscape:window-maximized="1"
     inkscape:current-layer="g19" />
  <g
     id="g19">
    <title
       id="title2">Layer 1</title>
    <rect
       id="svg_1"
       fill="white"
       height="501"
       width="1816" />
    <rect
       id="svg_2"
       fill="#F6F3FF"
       rx="40"
       height="495"
       width="380"
       y="3" />
    <rect
       id="svg_4"
       fill="#FFF6DF"
       rx="40"
       height="495"
       width="380"
       y="3"
       x="1435" />
    <path
       id="svg_6"
       fill="#B4B4B4"
       d="m1436.06,251.061c0.59,-0.586 0.59,-1.536 0,-2.122l-9.55,-9.546c-0.58,-0.585 -1.53,-0.585 -2.12,0c-0.58,0.586 -0.58,1.536 0,2.122l8.49,8.485l-8.49,8.485c-0.58,0.586 -0.58,1.536 0,2.122c0.59,0.585 1.54,0.585 2.12,0l9.55,-9.546zm-1056.06,0.439l1055,0l0,-3l-1055,0l0,3z" />
    <rect
       id="svg_7"
       fill="#fff3eb"
       rx="13.972003"
       height="85"
       width="351.12253"
       y="3.5"
       x="732.5"
       style="stroke-width:1.10225" />
    <path
       id="svg_10"
       fill="#B4B4B4"
       d="m905.939,240.061c0.586,0.585 1.536,0.585 2.122,0l9.546,-9.546c0.585,-0.586 0.585,-1.536 0,-2.122c-0.586,-0.585 -1.536,-0.585 -2.122,0l-8.485,8.486l-8.485,-8.486c-0.586,-0.585 -1.536,-0.585 -2.122,0c-0.585,0.586 -0.585,1.536 0,2.122l9.546,9.546zm-0.439,-147.061l0,146l3,0l0,-146l-3,0z" />
    <rect
       id="svg_11"
       fill="#FFF3EB"
       rx="11.5"
       height="123"
       width="379"
       y="379.5"
       x="504.5" />
    <rect
       id="svg_14"
       fill="#FFF3EB"
       rx="11.5"
       height="123"
       width="379"
       y="375.5"
       x="934.5" />
    <path
       id="svg_17"
       fill="#B4B4B4"
       d="m691.061,259.939c-0.586,-0.585 -1.536,-0.585 -2.122,0l-9.546,9.546c-0.585,0.586 -0.585,1.536 0,2.122c0.586,0.585 1.536,0.585 2.122,0l8.485,-8.486l8.485,8.486c0.586,0.585 1.536,0.585 2.122,0c0.585,-0.586 0.585,-1.536 0,-2.122l-9.546,-9.546zm0.439,100.061l0,-99l-3,0l0,99l3,0z" />
    <path
       id="svg_18"
       fill="#B4B4B4"
       d="m1125.06,259.939c-0.59,-0.585 -1.53,-0.585 -2.12,0l-9.55,9.546c-0.58,0.586 -0.58,1.536 0,2.122c0.59,0.585 1.54,0.585 2.12,0l8.49,-8.486l8.49,8.486c0.58,0.585 1.53,0.585 2.12,0c0.58,-0.586 0.58,-1.536 0,-2.122l-9.55,-9.546zm0.44,100.061l0,-99l-3,0l0,99l3,0z" />
    <text
       xml:space="preserve"
       text-anchor="start"
       font-family="'Noto Sans JP'"
       font-size="40"
       id="svg_19"
       y="265.99292"
       x="101.60002"
       fill="#000000"
       style="font-size:42.6667px">基础模型</text>
    <text
       xml:space="preserve"
       text-anchor="start"
       font-family="'Noto Sans JP'"
       font-size="30"
       id="svg_20"
       y="451.69998"
       x="561.46252"
       fill="#000000"
       style="font-size:37.3333px">非常大的语料库</text>
    <text
       xml:space="preserve"
       text-anchor="start"
       font-family="'Noto Sans JP'"
       font-size="30"
       id="svg_21"
       y="453.69998"
       x="1014.4625"
       fill="#000000"
       style="font-size:37.3333px">很多天的训练</text>
    <text
       xml:space="preserve"
       text-anchor="start"
       font-family="'Noto Sans JP'"
       font-size="28"
       id="svg_22"
       y="55.699989"
       x="743.46252"
       fill="#000000"
       style="font-size:37.3333px">花费很多的钱￥￥￥</text>
    <text
       xml:space="preserve"
       text-anchor="start"
       font-family="'Noto Sans JP'"
       font-size="30"
       id="svg_23"
       y="263.63876"
       x="1461.7922"
       fill="#000000"
       style="font-size:37.3333px">预训练后的语言模型</text>
  </g>
</svg>
