<?xml version="1.0" encoding="UTF-8" standalone="no"?>
<svg
   width="744"
   height="555.90851"
   viewBox="0 0 744 555.90851"
   fill="none"
   version="1.1"
   id="svg124"
   sodipodi:docname="question_tokens.svg"
   inkscape:version="1.2.2 (732a01da63, 2022-12-09)"
   inkscape:export-filename="question_tokens.png"
   inkscape:export-xdpi="300"
   inkscape:export-ydpi="300"
   xmlns:inkscape="http://www.inkscape.org/namespaces/inkscape"
   xmlns:sodipodi="http://sodipodi.sourceforge.net/DTD/sodipodi-0.dtd"
   xmlns="http://www.w3.org/2000/svg"
   xmlns:svg="http://www.w3.org/2000/svg">
  <defs
     id="defs128" />
  <sodipodi:namedview
     id="namedview126"
     pagecolor="#ffffff"
     bordercolor="#000000"
     borderopacity="0.25"
     inkscape:showpageshadow="2"
     inkscape:pageopacity="0.0"
     inkscape:pagecheckerboard="0"
     inkscape:deskcolor="#d1d1d1"
     showgrid="false"
     inkscape:zoom="1.0245916"
     inkscape:cx="827.15883"
     inkscape:cy="62.463912"
     inkscape:window-width="2560"
     inkscape:window-height="1369"
     inkscape:window-x="2872"
     inkscape:window-y="-8"
     inkscape:window-maximized="1"
     inkscape:current-layer="svg124" />
  <rect
     x="0.5"
     y="0.5"
     width="119"
     height="57"
     rx="7.5"
     fill="#fff6df"
     stroke="#ffe1b4"
     id="rect4" />
  <rect
     x="156.5"
     y="0.5"
     width="119"
     height="57"
     rx="7.5"
     fill="#fff6df"
     stroke="#ffe1b4"
     id="rect6" />
  <rect
     x="312.5"
     y="0.5"
     width="119"
     height="57"
     rx="7.5"
     fill="#fff6df"
     stroke="#ffe1b4"
     id="rect8" />
  <rect
     x="467.5"
     y="0.5"
     width="119"
     height="57"
     rx="7.5"
     fill="#fff6df"
     stroke="#ffe1b4"
     id="rect10" />
  <rect
     x="623.5"
     y="0.5"
     width="119"
     height="57"
     rx="7.5"
     fill="#fff6df"
     stroke="#ffe1b4"
     id="rect12" />
  <rect
     x="0.5"
     y="95.738647"
     width="119"
     height="57"
     rx="7.5"
     fill="#fff6df"
     stroke="#ffe1b4"
     id="rect14" />
  <rect
     x="156.5"
     y="95.738647"
     width="119"
     height="57"
     rx="7.5"
     fill="#fff6df"
     stroke="#ffe1b4"
     id="rect16" />
  <rect
     x="312.5"
     y="95.738647"
     width="119"
     height="57"
     rx="7.5"
     fill="#fff6df"
     stroke="#ffe1b4"
     id="rect18" />
  <rect
     x="468.50003"
     y="95.738647"
     width="119"
     height="57"
     rx="7.5"
     fill="#fff6df"
     stroke="#ffe1b4"
     id="rect20" />
  <rect
     x="624.5"
     y="95.738647"
     width="119"
     height="57"
     rx="7.5"
     fill="#fff6df"
     stroke="#ffe1b4"
     id="rect22" />
  <rect
     x="0.5"
     y="193.35712"
     width="119"
     height="57"
     rx="7.5"
     fill="#fff6df"
     stroke="#ffe1b4"
     id="rect24" />
  <rect
     x="156.5"
     y="193.35712"
     width="119"
     height="57"
     rx="7.5"
     fill="#fff6df"
     stroke="#ffe1b4"
     id="rect26" />
  <rect
     x="312.5"
     y="193.35712"
     width="119"
     height="57"
     rx="7.5"
     fill="#fff6df"
     stroke="#ffe1b4"
     id="rect28" />
  <rect
     x="467.5"
     y="193.35712"
     width="119"
     height="57"
     rx="7.5"
     fill="#fff6df"
     stroke="#ffe1b4"
     id="rect30" />
  <rect
     x="623.5"
     y="193.35712"
     width="119"
     height="57"
     rx="7.5"
     fill="#fff6df"
     stroke="#ffe1b4"
     id="rect32" />
  <rect
     x="0.5"
     y="296.87738"
     width="119"
     height="57"
     rx="7.5"
     fill="#fff6df"
     stroke="#ffe1b4"
     id="rect34" />
  <rect
     x="156.49994"
     y="296.87738"
     width="119"
     height="57"
     rx="7.5"
     fill="#fff6df"
     stroke="#ffe1b4"
     id="rect36" />
  <rect
     x="312.49994"
     y="296.87738"
     width="119"
     height="57"
     rx="7.5"
     fill="#fff6df"
     stroke="#ffe1b4"
     id="rect38" />
  <rect
     x="468.49991"
     y="296.87738"
     width="119"
     height="57"
     rx="7.5"
     fill="#fff6df"
     stroke="#ffe1b4"
     id="rect40" />
  <rect
     x="624.49994"
     y="296.87738"
     width="119"
     height="57"
     rx="7.5"
     fill="#fff6df"
     stroke="#ffe1b4"
     id="rect42" />
  <rect
     x="0.5"
     y="396.26849"
     width="119"
     height="57"
     rx="7.5"
     fill="#fff6df"
     stroke="#ffe1b4"
     id="rect44" />
  <rect
     x="156.5"
     y="396.26849"
     width="119"
     height="57"
     rx="7.5"
     fill="#ffdfca"
     stroke="#ffb584"
     id="rect46" />
  <rect
     x="312.5"
     y="396.26849"
     width="119"
     height="57"
     rx="7.5"
     fill="#ffdfca"
     stroke="#ffb584"
     id="rect48" />
  <rect
     x="467.5"
     y="396.26849"
     width="119"
     height="57"
     rx="7.5"
     fill="#ffdfca"
     stroke="#ffb584"
     id="rect50" />
  <rect
     x="623.5"
     y="396.26849"
     width="119"
     height="57"
     rx="7.5"
     fill="#ffdfca"
     stroke="#ffb584"
     id="rect52" />
  <rect
     x="0.5"
     y="498.40851"
     width="119"
     height="57"
     rx="7.5"
     fill="#fff6df"
     stroke="#ffe1b4"
     id="rect54" />
  <rect
     x="156.49988"
     y="498.40851"
     width="119"
     height="57"
     rx="7.5"
     fill="#fff6df"
     stroke="#ffe1b4"
     id="rect56" />
  <rect
     x="312.49988"
     y="498.40851"
     width="119"
     height="57"
     rx="7.5"
     fill="#fff6df"
     stroke="#ffe1b4"
     id="rect58" />
  <rect
     x="468.49985"
     y="498.40851"
     width="119"
     height="57"
     rx="7.5"
     fill="#fff6df"
     stroke="#ffe1b4"
     id="rect60" />
  <rect
     x="624.49988"
     y="498.40851"
     width="119"
     height="57"
     rx="7.5"
     fill="#fff6df"
     stroke="#ffe1b4"
     id="rect62" />
  <path
     d="m 40.132,39.040028 v -17.2 h 3.58 v 0.94 h -2.34 v 15.32 h 2.34 v 0.94 z m 10.935,-2.8 c -1.094,0 -2.074,-0.2667 -2.94,-0.8 -0.854,-0.5467 -1.534,-1.3267 -2.04,-2.34 -0.494,-1.0133 -0.74,-2.2333 -0.74,-3.66 0,-1.4133 0.253,-2.6267 0.76,-3.64 0.506,-1.0133 1.2,-1.7933 2.08,-2.34 0.88,-0.5467 1.873,-0.82 2.98,-0.82 0.8,0 1.506,0.1667 2.12,0.5 0.613,0.32 1.106,0.6933 1.48,1.12 l -0.9,1.08 c -0.347,-0.3733 -0.74,-0.6733 -1.18,-0.9 -0.44,-0.2267 -0.94,-0.34 -1.5,-0.34 -0.827,0 -1.554,0.22 -2.18,0.66 -0.614,0.4267 -1.094,1.0333 -1.44,1.82 -0.334,0.7867 -0.5,1.7267 -0.5,2.82 0,1.0933 0.166,2.0467 0.5,2.86 0.333,0.8 0.8,1.42 1.4,1.86 0.613,0.44 1.333,0.66 2.16,0.66 0.626,0 1.186,-0.1333 1.68,-0.4 0.493,-0.2667 0.946,-0.6267 1.36,-1.08 l 0.92,1.04 c -0.52,0.6 -1.107,1.0667 -1.76,1.4 -0.654,0.3333 -1.407,0.5 -2.26,0.5 z m 6.465,-0.24 v -13.12 h 1.66 v 11.7 h 5.74 v 1.42 z m 12.918,0.24 c -0.92,0 -1.774,-0.1733 -2.56,-0.52 -0.787,-0.36 -1.467,-0.8333 -2.04,-1.42 l 1,-1.16 c 0.466,0.4933 1.013,0.8933 1.64,1.2 0.64,0.2933 1.3,0.44 1.98,0.44 0.866,0 1.54,-0.1933 2.02,-0.58 0.48,-0.4 0.72,-0.92 0.72,-1.56 0,-0.4533 -0.1,-0.8133 -0.3,-1.08 -0.187,-0.2667 -0.447,-0.4933 -0.78,-0.68 -0.32,-0.1867 -0.687,-0.3733 -1.1,-0.56 l -1.88,-0.82 c -0.414,-0.1733 -0.827,-0.4 -1.24,-0.68 -0.4,-0.28 -0.74,-0.64 -1.02,-1.08 -0.267,-0.44 -0.4,-0.98 -0.4,-1.62 0,-0.6667 0.173,-1.26 0.52,-1.78 0.36,-0.5333 0.853,-0.9467 1.48,-1.24 0.626,-0.3067 1.333,-0.46 2.12,-0.46 0.786,0 1.513,0.1533 2.18,0.46 0.666,0.2933 1.233,0.68 1.7,1.16 l -0.9,1.08 c -0.4,-0.3867 -0.847,-0.6867 -1.34,-0.9 -0.48,-0.2267 -1.027,-0.34 -1.64,-0.34 -0.734,0 -1.327,0.1733 -1.78,0.52 -0.44,0.3467 -0.66,0.8133 -0.66,1.4 0,0.4133 0.106,0.76 0.32,1.04 0.226,0.2667 0.506,0.4867 0.84,0.66 0.333,0.1733 0.673,0.3333 1.02,0.48 l 1.86,0.8 c 0.506,0.2133 0.96,0.4733 1.36,0.78 0.413,0.2933 0.74,0.66 0.98,1.1 0.24,0.4267 0.36,0.9667 0.36,1.62 0,0.6933 -0.18,1.3267 -0.54,1.9 -0.36,0.56 -0.874,1.0067 -1.54,1.34 -0.667,0.3333 -1.46,0.5 -2.38,0.5 z m 5.863,2.8 v -0.94 h 2.32 v -15.32 h -2.32 v -0.94 h 3.56 v 17.2 z"
     fill="#000000"
     id="path64" />
  <path
     d="m 45.222998,228.85711 -2.7,-9.72 h 1.68 l 1.44,5.62 c 0.107,0.453 0.207,0.907 0.3,1.36 0.093,0.44 0.187,0.887 0.28,1.34 h 0.08 c 0.107,-0.453 0.213,-0.9 0.32,-1.34 0.107,-0.453 0.22,-0.907 0.34,-1.36 l 1.5,-5.62 h 1.6 l 1.52,5.62 c 0.12,0.453 0.233,0.907 0.34,1.36 0.12,0.44 0.233,0.887 0.34,1.34 h 0.08 c 0.107,-0.453 0.207,-0.9 0.3,-1.34 0.107,-0.453 0.207,-0.907 0.3,-1.36 l 1.42,-5.62 h 1.56 l -2.6,9.72 h -2 l -1.4,-5.22 c -0.12,-0.467 -0.233,-0.927 -0.34,-1.38 -0.093,-0.453 -0.2,-0.927 -0.32,-1.42 h -0.08 c -0.107,0.493 -0.213,0.973 -0.32,1.44 -0.107,0.453 -0.227,0.913 -0.36,1.38 l -1.36,5.2 z m 12.815,0 v -9.72 h 1.64 v 9.72 z m 0.84,-11.72 c -0.32,0 -0.586,-0.093 -0.8,-0.28 -0.2,-0.2 -0.3,-0.467 -0.3,-0.8 0,-0.32 0.1,-0.58 0.3,-0.78 0.214,-0.2 0.48,-0.3 0.8,-0.3 0.32,0 0.58,0.1 0.78,0.3 0.214,0.2 0.32,0.46 0.32,0.78 0,0.333 -0.106,0.6 -0.32,0.8 -0.2,0.187 -0.46,0.28 -0.78,0.28 z m 7.142,11.96 c -1.04,0 -1.766,-0.3 -2.18,-0.9 -0.4,-0.6 -0.6,-1.38 -0.6,-2.34 v -5.38 h -1.44 v -1.24 l 1.52,-0.1 0.2,-2.72 h 1.38 v 2.72 h 2.62 v 1.34 h -2.62 v 5.4 c 0,0.6 0.107,1.067 0.32,1.4 0.227,0.32 0.62,0.48 1.18,0.48 0.174,0 0.36,-0.027 0.56,-0.08 0.2,-0.067 0.38,-0.127 0.54,-0.18 l 0.32,1.24 c -0.266,0.093 -0.56,0.173 -0.88,0.24 -0.306,0.08 -0.613,0.12 -0.92,0.12 z m 3.698,-0.24 v -14.24 h 1.64 v 3.88 l -0.06,2 c 0.467,-0.44 0.953,-0.813 1.46,-1.12 0.52,-0.32 1.113,-0.48 1.78,-0.48 1.027,0 1.773,0.327 2.24,0.98 0.48,0.64 0.72,1.58 0.72,2.82 v 6.16 h -1.64 v -5.94 c 0,-0.907 -0.147,-1.567 -0.44,-1.98 -0.293,-0.413 -0.76,-0.62 -1.4,-0.62 -0.493,0 -0.94,0.127 -1.34,0.38 -0.387,0.253 -0.827,0.627 -1.32,1.12 v 7.04 z"
     fill="#000000"
     id="path66" />
  <path
     d="m 60.51,432.00846 c -0.334,0 -0.62,-0.113 -0.86,-0.34 -0.227,-0.24 -0.34,-0.54 -0.34,-0.9 0,-0.387 0.113,-0.693 0.34,-0.92 0.24,-0.24 0.526,-0.36 0.86,-0.36 0.32,0 0.593,0.12 0.82,0.36 0.24,0.227 0.36,0.533 0.36,0.92 0,0.36 -0.12,0.66 -0.36,0.9 -0.227,0.227 -0.5,0.34 -0.82,0.34 z"
     fill="#000000"
     id="path68" />
  <path
     d="m 204.607,229.09711 c -0.614,0 -1.06,-0.187 -1.34,-0.56 -0.267,-0.387 -0.4,-0.933 -0.4,-1.64 v -12.28 h 1.64 v 12.4 c 0,0.253 0.046,0.44 0.14,0.56 0.093,0.107 0.2,0.16 0.32,0.16 0.053,0 0.1,0 0.14,0 0.053,-0.013 0.126,-0.027 0.22,-0.04 l 0.22,1.24 c -0.107,0.053 -0.234,0.093 -0.38,0.12 -0.147,0.027 -0.334,0.04 -0.56,0.04 z m 7.137,0 c -0.786,0 -1.526,-0.2 -2.22,-0.6 -0.68,-0.4 -1.233,-0.98 -1.66,-1.74 -0.413,-0.76 -0.62,-1.673 -0.62,-2.74 0,-1.093 0.207,-2.02 0.62,-2.78 0.427,-0.76 0.98,-1.34 1.66,-1.74 0.694,-0.4 1.434,-0.6 2.22,-0.6 0.8,0 1.54,0.2 2.22,0.6 0.68,0.4 1.227,0.98 1.64,1.74 0.427,0.76 0.64,1.687 0.64,2.78 0,1.067 -0.213,1.98 -0.64,2.74 -0.413,0.76 -0.96,1.34 -1.64,1.74 -0.68,0.4 -1.42,0.6 -2.22,0.6 z m 0,-1.36 c 0.84,0 1.514,-0.34 2.02,-1.02 0.52,-0.693 0.78,-1.593 0.78,-2.7 0,-1.12 -0.26,-2.027 -0.78,-2.72 -0.506,-0.693 -1.18,-1.04 -2.02,-1.04 -0.826,0 -1.5,0.347 -2.02,1.04 -0.52,0.693 -0.78,1.6 -0.78,2.72 0,1.107 0.26,2.007 0.78,2.7 0.52,0.68 1.194,1.02 2.02,1.02 z m 9.788,1.36 c -1.04,0 -1.767,-0.3 -2.18,-0.9 -0.4,-0.6 -0.6,-1.38 -0.6,-2.34 v -5.38 h -1.44 v -1.24 l 1.52,-0.1 0.2,-2.72 h 1.38 v 2.72 h 2.62 v 1.34 h -2.62 v 5.4 c 0,0.6 0.107,1.067 0.32,1.4 0.227,0.32 0.62,0.48 1.18,0.48 0.173,0 0.36,-0.027 0.56,-0.08 0.2,-0.067 0.38,-0.127 0.54,-0.18 l 0.32,1.24 c -0.267,0.093 -0.56,0.173 -0.88,0.24 -0.307,0.08 -0.613,0.12 -0.92,0.12 z m 6.043,0 c -0.694,0 -1.354,-0.127 -1.98,-0.38 -0.627,-0.267 -1.174,-0.587 -1.64,-0.96 l 0.82,-1.1 c 0.426,0.333 0.866,0.613 1.32,0.84 0.453,0.213 0.966,0.32 1.54,0.32 0.64,0 1.12,-0.147 1.44,-0.44 0.32,-0.307 0.48,-0.667 0.48,-1.08 0,-0.333 -0.114,-0.613 -0.34,-0.84 -0.214,-0.227 -0.494,-0.413 -0.84,-0.56 -0.334,-0.16 -0.68,-0.307 -1.04,-0.44 -0.454,-0.173 -0.9,-0.367 -1.34,-0.58 -0.44,-0.227 -0.8,-0.513 -1.08,-0.86 -0.28,-0.36 -0.42,-0.813 -0.42,-1.36 0,-0.787 0.293,-1.44 0.88,-1.96 0.6,-0.533 1.426,-0.8 2.48,-0.8 0.6,0 1.16,0.107 1.68,0.32 0.52,0.213 0.966,0.473 1.34,0.78 l -0.8,1.04 c -0.334,-0.253 -0.68,-0.46 -1.04,-0.62 -0.36,-0.16 -0.754,-0.24 -1.18,-0.24 -0.614,0 -1.067,0.14 -1.36,0.42 -0.28,0.28 -0.42,0.607 -0.42,0.98 0,0.307 0.1,0.56 0.3,0.76 0.2,0.187 0.46,0.353 0.78,0.5 0.32,0.133 0.66,0.273 1.02,0.42 0.466,0.173 0.926,0.373 1.38,0.6 0.453,0.213 0.826,0.507 1.12,0.88 0.306,0.36 0.46,0.847 0.46,1.46 0,0.52 -0.14,1 -0.42,1.44 -0.267,0.44 -0.667,0.793 -1.2,1.06 -0.52,0.267 -1.167,0.4 -1.94,0.4 z"
     fill="#000000"
     id="path70" />
  <path
     d="m 204.758,431.76846 v -11.72 h -3.96 v -1.4 h 9.6 v 1.4 h -3.96 v 11.72 z m 7.843,0 v -14.24 h 1.64 v 3.88 l -0.06,2 c 0.467,-0.44 0.953,-0.813 1.46,-1.12 0.52,-0.32 1.113,-0.48 1.78,-0.48 1.027,0 1.773,0.327 2.24,0.98 0.48,0.64 0.72,1.58 0.72,2.82 v 6.16 h -1.64 v -5.94 c 0,-0.907 -0.147,-1.567 -0.44,-1.98 -0.293,-0.413 -0.76,-0.62 -1.4,-0.62 -0.493,0 -0.94,0.127 -1.34,0.38 -0.387,0.253 -0.827,0.627 -1.32,1.12 v 7.04 z m 14.819,0.24 c -0.867,0 -1.653,-0.2 -2.36,-0.6 -0.707,-0.413 -1.267,-1 -1.68,-1.76 -0.413,-0.76 -0.62,-1.667 -0.62,-2.72 0,-1.067 0.207,-1.98 0.62,-2.74 0.427,-0.76 0.973,-1.347 1.64,-1.76 0.667,-0.413 1.367,-0.62 2.1,-0.62 1.24,0 2.193,0.413 2.86,1.24 0.68,0.827 1.02,1.933 1.02,3.32 0,0.173 -0.007,0.347 -0.02,0.52 0,0.16 -0.013,0.3 -0.04,0.42 h -6.56 c 0.067,1.027 0.387,1.847 0.96,2.46 0.587,0.613 1.347,0.92 2.28,0.92 0.467,0 0.893,-0.067 1.28,-0.2 0.4,-0.147 0.78,-0.333 1.14,-0.56 l 0.58,1.08 c -0.413,0.267 -0.887,0.5 -1.42,0.7 -0.52,0.2 -1.113,0.3 -1.78,0.3 z m -3.06,-5.88 h 5.2 c 0,-0.987 -0.213,-1.733 -0.64,-2.24 -0.413,-0.52 -1,-0.78 -1.76,-0.78 -0.68,0 -1.293,0.267 -1.84,0.8 -0.533,0.52 -0.853,1.26 -0.96,2.22 z"
     fill="#000000"
     id="path72" />
  <path
     d="m 346.116,432.00846 c -0.813,0 -1.493,-0.24 -2.04,-0.72 -0.533,-0.493 -0.8,-1.173 -0.8,-2.04 0,-1.067 0.474,-1.88 1.42,-2.44 0.96,-0.573 2.474,-0.973 4.54,-1.2 0,-0.413 -0.06,-0.807 -0.18,-1.18 -0.106,-0.373 -0.306,-0.673 -0.6,-0.9 -0.28,-0.24 -0.686,-0.36 -1.22,-0.36 -0.56,0 -1.086,0.107 -1.58,0.32 -0.493,0.213 -0.933,0.453 -1.32,0.72 l -0.64,-1.14 c 0.454,-0.293 1.007,-0.573 1.66,-0.84 0.667,-0.28 1.387,-0.42 2.16,-0.42 1.187,0 2.047,0.367 2.58,1.1 0.534,0.72 0.8,1.687 0.8,2.9 v 5.96 h -1.36 l -0.14,-1.16 h -0.06 c -0.453,0.373 -0.953,0.7 -1.5,0.98 -0.533,0.28 -1.106,0.42 -1.72,0.42 z m 0.48,-1.32 c 0.467,0 0.907,-0.113 1.32,-0.34 0.414,-0.227 0.854,-0.547 1.32,-0.96 v -2.7 c -1.613,0.2 -2.746,0.5 -3.4,0.9 -0.64,0.4 -0.96,0.913 -0.96,1.54 0,0.547 0.167,0.947 0.5,1.2 0.334,0.24 0.74,0.36 1.22,0.36 z m 7.358,1.08 v -9.72 h 1.36 l 0.14,1.4 h 0.06 c 0.467,-0.467 0.96,-0.853 1.48,-1.16 0.52,-0.32 1.114,-0.48 1.78,-0.48 1.027,0 1.774,0.327 2.24,0.98 0.48,0.64 0.72,1.58 0.72,2.82 v 6.16 h -1.64 v -5.94 c 0,-0.907 -0.146,-1.567 -0.44,-1.98 -0.293,-0.413 -0.76,-0.62 -1.4,-0.62 -0.493,0 -0.94,0.127 -1.34,0.38 -0.386,0.253 -0.826,0.627 -1.32,1.12 v 7.04 z m 13.478,0.24 c -0.693,0 -1.353,-0.127 -1.98,-0.38 -0.627,-0.267 -1.173,-0.587 -1.64,-0.96 l 0.82,-1.1 c 0.427,0.333 0.867,0.613 1.32,0.84 0.453,0.213 0.967,0.32 1.54,0.32 0.64,0 1.12,-0.147 1.44,-0.44 0.32,-0.307 0.48,-0.667 0.48,-1.08 0,-0.333 -0.113,-0.613 -0.34,-0.84 -0.213,-0.227 -0.493,-0.413 -0.84,-0.56 -0.333,-0.16 -0.68,-0.307 -1.04,-0.44 -0.453,-0.173 -0.9,-0.367 -1.34,-0.58 -0.44,-0.227 -0.8,-0.513 -1.08,-0.86 -0.28,-0.36 -0.42,-0.813 -0.42,-1.36 0,-0.787 0.293,-1.44 0.88,-1.96 0.6,-0.533 1.427,-0.8 2.48,-0.8 0.6,0 1.16,0.107 1.68,0.32 0.52,0.213 0.967,0.473 1.34,0.78 l -0.8,1.04 c -0.333,-0.253 -0.68,-0.46 -1.04,-0.62 -0.36,-0.16 -0.753,-0.24 -1.18,-0.24 -0.613,0 -1.067,0.14 -1.36,0.42 -0.28,0.28 -0.42,0.607 -0.42,0.98 0,0.307 0.1,0.56 0.3,0.76 0.2,0.187 0.46,0.353 0.78,0.5 0.32,0.133 0.66,0.273 1.02,0.42 0.467,0.173 0.927,0.373 1.38,0.6 0.453,0.213 0.827,0.507 1.12,0.88 0.307,0.36 0.46,0.847 0.46,1.46 0,0.52 -0.14,1 -0.42,1.44 -0.267,0.44 -0.667,0.793 -1.2,1.06 -0.52,0.267 -1.167,0.4 -1.94,0.4 z m 7.379,-0.24 -2.7,-9.72 h 1.68 l 1.44,5.62 c 0.107,0.453 0.207,0.907 0.3,1.36 0.093,0.44 0.187,0.887 0.28,1.34 h 0.08 c 0.107,-0.453 0.213,-0.9 0.32,-1.34 0.107,-0.453 0.22,-0.907 0.34,-1.36 l 1.5,-5.62 h 1.6 l 1.52,5.62 c 0.12,0.453 0.233,0.907 0.34,1.36 0.12,0.44 0.233,0.887 0.34,1.34 h 0.08 c 0.107,-0.453 0.207,-0.9 0.3,-1.34 0.107,-0.453 0.207,-0.907 0.3,-1.36 l 1.42,-5.62 h 1.56 l -2.6,9.72 h -2 l -1.4,-5.22 c -0.12,-0.467 -0.233,-0.927 -0.34,-1.38 -0.093,-0.453 -0.2,-0.927 -0.32,-1.42 h -0.08 c -0.107,0.493 -0.213,0.973 -0.32,1.44 -0.107,0.453 -0.227,0.913 -0.36,1.38 l -1.36,5.2 z m 16.677,0.24 c -0.866,0 -1.653,-0.2 -2.36,-0.6 -0.706,-0.413 -1.266,-1 -1.68,-1.76 -0.413,-0.76 -0.62,-1.667 -0.62,-2.72 0,-1.067 0.207,-1.98 0.62,-2.74 0.427,-0.76 0.974,-1.347 1.64,-1.76 0.667,-0.413 1.367,-0.62 2.1,-0.62 1.24,0 2.194,0.413 2.86,1.24 0.68,0.827 1.02,1.933 1.02,3.32 0,0.173 -0.006,0.347 -0.02,0.52 0,0.16 -0.013,0.3 -0.04,0.42 h -6.56 c 0.067,1.027 0.387,1.847 0.96,2.46 0.587,0.613 1.347,0.92 2.28,0.92 0.467,0 0.894,-0.067 1.28,-0.2 0.4,-0.147 0.78,-0.333 1.14,-0.56 l 0.58,1.08 c -0.413,0.267 -0.886,0.5 -1.42,0.7 -0.52,0.2 -1.113,0.3 -1.78,0.3 z m -3.06,-5.88 h 5.2 c 0,-0.987 -0.213,-1.733 -0.64,-2.24 -0.413,-0.52 -1,-0.78 -1.76,-0.78 -0.68,0 -1.293,0.267 -1.84,0.8 -0.533,0.52 -0.853,1.26 -0.96,2.22 z m 9.042,5.64 v -9.72 h 1.36 l 0.14,1.76 h 0.06 c 0.333,-0.613 0.74,-1.1 1.22,-1.46 0.48,-0.36 0.993,-0.54 1.54,-0.54 0.387,0 0.733,0.067 1.04,0.2 l -0.32,1.44 c -0.16,-0.053 -0.307,-0.093 -0.44,-0.12 -0.133,-0.027 -0.3,-0.04 -0.5,-0.04 -0.413,0 -0.847,0.167 -1.3,0.5 -0.44,0.333 -0.827,0.913 -1.16,1.74 v 6.24 z"
     fill="#000000"
     id="path74" />
  <path
     d="m 521.99,431.76846 v -9.72 h 1.64 v 9.72 z m 0.84,-11.72 c -0.32,0 -0.587,-0.093 -0.8,-0.28 -0.2,-0.2 -0.3,-0.467 -0.3,-0.8 0,-0.32 0.1,-0.58 0.3,-0.78 0.213,-0.2 0.48,-0.3 0.8,-0.3 0.32,0 0.58,0.1 0.78,0.3 0.213,0.2 0.32,0.46 0.32,0.78 0,0.333 -0.107,0.6 -0.32,0.8 -0.2,0.187 -0.46,0.28 -0.78,0.28 z m 6.621,11.96 c -0.693,0 -1.353,-0.127 -1.98,-0.38 -0.626,-0.267 -1.173,-0.587 -1.64,-0.96 l 0.82,-1.1 c 0.427,0.333 0.867,0.613 1.32,0.84 0.454,0.213 0.967,0.32 1.54,0.32 0.64,0 1.12,-0.147 1.44,-0.44 0.32,-0.307 0.48,-0.667 0.48,-1.08 0,-0.333 -0.113,-0.613 -0.34,-0.84 -0.213,-0.227 -0.493,-0.413 -0.84,-0.56 -0.333,-0.16 -0.68,-0.307 -1.04,-0.44 -0.453,-0.173 -0.9,-0.367 -1.34,-0.58 -0.44,-0.227 -0.8,-0.513 -1.08,-0.86 -0.28,-0.36 -0.42,-0.813 -0.42,-1.36 0,-0.787 0.294,-1.44 0.88,-1.96 0.6,-0.533 1.427,-0.8 2.48,-0.8 0.6,0 1.16,0.107 1.68,0.32 0.52,0.213 0.967,0.473 1.34,0.78 l -0.8,1.04 c -0.333,-0.253 -0.68,-0.46 -1.04,-0.62 -0.36,-0.16 -0.753,-0.24 -1.18,-0.24 -0.613,0 -1.066,0.14 -1.36,0.42 -0.28,0.28 -0.42,0.607 -0.42,0.98 0,0.307 0.1,0.56 0.3,0.76 0.2,0.187 0.46,0.353 0.78,0.5 0.32,0.133 0.66,0.273 1.02,0.42 0.467,0.173 0.927,0.373 1.38,0.6 0.454,0.213 0.827,0.507 1.12,0.88 0.307,0.36 0.46,0.847 0.46,1.46 0,0.52 -0.14,1 -0.42,1.44 -0.266,0.44 -0.666,0.793 -1.2,1.06 -0.52,0.267 -1.166,0.4 -1.94,0.4 z"
     fill="#000000"
     id="path76" />
  <path
     d="m 665.91,431.76846 v -14.24 h 1.64 v 3.88 l -0.06,2 c 0.466,-0.44 0.953,-0.813 1.46,-1.12 0.52,-0.32 1.113,-0.48 1.78,-0.48 1.026,0 1.773,0.327 2.24,0.98 0.48,0.64 0.72,1.58 0.72,2.82 v 6.16 h -1.64 v -5.94 c 0,-0.907 -0.147,-1.567 -0.44,-1.98 -0.294,-0.413 -0.76,-0.62 -1.4,-0.62 -0.494,0 -0.94,0.127 -1.34,0.38 -0.387,0.253 -0.827,0.627 -1.32,1.12 v 7.04 z m 14.818,0.24 c -0.866,0 -1.653,-0.2 -2.36,-0.6 -0.706,-0.413 -1.266,-1 -1.68,-1.76 -0.413,-0.76 -0.62,-1.667 -0.62,-2.72 0,-1.067 0.207,-1.98 0.62,-2.74 0.427,-0.76 0.974,-1.347 1.64,-1.76 0.667,-0.413 1.367,-0.62 2.1,-0.62 1.24,0 2.194,0.413 2.86,1.24 0.68,0.827 1.02,1.933 1.02,3.32 0,0.173 -0.006,0.347 -0.02,0.52 0,0.16 -0.013,0.3 -0.04,0.42 h -6.56 c 0.067,1.027 0.387,1.847 0.96,2.46 0.587,0.613 1.347,0.92 2.28,0.92 0.467,0 0.894,-0.067 1.28,-0.2 0.4,-0.147 0.78,-0.333 1.14,-0.56 l 0.58,1.08 c -0.413,0.267 -0.886,0.5 -1.42,0.7 -0.52,0.2 -1.113,0.3 -1.78,0.3 z m -3.06,-5.88 h 5.2 c 0,-0.987 -0.213,-1.733 -0.64,-2.24 -0.413,-0.52 -1,-0.78 -1.76,-0.78 -0.68,0 -1.293,0.267 -1.84,0.8 -0.533,0.52 -0.853,1.26 -0.96,2.22 z m 9.042,5.64 v -9.72 h 1.36 l 0.14,1.76 h 0.06 c 0.334,-0.613 0.74,-1.1 1.22,-1.46 0.48,-0.36 0.994,-0.54 1.54,-0.54 0.387,0 0.734,0.067 1.04,0.2 l -0.32,1.44 c -0.16,-0.053 -0.306,-0.093 -0.44,-0.12 -0.133,-0.027 -0.3,-0.04 -0.5,-0.04 -0.413,0 -0.846,0.167 -1.3,0.5 -0.44,0.333 -0.826,0.913 -1.16,1.74 v 6.24 z m 10.679,0.24 c -0.867,0 -1.654,-0.2 -2.36,-0.6 -0.707,-0.413 -1.267,-1 -1.68,-1.76 -0.414,-0.76 -0.62,-1.667 -0.62,-2.72 0,-1.067 0.206,-1.98 0.62,-2.74 0.426,-0.76 0.973,-1.347 1.64,-1.76 0.666,-0.413 1.366,-0.62 2.1,-0.62 1.24,0 2.193,0.413 2.86,1.24 0.68,0.827 1.02,1.933 1.02,3.32 0,0.173 -0.007,0.347 -0.02,0.52 0,0.16 -0.014,0.3 -0.04,0.42 h -6.56 c 0.066,1.027 0.386,1.847 0.96,2.46 0.586,0.613 1.346,0.92 2.28,0.92 0.466,0 0.893,-0.067 1.28,-0.2 0.4,-0.147 0.78,-0.333 1.14,-0.56 l 0.58,1.08 c -0.414,0.267 -0.887,0.5 -1.42,0.7 -0.52,0.2 -1.114,0.3 -1.78,0.3 z m -3.06,-5.88 h 5.2 c 0,-0.987 -0.214,-1.733 -0.64,-2.24 -0.414,-0.52 -1,-0.78 -1.76,-0.78 -0.68,0 -1.294,0.267 -1.84,0.8 -0.534,0.52 -0.854,1.26 -0.96,2.22 z"
     fill="#000000"
     id="path78" />
  <path
     d="m 41.318996,534.14851 c -0.694,0 -1.354,-0.127 -1.98,-0.38 -0.627,-0.267 -1.174,-0.587 -1.64,-0.96 l 0.82,-1.1 c 0.426,0.333 0.866,0.613 1.32,0.84 0.453,0.213 0.966,0.32 1.54,0.32 0.64,0 1.12,-0.147 1.44,-0.44 0.32,-0.307 0.48,-0.667 0.48,-1.08 0,-0.333 -0.114,-0.613 -0.34,-0.84 -0.214,-0.227 -0.494,-0.413 -0.84,-0.56 -0.334,-0.16 -0.68,-0.307 -1.04,-0.44 -0.454,-0.173 -0.9,-0.367 -1.34,-0.58 -0.44,-0.227 -0.8,-0.513 -1.08,-0.86 -0.28,-0.36 -0.42,-0.813 -0.42,-1.36 0,-0.787 0.293,-1.44 0.88,-1.96 0.6,-0.533 1.426,-0.8 2.48,-0.8 0.6,0 1.16,0.107 1.68,0.32 0.52,0.213 0.966,0.473 1.34,0.78 l -0.8,1.04 c -0.334,-0.253 -0.68,-0.46 -1.04,-0.62 -0.36,-0.16 -0.754,-0.24 -1.18,-0.24 -0.614,0 -1.067,0.14 -1.36,0.42 -0.28,0.28 -0.42,0.607 -0.42,0.98 0,0.307 0.1,0.56 0.3,0.76 0.2,0.187 0.46,0.353 0.78,0.5 0.32,0.133 0.66,0.273 1.02,0.42 0.466,0.173 0.926,0.373 1.38,0.6 0.453,0.213 0.826,0.507 1.12,0.88 0.306,0.36 0.46,0.847 0.46,1.46 0,0.52 -0.14,1 -0.42,1.44 -0.267,0.44 -0.667,0.793 -1.2,1.06 -0.52,0.267 -1.167,0.4 -1.94,0.4 z m 9.619,0 c -0.787,0 -1.527,-0.2 -2.22,-0.6 -0.68,-0.4 -1.234,-0.98 -1.66,-1.74 -0.414,-0.76 -0.62,-1.673 -0.62,-2.74 0,-1.093 0.206,-2.02 0.62,-2.78 0.426,-0.76 0.98,-1.34 1.66,-1.74 0.693,-0.4 1.433,-0.6 2.22,-0.6 0.8,0 1.54,0.2 2.22,0.6 0.68,0.4 1.226,0.98 1.64,1.74 0.426,0.76 0.64,1.687 0.64,2.78 0,1.067 -0.214,1.98 -0.64,2.74 -0.414,0.76 -0.96,1.34 -1.64,1.74 -0.68,0.4 -1.42,0.6 -2.22,0.6 z m 0,-1.36 c 0.84,0 1.513,-0.34 2.02,-1.02 0.52,-0.693 0.78,-1.593 0.78,-2.7 0,-1.12 -0.26,-2.027 -0.78,-2.72 -0.507,-0.693 -1.18,-1.04 -2.02,-1.04 -0.827,0 -1.5,0.347 -2.02,1.04 -0.52,0.693 -0.78,1.6 -0.78,2.72 0,1.107 0.26,2.007 0.78,2.7 0.52,0.68 1.193,1.02 2.02,1.02 z m 7.059,1.12 v -9.72 h 1.36 l 0.14,1.4 h 0.06 c 0.427,-0.467 0.894,-0.853 1.4,-1.16 0.507,-0.32 1.047,-0.48 1.62,-0.48 0.747,0 1.327,0.167 1.74,0.5 0.427,0.32 0.74,0.773 0.94,1.36 0.507,-0.547 1.02,-0.993 1.54,-1.34 0.52,-0.347 1.074,-0.52 1.66,-0.52 1,0 1.74,0.327 2.22,0.98 0.494,0.64 0.74,1.58 0.74,2.82 v 6.16 h -1.64 v -5.94 c 0,-0.907 -0.146,-1.567 -0.44,-1.98 -0.293,-0.413 -0.746,-0.62 -1.36,-0.62 -0.72,0 -1.533,0.5 -2.44,1.5 v 7.04 h -1.64 v -5.94 c 0,-0.907 -0.146,-1.567 -0.44,-1.98 -0.293,-0.413 -0.753,-0.62 -1.38,-0.62 -0.72,0 -1.533,0.5 -2.44,1.5 v 7.04 z m 20.522,0.24 c -0.866,0 -1.653,-0.2 -2.36,-0.6 -0.706,-0.413 -1.266,-1 -1.68,-1.76 -0.413,-0.76 -0.62,-1.667 -0.62,-2.72 0,-1.067 0.207,-1.98 0.62,-2.74 0.427,-0.76 0.974,-1.347 1.64,-1.76 0.667,-0.413 1.367,-0.62 2.1,-0.62 1.24,0 2.194,0.413 2.86,1.24 0.68,0.827 1.02,1.933 1.02,3.32 0,0.173 -0.006,0.347 -0.02,0.52 0,0.16 -0.013,0.3 -0.04,0.42 h -6.56 c 0.067,1.027 0.387,1.847 0.96,2.46 0.587,0.613 1.347,0.92 2.28,0.92 0.467,0 0.894,-0.067 1.28,-0.2 0.4,-0.147 0.78,-0.333 1.14,-0.56 l 0.58,1.08 c -0.413,0.267 -0.886,0.5 -1.42,0.7 -0.52,0.2 -1.113,0.3 -1.78,0.3 z m -3.06,-5.88 h 5.2 c 0,-0.987 -0.213,-1.733 -0.64,-2.24 -0.413,-0.52 -1,-0.78 -1.76,-0.78 -0.68,0 -1.293,0.267 -1.84,0.8 -0.533,0.52 -0.853,1.26 -0.96,2.22 z"
     fill="#000000"
     id="path80" />
  <path
     d="m 196.10004,533.90851 v -9.72 h 1.36 l 0.14,1.4 h 0.06 c 0.43,-0.467 0.89,-0.853 1.4,-1.16 0.51,-0.32 1.05,-0.48 1.62,-0.48 0.75,0 1.33,0.167 1.74,0.5 0.43,0.32 0.74,0.773 0.94,1.36 0.51,-0.547 1.02,-0.993 1.54,-1.34 0.52,-0.347 1.07,-0.52 1.66,-0.52 1,0 1.74,0.327 2.22,0.98 0.49,0.64 0.74,1.58 0.74,2.82 v 6.16 h -1.64 v -5.94 c 0,-0.907 -0.15,-1.567 -0.44,-1.98 -0.29,-0.413 -0.75,-0.62 -1.36,-0.62 -0.72,0 -1.53,0.5 -2.44,1.5 v 7.04 h -1.64 v -5.94 c 0,-0.907 -0.15,-1.567 -0.44,-1.98 -0.29,-0.413 -0.75,-0.62 -1.38,-0.62 -0.72,0 -1.53,0.5 -2.44,1.5 v 7.04 z m 20.36,0.24 c -0.79,0 -1.53,-0.2 -2.22,-0.6 -0.68,-0.4 -1.23,-0.98 -1.66,-1.74 -0.41,-0.76 -0.62,-1.673 -0.62,-2.74 0,-1.093 0.21,-2.02 0.62,-2.78 0.43,-0.76 0.98,-1.34 1.66,-1.74 0.69,-0.4 1.43,-0.6 2.22,-0.6 0.8,0 1.54,0.2 2.22,0.6 0.68,0.4 1.23,0.98 1.64,1.74 0.43,0.76 0.64,1.687 0.64,2.78 0,1.067 -0.21,1.98 -0.64,2.74 -0.41,0.76 -0.96,1.34 -1.64,1.74 -0.68,0.4 -1.42,0.6 -2.22,0.6 z m 0,-1.36 c 0.84,0 1.51,-0.34 2.02,-1.02 0.52,-0.693 0.78,-1.593 0.78,-2.7 0,-1.12 -0.26,-2.027 -0.78,-2.72 -0.51,-0.693 -1.18,-1.04 -2.02,-1.04 -0.83,0 -1.5,0.347 -2.02,1.04 -0.52,0.693 -0.78,1.6 -0.78,2.72 0,1.107 0.26,2.007 0.78,2.7 0.52,0.68 1.19,1.02 2.02,1.02 z m 7.06,1.12 v -9.72 h 1.36 l 0.14,1.76 h 0.06 c 0.33,-0.613 0.74,-1.1 1.22,-1.46 0.48,-0.36 0.99,-0.54 1.54,-0.54 0.39,0 0.73,0.067 1.04,0.2 l -0.32,1.44 c -0.16,-0.053 -0.31,-0.093 -0.44,-0.12 -0.13,-0.027 -0.3,-0.04 -0.5,-0.04 -0.41,0 -0.85,0.167 -1.3,0.5 -0.44,0.333 -0.83,0.913 -1.16,1.74 v 6.24 z m 10.68,0.24 c -0.87,0 -1.65,-0.2 -2.36,-0.6 -0.71,-0.413 -1.27,-1 -1.68,-1.76 -0.41,-0.76 -0.62,-1.667 -0.62,-2.72 0,-1.067 0.21,-1.98 0.62,-2.74 0.43,-0.76 0.97,-1.347 1.64,-1.76 0.67,-0.413 1.37,-0.62 2.1,-0.62 1.24,0 2.19,0.413 2.86,1.24 0.68,0.827 1.02,1.933 1.02,3.32 0,0.173 -0.01,0.347 -0.02,0.52 0,0.16 -0.01,0.3 -0.04,0.42 h -6.56 c 0.07,1.027 0.39,1.847 0.96,2.46 0.59,0.613 1.35,0.92 2.28,0.92 0.47,0 0.89,-0.067 1.28,-0.2 0.4,-0.147 0.78,-0.333 1.14,-0.56 l 0.58,1.08 c -0.41,0.267 -0.89,0.5 -1.42,0.7 -0.52,0.2 -1.11,0.3 -1.78,0.3 z m -3.06,-5.88 h 5.2 c 0,-0.987 -0.21,-1.733 -0.64,-2.24 -0.41,-0.52 -1,-0.78 -1.76,-0.78 -0.68,0 -1.29,0.267 -1.84,0.8 -0.53,0.52 -0.85,1.26 -0.96,2.22 z"
     fill="#000000"
     id="path82" />
  <path
     d="m 349.52004,533.90851 -2.7,-9.72 h 1.68 l 1.44,5.62 c 0.1,0.453 0.2,0.907 0.3,1.36 0.09,0.44 0.18,0.887 0.28,1.34 h 0.08 c 0.1,-0.453 0.21,-0.9 0.32,-1.34 0.1,-0.453 0.22,-0.907 0.34,-1.36 l 1.5,-5.62 h 1.6 l 1.52,5.62 c 0.12,0.453 0.23,0.907 0.34,1.36 0.12,0.44 0.23,0.887 0.34,1.34 h 0.08 c 0.1,-0.453 0.2,-0.9 0.3,-1.34 0.1,-0.453 0.2,-0.907 0.3,-1.36 l 1.42,-5.62 h 1.56 l -2.6,9.72 h -2 l -1.4,-5.22 c -0.12,-0.467 -0.24,-0.927 -0.34,-1.38 -0.1,-0.453 -0.2,-0.927 -0.32,-1.42 h -0.08 c -0.11,0.493 -0.22,0.973 -0.32,1.44 -0.11,0.453 -0.23,0.913 -0.36,1.38 l -1.36,5.2 z m 16.51,0.24 c -0.78,0 -1.52,-0.2 -2.22,-0.6 -0.68,-0.4 -1.23,-0.98 -1.66,-1.74 -0.41,-0.76 -0.62,-1.673 -0.62,-2.74 0,-1.093 0.21,-2.02 0.62,-2.78 0.43,-0.76 0.98,-1.34 1.66,-1.74 0.7,-0.4 1.44,-0.6 2.22,-0.6 0.8,0 1.54,0.2 2.22,0.6 0.68,0.4 1.23,0.98 1.64,1.74 0.43,0.76 0.64,1.687 0.64,2.78 0,1.067 -0.21,1.98 -0.64,2.74 -0.41,0.76 -0.96,1.34 -1.64,1.74 -0.68,0.4 -1.42,0.6 -2.22,0.6 z m 0,-1.36 c 0.84,0 1.52,-0.34 2.02,-1.02 0.52,-0.693 0.78,-1.593 0.78,-2.7 0,-1.12 -0.26,-2.027 -0.78,-2.72 -0.5,-0.693 -1.18,-1.04 -2.02,-1.04 -0.82,0 -1.5,0.347 -2.02,1.04 -0.52,0.693 -0.78,1.6 -0.78,2.72 0,1.107 0.26,2.007 0.78,2.7 0.52,0.68 1.2,1.02 2.02,1.02 z m 7.06,1.12 v -9.72 h 1.36 l 0.14,1.76 h 0.06 c 0.34,-0.613 0.74,-1.1 1.22,-1.46 0.48,-0.36 1,-0.54 1.54,-0.54 0.39,0 0.74,0.067 1.04,0.2 l -0.32,1.44 c -0.16,-0.053 -0.3,-0.093 -0.44,-0.12 -0.13,-0.027 -0.3,-0.04 -0.5,-0.04 -0.41,0 -0.84,0.167 -1.3,0.5 -0.44,0.333 -0.82,0.913 -1.16,1.74 v 6.24 z m 10.06,0.24 c -1.21,0 -2.19,-0.44 -2.92,-1.32 -0.73,-0.893 -1.1,-2.147 -1.1,-3.76 0,-1.053 0.19,-1.96 0.58,-2.72 0.4,-0.773 0.92,-1.367 1.56,-1.78 0.65,-0.413 1.35,-0.62 2.08,-0.62 0.56,0 1.05,0.1 1.46,0.3 0.41,0.2 0.83,0.473 1.26,0.82 l -0.08,-1.66 v -3.74 h 1.66 v 14.24 h -1.36 l -0.14,-1.14 h -0.06 c -0.37,0.373 -0.81,0.7 -1.32,0.98 -0.51,0.267 -1.05,0.4 -1.62,0.4 z m 0.36,-1.38 c 0.85,0 1.68,-0.447 2.48,-1.34 v -5.08 c -0.41,-0.373 -0.81,-0.633 -1.2,-0.78 -0.37,-0.16 -0.76,-0.24 -1.16,-0.24 -0.52,0 -0.99,0.16 -1.42,0.48 -0.41,0.307 -0.75,0.74 -1,1.3 -0.25,0.547 -0.38,1.193 -0.38,1.94 0,1.16 0.23,2.073 0.7,2.74 0.47,0.653 1.13,0.98 1.98,0.98 z m 9.96,1.38 c -0.7,0 -1.36,-0.127 -1.98,-0.38 -0.63,-0.267 -1.18,-0.587 -1.64,-0.96 l 0.82,-1.1 c 0.42,0.333 0.86,0.613 1.32,0.84 0.45,0.213 0.96,0.32 1.54,0.32 0.64,0 1.12,-0.147 1.44,-0.44 0.32,-0.307 0.48,-0.667 0.48,-1.08 0,-0.333 -0.12,-0.613 -0.34,-0.84 -0.22,-0.227 -0.5,-0.413 -0.84,-0.56 -0.34,-0.16 -0.68,-0.307 -1.04,-0.44 -0.46,-0.173 -0.9,-0.367 -1.34,-0.58 -0.44,-0.227 -0.8,-0.513 -1.08,-0.86 -0.28,-0.36 -0.42,-0.813 -0.42,-1.36 0,-0.787 0.29,-1.44 0.88,-1.96 0.6,-0.533 1.42,-0.8 2.48,-0.8 0.6,0 1.16,0.107 1.68,0.32 0.52,0.213 0.96,0.473 1.34,0.78 l -0.8,1.04 c -0.34,-0.253 -0.68,-0.46 -1.04,-0.62 -0.36,-0.16 -0.76,-0.24 -1.18,-0.24 -0.62,0 -1.07,0.14 -1.36,0.42 -0.28,0.28 -0.42,0.607 -0.42,0.98 0,0.307 0.1,0.56 0.3,0.76 0.2,0.187 0.46,0.353 0.78,0.5 0.32,0.133 0.66,0.273 1.02,0.42 0.46,0.173 0.92,0.373 1.38,0.6 0.45,0.213 0.82,0.507 1.12,0.88 0.3,0.36 0.46,0.847 0.46,1.46 0,0.52 -0.14,1 -0.42,1.44 -0.27,0.44 -0.67,0.793 -1.2,1.06 -0.52,0.267 -1.17,0.4 -1.94,0.4 z"
     fill="#000000"
     id="path84" />
  <path
     d="m 528.51004,534.14851 c -0.33,0 -0.62,-0.113 -0.86,-0.34 -0.23,-0.24 -0.34,-0.54 -0.34,-0.9 0,-0.387 0.11,-0.693 0.34,-0.92 0.24,-0.24 0.53,-0.36 0.86,-0.36 0.32,0 0.59,0.12 0.82,0.36 0.24,0.227 0.36,0.533 0.36,0.92 0,0.36 -0.12,0.66 -0.36,0.9 -0.23,0.227 -0.5,0.34 -0.82,0.34 z"
     fill="#000000"
     id="path86" />
  <path
     d="m 369.58,229.09711 c -0.787,0 -1.527,-0.2 -2.22,-0.6 -0.68,-0.4 -1.233,-0.98 -1.66,-1.74 -0.413,-0.76 -0.62,-1.673 -0.62,-2.74 0,-1.093 0.207,-2.02 0.62,-2.78 0.427,-0.76 0.98,-1.34 1.66,-1.74 0.693,-0.4 1.433,-0.6 2.22,-0.6 0.8,0 1.54,0.2 2.22,0.6 0.68,0.4 1.227,0.98 1.64,1.74 0.427,0.76 0.64,1.687 0.64,2.78 0,1.067 -0.213,1.98 -0.64,2.74 -0.413,0.76 -0.96,1.34 -1.64,1.74 -0.68,0.4 -1.42,0.6 -2.22,0.6 z m 0,-1.36 c 0.84,0 1.513,-0.34 2.02,-1.02 0.52,-0.693 0.78,-1.593 0.78,-2.7 0,-1.12 -0.26,-2.027 -0.78,-2.72 -0.507,-0.693 -1.18,-1.04 -2.02,-1.04 -0.827,0 -1.5,0.347 -2.02,1.04 -0.52,0.693 -0.78,1.6 -0.78,2.72 0,1.107 0.26,2.007 0.78,2.7 0.52,0.68 1.193,1.02 2.02,1.02 z m 7.34,1.12 v -8.38 h -1.32 v -1.24 l 1.32,-0.1 v -1.54 c 0,-0.987 0.227,-1.767 0.68,-2.34 0.467,-0.587 1.187,-0.88 2.16,-0.88 0.307,0 0.6,0.033 0.88,0.1 0.28,0.053 0.527,0.127 0.74,0.22 l -0.36,1.26 c -0.36,-0.16 -0.727,-0.24 -1.1,-0.24 -0.907,0 -1.36,0.627 -1.36,1.88 v 1.54 h 2.06 v 1.34 h -2.06 v 8.38 z"
     fill="#000000"
     id="path88" />
  <path
     d="m 512.968,228.85711 v -9.72 h 1.64 v 9.72 z m 0.84,-11.72 c -0.32,0 -0.587,-0.093 -0.8,-0.28 -0.2,-0.2 -0.3,-0.467 -0.3,-0.8 0,-0.32 0.1,-0.58 0.3,-0.78 0.213,-0.2 0.48,-0.3 0.8,-0.3 0.32,0 0.58,0.1 0.78,0.3 0.213,0.2 0.32,0.46 0.32,0.78 0,0.333 -0.107,0.6 -0.32,0.8 -0.2,0.187 -0.46,0.28 -0.78,0.28 z m 4.082,11.72 v -9.72 h 1.36 l 0.14,1.4 h 0.06 c 0.467,-0.467 0.96,-0.853 1.48,-1.16 0.52,-0.32 1.113,-0.48 1.78,-0.48 1.027,0 1.773,0.327 2.24,0.98 0.48,0.64 0.72,1.58 0.72,2.82 v 6.16 h -1.64 v -5.94 c 0,-0.907 -0.147,-1.567 -0.44,-1.98 -0.293,-0.413 -0.76,-0.62 -1.4,-0.62 -0.493,0 -0.94,0.127 -1.34,0.38 -0.387,0.253 -0.827,0.627 -1.32,1.12 v 7.04 z m 11.218,0 v -8.38 h -1.32 v -1.24 l 1.32,-0.1 v -1.54 c 0,-0.987 0.226,-1.767 0.68,-2.34 0.466,-0.587 1.186,-0.88 2.16,-0.88 0.306,0 0.6,0.033 0.88,0.1 0.28,0.053 0.526,0.127 0.74,0.22 l -0.36,1.26 c -0.36,-0.16 -0.727,-0.24 -1.1,-0.24 -0.907,0 -1.36,0.627 -1.36,1.88 v 1.54 h 2.06 v 1.34 h -2.06 v 8.38 z m 9.144,0.24 c -0.787,0 -1.527,-0.2 -2.22,-0.6 -0.68,-0.4 -1.233,-0.98 -1.66,-1.74 -0.413,-0.76 -0.62,-1.673 -0.62,-2.74 0,-1.093 0.207,-2.02 0.62,-2.78 0.427,-0.76 0.98,-1.34 1.66,-1.74 0.693,-0.4 1.433,-0.6 2.22,-0.6 0.8,0 1.54,0.2 2.22,0.6 0.68,0.4 1.227,0.98 1.64,1.74 0.427,0.76 0.64,1.687 0.64,2.78 0,1.067 -0.213,1.98 -0.64,2.74 -0.413,0.76 -0.96,1.34 -1.64,1.74 -0.68,0.4 -1.42,0.6 -2.22,0.6 z m 0,-1.36 c 0.84,0 1.513,-0.34 2.02,-1.02 0.52,-0.693 0.78,-1.593 0.78,-2.7 0,-1.12 -0.26,-2.027 -0.78,-2.72 -0.507,-0.693 -1.18,-1.04 -2.02,-1.04 -0.827,0 -1.5,0.347 -2.02,1.04 -0.52,0.693 -0.78,1.6 -0.78,2.72 0,1.107 0.26,2.007 0.78,2.7 0.52,0.68 1.193,1.02 2.02,1.02 z"
     fill="#000000"
     id="path90" />
  <path
     d="m 658.062,228.85711 0.5,-4.08 h -1.6 v -1.14 h 1.74 l 0.36,-2.96 h -1.7 v -1.16 h 1.84 l 0.46,-3.66 h 1.06 l -0.46,3.66 h 2.66 l 0.48,-3.66 h 1.06 l -0.48,3.66 h 1.62 v 1.16 h -1.74 l -0.36,2.96 h 1.7 v 1.14 h -1.84 l -0.5,4.08 h -1.06 l 0.48,-4.08 h -2.64 l -0.5,4.08 z m 1.72,-5.22 h 2.64 l 0.36,-2.96 h -2.64 z m 8.221,5.22 0.5,-4.08 h -1.6 v -1.14 h 1.74 l 0.36,-2.96 h -1.7 v -1.16 h 1.84 l 0.46,-3.66 h 1.06 l -0.46,3.66 h 2.66 l 0.48,-3.66 h 1.06 l -0.48,3.66 h 1.62 v 1.16 h -1.74 l -0.36,2.96 h 1.7 v 1.14 h -1.84 l -0.5,4.08 h -1.06 l 0.48,-4.08 h -2.64 l -0.5,4.08 z m 1.72,-5.22 h 2.64 l 0.36,-2.96 h -2.64 z m 8.062,5.22 v -9.72 h 1.36 l 0.14,1.76 h 0.06 c 0.333,-0.613 0.74,-1.1 1.22,-1.46 0.48,-0.36 0.993,-0.54 1.54,-0.54 0.386,0 0.733,0.067 1.04,0.2 l -0.32,1.44 c -0.16,-0.053 -0.307,-0.093 -0.44,-0.12 -0.134,-0.027 -0.3,-0.04 -0.5,-0.04 -0.414,0 -0.847,0.167 -1.3,0.5 -0.44,0.333 -0.827,0.913 -1.16,1.74 v 6.24 z m 6.933,0 v -9.72 h 1.36 l 0.14,1.4 h 0.06 c 0.427,-0.467 0.893,-0.853 1.4,-1.16 0.507,-0.32 1.047,-0.48 1.62,-0.48 0.747,0 1.327,0.167 1.74,0.5 0.427,0.32 0.74,0.773 0.94,1.36 0.507,-0.547 1.02,-0.993 1.54,-1.34 0.52,-0.347 1.073,-0.52 1.66,-0.52 1,0 1.74,0.327 2.22,0.98 0.493,0.64 0.74,1.58 0.74,2.82 v 6.16 h -1.64 v -5.94 c 0,-0.907 -0.147,-1.567 -0.44,-1.98 -0.293,-0.413 -0.747,-0.62 -1.36,-0.62 -0.72,0 -1.533,0.5 -2.44,1.5 v 7.04 h -1.64 v -5.94 c 0,-0.907 -0.147,-1.567 -0.44,-1.98 -0.293,-0.413 -0.753,-0.62 -1.38,-0.62 -0.72,0 -1.533,0.5 -2.44,1.5 v 7.04 z m 18.822,0.24 c -0.813,0 -1.493,-0.24 -2.04,-0.72 -0.533,-0.493 -0.8,-1.173 -0.8,-2.04 0,-1.067 0.473,-1.88 1.42,-2.44 0.96,-0.573 2.473,-0.973 4.54,-1.2 0,-0.413 -0.06,-0.807 -0.18,-1.18 -0.107,-0.373 -0.307,-0.673 -0.6,-0.9 -0.28,-0.24 -0.687,-0.36 -1.22,-0.36 -0.56,0 -1.087,0.107 -1.58,0.32 -0.493,0.213 -0.933,0.453 -1.32,0.72 l -0.64,-1.14 c 0.453,-0.293 1.007,-0.573 1.66,-0.84 0.667,-0.28 1.387,-0.42 2.16,-0.42 1.187,0 2.047,0.367 2.58,1.1 0.533,0.72 0.8,1.687 0.8,2.9 v 5.96 h -1.36 l -0.14,-1.16 h -0.06 c -0.453,0.373 -0.953,0.7 -1.5,0.98 -0.533,0.28 -1.107,0.42 -1.72,0.42 z m 0.48,-1.32 c 0.467,0 0.907,-0.113 1.32,-0.34 0.413,-0.227 0.853,-0.547 1.32,-0.96 v -2.7 c -1.613,0.2 -2.747,0.5 -3.4,0.9 -0.64,0.4 -0.96,0.913 -0.96,1.54 0,0.547 0.167,0.947 0.5,1.2 0.333,0.24 0.74,0.36 1.22,0.36 z"
     fill="#000000"
     id="path92" />
  <path
     d="m 35.129995,332.3774 0.5,-4.08 h -1.6 v -1.14 h 1.74 l 0.36,-2.96 h -1.7 v -1.16 h 1.84 l 0.46,-3.66 h 1.06 l -0.46,3.66 h 2.66 l 0.48,-3.66 h 1.06 l -0.48,3.66 h 1.62 v 1.16 h -1.74 l -0.36,2.96 h 1.7 v 1.14 h -1.84 l -0.5,4.08 h -1.06 l 0.48,-4.08 h -2.64 l -0.5,4.08 z m 1.72,-5.22 h 2.64 l 0.36,-2.96 h -2.64 z m 8.221,5.22 0.5,-4.08 h -1.6 v -1.14 h 1.74 l 0.36,-2.96 h -1.7 v -1.16 h 1.84 l 0.46,-3.66 h 1.06 l -0.46,3.66 h 2.66 l 0.48,-3.66 h 1.06 l -0.48,3.66 h 1.62 v 1.16 h -1.74 l -0.36,2.96 h 1.7 v 1.14 h -1.84 l -0.5,4.08 h -1.06 l 0.48,-4.08 h -2.64 l -0.5,4.08 z m 1.72,-5.22 h 2.64 l 0.36,-2.96 h -2.64 z m 11.122,5.46 c -1.04,0 -1.767,-0.3 -2.18,-0.9 -0.4,-0.6 -0.6,-1.38 -0.6,-2.34 v -5.38 h -1.44 v -1.24 l 1.52,-0.1 0.2,-2.72 h 1.38 v 2.72 h 2.62 v 1.34 h -2.62 v 5.4 c 0,0.6 0.107,1.067 0.32,1.4 0.227,0.32 0.62,0.48 1.18,0.48 0.173,0 0.36,-0.027 0.56,-0.08 0.2,-0.067 0.38,-0.127 0.54,-0.18 l 0.32,1.24 c -0.267,0.093 -0.56,0.173 -0.88,0.24 -0.307,0.08 -0.613,0.12 -0.92,0.12 z m 3.698,-0.24 v -9.72 h 1.64 v 9.72 z m 0.84,-11.72 c -0.32,0 -0.587,-0.093 -0.8,-0.28 -0.2,-0.2 -0.3,-0.467 -0.3,-0.8 0,-0.32 0.1,-0.58 0.3,-0.78 0.213,-0.2 0.48,-0.3 0.8,-0.3 0.32,0 0.58,0.1 0.78,0.3 0.213,0.2 0.32,0.46 0.32,0.78 0,0.333 -0.107,0.6 -0.32,0.8 -0.2,0.187 -0.46,0.28 -0.78,0.28 z m 7.862,11.96 c -0.787,0 -1.527,-0.2 -2.22,-0.6 -0.68,-0.4 -1.234,-0.98 -1.66,-1.74 -0.414,-0.76 -0.62,-1.673 -0.62,-2.74 0,-1.093 0.206,-2.02 0.62,-2.78 0.426,-0.76 0.98,-1.34 1.66,-1.74 0.693,-0.4 1.433,-0.6 2.22,-0.6 0.8,0 1.54,0.2 2.22,0.6 0.68,0.4 1.226,0.98 1.64,1.74 0.426,0.76 0.64,1.687 0.64,2.78 0,1.067 -0.214,1.98 -0.64,2.74 -0.414,0.76 -0.96,1.34 -1.64,1.74 -0.68,0.4 -1.42,0.6 -2.22,0.6 z m 0,-1.36 c 0.84,0 1.513,-0.34 2.02,-1.02 0.52,-0.693 0.78,-1.593 0.78,-2.7 0,-1.12 -0.26,-2.027 -0.78,-2.72 -0.507,-0.693 -1.18,-1.04 -2.02,-1.04 -0.827,0 -1.5,0.347 -2.02,1.04 -0.52,0.693 -0.78,1.6 -0.78,2.72 0,1.107 0.26,2.007 0.78,2.7 0.52,0.68 1.193,1.02 2.02,1.02 z m 7.059,1.12 v -9.72 h 1.36 l 0.14,1.4 h 0.06 c 0.467,-0.467 0.96,-0.853 1.48,-1.16 0.52,-0.32 1.114,-0.48 1.78,-0.48 1.027,0 1.774,0.327 2.24,0.98 0.48,0.64 0.72,1.58 0.72,2.82 v 6.16 h -1.64 v -5.94 c 0,-0.907 -0.146,-1.567 -0.44,-1.98 -0.293,-0.413 -0.76,-0.62 -1.4,-0.62 -0.493,0 -0.94,0.127 -1.34,0.38 -0.386,0.253 -0.826,0.627 -1.32,1.12 v 7.04 z"
     fill="#000000"
     id="path94" />
  <path
     d="m 216.51001,332.6174 c -0.33,0 -0.62,-0.113 -0.86,-0.34 -0.23,-0.24 -0.34,-0.54 -0.34,-0.9 0,-0.387 0.11,-0.693 0.34,-0.92 0.24,-0.24 0.53,-0.36 0.86,-0.36 0.32,0 0.59,0.12 0.82,0.36 0.24,0.227 0.36,0.533 0.36,0.92 0,0.36 -0.12,0.66 -0.36,0.9 -0.23,0.227 -0.5,0.34 -0.82,0.34 z"
     fill="#000000"
     id="path96" />
  <path
     d="m 353.93001,332.6174 c -0.92,0 -1.78,-0.173 -2.56,-0.52 -0.79,-0.36 -1.47,-0.833 -2.04,-1.42 l 1,-1.16 c 0.46,0.493 1.01,0.893 1.64,1.2 0.64,0.293 1.3,0.44 1.98,0.44 0.86,0 1.54,-0.193 2.02,-0.58 0.48,-0.4 0.72,-0.92 0.72,-1.56 0,-0.453 -0.1,-0.813 -0.3,-1.08 -0.19,-0.267 -0.45,-0.493 -0.78,-0.68 -0.32,-0.187 -0.69,-0.373 -1.1,-0.56 l -1.88,-0.82 c -0.42,-0.173 -0.83,-0.4 -1.24,-0.68 -0.4,-0.28 -0.74,-0.64 -1.02,-1.08 -0.27,-0.44 -0.4,-0.98 -0.4,-1.62 0,-0.667 0.17,-1.26 0.52,-1.78 0.36,-0.533 0.85,-0.947 1.48,-1.24 0.62,-0.307 1.33,-0.46 2.12,-0.46 0.78,0 1.51,0.153 2.18,0.46 0.66,0.293 1.23,0.68 1.7,1.16 l -0.9,1.08 c -0.4,-0.387 -0.85,-0.687 -1.34,-0.9 -0.48,-0.227 -1.03,-0.34 -1.64,-0.34 -0.74,0 -1.33,0.173 -1.78,0.52 -0.44,0.347 -0.66,0.813 -0.66,1.4 0,0.413 0.1,0.76 0.32,1.04 0.22,0.267 0.5,0.487 0.84,0.66 0.33,0.173 0.67,0.333 1.02,0.48 l 1.86,0.8 c 0.5,0.213 0.96,0.473 1.36,0.78 0.41,0.293 0.74,0.66 0.98,1.1 0.24,0.427 0.36,0.967 0.36,1.62 0,0.693 -0.18,1.327 -0.54,1.9 -0.36,0.56 -0.88,1.007 -1.54,1.34 -0.67,0.333 -1.46,0.5 -2.38,0.5 z m 10.66,0 c -0.79,0 -1.53,-0.2 -2.22,-0.6 -0.68,-0.4 -1.23,-0.98 -1.66,-1.74 -0.41,-0.76 -0.62,-1.673 -0.62,-2.74 0,-1.093 0.21,-2.02 0.62,-2.78 0.43,-0.76 0.98,-1.34 1.66,-1.74 0.69,-0.4 1.43,-0.6 2.22,-0.6 0.8,0 1.54,0.2 2.22,0.6 0.68,0.4 1.23,0.98 1.64,1.74 0.43,0.76 0.64,1.687 0.64,2.78 0,1.067 -0.21,1.98 -0.64,2.74 -0.41,0.76 -0.96,1.34 -1.64,1.74 -0.68,0.4 -1.42,0.6 -2.22,0.6 z m 0,-1.36 c 0.84,0 1.51,-0.34 2.02,-1.02 0.52,-0.693 0.78,-1.593 0.78,-2.7 0,-1.12 -0.26,-2.027 -0.78,-2.72 -0.51,-0.693 -1.18,-1.04 -2.02,-1.04 -0.83,0 -1.5,0.347 -2.02,1.04 -0.52,0.693 -0.78,1.6 -0.78,2.72 0,1.107 0.26,2.007 0.78,2.7 0.52,0.68 1.19,1.02 2.02,1.02 z m 7.06,1.12 v -9.72 h 1.36 l 0.14,1.4 h 0.06 c 0.43,-0.467 0.89,-0.853 1.4,-1.16 0.51,-0.32 1.05,-0.48 1.62,-0.48 0.75,0 1.33,0.167 1.74,0.5 0.43,0.32 0.74,0.773 0.94,1.36 0.51,-0.547 1.02,-0.993 1.54,-1.34 0.52,-0.347 1.07,-0.52 1.66,-0.52 1,0 1.74,0.327 2.22,0.98 0.49,0.64 0.74,1.58 0.74,2.82 v 6.16 h -1.64 v -5.94 c 0,-0.907 -0.15,-1.567 -0.44,-1.98 -0.29,-0.413 -0.75,-0.62 -1.36,-0.62 -0.72,0 -1.53,0.5 -2.44,1.5 v 7.04 h -1.64 v -5.94 c 0,-0.907 -0.15,-1.567 -0.44,-1.98 -0.29,-0.413 -0.75,-0.62 -1.38,-0.62 -0.72,0 -1.53,0.5 -2.44,1.5 v 7.04 z m 20.52,0.24 c -0.86,0 -1.65,-0.2 -2.36,-0.6 -0.7,-0.413 -1.26,-1 -1.68,-1.76 -0.41,-0.76 -0.62,-1.667 -0.62,-2.72 0,-1.067 0.21,-1.98 0.62,-2.74 0.43,-0.76 0.98,-1.347 1.64,-1.76 0.67,-0.413 1.37,-0.62 2.1,-0.62 1.24,0 2.2,0.413 2.86,1.24 0.68,0.827 1.02,1.933 1.02,3.32 0,0.173 0,0.347 -0.02,0.52 0,0.16 -0.01,0.3 -0.04,0.42 h -6.56 c 0.07,1.027 0.39,1.847 0.96,2.46 0.59,0.613 1.35,0.92 2.28,0.92 0.47,0 0.9,-0.067 1.28,-0.2 0.4,-0.147 0.78,-0.333 1.14,-0.56 l 0.58,1.08 c -0.41,0.267 -0.88,0.5 -1.42,0.7 -0.52,0.2 -1.11,0.3 -1.78,0.3 z m -3.06,-5.88 h 5.2 c 0,-0.987 -0.21,-1.733 -0.64,-2.24 -0.41,-0.52 -1,-0.78 -1.76,-0.78 -0.68,0 -1.29,0.267 -1.84,0.8 -0.53,0.52 -0.85,1.26 -0.96,2.22 z"
     fill="#000000"
     id="path98" />
  <path
     d="m 517.89001,332.6174 c -1.03,0 -1.78,-0.32 -2.26,-0.96 -0.48,-0.653 -0.72,-1.6 -0.72,-2.84 v -6.16 h 1.66 v 5.94 c 0,0.907 0.14,1.567 0.42,1.98 0.29,0.413 0.76,0.62 1.4,0.62 0.51,0 0.95,-0.127 1.34,-0.38 0.4,-0.267 0.83,-0.687 1.28,-1.26 v -6.9 h 1.64 v 9.72 h -1.36 l -0.14,-1.52 h -0.06 c -0.45,0.533 -0.93,0.96 -1.44,1.28 -0.51,0.32 -1.09,0.48 -1.76,0.48 z m 10.58,0 c -0.69,0 -1.35,-0.127 -1.98,-0.38 -0.63,-0.267 -1.17,-0.587 -1.64,-0.96 l 0.82,-1.1 c 0.43,0.333 0.87,0.613 1.32,0.84 0.45,0.213 0.97,0.32 1.54,0.32 0.64,0 1.12,-0.147 1.44,-0.44 0.32,-0.307 0.48,-0.667 0.48,-1.08 0,-0.333 -0.11,-0.613 -0.34,-0.84 -0.21,-0.227 -0.49,-0.413 -0.84,-0.56 -0.33,-0.16 -0.68,-0.307 -1.04,-0.44 -0.45,-0.173 -0.9,-0.367 -1.34,-0.58 -0.44,-0.227 -0.8,-0.513 -1.08,-0.86 -0.28,-0.36 -0.42,-0.813 -0.42,-1.36 0,-0.787 0.29,-1.44 0.88,-1.96 0.6,-0.533 1.43,-0.8 2.48,-0.8 0.6,0 1.16,0.107 1.68,0.32 0.52,0.213 0.97,0.473 1.34,0.78 l -0.8,1.04 c -0.33,-0.253 -0.68,-0.46 -1.04,-0.62 -0.36,-0.16 -0.75,-0.24 -1.18,-0.24 -0.61,0 -1.07,0.14 -1.36,0.42 -0.28,0.28 -0.42,0.607 -0.42,0.98 0,0.307 0.1,0.56 0.3,0.76 0.2,0.187 0.46,0.353 0.78,0.5 0.32,0.133 0.66,0.273 1.02,0.42 0.47,0.173 0.93,0.373 1.38,0.6 0.45,0.213 0.83,0.507 1.12,0.88 0.31,0.36 0.46,0.847 0.46,1.46 0,0.52 -0.14,1 -0.42,1.44 -0.27,0.44 -0.67,0.793 -1.2,1.06 -0.52,0.267 -1.17,0.4 -1.94,0.4 z m 9.78,0 c -0.87,0 -1.66,-0.2 -2.36,-0.6 -0.71,-0.413 -1.27,-1 -1.68,-1.76 -0.42,-0.76 -0.62,-1.667 -0.62,-2.72 0,-1.067 0.2,-1.98 0.62,-2.74 0.42,-0.76 0.97,-1.347 1.64,-1.76 0.66,-0.413 1.36,-0.62 2.1,-0.62 1.24,0 2.19,0.413 2.86,1.24 0.68,0.827 1.02,1.933 1.02,3.32 0,0.173 -0.01,0.347 -0.02,0.52 0,0.16 -0.02,0.3 -0.04,0.42 h -6.56 c 0.06,1.027 0.38,1.847 0.96,2.46 0.58,0.613 1.34,0.92 2.28,0.92 0.46,0 0.89,-0.067 1.28,-0.2 0.4,-0.147 0.78,-0.333 1.14,-0.56 l 0.58,1.08 c -0.42,0.267 -0.89,0.5 -1.42,0.7 -0.52,0.2 -1.12,0.3 -1.78,0.3 z m -3.06,-5.88 h 5.2 c 0,-0.987 -0.22,-1.733 -0.64,-2.24 -0.42,-0.52 -1,-0.78 -1.76,-0.78 -0.68,0 -1.3,0.267 -1.84,0.8 -0.54,0.52 -0.86,1.26 -0.96,2.22 z"
     fill="#000000"
     id="path100" />
  <path
     d="m 659.97001,332.3774 0.5,-4.08 h -1.6 v -1.14 h 1.74 l 0.36,-2.96 h -1.7 v -1.16 h 1.84 l 0.46,-3.66 h 1.06 l -0.46,3.66 h 2.66 l 0.48,-3.66 h 1.06 l -0.48,3.66 h 1.62 v 1.16 h -1.74 l -0.36,2.96 h 1.7 v 1.14 h -1.84 l -0.5,4.08 h -1.06 l 0.48,-4.08 h -2.64 l -0.5,4.08 z m 1.72,-5.22 h 2.64 l 0.36,-2.96 h -2.64 z m 8.22,5.22 0.5,-4.08 h -1.6 v -1.14 h 1.74 l 0.36,-2.96 h -1.7 v -1.16 h 1.84 l 0.46,-3.66 h 1.06 l -0.46,3.66 h 2.66 l 0.48,-3.66 h 1.06 l -0.48,3.66 h 1.62 v 1.16 h -1.74 l -0.36,2.96 h 1.7 v 1.14 h -1.84 l -0.5,4.08 h -1.06 l 0.48,-4.08 h -2.64 l -0.5,4.08 z m 1.72,-5.22 h 2.64 l 0.36,-2.96 h -2.64 z m 9.8,5.46 c -0.61,0 -1.06,-0.187 -1.34,-0.56 -0.26,-0.387 -0.4,-0.933 -0.4,-1.64 v -12.28 h 1.64 v 12.4 c 0,0.253 0.05,0.44 0.14,0.56 0.1,0.107 0.2,0.16 0.32,0.16 0.06,0 0.1,0 0.14,0 0.06,-0.013 0.13,-0.027 0.22,-0.04 l 0.22,1.24 c -0.1,0.053 -0.23,0.093 -0.38,0.12 -0.14,0.027 -0.33,0.04 -0.56,0.04 z m 7.3,0 c -0.87,0 -1.65,-0.2 -2.36,-0.6 -0.71,-0.413 -1.27,-1 -1.68,-1.76 -0.41,-0.76 -0.62,-1.667 -0.62,-2.72 0,-1.067 0.21,-1.98 0.62,-2.74 0.43,-0.76 0.97,-1.347 1.64,-1.76 0.67,-0.413 1.37,-0.62 2.1,-0.62 1.24,0 2.19,0.413 2.86,1.24 0.68,0.827 1.02,1.933 1.02,3.32 0,0.173 -0.01,0.347 -0.02,0.52 0,0.16 -0.01,0.3 -0.04,0.42 h -6.56 c 0.07,1.027 0.39,1.847 0.96,2.46 0.59,0.613 1.35,0.92 2.28,0.92 0.47,0 0.89,-0.067 1.28,-0.2 0.4,-0.147 0.78,-0.333 1.14,-0.56 l 0.58,1.08 c -0.41,0.267 -0.89,0.5 -1.42,0.7 -0.52,0.2 -1.11,0.3 -1.78,0.3 z m -3.06,-5.88 h 5.2 c 0,-0.987 -0.21,-1.733 -0.64,-2.24 -0.41,-0.52 -1,-0.78 -1.76,-0.78 -0.68,0 -1.29,0.267 -1.84,0.8 -0.53,0.52 -0.85,1.26 -0.96,2.22 z m 11.58,5.88 c -0.69,0 -1.35,-0.127 -1.98,-0.38 -0.62,-0.267 -1.17,-0.587 -1.64,-0.96 l 0.82,-1.1 c 0.43,0.333 0.87,0.613 1.32,0.84 0.46,0.213 0.97,0.32 1.54,0.32 0.64,0 1.12,-0.147 1.44,-0.44 0.32,-0.307 0.48,-0.667 0.48,-1.08 0,-0.333 -0.11,-0.613 -0.34,-0.84 -0.21,-0.227 -0.49,-0.413 -0.84,-0.56 -0.33,-0.16 -0.68,-0.307 -1.04,-0.44 -0.45,-0.173 -0.9,-0.367 -1.34,-0.58 -0.44,-0.227 -0.8,-0.513 -1.08,-0.86 -0.28,-0.36 -0.42,-0.813 -0.42,-1.36 0,-0.787 0.3,-1.44 0.88,-1.96 0.6,-0.533 1.43,-0.8 2.48,-0.8 0.6,0 1.16,0.107 1.68,0.32 0.52,0.213 0.97,0.473 1.34,0.78 l -0.8,1.04 c -0.33,-0.253 -0.68,-0.46 -1.04,-0.62 -0.36,-0.16 -0.75,-0.24 -1.18,-0.24 -0.61,0 -1.06,0.14 -1.36,0.42 -0.28,0.28 -0.42,0.607 -0.42,0.98 0,0.307 0.1,0.56 0.3,0.76 0.2,0.187 0.46,0.353 0.78,0.5 0.32,0.133 0.66,0.273 1.02,0.42 0.47,0.173 0.93,0.373 1.38,0.6 0.46,0.213 0.83,0.507 1.12,0.88 0.31,0.36 0.46,0.847 0.46,1.46 0,0.52 -0.14,1 -0.42,1.44 -0.26,0.44 -0.66,0.793 -1.2,1.06 -0.52,0.267 -1.16,0.4 -1.94,0.4 z m 8.38,0 c -0.69,0 -1.35,-0.127 -1.98,-0.38 -0.63,-0.267 -1.17,-0.587 -1.64,-0.96 l 0.82,-1.1 c 0.43,0.333 0.87,0.613 1.32,0.84 0.45,0.213 0.97,0.32 1.54,0.32 0.64,0 1.12,-0.147 1.44,-0.44 0.32,-0.307 0.48,-0.667 0.48,-1.08 0,-0.333 -0.11,-0.613 -0.34,-0.84 -0.21,-0.227 -0.49,-0.413 -0.84,-0.56 -0.33,-0.16 -0.68,-0.307 -1.04,-0.44 -0.45,-0.173 -0.9,-0.367 -1.34,-0.58 -0.44,-0.227 -0.8,-0.513 -1.08,-0.86 -0.28,-0.36 -0.42,-0.813 -0.42,-1.36 0,-0.787 0.29,-1.44 0.88,-1.96 0.6,-0.533 1.43,-0.8 2.48,-0.8 0.6,0 1.16,0.107 1.68,0.32 0.52,0.213 0.97,0.473 1.34,0.78 l -0.8,1.04 c -0.33,-0.253 -0.68,-0.46 -1.04,-0.62 -0.36,-0.16 -0.75,-0.24 -1.18,-0.24 -0.61,0 -1.07,0.14 -1.36,0.42 -0.28,0.28 -0.42,0.607 -0.42,0.98 0,0.307 0.1,0.56 0.3,0.76 0.2,0.187 0.46,0.353 0.78,0.5 0.32,0.133 0.66,0.273 1.02,0.42 0.47,0.173 0.93,0.373 1.38,0.6 0.45,0.213 0.83,0.507 1.12,0.88 0.31,0.36 0.46,0.847 0.46,1.46 0,0.52 -0.14,1 -0.42,1.44 -0.27,0.44 -0.67,0.793 -1.2,1.06 -0.52,0.267 -1.17,0.4 -1.94,0.4 z"
     fill="#000000"
     id="path102" />
  <path
     d="m 664.05004,536.94851 v -17.2 h 3.58 v 0.94 h -2.34 v 15.32 h 2.34 v 0.94 z m 9.61,-2.8 c -0.92,0 -1.77,-0.173 -2.56,-0.52 -0.79,-0.36 -1.47,-0.833 -2.04,-1.42 l 1,-1.16 c 0.47,0.493 1.01,0.893 1.64,1.2 0.64,0.293 1.3,0.44 1.98,0.44 0.87,0 1.54,-0.193 2.02,-0.58 0.48,-0.4 0.72,-0.92 0.72,-1.56 0,-0.453 -0.1,-0.813 -0.3,-1.08 -0.19,-0.267 -0.45,-0.493 -0.78,-0.68 -0.32,-0.187 -0.69,-0.373 -1.1,-0.56 l -1.88,-0.82 c -0.41,-0.173 -0.83,-0.4 -1.24,-0.68 -0.4,-0.28 -0.74,-0.64 -1.02,-1.08 -0.27,-0.44 -0.4,-0.98 -0.4,-1.62 0,-0.667 0.17,-1.26 0.52,-1.78 0.36,-0.533 0.85,-0.947 1.48,-1.24 0.63,-0.307 1.33,-0.46 2.12,-0.46 0.79,0 1.51,0.153 2.18,0.46 0.67,0.293 1.23,0.68 1.7,1.16 l -0.9,1.08 c -0.4,-0.387 -0.85,-0.687 -1.34,-0.9 -0.48,-0.227 -1.03,-0.34 -1.64,-0.34 -0.73,0 -1.33,0.173 -1.78,0.52 -0.44,0.347 -0.66,0.813 -0.66,1.4 0,0.413 0.11,0.76 0.32,1.04 0.23,0.267 0.51,0.487 0.84,0.66 0.33,0.173 0.67,0.333 1.02,0.48 l 1.86,0.8 c 0.51,0.213 0.96,0.473 1.36,0.78 0.41,0.293 0.74,0.66 0.98,1.1 0.24,0.427 0.36,0.967 0.36,1.62 0,0.693 -0.18,1.327 -0.54,1.9 -0.36,0.56 -0.87,1.007 -1.54,1.34 -0.67,0.333 -1.46,0.5 -2.38,0.5 z m 7.04,-0.24 v -13.12 h 7.56 v 1.4 h -5.9 v 4.12 h 4.98 v 1.42 h -4.98 v 4.76 h 6.1 v 1.42 z m 10.55,0 v -13.12 h 3.74 c 0.99,0 1.85,0.12 2.58,0.36 0.73,0.24 1.31,0.647 1.72,1.22 0.41,0.56 0.62,1.32 0.62,2.28 0,1.373 -0.45,2.393 -1.34,3.06 -0.89,0.667 -2.06,1 -3.5,1 h -2.16 v 5.2 z m 1.66,-6.56 h 1.96 c 1.15,0 1.99,-0.213 2.54,-0.64 0.56,-0.44 0.84,-1.127 0.84,-2.06 0,-0.947 -0.29,-1.6 -0.88,-1.96 -0.57,-0.373 -1.43,-0.56 -2.58,-0.56 h -1.88 z m 8.49,9.6 v -0.94 h 2.32 v -15.32 h -2.32 v -0.94 h 3.56 v 17.2 z"
     fill="#000000"
     id="path104" />
  <path
     d="m 203.569,36.000028 v -11.72 h -3.96 v -1.4 h 9.6 v 1.4 h -3.96 v 11.72 z m 7.842,0 v -14.24 h 1.64 v 3.88 l -0.06,2 c 0.467,-0.44 0.954,-0.8133 1.46,-1.12 0.52,-0.32 1.114,-0.48 1.78,-0.48 1.027,0 1.774,0.3267 2.24,0.98 0.48,0.64 0.72,1.58 0.72,2.82 v 6.16 h -1.64 v -5.94 c 0,-0.9067 -0.146,-1.5667 -0.44,-1.98 -0.293,-0.4133 -0.76,-0.62 -1.4,-0.62 -0.493,0 -0.94,0.1267 -1.34,0.38 -0.386,0.2533 -0.826,0.6267 -1.32,1.12 v 7.04 z m 10.879,0 v -9.72 h 1.64 v 9.72 z m 0.84,-11.72 c -0.32,0 -0.586,-0.0933 -0.8,-0.28 -0.2,-0.2 -0.3,-0.4667 -0.3,-0.8 0,-0.32 0.1,-0.58 0.3,-0.78 0.214,-0.2 0.48,-0.3 0.8,-0.3 0.32,0 0.58,0.1 0.78,0.3 0.214,0.2 0.32,0.46 0.32,0.78 0,0.3333 -0.106,0.6 -0.32,0.8 -0.2,0.1867 -0.46,0.28 -0.78,0.28 z m 6.622,11.96 c -0.693,0 -1.353,-0.1267 -1.98,-0.38 -0.626,-0.2667 -1.173,-0.5867 -1.64,-0.96 l 0.82,-1.1 c 0.427,0.3333 0.867,0.6133 1.32,0.84 0.454,0.2133 0.967,0.32 1.54,0.32 0.64,0 1.12,-0.1467 1.44,-0.44 0.32,-0.3067 0.48,-0.6667 0.48,-1.08 0,-0.3333 -0.113,-0.6133 -0.34,-0.84 -0.213,-0.2267 -0.493,-0.4133 -0.84,-0.56 -0.333,-0.16 -0.68,-0.3067 -1.04,-0.44 -0.453,-0.1733 -0.9,-0.3667 -1.34,-0.58 -0.44,-0.2267 -0.8,-0.5133 -1.08,-0.86 -0.28,-0.36 -0.42,-0.8133 -0.42,-1.36 0,-0.7867 0.294,-1.44 0.88,-1.96 0.6,-0.5333 1.427,-0.8 2.48,-0.8 0.6,0 1.16,0.1067 1.68,0.32 0.52,0.2133 0.967,0.4733 1.34,0.78 l -0.8,1.04 c -0.333,-0.2533 -0.68,-0.46 -1.04,-0.62 -0.36,-0.16 -0.753,-0.24 -1.18,-0.24 -0.613,0 -1.066,0.14 -1.36,0.42 -0.28,0.28 -0.42,0.6067 -0.42,0.98 0,0.3067 0.1,0.56 0.3,0.76 0.2,0.1867 0.46,0.3533 0.78,0.5 0.32,0.1333 0.66,0.2733 1.02,0.42 0.467,0.1733 0.927,0.3733 1.38,0.6 0.454,0.2133 0.827,0.5067 1.12,0.88 0.307,0.36 0.46,0.8467 0.46,1.46 0,0.52 -0.14,1 -0.42,1.44 -0.266,0.44 -0.666,0.7933 -1.2,1.06 -0.52,0.2667 -1.166,0.4 -1.94,0.4 z"
     fill="#000000"
     id="path106" />
  <path
     d="m 367.99,36.000028 v -9.72 h 1.64 v 9.72 z m 0.84,-11.72 c -0.32,0 -0.587,-0.0933 -0.8,-0.28 -0.2,-0.2 -0.3,-0.4667 -0.3,-0.8 0,-0.32 0.1,-0.58 0.3,-0.78 0.213,-0.2 0.48,-0.3 0.8,-0.3 0.32,0 0.58,0.1 0.78,0.3 0.213,0.2 0.32,0.46 0.32,0.78 0,0.3333 -0.107,0.6 -0.32,0.8 -0.2,0.1867 -0.46,0.28 -0.78,0.28 z m 6.621,11.96 c -0.693,0 -1.353,-0.1267 -1.98,-0.38 -0.626,-0.2667 -1.173,-0.5867 -1.64,-0.96 l 0.82,-1.1 c 0.427,0.3333 0.867,0.6133 1.32,0.84 0.454,0.2133 0.967,0.32 1.54,0.32 0.64,0 1.12,-0.1467 1.44,-0.44 0.32,-0.3067 0.48,-0.6667 0.48,-1.08 0,-0.3333 -0.113,-0.6133 -0.34,-0.84 -0.213,-0.2267 -0.493,-0.4133 -0.84,-0.56 -0.333,-0.16 -0.68,-0.3067 -1.04,-0.44 -0.453,-0.1733 -0.9,-0.3667 -1.34,-0.58 -0.44,-0.2267 -0.8,-0.5133 -1.08,-0.86 -0.28,-0.36 -0.42,-0.8133 -0.42,-1.36 0,-0.7867 0.294,-1.44 0.88,-1.96 0.6,-0.5333 1.427,-0.8 2.48,-0.8 0.6,0 1.16,0.1067 1.68,0.32 0.52,0.2133 0.967,0.4733 1.34,0.78 l -0.8,1.04 c -0.333,-0.2533 -0.68,-0.46 -1.04,-0.62 -0.36,-0.16 -0.753,-0.24 -1.18,-0.24 -0.613,0 -1.066,0.14 -1.36,0.42 -0.28,0.28 -0.42,0.6067 -0.42,0.98 0,0.3067 0.1,0.56 0.3,0.76 0.2,0.1867 0.46,0.3533 0.78,0.5 0.32,0.1333 0.66,0.2733 1.02,0.42 0.467,0.1733 0.927,0.3733 1.38,0.6 0.454,0.2133 0.827,0.5067 1.12,0.88 0.307,0.36 0.46,0.8467 0.46,1.46 0,0.52 -0.14,1 -0.42,1.44 -0.266,0.44 -0.666,0.7933 -1.2,1.06 -0.52,0.2667 -1.166,0.4 -1.94,0.4 z"
     fill="#000000"
     id="path108" />
  <path
     d="m 517.921,36.240028 c -1.04,0 -1.767,-0.3 -2.18,-0.9 -0.4,-0.6 -0.6,-1.38 -0.6,-2.34 v -5.38 h -1.44 v -1.24 l 1.52,-0.1 0.2,-2.72 h 1.38 v 2.72 h 2.62 v 1.34 h -2.62 v 5.4 c 0,0.6 0.106,1.0667 0.32,1.4 0.226,0.32 0.62,0.48 1.18,0.48 0.173,0 0.36,-0.0267 0.56,-0.08 0.2,-0.0667 0.38,-0.1267 0.54,-0.18 l 0.32,1.24 c -0.267,0.0933 -0.56,0.1733 -0.88,0.24 -0.307,0.08 -0.614,0.12 -0.92,0.12 z m 3.698,-0.24 v -14.24 h 1.64 v 3.88 l -0.06,2 c 0.466,-0.44 0.953,-0.8133 1.46,-1.12 0.52,-0.32 1.113,-0.48 1.78,-0.48 1.026,0 1.773,0.3267 2.24,0.98 0.48,0.64 0.72,1.58 0.72,2.82 v 6.16 h -1.64 v -5.94 c 0,-0.9067 -0.147,-1.5667 -0.44,-1.98 -0.294,-0.4133 -0.76,-0.62 -1.4,-0.62 -0.494,0 -0.94,0.1267 -1.34,0.38 -0.387,0.2533 -0.827,0.6267 -1.32,1.12 v 7.04 z m 14.818,0.24 c -0.866,0 -1.653,-0.2 -2.36,-0.6 -0.706,-0.4133 -1.266,-1 -1.68,-1.76 -0.413,-0.76 -0.62,-1.6667 -0.62,-2.72 0,-1.0667 0.207,-1.98 0.62,-2.74 0.427,-0.76 0.974,-1.3467 1.64,-1.76 0.667,-0.4133 1.367,-0.62 2.1,-0.62 1.24,0 2.194,0.4133 2.86,1.24 0.68,0.8267 1.02,1.9333 1.02,3.32 0,0.1733 -0.006,0.3467 -0.02,0.52 0,0.16 -0.013,0.3 -0.04,0.42 h -6.56 c 0.067,1.0267 0.387,1.8467 0.96,2.46 0.587,0.6133 1.347,0.92 2.28,0.92 0.467,0 0.894,-0.0667 1.28,-0.2 0.4,-0.1467 0.78,-0.3333 1.14,-0.56 l 0.58,1.08 c -0.413,0.2667 -0.886,0.5 -1.42,0.7 -0.52,0.2 -1.113,0.3 -1.78,0.3 z m -3.06,-5.88 h 5.2 c 0,-0.9867 -0.213,-1.7333 -0.64,-2.24 -0.413,-0.52 -1,-0.78 -1.76,-0.78 -0.68,0 -1.293,0.2667 -1.84,0.8 -0.533,0.52 -0.853,1.26 -0.96,2.22 z"
     fill="#000000"
     id="path110" />
  <path
     d="m 654.13,40.100028 v -3.46 l 0.08,-1.76 c -0.387,0.3733 -0.833,0.6933 -1.34,0.96 -0.493,0.2667 -1.02,0.4 -1.58,0.4 -1.213,0 -2.187,-0.44 -2.92,-1.32 -0.733,-0.8933 -1.1,-2.1467 -1.1,-3.76 0,-1.0533 0.193,-1.96 0.58,-2.72 0.4,-0.7733 0.92,-1.3667 1.56,-1.78 0.653,-0.4133 1.347,-0.62 2.08,-0.62 0.56,0 1.053,0.1 1.48,0.3 0.427,0.1867 0.86,0.4733 1.3,0.86 h 0.04 l 0.16,-0.92 h 1.32 v 13.82 z m -2.48,-5.24 c 0.853,0 1.68,-0.4467 2.48,-1.34 v -5.08 c -0.413,-0.3733 -0.813,-0.6333 -1.2,-0.78 -0.373,-0.16 -0.76,-0.24 -1.16,-0.24 -0.52,0 -0.993,0.16 -1.42,0.48 -0.413,0.3067 -0.747,0.74 -1,1.3 -0.253,0.5467 -0.38,1.1933 -0.38,1.94 0,1.16 0.233,2.0733 0.7,2.74 0.467,0.6533 1.127,0.98 1.98,0.98 z m 10.254,1.38 c -1.027,0 -1.78,-0.32 -2.26,-0.96 -0.48,-0.6533 -0.72,-1.6 -0.72,-2.84 v -6.16 h 1.66 v 5.94 c 0,0.9067 0.14,1.5667 0.42,1.98 0.293,0.4133 0.76,0.62 1.4,0.62 0.506,0 0.953,-0.1267 1.34,-0.38 0.4,-0.2667 0.826,-0.6867 1.28,-1.26 v -6.9 h 1.64 v 9.72 h -1.36 l -0.14,-1.52 h -0.06 c -0.454,0.5333 -0.934,0.96 -1.44,1.28 -0.507,0.32 -1.094,0.48 -1.76,0.48 z m 11.979,0 c -0.867,0 -1.654,-0.2 -2.36,-0.6 -0.707,-0.4133 -1.267,-1 -1.68,-1.76 -0.414,-0.76 -0.62,-1.6667 -0.62,-2.72 0,-1.0667 0.206,-1.98 0.62,-2.74 0.426,-0.76 0.973,-1.3467 1.64,-1.76 0.666,-0.4133 1.366,-0.62 2.1,-0.62 1.24,0 2.193,0.4133 2.86,1.24 0.68,0.8267 1.02,1.9333 1.02,3.32 0,0.1733 -0.007,0.3467 -0.02,0.52 0,0.16 -0.014,0.3 -0.04,0.42 h -6.56 c 0.066,1.0267 0.386,1.8467 0.96,2.46 0.586,0.6133 1.346,0.92 2.28,0.92 0.466,0 0.893,-0.0667 1.28,-0.2 0.4,-0.1467 0.78,-0.3333 1.14,-0.56 l 0.58,1.08 c -0.414,0.2667 -0.887,0.5 -1.42,0.7 -0.52,0.2 -1.114,0.3 -1.78,0.3 z m -3.06,-5.88 h 5.2 c 0,-0.9867 -0.214,-1.7333 -0.64,-2.24 -0.414,-0.52 -1,-0.78 -1.76,-0.78 -0.68,0 -1.294,0.2667 -1.84,0.8 -0.534,0.52 -0.854,1.26 -0.96,2.22 z m 11.582,5.88 c -0.694,0 -1.354,-0.1267 -1.98,-0.38 -0.627,-0.2667 -1.174,-0.5867 -1.64,-0.96 l 0.82,-1.1 c 0.426,0.3333 0.866,0.6133 1.32,0.84 0.453,0.2133 0.966,0.32 1.54,0.32 0.64,0 1.12,-0.1467 1.44,-0.44 0.32,-0.3067 0.48,-0.6667 0.48,-1.08 0,-0.3333 -0.114,-0.6133 -0.34,-0.84 -0.214,-0.2267 -0.494,-0.4133 -0.84,-0.56 -0.334,-0.16 -0.68,-0.3067 -1.04,-0.44 -0.454,-0.1733 -0.9,-0.3667 -1.34,-0.58 -0.44,-0.2267 -0.8,-0.5133 -1.08,-0.86 -0.28,-0.36 -0.42,-0.8133 -0.42,-1.36 0,-0.7867 0.293,-1.44 0.88,-1.96 0.6,-0.5333 1.426,-0.8 2.48,-0.8 0.6,0 1.16,0.1067 1.68,0.32 0.52,0.2133 0.966,0.4733 1.34,0.78 l -0.8,1.04 c -0.334,-0.2533 -0.68,-0.46 -1.04,-0.62 -0.36,-0.16 -0.754,-0.24 -1.18,-0.24 -0.614,0 -1.067,0.14 -1.36,0.42 -0.28,0.28 -0.42,0.6067 -0.42,0.98 0,0.3067 0.1,0.56 0.3,0.76 0.2,0.1867 0.46,0.3533 0.78,0.5 0.32,0.1333 0.66,0.2733 1.02,0.42 0.466,0.1733 0.926,0.3733 1.38,0.6 0.453,0.2133 0.826,0.5067 1.12,0.88 0.306,0.36 0.46,0.8467 0.46,1.46 0,0.52 -0.14,1 -0.42,1.44 -0.267,0.44 -0.667,0.7933 -1.2,1.06 -0.52,0.2667 -1.167,0.4 -1.94,0.4 z m 8.508,0 c -1.04,0 -1.767,-0.3 -2.18,-0.9 -0.4,-0.6 -0.6,-1.38 -0.6,-2.34 v -5.38 h -1.44 v -1.24 l 1.52,-0.1 0.2,-2.72 h 1.38 v 2.72 h 2.62 v 1.34 h -2.62 v 5.4 c 0,0.6 0.107,1.0667 0.32,1.4 0.227,0.32 0.62,0.48 1.18,0.48 0.173,0 0.36,-0.0267 0.56,-0.08 0.2,-0.0667 0.38,-0.1267 0.54,-0.18 l 0.32,1.24 c -0.267,0.0933 -0.56,0.1733 -0.88,0.24 -0.307,0.08 -0.613,0.12 -0.92,0.12 z m 3.698,-0.24 v -9.72 h 1.64 v 9.72 z m 0.84,-11.72 c -0.32,0 -0.587,-0.0933 -0.8,-0.28 -0.2,-0.2 -0.3,-0.4667 -0.3,-0.8 0,-0.32 0.1,-0.58 0.3,-0.78 0.213,-0.2 0.48,-0.3 0.8,-0.3 0.32,0 0.58,0.1 0.78,0.3 0.213,0.2 0.32,0.46 0.32,0.78 0,0.3333 -0.107,0.6 -0.32,0.8 -0.2,0.1867 -0.46,0.28 -0.78,0.28 z m 7.862,11.96 c -0.787,0 -1.527,-0.2 -2.22,-0.6 -0.68,-0.4 -1.234,-0.98 -1.66,-1.74 -0.414,-0.76 -0.62,-1.6733 -0.62,-2.74 0,-1.0933 0.206,-2.02 0.62,-2.78 0.426,-0.76 0.98,-1.34 1.66,-1.74 0.693,-0.4 1.433,-0.6 2.22,-0.6 0.8,0 1.54,0.2 2.22,0.6 0.68,0.4 1.226,0.98 1.64,1.74 0.426,0.76 0.64,1.6867 0.64,2.78 0,1.0667 -0.214,1.98 -0.64,2.74 -0.414,0.76 -0.96,1.34 -1.64,1.74 -0.68,0.4 -1.42,0.6 -2.22,0.6 z m 0,-1.36 c 0.84,0 1.513,-0.34 2.02,-1.02 0.52,-0.6933 0.78,-1.5933 0.78,-2.7 0,-1.12 -0.26,-2.0267 -0.78,-2.72 -0.507,-0.6933 -1.18,-1.04 -2.02,-1.04 -0.827,0 -1.5,0.3467 -2.02,1.04 -0.52,0.6933 -0.78,1.6 -0.78,2.72 0,1.1067 0.26,2.0067 0.78,2.7 0.52,0.68 1.193,1.02 2.02,1.02 z m 7.059,1.12 v -9.72 h 1.36 l 0.14,1.4 h 0.06 c 0.467,-0.4667 0.96,-0.8533 1.48,-1.16 0.52,-0.32 1.114,-0.48 1.78,-0.48 1.027,0 1.774,0.3267 2.24,0.98 0.48,0.64 0.72,1.58 0.72,2.82 v 6.16 h -1.64 v -5.94 c 0,-0.9067 -0.146,-1.5667 -0.44,-1.98 -0.293,-0.4133 -0.76,-0.62 -1.4,-0.62 -0.493,0 -0.94,0.1267 -1.34,0.38 -0.386,0.2533 -0.826,0.6267 -1.32,1.12 v 7.04 z"
     fill="#000000"
     id="path112" />
  <path
     d="m 40.046003,134.27869 v -17.2 h 3.58 v 0.94 h -2.34 v 15.32 h 2.34 v 0.94 z m 9.615,-2.8 c -0.92,0 -1.774,-0.1733 -2.56,-0.52 -0.787,-0.36 -1.467,-0.8333 -2.04,-1.42 l 1,-1.16 c 0.466,0.4933 1.013,0.8933 1.64,1.2 0.64,0.2933 1.3,0.44 1.98,0.44 0.866,0 1.54,-0.1933 2.02,-0.58 0.48,-0.4 0.72,-0.92 0.72,-1.56 0,-0.4533 -0.1,-0.8133 -0.3,-1.08 -0.187,-0.2667 -0.447,-0.4933 -0.78,-0.68 -0.32,-0.1867 -0.687,-0.3733 -1.1,-0.56 l -1.88,-0.82 c -0.414,-0.1733 -0.827,-0.4 -1.24,-0.68 -0.4,-0.28 -0.74,-0.64 -1.02,-1.08 -0.267,-0.44 -0.4,-0.98 -0.4,-1.62 0,-0.6667 0.173,-1.26 0.52,-1.78 0.36,-0.5333 0.853,-0.9467 1.48,-1.24 0.626,-0.3067 1.333,-0.46 2.12,-0.46 0.786,0 1.513,0.1533 2.18,0.46 0.666,0.2933 1.233,0.68 1.7,1.16 l -0.9,1.08 c -0.4,-0.3867 -0.847,-0.6867 -1.34,-0.9 -0.48,-0.2267 -1.027,-0.34 -1.64,-0.34 -0.734,0 -1.327,0.1733 -1.78,0.52 -0.44,0.3467 -0.66,0.8133 -0.66,1.4 0,0.4133 0.106,0.76 0.32,1.04 0.226,0.2667 0.506,0.4867 0.84,0.66 0.333,0.1733 0.673,0.3333 1.02,0.48 l 1.86,0.8 c 0.506,0.2133 0.96,0.4733 1.36,0.78 0.413,0.2933 0.74,0.66 0.98,1.1 0.24,0.4267 0.36,0.9667 0.36,1.62 0,0.6933 -0.18,1.3267 -0.54,1.9 -0.36,0.56 -0.874,1.0067 -1.54,1.34 -0.667,0.3333 -1.46,0.5 -2.38,0.5 z m 7.043,-0.24 v -13.12 h 7.56 v 1.4 h -5.9 v 4.12 h 4.98 v 1.42 h -4.98 v 4.76 h 6.1 v 1.42 z m 10.547,0 v -13.12 h 3.74 c 0.987,0 1.847,0.12 2.58,0.36 0.734,0.24 1.307,0.6467 1.72,1.22 0.414,0.56 0.62,1.32 0.62,2.28 0,1.3733 -0.446,2.3933 -1.34,3.06 -0.893,0.6667 -2.06,1 -3.5,1 h -2.16 v 5.2 z m 1.66,-6.56 h 1.96 c 1.147,0 1.994,-0.2133 2.54,-0.64 0.56,-0.44 0.84,-1.1267 0.84,-2.06 0,-0.9467 -0.293,-1.6 -0.88,-1.96 -0.573,-0.3733 -1.433,-0.56 -2.58,-0.56 h -1.88 z m 8.488,9.6 v -0.94 h 2.32 v -15.32 h -2.32 v -0.94 h 3.56 v 17.2 z"
     fill="#000000"
     id="path114" />
  <path
     d="m 203.57,131.23869 v -11.72 h -3.96 v -1.4 h 9.6 v 1.4 h -3.96 v 11.72 z m 7.84,0 v -14.24 h 1.64 v 3.88 l -0.06,2 c 0.47,-0.44 0.95,-0.8133 1.46,-1.12 0.52,-0.32 1.11,-0.48 1.78,-0.48 1.03,0 1.77,0.3267 2.24,0.98 0.48,0.64 0.72,1.58 0.72,2.82 v 6.16 h -1.64 v -5.94 c 0,-0.9067 -0.15,-1.5667 -0.44,-1.98 -0.29,-0.4133 -0.76,-0.62 -1.4,-0.62 -0.49,0 -0.94,0.1267 -1.34,0.38 -0.39,0.2533 -0.83,0.6267 -1.32,1.12 v 7.04 z m 10.88,0 v -9.72 h 1.64 v 9.72 z m 0.84,-11.72 c -0.32,0 -0.59,-0.0933 -0.8,-0.28 -0.2,-0.2 -0.3,-0.4667 -0.3,-0.8 0,-0.32 0.1,-0.58 0.3,-0.78 0.21,-0.2 0.48,-0.3 0.8,-0.3 0.32,0 0.58,0.1 0.78,0.3 0.21,0.2 0.32,0.46 0.32,0.78 0,0.3333 -0.11,0.6 -0.32,0.8 -0.2,0.1867 -0.46,0.28 -0.78,0.28 z m 6.62,11.96 c -0.69,0 -1.35,-0.1267 -1.98,-0.38 -0.62,-0.2667 -1.17,-0.5867 -1.64,-0.96 l 0.82,-1.1 c 0.43,0.3333 0.87,0.6133 1.32,0.84 0.46,0.2133 0.97,0.32 1.54,0.32 0.64,0 1.12,-0.1467 1.44,-0.44 0.32,-0.3067 0.48,-0.6667 0.48,-1.08 0,-0.3333 -0.11,-0.6133 -0.34,-0.84 -0.21,-0.2267 -0.49,-0.4133 -0.84,-0.56 -0.33,-0.16 -0.68,-0.3067 -1.04,-0.44 -0.45,-0.1733 -0.9,-0.3667 -1.34,-0.58 -0.44,-0.2267 -0.8,-0.5133 -1.08,-0.86 -0.28,-0.36 -0.42,-0.8133 -0.42,-1.36 0,-0.7867 0.3,-1.44 0.88,-1.96 0.6,-0.5333 1.43,-0.8 2.48,-0.8 0.6,0 1.16,0.1067 1.68,0.32 0.52,0.2133 0.97,0.4733 1.34,0.78 l -0.8,1.04 c -0.33,-0.2533 -0.68,-0.46 -1.04,-0.62 -0.36,-0.16 -0.75,-0.24 -1.18,-0.24 -0.61,0 -1.06,0.14 -1.36,0.42 -0.28,0.28 -0.42,0.6067 -0.42,0.98 0,0.3067 0.1,0.56 0.3,0.76 0.2,0.1867 0.46,0.3533 0.78,0.5 0.32,0.1333 0.66,0.2733 1.02,0.42 0.47,0.1733 0.93,0.3733 1.38,0.6 0.46,0.2133 0.83,0.5067 1.12,0.88 0.31,0.36 0.46,0.8467 0.46,1.46 0,0.52 -0.14,1 -0.42,1.44 -0.26,0.44 -0.66,0.7933 -1.2,1.06 -0.52,0.2667 -1.16,0.4 -1.94,0.4 z"
     fill="#000000"
     id="path116" />
  <path
     d="m 366.99,131.23869 v -9.72 h 1.64 v 9.72 z m 0.84,-11.72 c -0.32,0 -0.59,-0.0933 -0.8,-0.28 -0.2,-0.2 -0.3,-0.4667 -0.3,-0.8 0,-0.32 0.1,-0.58 0.3,-0.78 0.21,-0.2 0.48,-0.3 0.8,-0.3 0.32,0 0.58,0.1 0.78,0.3 0.21,0.2 0.32,0.46 0.32,0.78 0,0.3333 -0.11,0.6 -0.32,0.8 -0.2,0.1867 -0.46,0.28 -0.78,0.28 z m 6.62,11.96 c -0.69,0 -1.35,-0.1267 -1.98,-0.38 -0.63,-0.2667 -1.17,-0.5867 -1.64,-0.96 l 0.82,-1.1 c 0.43,0.3333 0.87,0.6133 1.32,0.84 0.45,0.2133 0.97,0.32 1.54,0.32 0.64,0 1.12,-0.1467 1.44,-0.44 0.32,-0.3067 0.48,-0.6667 0.48,-1.08 0,-0.3333 -0.11,-0.6133 -0.34,-0.84 -0.21,-0.2267 -0.49,-0.4133 -0.84,-0.56 -0.33,-0.16 -0.68,-0.3067 -1.04,-0.44 -0.45,-0.1733 -0.9,-0.3667 -1.34,-0.58 -0.44,-0.2267 -0.8,-0.5133 -1.08,-0.86 -0.28,-0.36 -0.42,-0.8133 -0.42,-1.36 0,-0.7867 0.29,-1.44 0.88,-1.96 0.6,-0.5333 1.43,-0.8 2.48,-0.8 0.6,0 1.16,0.1067 1.68,0.32 0.52,0.2133 0.97,0.4733 1.34,0.78 l -0.8,1.04 c -0.33,-0.2533 -0.68,-0.46 -1.04,-0.62 -0.36,-0.16 -0.75,-0.24 -1.18,-0.24 -0.61,0 -1.07,0.14 -1.36,0.42 -0.28,0.28 -0.42,0.6067 -0.42,0.98 0,0.3067 0.1,0.56 0.3,0.76 0.2,0.1867 0.46,0.3533 0.78,0.5 0.32,0.1333 0.66,0.2733 1.02,0.42 0.47,0.1733 0.93,0.3733 1.38,0.6 0.45,0.2133 0.83,0.5067 1.12,0.88 0.31,0.36 0.46,0.8467 0.46,1.46 0,0.52 -0.14,1 -0.42,1.44 -0.27,0.44 -0.67,0.7933 -1.2,1.06 -0.52,0.2667 -1.17,0.4 -1.94,0.4 z"
     fill="#000000"
     id="path118" />
  <path
     d="m 518.92,131.47869 c -1.04,0 -1.77,-0.3 -2.18,-0.9 -0.4,-0.6 -0.6,-1.38 -0.6,-2.34 v -5.38 h -1.44 v -1.24 l 1.52,-0.1 0.2,-2.72 h 1.38 v 2.72 h 2.62 v 1.34 h -2.62 v 5.4 c 0,0.6 0.11,1.0667 0.32,1.4 0.23,0.32 0.62,0.48 1.18,0.48 0.17,0 0.36,-0.0267 0.56,-0.08 0.2,-0.0667 0.38,-0.1267 0.54,-0.18 l 0.32,1.24 c -0.27,0.0933 -0.56,0.1733 -0.88,0.24 -0.31,0.08 -0.61,0.12 -0.92,0.12 z m 3.7,-0.24 v -14.24 h 1.64 v 3.88 l -0.06,2 c 0.47,-0.44 0.95,-0.8133 1.46,-1.12 0.52,-0.32 1.11,-0.48 1.78,-0.48 1.03,0 1.77,0.3267 2.24,0.98 0.48,0.64 0.72,1.58 0.72,2.82 v 6.16 h -1.64 v -5.94 c 0,-0.9067 -0.15,-1.5667 -0.44,-1.98 -0.29,-0.4133 -0.76,-0.62 -1.4,-0.62 -0.49,0 -0.94,0.1267 -1.34,0.38 -0.39,0.2533 -0.83,0.6267 -1.32,1.12 v 7.04 z m 14.82,0.24 c -0.87,0 -1.66,-0.2 -2.36,-0.6 -0.71,-0.4133 -1.27,-1 -1.68,-1.76 -0.42,-0.76 -0.62,-1.6667 -0.62,-2.72 0,-1.0667 0.2,-1.98 0.62,-2.74 0.42,-0.76 0.97,-1.3467 1.64,-1.76 0.66,-0.4133 1.36,-0.62 2.1,-0.62 1.24,0 2.19,0.4133 2.86,1.24 0.68,0.8267 1.02,1.9333 1.02,3.32 0,0.1733 -0.01,0.3467 -0.02,0.52 0,0.16 -0.02,0.3 -0.04,0.42 h -6.56 c 0.06,1.0267 0.38,1.8467 0.96,2.46 0.58,0.6133 1.34,0.92 2.28,0.92 0.46,0 0.89,-0.0667 1.28,-0.2 0.4,-0.1467 0.78,-0.3333 1.14,-0.56 l 0.58,1.08 c -0.42,0.2667 -0.89,0.5 -1.42,0.7 -0.52,0.2 -1.12,0.3 -1.78,0.3 z m -3.06,-5.88 h 5.2 c 0,-0.9867 -0.22,-1.7333 -0.64,-2.24 -0.42,-0.52 -1,-0.78 -1.76,-0.78 -0.68,0 -1.3,0.2667 -1.84,0.8 -0.54,0.52 -0.86,1.26 -0.96,2.22 z"
     fill="#000000"
     id="path120" />
  <path
     d="m 658.51,131.47869 c -0.85,0 -1.62,-0.2 -2.32,-0.6 -0.69,-0.4 -1.24,-0.98 -1.64,-1.74 -0.4,-0.76 -0.6,-1.6733 -0.6,-2.74 0,-1.0933 0.22,-2.02 0.64,-2.78 0.44,-0.76 1.02,-1.34 1.72,-1.74 0.72,-0.4 1.5,-0.6 2.32,-0.6 0.64,0 1.19,0.1133 1.64,0.34 0.47,0.2267 0.87,0.4933 1.2,0.8 l -0.84,1.08 c -0.28,-0.2533 -0.58,-0.46 -0.9,-0.62 -0.3,-0.16 -0.65,-0.24 -1.04,-0.24 -0.58,0 -1.11,0.16 -1.58,0.48 -0.45,0.3067 -0.81,0.7467 -1.08,1.32 -0.25,0.56 -0.38,1.2133 -0.38,1.96 0,1.1067 0.28,2.0067 0.82,2.7 0.56,0.68 1.29,1.02 2.18,1.02 0.46,0 0.88,-0.0933 1.26,-0.28 0.39,-0.2 0.73,-0.4333 1.02,-0.7 l 0.72,1.1 c -0.44,0.3867 -0.92,0.6933 -1.46,0.92 -0.53,0.2133 -1.09,0.32 -1.68,0.32 z m 8.63,0 c -0.78,0 -1.52,-0.2 -2.22,-0.6 -0.68,-0.4 -1.23,-0.98 -1.66,-1.74 -0.41,-0.76 -0.62,-1.6733 -0.62,-2.74 0,-1.0933 0.21,-2.02 0.62,-2.78 0.43,-0.76 0.98,-1.34 1.66,-1.74 0.7,-0.4 1.44,-0.6 2.22,-0.6 0.8,0 1.54,0.2 2.22,0.6 0.68,0.4 1.23,0.98 1.64,1.74 0.43,0.76 0.64,1.6867 0.64,2.78 0,1.0667 -0.21,1.98 -0.64,2.74 -0.41,0.76 -0.96,1.34 -1.64,1.74 -0.68,0.4 -1.42,0.6 -2.22,0.6 z m 0,-1.36 c 0.84,0 1.52,-0.34 2.02,-1.02 0.52,-0.6933 0.78,-1.5933 0.78,-2.7 0,-1.12 -0.26,-2.0267 -0.78,-2.72 -0.5,-0.6933 -1.18,-1.04 -2.02,-1.04 -0.82,0 -1.5,0.3467 -2.02,1.04 -0.52,0.6933 -0.78,1.6 -0.78,2.72 0,1.1067 0.26,2.0067 0.78,2.7 0.52,0.68 1.2,1.02 2.02,1.02 z m 7.06,1.12 v -9.72 h 1.36 l 0.14,1.4 h 0.06 c 0.47,-0.4667 0.96,-0.8533 1.48,-1.16 0.52,-0.32 1.12,-0.48 1.78,-0.48 1.03,0 1.78,0.3267 2.24,0.98 0.48,0.64 0.72,1.58 0.72,2.82 v 6.16 h -1.64 v -5.94 c 0,-0.9067 -0.14,-1.5667 -0.44,-1.98 -0.29,-0.4133 -0.76,-0.62 -1.4,-0.62 -0.49,0 -0.94,0.1267 -1.34,0.38 -0.38,0.2533 -0.82,0.6267 -1.32,1.12 v 7.04 z m 14,0.24 c -1.04,0 -1.76,-0.3 -2.18,-0.9 -0.4,-0.6 -0.6,-1.38 -0.6,-2.34 v -5.38 h -1.44 v -1.24 l 1.52,-0.1 0.2,-2.72 h 1.38 v 2.72 h 2.62 v 1.34 h -2.62 v 5.4 c 0,0.6 0.11,1.0667 0.32,1.4 0.23,0.32 0.62,0.48 1.18,0.48 0.18,0 0.36,-0.0267 0.56,-0.08 0.2,-0.0667 0.38,-0.1267 0.54,-0.18 l 0.32,1.24 c -0.26,0.0933 -0.56,0.1733 -0.88,0.24 -0.3,0.08 -0.61,0.12 -0.92,0.12 z m 7.37,0 c -0.87,0 -1.66,-0.2 -2.36,-0.6 -0.71,-0.4133 -1.27,-1 -1.68,-1.76 -0.42,-0.76 -0.62,-1.6667 -0.62,-2.72 0,-1.0667 0.2,-1.98 0.62,-2.74 0.42,-0.76 0.97,-1.3467 1.64,-1.76 0.66,-0.4133 1.36,-0.62 2.1,-0.62 1.24,0 2.19,0.4133 2.86,1.24 0.68,0.8267 1.02,1.9333 1.02,3.32 0,0.1733 -0.01,0.3467 -0.02,0.52 0,0.16 -0.02,0.3 -0.04,0.42 h -6.56 c 0.06,1.0267 0.38,1.8467 0.96,2.46 0.58,0.6133 1.34,0.92 2.28,0.92 0.46,0 0.89,-0.0667 1.28,-0.2 0.4,-0.1467 0.78,-0.3333 1.14,-0.56 l 0.58,1.08 c -0.42,0.2667 -0.89,0.5 -1.42,0.7 -0.52,0.2 -1.12,0.3 -1.78,0.3 z m -3.06,-5.88 h 5.2 c 0,-0.9867 -0.22,-1.7333 -0.64,-2.24 -0.42,-0.52 -1,-0.78 -1.76,-0.78 -0.68,0 -1.3,0.2667 -1.84,0.8 -0.54,0.52 -0.86,1.26 -0.96,2.22 z m 7.54,5.64 3.18,-5.08 -2.94,-4.64 h 1.78 l 1.3,2.14 c 0.15,0.2533 0.3,0.52 0.46,0.8 0.16,0.28 0.33,0.5533 0.5,0.82 h 0.08 c 0.15,-0.2667 0.29,-0.54 0.44,-0.82 0.15,-0.28 0.29,-0.5467 0.44,-0.8 l 1.18,-2.14 h 1.72 l -2.94,4.82 3.16,4.9 h -1.78 l -1.42,-2.26 c -0.17,-0.2933 -0.35,-0.5867 -0.52,-0.88 -0.17,-0.2933 -0.35,-0.58 -0.54,-0.86 h -0.08 c -0.17,0.28 -0.34,0.5667 -0.5,0.86 -0.16,0.28 -0.32,0.5733 -0.48,0.88 l -1.32,2.26 z m 12.86,0.24 c -1.04,0 -1.77,-0.3 -2.18,-0.9 -0.4,-0.6 -0.6,-1.38 -0.6,-2.34 v -5.38 h -1.44 v -1.24 l 1.52,-0.1 0.2,-2.72 h 1.38 v 2.72 h 2.62 v 1.34 h -2.62 v 5.4 c 0,0.6 0.11,1.0667 0.32,1.4 0.23,0.32 0.62,0.48 1.18,0.48 0.17,0 0.36,-0.0267 0.56,-0.08 0.2,-0.0667 0.38,-0.1267 0.54,-0.18 l 0.32,1.24 c -0.27,0.0933 -0.56,0.1733 -0.88,0.24 -0.31,0.08 -0.61,0.12 -0.92,0.12 z"
     fill="#000000"
     id="path122" />
</svg>
