<?xml version="1.0" encoding="UTF-8" standalone="no"?>
<svg
   width="1751"
   height="570"
   viewBox="0 0 1751 570"
   fill="none"
   version="1.1"
   id="svg208"
   sodipodi:docname="review-lengths.svg"
   inkscape:version="1.2.2 (732a01da63, 2022-12-09)"
   inkscape:export-filename="review-lengths.png"
   inkscape:export-xdpi="300"
   inkscape:export-ydpi="300"
   xmlns:inkscape="http://www.inkscape.org/namespaces/inkscape"
   xmlns:sodipodi="http://sodipodi.sourceforge.net/DTD/sodipodi-0.dtd"
   xmlns="http://www.w3.org/2000/svg"
   xmlns:svg="http://www.w3.org/2000/svg">
  <defs
     id="defs212" />
  <sodipodi:namedview
     id="namedview210"
     pagecolor="#ffffff"
     bordercolor="#000000"
     borderopacity="0.25"
     inkscape:showpageshadow="2"
     inkscape:pageopacity="0.0"
     inkscape:pagecheckerboard="0"
     inkscape:deskcolor="#d1d1d1"
     showgrid="false"
     inkscape:zoom="1.0152293"
     inkscape:cx="782.08933"
     inkscape:cy="218.66981"
     inkscape:window-width="2880"
     inkscape:window-height="1694"
     inkscape:window-x="-11"
     inkscape:window-y="-11"
     inkscape:window-maximized="1"
     inkscape:current-layer="svg208" />
  <rect
     width="1751"
     height="570"
     fill="white"
     id="rect2" />
  <rect
     x="127"
     y="53"
     width="663"
     height="437"
     rx="1"
     stroke="#1A1B24"
     stroke-width="2"
     id="rect4" />
  <line
     x1="126"
     y1="90.5"
     x2="791"
     y2="90.5"
     stroke="#1A1B24"
     stroke-dasharray="2 2"
     id="line12" />
  <line
     x1="126"
     y1="142.5"
     x2="791"
     y2="142.5"
     stroke="#1A1B24"
     stroke-dasharray="2 2"
     id="line14" />
  <line
     x1="126"
     y1="193.5"
     x2="791"
     y2="193.5"
     stroke="#1A1B24"
     stroke-dasharray="2 2"
     id="line16" />
  <line
     x1="126"
     y1="244.5"
     x2="791"
     y2="244.5"
     stroke="#1A1B24"
     stroke-dasharray="2 2"
     id="line18" />
  <line
     x1="126"
     y1="298.5"
     x2="791"
     y2="298.5"
     stroke="#1A1B24"
     stroke-dasharray="2 2"
     id="line20" />
  <line
     x1="126"
     y1="348.5"
     x2="791"
     y2="348.5"
     stroke="#1A1B24"
     stroke-dasharray="2 2"
     id="line22" />
  <line
     x1="126"
     y1="399.5"
     x2="791"
     y2="399.5"
     stroke="#1A1B24"
     stroke-dasharray="2 2"
     id="line24" />
  <line
     x1="126"
     y1="447.5"
     x2="791"
     y2="447.5"
     stroke="#1A1B24"
     stroke-dasharray="2 2"
     id="line26" />
  <line
     x1="174.5"
     y1="52"
     x2="174.5"
     y2="491"
     stroke="#1A1B24"
     stroke-dasharray="2 2"
     id="line28" />
  <line
     x1="276.5"
     y1="52"
     x2="276.5"
     y2="491"
     stroke="#1A1B24"
     stroke-dasharray="2 2"
     id="line30" />
  <line
     x1="378.5"
     y1="52"
     x2="378.5"
     y2="491"
     stroke="#1A1B24"
     stroke-dasharray="2 2"
     id="line32" />
  <line
     x1="480.5"
     y1="52"
     x2="480.5"
     y2="491"
     stroke="#1A1B24"
     stroke-dasharray="2 2"
     id="line34" />
  <line
     x1="582.5"
     y1="52"
     x2="582.5"
     y2="491"
     stroke="#1A1B24"
     stroke-dasharray="2 2"
     id="line36" />
  <line
     x1="684.5"
     y1="52"
     x2="684.5"
     y2="491"
     stroke="#1A1B24"
     stroke-dasharray="2 2"
     id="line38" />
  <line
     x1="128"
     y1="490"
     x2="114"
     y2="490"
     stroke="#1A1B24"
     stroke-width="2"
     id="line40" />
  <line
     x1="128"
     y1="449"
     x2="114"
     y2="449"
     stroke="#1A1B24"
     stroke-width="2"
     id="line42" />
  <line
     x1="128"
     y1="399"
     x2="114"
     y2="399"
     stroke="#1A1B24"
     stroke-width="2"
     id="line44" />
  <line
     x1="128"
     y1="349"
     x2="114"
     y2="349"
     stroke="#1A1B24"
     stroke-width="2"
     id="line46" />
  <line
     x1="126"
     y1="299"
     x2="112"
     y2="299"
     stroke="#1A1B24"
     stroke-width="2"
     id="line48" />
  <line
     x1="126"
     y1="244"
     x2="112"
     y2="244"
     stroke="#1A1B24"
     stroke-width="2"
     id="line50" />
  <line
     x1="126"
     y1="193"
     x2="112"
     y2="193"
     stroke="#1A1B24"
     stroke-width="2"
     id="line52" />
  <line
     x1="126"
     y1="142"
     x2="112"
     y2="142"
     stroke="#1A1B24"
     stroke-width="2"
     id="line54" />
  <line
     x1="126"
     y1="91"
     x2="112"
     y2="91"
     stroke="#1A1B24"
     stroke-width="2"
     id="line56" />
  <path
     d="M98.5084 496.216C97.3564 496.216 96.4504 495.7 95.7904 494.668C95.1424 493.624 94.8184 492.142 94.8184 490.222C94.8184 488.29 95.1424 486.82 95.7904 485.812C96.4504 484.804 97.3564 484.3 98.5084 484.3C99.6484 484.3 100.542 484.804 101.19 485.812C101.85 486.82 102.18 488.29 102.18 490.222C102.18 492.142 101.85 493.624 101.19 494.668C100.542 495.7 99.6484 496.216 98.5084 496.216ZM98.5084 495.028C99.1804 495.028 99.7204 494.65 100.128 493.894C100.536 493.126 100.74 491.902 100.74 490.222C100.74 488.542 100.536 487.336 100.128 486.604C99.7204 485.86 99.1804 485.488 98.5084 485.488C97.8364 485.488 97.2904 485.86 96.8704 486.604C96.4624 487.336 96.2584 488.542 96.2584 490.222C96.2584 491.902 96.4624 493.126 96.8704 493.894C97.2904 494.65 97.8364 495.028 98.5084 495.028Z"
     fill="black"
     id="path58" />
  <path
     d="M75.6329 453V451.776H78.2609V443.316H76.1729V442.362C76.7009 442.266 77.1569 442.152 77.5409 442.02C77.9369 441.876 78.2909 441.708 78.6029 441.516H79.7369V451.776H82.1129V453H75.6329ZM87.6402 453.216C86.4882 453.216 85.5822 452.7 84.9222 451.668C84.2742 450.624 83.9502 449.142 83.9502 447.222C83.9502 445.29 84.2742 443.82 84.9222 442.812C85.5822 441.804 86.4882 441.3 87.6402 441.3C88.7802 441.3 89.6742 441.804 90.3222 442.812C90.9822 443.82 91.3122 445.29 91.3122 447.222C91.3122 449.142 90.9822 450.624 90.3222 451.668C89.6742 452.7 88.7802 453.216 87.6402 453.216ZM87.6402 452.028C88.3122 452.028 88.8522 451.65 89.2602 450.894C89.6682 450.126 89.8722 448.902 89.8722 447.222C89.8722 445.542 89.6682 444.336 89.2602 443.604C88.8522 442.86 88.3122 442.488 87.6402 442.488C86.9682 442.488 86.4222 442.86 86.0022 443.604C85.5942 444.336 85.3902 445.542 85.3902 447.222C85.3902 448.902 85.5942 450.126 86.0022 450.894C86.4222 451.65 86.9682 452.028 87.6402 452.028ZM96.5875 453.216C95.4355 453.216 94.5295 452.7 93.8695 451.668C93.2215 450.624 92.8975 449.142 92.8975 447.222C92.8975 445.29 93.2215 443.82 93.8695 442.812C94.5295 441.804 95.4355 441.3 96.5875 441.3C97.7275 441.3 98.6215 441.804 99.2695 442.812C99.9295 443.82 100.259 445.29 100.259 447.222C100.259 449.142 99.9295 450.624 99.2695 451.668C98.6215 452.7 97.7275 453.216 96.5875 453.216ZM96.5875 452.028C97.2595 452.028 97.7995 451.65 98.2075 450.894C98.6155 450.126 98.8195 448.902 98.8195 447.222C98.8195 445.542 98.6155 444.336 98.2075 443.604C97.7995 442.86 97.2595 442.488 96.5875 442.488C95.9155 442.488 95.3695 442.86 94.9495 443.604C94.5415 444.336 94.3375 445.542 94.3375 447.222C94.3375 448.902 94.5415 450.126 94.9495 450.894C95.3695 451.65 95.9155 452.028 96.5875 452.028ZM105.535 453.216C104.383 453.216 103.477 452.7 102.817 451.668C102.169 450.624 101.845 449.142 101.845 447.222C101.845 445.29 102.169 443.82 102.817 442.812C103.477 441.804 104.383 441.3 105.535 441.3C106.675 441.3 107.569 441.804 108.217 442.812C108.877 443.82 109.207 445.29 109.207 447.222C109.207 449.142 108.877 450.624 108.217 451.668C107.569 452.7 106.675 453.216 105.535 453.216ZM105.535 452.028C106.207 452.028 106.747 451.65 107.155 450.894C107.563 450.126 107.767 448.902 107.767 447.222C107.767 445.542 107.563 444.336 107.155 443.604C106.747 442.86 106.207 442.488 105.535 442.488C104.863 442.488 104.317 442.86 103.897 443.604C103.489 444.336 103.285 445.542 103.285 447.222C103.285 448.902 103.489 450.126 103.897 450.894C104.317 451.65 104.863 452.028 105.535 452.028Z"
     fill="black"
     id="path60" />
  <path
     d="M74.9309 403V402.118C76.0829 400.966 77.0609 399.958 77.8649 399.094C78.6689 398.218 79.2809 397.432 79.7009 396.736C80.1209 396.028 80.3309 395.368 80.3309 394.756C80.3309 394.096 80.1509 393.556 79.7909 393.136C79.4309 392.716 78.8849 392.506 78.1529 392.506C77.6729 392.506 77.2289 392.644 76.8209 392.92C76.4129 393.184 76.0409 393.508 75.7049 393.892L74.8589 393.046C75.3389 392.518 75.8489 392.098 76.3889 391.786C76.9409 391.462 77.5889 391.3 78.3329 391.3C79.4009 391.3 80.2409 391.612 80.8529 392.236C81.4649 392.848 81.7709 393.664 81.7709 394.684C81.7709 395.404 81.5669 396.136 81.1589 396.88C80.7629 397.612 80.2109 398.386 79.5029 399.202C78.8069 400.006 78.0029 400.882 77.0909 401.83C77.4029 401.806 77.7269 401.782 78.0629 401.758C78.3989 401.734 78.7169 401.722 79.0169 401.722H82.3469V403H74.9309ZM87.6402 403.216C86.4882 403.216 85.5822 402.7 84.9222 401.668C84.2742 400.624 83.9502 399.142 83.9502 397.222C83.9502 395.29 84.2742 393.82 84.9222 392.812C85.5822 391.804 86.4882 391.3 87.6402 391.3C88.7802 391.3 89.6742 391.804 90.3222 392.812C90.9822 393.82 91.3122 395.29 91.3122 397.222C91.3122 399.142 90.9822 400.624 90.3222 401.668C89.6742 402.7 88.7802 403.216 87.6402 403.216ZM87.6402 402.028C88.3122 402.028 88.8522 401.65 89.2602 400.894C89.6682 400.126 89.8722 398.902 89.8722 397.222C89.8722 395.542 89.6682 394.336 89.2602 393.604C88.8522 392.86 88.3122 392.488 87.6402 392.488C86.9682 392.488 86.4222 392.86 86.0022 393.604C85.5942 394.336 85.3902 395.542 85.3902 397.222C85.3902 398.902 85.5942 400.126 86.0022 400.894C86.4222 401.65 86.9682 402.028 87.6402 402.028ZM96.5875 403.216C95.4355 403.216 94.5295 402.7 93.8695 401.668C93.2215 400.624 92.8975 399.142 92.8975 397.222C92.8975 395.29 93.2215 393.82 93.8695 392.812C94.5295 391.804 95.4355 391.3 96.5875 391.3C97.7275 391.3 98.6215 391.804 99.2695 392.812C99.9295 393.82 100.259 395.29 100.259 397.222C100.259 399.142 99.9295 400.624 99.2695 401.668C98.6215 402.7 97.7275 403.216 96.5875 403.216ZM96.5875 402.028C97.2595 402.028 97.7995 401.65 98.2075 400.894C98.6155 400.126 98.8195 398.902 98.8195 397.222C98.8195 395.542 98.6155 394.336 98.2075 393.604C97.7995 392.86 97.2595 392.488 96.5875 392.488C95.9155 392.488 95.3695 392.86 94.9495 393.604C94.5415 394.336 94.3375 395.542 94.3375 397.222C94.3375 398.902 94.5415 400.126 94.9495 400.894C95.3695 401.65 95.9155 402.028 96.5875 402.028ZM105.535 403.216C104.383 403.216 103.477 402.7 102.817 401.668C102.169 400.624 101.845 399.142 101.845 397.222C101.845 395.29 102.169 393.82 102.817 392.812C103.477 391.804 104.383 391.3 105.535 391.3C106.675 391.3 107.569 391.804 108.217 392.812C108.877 393.82 109.207 395.29 109.207 397.222C109.207 399.142 108.877 400.624 108.217 401.668C107.569 402.7 106.675 403.216 105.535 403.216ZM105.535 402.028C106.207 402.028 106.747 401.65 107.155 400.894C107.563 400.126 107.767 398.902 107.767 397.222C107.767 395.542 107.563 394.336 107.155 393.604C106.747 392.86 106.207 392.488 105.535 392.488C104.863 392.488 104.317 392.86 103.897 393.604C103.489 394.336 103.285 395.542 103.285 397.222C103.285 398.902 103.489 400.126 103.897 400.894C104.317 401.65 104.863 402.028 105.535 402.028Z"
     fill="black"
     id="path62" />
  <path
     d="M78.4589 353.216C77.5469 353.216 76.7849 353.054 76.1729 352.73C75.5609 352.394 75.0629 352.016 74.6789 351.596L75.4349 350.624C75.7829 350.984 76.1909 351.302 76.6589 351.578C77.1269 351.854 77.6969 351.992 78.3689 351.992C79.0649 351.992 79.6349 351.8 80.0789 351.416C80.5229 351.032 80.7449 350.522 80.7449 349.886C80.7449 349.43 80.6249 349.034 80.3849 348.698C80.1569 348.35 79.7729 348.08 79.2329 347.888C78.7049 347.696 77.9849 347.6 77.0729 347.6V346.466C77.8889 346.466 78.5309 346.37 78.9989 346.178C79.4789 345.986 79.8209 345.728 80.0249 345.404C80.2289 345.08 80.3309 344.72 80.3309 344.324C80.3309 343.76 80.1509 343.316 79.7909 342.992C79.4429 342.668 78.9629 342.506 78.3509 342.506C77.8709 342.506 77.4269 342.614 77.0189 342.83C76.6229 343.046 76.2509 343.328 75.9029 343.676L75.1109 342.74C75.5549 342.32 76.0469 341.978 76.5869 341.714C77.1269 341.438 77.7329 341.3 78.4049 341.3C79.4009 341.3 80.2229 341.558 80.8709 342.074C81.5189 342.578 81.8429 343.292 81.8429 344.216C81.8429 344.912 81.6509 345.482 81.2669 345.926C80.8829 346.37 80.3789 346.712 79.7549 346.952V347.024C80.4509 347.18 81.0389 347.51 81.5189 348.014C81.9989 348.506 82.2389 349.148 82.2389 349.94C82.2389 350.612 82.0709 351.194 81.7349 351.686C81.3989 352.178 80.9429 352.556 80.3669 352.82C79.8029 353.084 79.1669 353.216 78.4589 353.216ZM87.6402 353.216C86.4882 353.216 85.5822 352.7 84.9222 351.668C84.2742 350.624 83.9502 349.142 83.9502 347.222C83.9502 345.29 84.2742 343.82 84.9222 342.812C85.5822 341.804 86.4882 341.3 87.6402 341.3C88.7802 341.3 89.6742 341.804 90.3222 342.812C90.9822 343.82 91.3122 345.29 91.3122 347.222C91.3122 349.142 90.9822 350.624 90.3222 351.668C89.6742 352.7 88.7802 353.216 87.6402 353.216ZM87.6402 352.028C88.3122 352.028 88.8522 351.65 89.2602 350.894C89.6682 350.126 89.8722 348.902 89.8722 347.222C89.8722 345.542 89.6682 344.336 89.2602 343.604C88.8522 342.86 88.3122 342.488 87.6402 342.488C86.9682 342.488 86.4222 342.86 86.0022 343.604C85.5942 344.336 85.3902 345.542 85.3902 347.222C85.3902 348.902 85.5942 350.126 86.0022 350.894C86.4222 351.65 86.9682 352.028 87.6402 352.028ZM96.5875 353.216C95.4355 353.216 94.5295 352.7 93.8695 351.668C93.2215 350.624 92.8975 349.142 92.8975 347.222C92.8975 345.29 93.2215 343.82 93.8695 342.812C94.5295 341.804 95.4355 341.3 96.5875 341.3C97.7275 341.3 98.6215 341.804 99.2695 342.812C99.9295 343.82 100.259 345.29 100.259 347.222C100.259 349.142 99.9295 350.624 99.2695 351.668C98.6215 352.7 97.7275 353.216 96.5875 353.216ZM96.5875 352.028C97.2595 352.028 97.7995 351.65 98.2075 350.894C98.6155 350.126 98.8195 348.902 98.8195 347.222C98.8195 345.542 98.6155 344.336 98.2075 343.604C97.7995 342.86 97.2595 342.488 96.5875 342.488C95.9155 342.488 95.3695 342.86 94.9495 343.604C94.5415 344.336 94.3375 345.542 94.3375 347.222C94.3375 348.902 94.5415 350.126 94.9495 350.894C95.3695 351.65 95.9155 352.028 96.5875 352.028ZM105.535 353.216C104.383 353.216 103.477 352.7 102.817 351.668C102.169 350.624 101.845 349.142 101.845 347.222C101.845 345.29 102.169 343.82 102.817 342.812C103.477 341.804 104.383 341.3 105.535 341.3C106.675 341.3 107.569 341.804 108.217 342.812C108.877 343.82 109.207 345.29 109.207 347.222C109.207 349.142 108.877 350.624 108.217 351.668C107.569 352.7 106.675 353.216 105.535 353.216ZM105.535 352.028C106.207 352.028 106.747 351.65 107.155 350.894C107.563 350.126 107.767 348.902 107.767 347.222C107.767 345.542 107.563 344.336 107.155 343.604C106.747 342.86 106.207 342.488 105.535 342.488C104.863 342.488 104.317 342.86 103.897 343.604C103.489 344.336 103.285 345.542 103.285 347.222C103.285 348.902 103.489 350.126 103.897 350.894C104.317 351.65 104.863 352.028 105.535 352.028Z"
     fill="black"
     id="path64" />
  <path
     d="M74.0829 298.644H77.6829V295.314C77.6829 295.002 77.6949 294.63 77.7189 294.198C77.7429 293.766 77.7609 293.4 77.7729 293.1H77.7009C77.5569 293.376 77.4069 293.646 77.2509 293.91C77.0949 294.174 76.9329 294.444 76.7649 294.72L74.0829 298.644ZM77.6829 303V299.832H72.5169V298.86L77.4309 291.516H79.0869V298.644H80.6529V299.832H79.0869V303H77.6829ZM85.6402 303.216C84.4882 303.216 83.5822 302.7 82.9222 301.668C82.2742 300.624 81.9502 299.142 81.9502 297.222C81.9502 295.29 82.2742 293.82 82.9222 292.812C83.5822 291.804 84.4882 291.3 85.6402 291.3C86.7802 291.3 87.6742 291.804 88.3222 292.812C88.9822 293.82 89.3122 295.29 89.3122 297.222C89.3122 299.142 88.9822 300.624 88.3222 301.668C87.6742 302.7 86.7802 303.216 85.6402 303.216ZM85.6402 302.028C86.3122 302.028 86.8522 301.65 87.2602 300.894C87.6682 300.126 87.8722 298.902 87.8722 297.222C87.8722 295.542 87.6682 294.336 87.2602 293.604C86.8522 292.86 86.3122 292.488 85.6402 292.488C84.9682 292.488 84.4222 292.86 84.0022 293.604C83.5942 294.336 83.3902 295.542 83.3902 297.222C83.3902 298.902 83.5942 300.126 84.0022 300.894C84.4222 301.65 84.9682 302.028 85.6402 302.028ZM94.5875 303.216C93.4355 303.216 92.5295 302.7 91.8695 301.668C91.2215 300.624 90.8975 299.142 90.8975 297.222C90.8975 295.29 91.2215 293.82 91.8695 292.812C92.5295 291.804 93.4355 291.3 94.5875 291.3C95.7275 291.3 96.6215 291.804 97.2695 292.812C97.9295 293.82 98.2595 295.29 98.2595 297.222C98.2595 299.142 97.9295 300.624 97.2695 301.668C96.6215 302.7 95.7275 303.216 94.5875 303.216ZM94.5875 302.028C95.2595 302.028 95.7995 301.65 96.2075 300.894C96.6155 300.126 96.8195 298.902 96.8195 297.222C96.8195 295.542 96.6155 294.336 96.2075 293.604C95.7995 292.86 95.2595 292.488 94.5875 292.488C93.9155 292.488 93.3695 292.86 92.9495 293.604C92.5415 294.336 92.3375 295.542 92.3375 297.222C92.3375 298.902 92.5415 300.126 92.9495 300.894C93.3695 301.65 93.9155 302.028 94.5875 302.028ZM103.535 303.216C102.383 303.216 101.477 302.7 100.817 301.668C100.169 300.624 99.8447 299.142 99.8447 297.222C99.8447 295.29 100.169 293.82 100.817 292.812C101.477 291.804 102.383 291.3 103.535 291.3C104.675 291.3 105.569 291.804 106.217 292.812C106.877 293.82 107.207 295.29 107.207 297.222C107.207 299.142 106.877 300.624 106.217 301.668C105.569 302.7 104.675 303.216 103.535 303.216ZM103.535 302.028C104.207 302.028 104.747 301.65 105.155 300.894C105.563 300.126 105.767 298.902 105.767 297.222C105.767 295.542 105.563 294.336 105.155 293.604C104.747 292.86 104.207 292.488 103.535 292.488C102.863 292.488 102.317 292.86 101.897 293.604C101.489 294.336 101.285 295.542 101.285 297.222C101.285 298.902 101.489 300.126 101.897 300.894C102.317 301.65 102.863 302.028 103.535 302.028Z"
     fill="black"
     id="path66" />
  <path
     d="M76.4229 248.216C75.5109 248.216 74.7549 248.054 74.1549 247.73C73.5549 247.406 73.0569 247.046 72.6609 246.65L73.3809 245.678C73.7289 246.014 74.1309 246.32 74.5869 246.596C75.0429 246.86 75.6069 246.992 76.2789 246.992C76.9869 246.992 77.5809 246.758 78.0609 246.29C78.5529 245.81 78.7989 245.168 78.7989 244.364C78.7989 243.572 78.5769 242.954 78.1329 242.51C77.6889 242.066 77.0949 241.844 76.3509 241.844C75.9549 241.844 75.6129 241.904 75.3249 242.024C75.0489 242.144 74.7369 242.318 74.3889 242.546L73.5969 242.042L73.9749 236.516H79.7169V237.794H75.2709L74.9649 241.196C75.2409 241.052 75.5169 240.938 75.7929 240.854C76.0689 240.77 76.3809 240.728 76.7289 240.728C77.3889 240.728 77.9829 240.86 78.5109 241.124C79.0509 241.376 79.4829 241.766 79.8069 242.294C80.1309 242.822 80.2929 243.5 80.2929 244.328C80.2929 245.156 80.1069 245.864 79.7349 246.452C79.3749 247.028 78.9009 247.466 78.3129 247.766C77.7249 248.066 77.0949 248.216 76.4229 248.216ZM85.6402 248.216C84.4882 248.216 83.5822 247.7 82.9222 246.668C82.2742 245.624 81.9502 244.142 81.9502 242.222C81.9502 240.29 82.2742 238.82 82.9222 237.812C83.5822 236.804 84.4882 236.3 85.6402 236.3C86.7802 236.3 87.6742 236.804 88.3222 237.812C88.9822 238.82 89.3122 240.29 89.3122 242.222C89.3122 244.142 88.9822 245.624 88.3222 246.668C87.6742 247.7 86.7802 248.216 85.6402 248.216ZM85.6402 247.028C86.3122 247.028 86.8522 246.65 87.2602 245.894C87.6682 245.126 87.8722 243.902 87.8722 242.222C87.8722 240.542 87.6682 239.336 87.2602 238.604C86.8522 237.86 86.3122 237.488 85.6402 237.488C84.9682 237.488 84.4222 237.86 84.0022 238.604C83.5942 239.336 83.3902 240.542 83.3902 242.222C83.3902 243.902 83.5942 245.126 84.0022 245.894C84.4222 246.65 84.9682 247.028 85.6402 247.028ZM94.5875 248.216C93.4355 248.216 92.5295 247.7 91.8695 246.668C91.2215 245.624 90.8975 244.142 90.8975 242.222C90.8975 240.29 91.2215 238.82 91.8695 237.812C92.5295 236.804 93.4355 236.3 94.5875 236.3C95.7275 236.3 96.6215 236.804 97.2695 237.812C97.9295 238.82 98.2595 240.29 98.2595 242.222C98.2595 244.142 97.9295 245.624 97.2695 246.668C96.6215 247.7 95.7275 248.216 94.5875 248.216ZM94.5875 247.028C95.2595 247.028 95.7995 246.65 96.2075 245.894C96.6155 245.126 96.8195 243.902 96.8195 242.222C96.8195 240.542 96.6155 239.336 96.2075 238.604C95.7995 237.86 95.2595 237.488 94.5875 237.488C93.9155 237.488 93.3695 237.86 92.9495 238.604C92.5415 239.336 92.3375 240.542 92.3375 242.222C92.3375 243.902 92.5415 245.126 92.9495 245.894C93.3695 246.65 93.9155 247.028 94.5875 247.028ZM103.535 248.216C102.383 248.216 101.477 247.7 100.817 246.668C100.169 245.624 99.8447 244.142 99.8447 242.222C99.8447 240.29 100.169 238.82 100.817 237.812C101.477 236.804 102.383 236.3 103.535 236.3C104.675 236.3 105.569 236.804 106.217 237.812C106.877 238.82 107.207 240.29 107.207 242.222C107.207 244.142 106.877 245.624 106.217 246.668C105.569 247.7 104.675 248.216 103.535 248.216ZM103.535 247.028C104.207 247.028 104.747 246.65 105.155 245.894C105.563 245.126 105.767 243.902 105.767 242.222C105.767 240.542 105.563 239.336 105.155 238.604C104.747 237.86 104.207 237.488 103.535 237.488C102.863 237.488 102.317 237.86 101.897 238.604C101.489 239.336 101.285 240.542 101.285 242.222C101.285 243.902 101.489 245.126 101.897 245.894C102.317 246.65 102.863 247.028 103.535 247.028Z"
     fill="black"
     id="path68" />
  <path
     d="M76.9089 191.096C76.5369 191.096 76.1349 191.216 75.7029 191.456C75.2709 191.696 74.8749 192.08 74.5149 192.608C74.6109 193.724 74.8689 194.576 75.2889 195.164C75.7209 195.752 76.3029 196.046 77.0349 196.046C77.5989 196.046 78.0729 195.818 78.4569 195.362C78.8409 194.894 79.0329 194.282 79.0329 193.526C79.0329 192.782 78.8529 192.194 78.4929 191.762C78.1449 191.318 77.6169 191.096 76.9089 191.096ZM77.0349 197.216C76.2909 197.216 75.6189 197.012 75.0189 196.604C74.4189 196.196 73.9449 195.584 73.5969 194.768C73.2489 193.94 73.0749 192.914 73.0749 191.69C73.0749 190.154 73.2789 188.918 73.6869 187.982C74.1069 187.046 74.6469 186.368 75.3069 185.948C75.9789 185.516 76.6929 185.3 77.4489 185.3C78.0729 185.3 78.6069 185.42 79.0509 185.66C79.5069 185.888 79.8969 186.176 80.2209 186.524L79.3929 187.442C79.1649 187.166 78.8829 186.95 78.5469 186.794C78.2109 186.626 77.8629 186.542 77.5029 186.542C76.9629 186.542 76.4709 186.698 76.0269 187.01C75.5829 187.31 75.2169 187.82 74.9289 188.54C74.6529 189.248 74.5029 190.208 74.4789 191.42C74.8389 190.976 75.2589 190.628 75.7389 190.376C76.2189 190.112 76.6929 189.98 77.1609 189.98C78.1569 189.98 78.9489 190.28 79.5369 190.88C80.1369 191.468 80.4369 192.35 80.4369 193.526C80.4369 194.258 80.2809 194.9 79.9689 195.452C79.6569 196.004 79.2429 196.436 78.7269 196.748C78.2229 197.06 77.6589 197.216 77.0349 197.216ZM85.6402 197.216C84.4882 197.216 83.5822 196.7 82.9222 195.668C82.2742 194.624 81.9502 193.142 81.9502 191.222C81.9502 189.29 82.2742 187.82 82.9222 186.812C83.5822 185.804 84.4882 185.3 85.6402 185.3C86.7802 185.3 87.6742 185.804 88.3222 186.812C88.9822 187.82 89.3122 189.29 89.3122 191.222C89.3122 193.142 88.9822 194.624 88.3222 195.668C87.6742 196.7 86.7802 197.216 85.6402 197.216ZM85.6402 196.028C86.3122 196.028 86.8522 195.65 87.2602 194.894C87.6682 194.126 87.8722 192.902 87.8722 191.222C87.8722 189.542 87.6682 188.336 87.2602 187.604C86.8522 186.86 86.3122 186.488 85.6402 186.488C84.9682 186.488 84.4222 186.86 84.0022 187.604C83.5942 188.336 83.3902 189.542 83.3902 191.222C83.3902 192.902 83.5942 194.126 84.0022 194.894C84.4222 195.65 84.9682 196.028 85.6402 196.028ZM94.5875 197.216C93.4355 197.216 92.5295 196.7 91.8695 195.668C91.2215 194.624 90.8975 193.142 90.8975 191.222C90.8975 189.29 91.2215 187.82 91.8695 186.812C92.5295 185.804 93.4355 185.3 94.5875 185.3C95.7275 185.3 96.6215 185.804 97.2695 186.812C97.9295 187.82 98.2595 189.29 98.2595 191.222C98.2595 193.142 97.9295 194.624 97.2695 195.668C96.6215 196.7 95.7275 197.216 94.5875 197.216ZM94.5875 196.028C95.2595 196.028 95.7995 195.65 96.2075 194.894C96.6155 194.126 96.8195 192.902 96.8195 191.222C96.8195 189.542 96.6155 188.336 96.2075 187.604C95.7995 186.86 95.2595 186.488 94.5875 186.488C93.9155 186.488 93.3695 186.86 92.9495 187.604C92.5415 188.336 92.3375 189.542 92.3375 191.222C92.3375 192.902 92.5415 194.126 92.9495 194.894C93.3695 195.65 93.9155 196.028 94.5875 196.028ZM103.535 197.216C102.383 197.216 101.477 196.7 100.817 195.668C100.169 194.624 99.8447 193.142 99.8447 191.222C99.8447 189.29 100.169 187.82 100.817 186.812C101.477 185.804 102.383 185.3 103.535 185.3C104.675 185.3 105.569 185.804 106.217 186.812C106.877 187.82 107.207 189.29 107.207 191.222C107.207 193.142 106.877 194.624 106.217 195.668C105.569 196.7 104.675 197.216 103.535 197.216ZM103.535 196.028C104.207 196.028 104.747 195.65 105.155 194.894C105.563 194.126 105.767 192.902 105.767 191.222C105.767 189.542 105.563 188.336 105.155 187.604C104.747 186.86 104.207 186.488 103.535 186.488C102.863 186.488 102.317 186.86 101.897 187.604C101.489 188.336 101.285 189.542 101.285 191.222C101.285 192.902 101.489 194.126 101.897 194.894C102.317 195.65 102.863 196.028 103.535 196.028Z"
     fill="black"
     id="path70" />
  <path
     d="M75.3969 146C75.4689 144.56 75.6189 143.27 75.8469 142.13C76.0869 140.978 76.4349 139.898 76.8909 138.89C77.3589 137.87 77.9709 136.838 78.7269 135.794H73.0029V134.516H80.4009V135.434C79.7169 136.298 79.1589 137.132 78.7269 137.936C78.2949 138.728 77.9589 139.532 77.7189 140.348C77.4789 141.152 77.2989 142.016 77.1789 142.94C77.0589 143.864 76.9749 144.884 76.9269 146H75.3969ZM85.6402 146.216C84.4882 146.216 83.5822 145.7 82.9222 144.668C82.2742 143.624 81.9502 142.142 81.9502 140.222C81.9502 138.29 82.2742 136.82 82.9222 135.812C83.5822 134.804 84.4882 134.3 85.6402 134.3C86.7802 134.3 87.6742 134.804 88.3222 135.812C88.9822 136.82 89.3122 138.29 89.3122 140.222C89.3122 142.142 88.9822 143.624 88.3222 144.668C87.6742 145.7 86.7802 146.216 85.6402 146.216ZM85.6402 145.028C86.3122 145.028 86.8522 144.65 87.2602 143.894C87.6682 143.126 87.8722 141.902 87.8722 140.222C87.8722 138.542 87.6682 137.336 87.2602 136.604C86.8522 135.86 86.3122 135.488 85.6402 135.488C84.9682 135.488 84.4222 135.86 84.0022 136.604C83.5942 137.336 83.3902 138.542 83.3902 140.222C83.3902 141.902 83.5942 143.126 84.0022 143.894C84.4222 144.65 84.9682 145.028 85.6402 145.028ZM94.5875 146.216C93.4355 146.216 92.5295 145.7 91.8695 144.668C91.2215 143.624 90.8975 142.142 90.8975 140.222C90.8975 138.29 91.2215 136.82 91.8695 135.812C92.5295 134.804 93.4355 134.3 94.5875 134.3C95.7275 134.3 96.6215 134.804 97.2695 135.812C97.9295 136.82 98.2595 138.29 98.2595 140.222C98.2595 142.142 97.9295 143.624 97.2695 144.668C96.6215 145.7 95.7275 146.216 94.5875 146.216ZM94.5875 145.028C95.2595 145.028 95.7995 144.65 96.2075 143.894C96.6155 143.126 96.8195 141.902 96.8195 140.222C96.8195 138.542 96.6155 137.336 96.2075 136.604C95.7995 135.86 95.2595 135.488 94.5875 135.488C93.9155 135.488 93.3695 135.86 92.9495 136.604C92.5415 137.336 92.3375 138.542 92.3375 140.222C92.3375 141.902 92.5415 143.126 92.9495 143.894C93.3695 144.65 93.9155 145.028 94.5875 145.028ZM103.535 146.216C102.383 146.216 101.477 145.7 100.817 144.668C100.169 143.624 99.8447 142.142 99.8447 140.222C99.8447 138.29 100.169 136.82 100.817 135.812C101.477 134.804 102.383 134.3 103.535 134.3C104.675 134.3 105.569 134.804 106.217 135.812C106.877 136.82 107.207 138.29 107.207 140.222C107.207 142.142 106.877 143.624 106.217 144.668C105.569 145.7 104.675 146.216 103.535 146.216ZM103.535 145.028C104.207 145.028 104.747 144.65 105.155 143.894C105.563 143.126 105.767 141.902 105.767 140.222C105.767 138.542 105.563 137.336 105.155 136.604C104.747 135.86 104.207 135.488 103.535 135.488C102.863 135.488 102.317 135.86 101.897 136.604C101.489 137.336 101.285 138.542 101.285 140.222C101.285 141.902 101.489 143.126 101.897 143.894C102.317 144.65 102.863 145.028 103.535 145.028Z"
     fill="black"
     id="path72" />
  <path
     d="M76.7109 95.216C75.9909 95.216 75.3489 95.084 74.7849 94.82C74.2209 94.544 73.7709 94.166 73.4349 93.686C73.1109 93.206 72.9489 92.666 72.9489 92.066C72.9489 91.562 73.0509 91.118 73.2549 90.734C73.4709 90.338 73.7409 89.996 74.0649 89.708C74.4009 89.408 74.7489 89.162 75.1089 88.97V88.898C74.6889 88.598 74.3169 88.232 73.9929 87.8C73.6689 87.368 73.5069 86.852 73.5069 86.252C73.5069 85.664 73.6509 85.148 73.9389 84.704C74.2269 84.26 74.6169 83.918 75.1089 83.678C75.6009 83.426 76.1529 83.3 76.7649 83.3C77.7609 83.3 78.5469 83.588 79.1229 84.164C79.7109 84.74 80.0049 85.472 80.0049 86.36C80.0049 86.756 79.9209 87.134 79.7529 87.494C79.5849 87.842 79.3809 88.16 79.1409 88.448C78.9009 88.724 78.6609 88.952 78.4209 89.132V89.204C78.7689 89.396 79.0929 89.624 79.3929 89.888C79.6929 90.152 79.9389 90.47 80.1309 90.842C80.3229 91.202 80.4189 91.64 80.4189 92.156C80.4189 92.72 80.2629 93.236 79.9509 93.704C79.6509 94.172 79.2189 94.544 78.6549 94.82C78.1029 95.084 77.4549 95.216 76.7109 95.216ZM77.5209 88.736C77.9049 88.388 78.1989 88.022 78.4029 87.638C78.6189 87.254 78.7269 86.852 78.7269 86.432C78.7269 85.868 78.5529 85.388 78.2049 84.992C77.8569 84.596 77.3649 84.398 76.7289 84.398C76.2009 84.398 75.7569 84.566 75.3969 84.902C75.0489 85.238 74.8749 85.688 74.8749 86.252C74.8749 86.708 74.9949 87.086 75.2349 87.386C75.4869 87.686 75.8169 87.944 76.2249 88.16C76.6329 88.364 77.0649 88.556 77.5209 88.736ZM76.7469 94.118C77.4189 94.118 77.9589 93.932 78.3669 93.56C78.7869 93.176 78.9969 92.69 78.9969 92.102C78.9969 91.61 78.8529 91.208 78.5649 90.896C78.2769 90.584 77.8929 90.314 77.4129 90.086C76.9449 89.858 76.4349 89.636 75.8829 89.42C75.4269 89.72 75.0429 90.08 74.7309 90.5C74.4309 90.92 74.2809 91.394 74.2809 91.922C74.2809 92.558 74.5149 93.086 74.9829 93.506C75.4629 93.914 76.0509 94.118 76.7469 94.118ZM85.6402 95.216C84.4882 95.216 83.5822 94.7 82.9222 93.668C82.2742 92.624 81.9502 91.142 81.9502 89.222C81.9502 87.29 82.2742 85.82 82.9222 84.812C83.5822 83.804 84.4882 83.3 85.6402 83.3C86.7802 83.3 87.6742 83.804 88.3222 84.812C88.9822 85.82 89.3122 87.29 89.3122 89.222C89.3122 91.142 88.9822 92.624 88.3222 93.668C87.6742 94.7 86.7802 95.216 85.6402 95.216ZM85.6402 94.028C86.3122 94.028 86.8522 93.65 87.2602 92.894C87.6682 92.126 87.8722 90.902 87.8722 89.222C87.8722 87.542 87.6682 86.336 87.2602 85.604C86.8522 84.86 86.3122 84.488 85.6402 84.488C84.9682 84.488 84.4222 84.86 84.0022 85.604C83.5942 86.336 83.3902 87.542 83.3902 89.222C83.3902 90.902 83.5942 92.126 84.0022 92.894C84.4222 93.65 84.9682 94.028 85.6402 94.028ZM94.5875 95.216C93.4355 95.216 92.5295 94.7 91.8695 93.668C91.2215 92.624 90.8975 91.142 90.8975 89.222C90.8975 87.29 91.2215 85.82 91.8695 84.812C92.5295 83.804 93.4355 83.3 94.5875 83.3C95.7275 83.3 96.6215 83.804 97.2695 84.812C97.9295 85.82 98.2595 87.29 98.2595 89.222C98.2595 91.142 97.9295 92.624 97.2695 93.668C96.6215 94.7 95.7275 95.216 94.5875 95.216ZM94.5875 94.028C95.2595 94.028 95.7995 93.65 96.2075 92.894C96.6155 92.126 96.8195 90.902 96.8195 89.222C96.8195 87.542 96.6155 86.336 96.2075 85.604C95.7995 84.86 95.2595 84.488 94.5875 84.488C93.9155 84.488 93.3695 84.86 92.9495 85.604C92.5415 86.336 92.3375 87.542 92.3375 89.222C92.3375 90.902 92.5415 92.126 92.9495 92.894C93.3695 93.65 93.9155 94.028 94.5875 94.028ZM103.535 95.216C102.383 95.216 101.477 94.7 100.817 93.668C100.169 92.624 99.8447 91.142 99.8447 89.222C99.8447 87.29 100.169 85.82 100.817 84.812C101.477 83.804 102.383 83.3 103.535 83.3C104.675 83.3 105.569 83.804 106.217 84.812C106.877 85.82 107.207 87.29 107.207 89.222C107.207 91.142 106.877 92.624 106.217 93.668C105.569 94.7 104.675 95.216 103.535 95.216ZM103.535 94.028C104.207 94.028 104.747 93.65 105.155 92.894C105.563 92.126 105.767 90.902 105.767 89.222C105.767 87.542 105.563 86.336 105.155 85.604C104.747 84.86 104.207 84.488 103.535 84.488C102.863 84.488 102.317 84.86 101.897 85.604C101.489 86.336 101.285 87.542 101.285 89.222C101.285 90.902 101.489 92.126 101.897 92.894C102.317 93.65 102.863 94.028 103.535 94.028Z"
     fill="black"
     id="path74" />
  <line
     x1="174.5"
     y1="491"
     x2="174.5"
     y2="497"
     stroke="#1A1B24"
     id="line76" />
  <line
     x1="276.5"
     y1="491"
     x2="276.5"
     y2="497"
     stroke="#1A1B24"
     id="line78" />
  <line
     x1="378.5"
     y1="491"
     x2="378.5"
     y2="497"
     stroke="#1A1B24"
     id="line80" />
  <line
     x1="480.5"
     y1="489"
     x2="480.5"
     y2="495"
     stroke="#1A1B24"
     id="line82" />
  <line
     x1="582.5"
     y1="489"
     x2="582.5"
     y2="495"
     stroke="#1A1B24"
     id="line84" />
  <line
     x1="684.5"
     y1="491"
     x2="684.5"
     y2="497"
     stroke="#1A1B24"
     id="line86" />
  <path
     d="M173.508 515.216C172.356 515.216 171.45 514.7 170.79 513.668C170.142 512.624 169.818 511.142 169.818 509.222C169.818 507.29 170.142 505.82 170.79 504.812C171.45 503.804 172.356 503.3 173.508 503.3C174.648 503.3 175.542 503.804 176.19 504.812C176.85 505.82 177.18 507.29 177.18 509.222C177.18 511.142 176.85 512.624 176.19 513.668C175.542 514.7 174.648 515.216 173.508 515.216ZM173.508 514.028C174.18 514.028 174.72 513.65 175.128 512.894C175.536 512.126 175.74 510.902 175.74 509.222C175.74 507.542 175.536 506.336 175.128 505.604C174.72 504.86 174.18 504.488 173.508 504.488C172.836 504.488 172.29 504.86 171.87 505.604C171.462 506.336 171.258 507.542 171.258 509.222C171.258 510.902 171.462 512.126 171.87 512.894C172.29 513.65 172.836 514.028 173.508 514.028Z"
     fill="black"
     id="path88" />
  <path
     d="M275.238 515.216C274.326 515.216 273.57 515.054 272.97 514.73C272.37 514.406 271.872 514.046 271.476 513.65L272.196 512.678C272.544 513.014 272.946 513.32 273.402 513.596C273.858 513.86 274.422 513.992 275.094 513.992C275.802 513.992 276.396 513.758 276.876 513.29C277.368 512.81 277.614 512.168 277.614 511.364C277.614 510.572 277.392 509.954 276.948 509.51C276.504 509.066 275.91 508.844 275.166 508.844C274.77 508.844 274.428 508.904 274.14 509.024C273.864 509.144 273.552 509.318 273.204 509.546L272.412 509.042L272.79 503.516H278.532V504.794H274.086L273.78 508.196C274.056 508.052 274.332 507.938 274.608 507.854C274.884 507.77 275.196 507.728 275.544 507.728C276.204 507.728 276.798 507.86 277.326 508.124C277.866 508.376 278.298 508.766 278.622 509.294C278.946 509.822 279.108 510.5 279.108 511.328C279.108 512.156 278.922 512.864 278.55 513.452C278.19 514.028 277.716 514.466 277.128 514.766C276.54 515.066 275.91 515.216 275.238 515.216Z"
     fill="black"
     id="path90" />
  <path
     d="M370.475 515V513.776H373.103V505.316H371.015V504.362C371.543 504.266 371.999 504.152 372.383 504.02C372.779 503.876 373.133 503.708 373.445 503.516H374.579V513.776H376.955V515H370.475ZM382.482 515.216C381.33 515.216 380.424 514.7 379.764 513.668C379.116 512.624 378.792 511.142 378.792 509.222C378.792 507.29 379.116 505.82 379.764 504.812C380.424 503.804 381.33 503.3 382.482 503.3C383.622 503.3 384.516 503.804 385.164 504.812C385.824 505.82 386.154 507.29 386.154 509.222C386.154 511.142 385.824 512.624 385.164 513.668C384.516 514.7 383.622 515.216 382.482 515.216ZM382.482 514.028C383.154 514.028 383.694 513.65 384.102 512.894C384.51 512.126 384.714 510.902 384.714 509.222C384.714 507.542 384.51 506.336 384.102 505.604C383.694 504.86 383.154 504.488 382.482 504.488C381.81 504.488 381.264 504.86 380.844 505.604C380.436 506.336 380.232 507.542 380.232 509.222C380.232 510.902 380.436 512.126 380.844 512.894C381.264 513.65 381.81 514.028 382.482 514.028Z"
     fill="black"
     id="path92" />
  <path
     d="M472.475 515V513.776H475.103V505.316H473.015V504.362C473.543 504.266 473.999 504.152 474.383 504.02C474.779 503.876 475.133 503.708 475.445 503.516H476.579V513.776H478.955V515H472.475ZM484.212 515.216C483.3 515.216 482.544 515.054 481.944 514.73C481.344 514.406 480.846 514.046 480.45 513.65L481.17 512.678C481.518 513.014 481.92 513.32 482.376 513.596C482.832 513.86 483.396 513.992 484.068 513.992C484.776 513.992 485.37 513.758 485.85 513.29C486.342 512.81 486.588 512.168 486.588 511.364C486.588 510.572 486.366 509.954 485.922 509.51C485.478 509.066 484.884 508.844 484.14 508.844C483.744 508.844 483.402 508.904 483.114 509.024C482.838 509.144 482.526 509.318 482.178 509.546L481.386 509.042L481.764 503.516H487.506V504.794H483.06L482.754 508.196C483.03 508.052 483.306 507.938 483.582 507.854C483.858 507.77 484.17 507.728 484.518 507.728C485.178 507.728 485.772 507.86 486.3 508.124C486.84 508.376 487.272 508.766 487.596 509.294C487.92 509.822 488.082 510.5 488.082 511.328C488.082 512.156 487.896 512.864 487.524 513.452C487.164 514.028 486.69 514.466 486.102 514.766C485.514 515.066 484.884 515.216 484.212 515.216Z"
     fill="black"
     id="path94" />
  <path
     d="M573.773 515V514.118C574.925 512.966 575.903 511.958 576.707 511.094C577.511 510.218 578.123 509.432 578.543 508.736C578.963 508.028 579.173 507.368 579.173 506.756C579.173 506.096 578.993 505.556 578.633 505.136C578.273 504.716 577.727 504.506 576.995 504.506C576.515 504.506 576.071 504.644 575.663 504.92C575.255 505.184 574.883 505.508 574.547 505.892L573.701 505.046C574.181 504.518 574.691 504.098 575.231 503.786C575.783 503.462 576.431 503.3 577.175 503.3C578.243 503.3 579.083 503.612 579.695 504.236C580.307 504.848 580.613 505.664 580.613 506.684C580.613 507.404 580.409 508.136 580.001 508.88C579.605 509.612 579.053 510.386 578.345 511.202C577.649 512.006 576.845 512.882 575.933 513.83C576.245 513.806 576.569 513.782 576.905 513.758C577.241 513.734 577.559 513.722 577.859 513.722H581.189V515H573.773ZM586.482 515.216C585.33 515.216 584.424 514.7 583.764 513.668C583.116 512.624 582.792 511.142 582.792 509.222C582.792 507.29 583.116 505.82 583.764 504.812C584.424 503.804 585.33 503.3 586.482 503.3C587.622 503.3 588.516 503.804 589.164 504.812C589.824 505.82 590.154 507.29 590.154 509.222C590.154 511.142 589.824 512.624 589.164 513.668C588.516 514.7 587.622 515.216 586.482 515.216ZM586.482 514.028C587.154 514.028 587.694 513.65 588.102 512.894C588.51 512.126 588.714 510.902 588.714 509.222C588.714 507.542 588.51 506.336 588.102 505.604C587.694 504.86 587.154 504.488 586.482 504.488C585.81 504.488 585.264 504.86 584.844 505.604C584.436 506.336 584.232 507.542 584.232 509.222C584.232 510.902 584.436 512.126 584.844 512.894C585.264 513.65 585.81 514.028 586.482 514.028Z"
     fill="black"
     id="path96" />
  <path
     d="M675.773 515V514.118C676.925 512.966 677.903 511.958 678.707 511.094C679.511 510.218 680.123 509.432 680.543 508.736C680.963 508.028 681.173 507.368 681.173 506.756C681.173 506.096 680.993 505.556 680.633 505.136C680.273 504.716 679.727 504.506 678.995 504.506C678.515 504.506 678.071 504.644 677.663 504.92C677.255 505.184 676.883 505.508 676.547 505.892L675.701 505.046C676.181 504.518 676.691 504.098 677.231 503.786C677.783 503.462 678.431 503.3 679.175 503.3C680.243 503.3 681.083 503.612 681.695 504.236C682.307 504.848 682.613 505.664 682.613 506.684C682.613 507.404 682.409 508.136 682.001 508.88C681.605 509.612 681.053 510.386 680.345 511.202C679.649 512.006 678.845 512.882 677.933 513.83C678.245 513.806 678.569 513.782 678.905 513.758C679.241 513.734 679.559 513.722 679.859 513.722H683.189V515H675.773ZM688.212 515.216C687.3 515.216 686.544 515.054 685.944 514.73C685.344 514.406 684.846 514.046 684.45 513.65L685.17 512.678C685.518 513.014 685.92 513.32 686.376 513.596C686.832 513.86 687.396 513.992 688.068 513.992C688.776 513.992 689.37 513.758 689.85 513.29C690.342 512.81 690.588 512.168 690.588 511.364C690.588 510.572 690.366 509.954 689.922 509.51C689.478 509.066 688.884 508.844 688.14 508.844C687.744 508.844 687.402 508.904 687.114 509.024C686.838 509.144 686.526 509.318 686.178 509.546L685.386 509.042L685.764 503.516H691.506V504.794H687.06L686.754 508.196C687.03 508.052 687.306 507.938 687.582 507.854C687.858 507.77 688.17 507.728 688.518 507.728C689.178 507.728 689.772 507.86 690.3 508.124C690.84 508.376 691.272 508.766 691.596 509.294C691.92 509.822 692.082 510.5 692.082 511.328C692.082 512.156 691.896 512.864 691.524 513.452C691.164 514.028 690.69 514.466 690.102 514.766C689.514 515.066 688.884 515.216 688.212 515.216Z"
     fill="black"
     id="path98" />
  <rect
     x="193"
     y="93"
     width="27"
     height="396"
     fill="#FFDFCA"
     id="rect100" />
  <rect
     x="220"
     y="371"
     width="29"
     height="118"
     fill="#FFDFCA"
     id="rect102" />
  <rect
     x="249"
     y="419"
     width="27"
     height="70"
     fill="#FFDFCA"
     id="rect104" />
  <rect
     x="277"
     y="450"
     width="39"
     height="39"
     fill="#FFDFCA"
     id="rect106" />
  <rect
     x="316"
     y="455"
     width="32"
     height="34"
     fill="#FFDFCA"
     id="rect108" />
  <rect
     x="348"
     y="464"
     width="30"
     height="25"
     fill="#FFDFCA"
     id="rect110" />
  <rect
     x="379"
     y="464"
     width="30"
     height="25"
     fill="#FFDFCA"
     id="rect112" />
  <rect
     x="409"
     y="468"
     width="30"
     height="21"
     fill="#FFDFCA"
     id="rect114" />
  <rect
     x="439"
     y="471"
     width="41"
     height="18"
     fill="#FFDFCA"
     id="rect116" />
  <rect
     x="481"
     y="475"
     width="41"
     height="14"
     fill="#FFDFCA"
     id="rect118" />
  <rect
     x="522"
     y="480"
     width="41"
     height="9"
     fill="#FFDFCA"
     id="rect120" />
  <rect
     x="963"
     y="53"
     width="663"
     height="437"
     rx="1"
     stroke="#1A1B24"
     stroke-width="2"
     id="rect122" />
  <line
     x1="962"
     y1="142.5"
     x2="1627"
     y2="142.5"
     stroke="#1A1B24"
     stroke-dasharray="2 2"
     id="line130" />
  <line
     x1="962"
     y1="229.5"
     x2="1627"
     y2="229.5"
     stroke="#1A1B24"
     stroke-dasharray="2 2"
     id="line132" />
  <line
     x1="962"
     y1="323.5"
     x2="1627"
     y2="323.5"
     stroke="#1A1B24"
     stroke-dasharray="2 2"
     id="line134" />
  <line
     x1="962"
     y1="413.5"
     x2="1627"
     y2="413.5"
     stroke="#1A1B24"
     stroke-dasharray="2 2"
     id="line136" />
  <line
     x1="1010.5"
     y1="52"
     x2="1010.5"
     y2="491"
     stroke="#1A1B24"
     stroke-dasharray="2 2"
     id="line138" />
  <line
     x1="1112.5"
     y1="52"
     x2="1112.5"
     y2="491"
     stroke="#1A1B24"
     stroke-dasharray="2 2"
     id="line140" />
  <line
     x1="1214.5"
     y1="52"
     x2="1214.5"
     y2="491"
     stroke="#1A1B24"
     stroke-dasharray="2 2"
     id="line142" />
  <line
     x1="1316.5"
     y1="52"
     x2="1316.5"
     y2="491"
     stroke="#1A1B24"
     stroke-dasharray="2 2"
     id="line144" />
  <line
     x1="1418.5"
     y1="52"
     x2="1418.5"
     y2="491"
     stroke="#1A1B24"
     stroke-dasharray="2 2"
     id="line146" />
  <line
     x1="1520.5"
     y1="52"
     x2="1520.5"
     y2="491"
     stroke="#1A1B24"
     stroke-dasharray="2 2"
     id="line148" />
  <line
     x1="964"
     y1="490"
     x2="950"
     y2="490"
     stroke="#1A1B24"
     stroke-width="2"
     id="line150" />
  <line
     x1="962"
     y1="414"
     x2="948"
     y2="414"
     stroke="#1A1B24"
     stroke-width="2"
     id="line152" />
  <line
     x1="962"
     y1="324"
     x2="948"
     y2="324"
     stroke="#1A1B24"
     stroke-width="2"
     id="line154" />
  <line
     x1="962"
     y1="230"
     x2="948"
     y2="230"
     stroke="#1A1B24"
     stroke-width="2"
     id="line156" />
  <line
     x1="962"
     y1="142"
     x2="948"
     y2="142"
     stroke="#1A1B24"
     stroke-width="2"
     id="line158" />
  <path
     d="M934.508 496.216C933.356 496.216 932.45 495.7 931.79 494.668C931.142 493.624 930.818 492.142 930.818 490.222C930.818 488.29 931.142 486.82 931.79 485.812C932.45 484.804 933.356 484.3 934.508 484.3C935.648 484.3 936.542 484.804 937.19 485.812C937.85 486.82 938.18 488.29 938.18 490.222C938.18 492.142 937.85 493.624 937.19 494.668C936.542 495.7 935.648 496.216 934.508 496.216ZM934.508 495.028C935.18 495.028 935.72 494.65 936.128 493.894C936.536 493.126 936.74 491.902 936.74 490.222C936.74 488.542 936.536 487.336 936.128 486.604C935.72 485.86 935.18 485.488 934.508 485.488C933.836 485.488 933.29 485.86 932.87 486.604C932.462 487.336 932.258 488.542 932.258 490.222C932.258 491.902 932.462 493.126 932.87 493.894C933.29 494.65 933.836 495.028 934.508 495.028Z"
     fill="#1A1B24"
     id="path160" />
  <path
     d="M908.931 418V417.118C910.083 415.966 911.061 414.958 911.865 414.094C912.669 413.218 913.281 412.432 913.701 411.736C914.121 411.028 914.331 410.368 914.331 409.756C914.331 409.096 914.151 408.556 913.791 408.136C913.431 407.716 912.885 407.506 912.153 407.506C911.673 407.506 911.229 407.644 910.821 407.92C910.413 408.184 910.041 408.508 909.705 408.892L908.859 408.046C909.339 407.518 909.849 407.098 910.389 406.786C910.941 406.462 911.589 406.3 912.333 406.3C913.401 406.3 914.241 406.612 914.853 407.236C915.465 407.848 915.771 408.664 915.771 409.684C915.771 410.404 915.567 411.136 915.159 411.88C914.763 412.612 914.211 413.386 913.503 414.202C912.807 415.006 912.003 415.882 911.091 416.83C911.403 416.806 911.727 416.782 912.063 416.758C912.399 416.734 912.717 416.722 913.017 416.722H916.347V418H908.931ZM921.64 418.216C920.488 418.216 919.582 417.7 918.922 416.668C918.274 415.624 917.95 414.142 917.95 412.222C917.95 410.29 918.274 408.82 918.922 407.812C919.582 406.804 920.488 406.3 921.64 406.3C922.78 406.3 923.674 406.804 924.322 407.812C924.982 408.82 925.312 410.29 925.312 412.222C925.312 414.142 924.982 415.624 924.322 416.668C923.674 417.7 922.78 418.216 921.64 418.216ZM921.64 417.028C922.312 417.028 922.852 416.65 923.26 415.894C923.668 415.126 923.872 413.902 923.872 412.222C923.872 410.542 923.668 409.336 923.26 408.604C922.852 407.86 922.312 407.488 921.64 407.488C920.968 407.488 920.422 407.86 920.002 408.604C919.594 409.336 919.39 410.542 919.39 412.222C919.39 413.902 919.594 415.126 920.002 415.894C920.422 416.65 920.968 417.028 921.64 417.028ZM930.587 418.216C929.435 418.216 928.529 417.7 927.869 416.668C927.221 415.624 926.897 414.142 926.897 412.222C926.897 410.29 927.221 408.82 927.869 407.812C928.529 406.804 929.435 406.3 930.587 406.3C931.727 406.3 932.621 406.804 933.269 407.812C933.929 408.82 934.259 410.29 934.259 412.222C934.259 414.142 933.929 415.624 933.269 416.668C932.621 417.7 931.727 418.216 930.587 418.216ZM930.587 417.028C931.259 417.028 931.799 416.65 932.207 415.894C932.615 415.126 932.819 413.902 932.819 412.222C932.819 410.542 932.615 409.336 932.207 408.604C931.799 407.86 931.259 407.488 930.587 407.488C929.915 407.488 929.369 407.86 928.949 408.604C928.541 409.336 928.337 410.542 928.337 412.222C928.337 413.902 928.541 415.126 928.949 415.894C929.369 416.65 929.915 417.028 930.587 417.028ZM939.535 418.216C938.383 418.216 937.477 417.7 936.817 416.668C936.169 415.624 935.845 414.142 935.845 412.222C935.845 410.29 936.169 408.82 936.817 407.812C937.477 406.804 938.383 406.3 939.535 406.3C940.675 406.3 941.569 406.804 942.217 407.812C942.877 408.82 943.207 410.29 943.207 412.222C943.207 414.142 942.877 415.624 942.217 416.668C941.569 417.7 940.675 418.216 939.535 418.216ZM939.535 417.028C940.207 417.028 940.747 416.65 941.155 415.894C941.563 415.126 941.767 413.902 941.767 412.222C941.767 410.542 941.563 409.336 941.155 408.604C940.747 407.86 940.207 407.488 939.535 407.488C938.863 407.488 938.317 407.86 937.897 408.604C937.489 409.336 937.285 410.542 937.285 412.222C937.285 413.902 937.489 415.126 937.897 415.894C938.317 416.65 938.863 417.028 939.535 417.028Z"
     fill="#1A1B24"
     id="path162" />
  <path
     d="M910.083 323.644H913.683V320.314C913.683 320.002 913.695 319.63 913.719 319.198C913.743 318.766 913.761 318.4 913.773 318.1H913.701C913.557 318.376 913.407 318.646 913.251 318.91C913.095 319.174 912.933 319.444 912.765 319.72L910.083 323.644ZM913.683 328V324.832H908.517V323.86L913.431 316.516H915.087V323.644H916.653V324.832H915.087V328H913.683ZM921.64 328.216C920.488 328.216 919.582 327.7 918.922 326.668C918.274 325.624 917.95 324.142 917.95 322.222C917.95 320.29 918.274 318.82 918.922 317.812C919.582 316.804 920.488 316.3 921.64 316.3C922.78 316.3 923.674 316.804 924.322 317.812C924.982 318.82 925.312 320.29 925.312 322.222C925.312 324.142 924.982 325.624 924.322 326.668C923.674 327.7 922.78 328.216 921.64 328.216ZM921.64 327.028C922.312 327.028 922.852 326.65 923.26 325.894C923.668 325.126 923.872 323.902 923.872 322.222C923.872 320.542 923.668 319.336 923.26 318.604C922.852 317.86 922.312 317.488 921.64 317.488C920.968 317.488 920.422 317.86 920.002 318.604C919.594 319.336 919.39 320.542 919.39 322.222C919.39 323.902 919.594 325.126 920.002 325.894C920.422 326.65 920.968 327.028 921.64 327.028ZM930.587 328.216C929.435 328.216 928.529 327.7 927.869 326.668C927.221 325.624 926.897 324.142 926.897 322.222C926.897 320.29 927.221 318.82 927.869 317.812C928.529 316.804 929.435 316.3 930.587 316.3C931.727 316.3 932.621 316.804 933.269 317.812C933.929 318.82 934.259 320.29 934.259 322.222C934.259 324.142 933.929 325.624 933.269 326.668C932.621 327.7 931.727 328.216 930.587 328.216ZM930.587 327.028C931.259 327.028 931.799 326.65 932.207 325.894C932.615 325.126 932.819 323.902 932.819 322.222C932.819 320.542 932.615 319.336 932.207 318.604C931.799 317.86 931.259 317.488 930.587 317.488C929.915 317.488 929.369 317.86 928.949 318.604C928.541 319.336 928.337 320.542 928.337 322.222C928.337 323.902 928.541 325.126 928.949 325.894C929.369 326.65 929.915 327.028 930.587 327.028ZM939.535 328.216C938.383 328.216 937.477 327.7 936.817 326.668C936.169 325.624 935.845 324.142 935.845 322.222C935.845 320.29 936.169 318.82 936.817 317.812C937.477 316.804 938.383 316.3 939.535 316.3C940.675 316.3 941.569 316.804 942.217 317.812C942.877 318.82 943.207 320.29 943.207 322.222C943.207 324.142 942.877 325.624 942.217 326.668C941.569 327.7 940.675 328.216 939.535 328.216ZM939.535 327.028C940.207 327.028 940.747 326.65 941.155 325.894C941.563 325.126 941.767 323.902 941.767 322.222C941.767 320.542 941.563 319.336 941.155 318.604C940.747 317.86 940.207 317.488 939.535 317.488C938.863 317.488 938.317 317.86 937.897 318.604C937.489 319.336 937.285 320.542 937.285 322.222C937.285 323.902 937.489 325.126 937.897 325.894C938.317 326.65 938.863 327.028 939.535 327.028Z"
     fill="#1A1B24"
     id="path164" />
  <path
     d="M912.909 228.096C912.537 228.096 912.135 228.216 911.703 228.456C911.271 228.696 910.875 229.08 910.515 229.608C910.611 230.724 910.869 231.576 911.289 232.164C911.721 232.752 912.303 233.046 913.035 233.046C913.599 233.046 914.073 232.818 914.457 232.362C914.841 231.894 915.033 231.282 915.033 230.526C915.033 229.782 914.853 229.194 914.493 228.762C914.145 228.318 913.617 228.096 912.909 228.096ZM913.035 234.216C912.291 234.216 911.619 234.012 911.019 233.604C910.419 233.196 909.945 232.584 909.597 231.768C909.249 230.94 909.075 229.914 909.075 228.69C909.075 227.154 909.279 225.918 909.687 224.982C910.107 224.046 910.647 223.368 911.307 222.948C911.979 222.516 912.693 222.3 913.449 222.3C914.073 222.3 914.607 222.42 915.051 222.66C915.507 222.888 915.897 223.176 916.221 223.524L915.393 224.442C915.165 224.166 914.883 223.95 914.547 223.794C914.211 223.626 913.863 223.542 913.503 223.542C912.963 223.542 912.471 223.698 912.027 224.01C911.583 224.31 911.217 224.82 910.929 225.54C910.653 226.248 910.503 227.208 910.479 228.42C910.839 227.976 911.259 227.628 911.739 227.376C912.219 227.112 912.693 226.98 913.161 226.98C914.157 226.98 914.949 227.28 915.537 227.88C916.137 228.468 916.437 229.35 916.437 230.526C916.437 231.258 916.281 231.9 915.969 232.452C915.657 233.004 915.243 233.436 914.727 233.748C914.223 234.06 913.659 234.216 913.035 234.216ZM921.64 234.216C920.488 234.216 919.582 233.7 918.922 232.668C918.274 231.624 917.95 230.142 917.95 228.222C917.95 226.29 918.274 224.82 918.922 223.812C919.582 222.804 920.488 222.3 921.64 222.3C922.78 222.3 923.674 222.804 924.322 223.812C924.982 224.82 925.312 226.29 925.312 228.222C925.312 230.142 924.982 231.624 924.322 232.668C923.674 233.7 922.78 234.216 921.64 234.216ZM921.64 233.028C922.312 233.028 922.852 232.65 923.26 231.894C923.668 231.126 923.872 229.902 923.872 228.222C923.872 226.542 923.668 225.336 923.26 224.604C922.852 223.86 922.312 223.488 921.64 223.488C920.968 223.488 920.422 223.86 920.002 224.604C919.594 225.336 919.39 226.542 919.39 228.222C919.39 229.902 919.594 231.126 920.002 231.894C920.422 232.65 920.968 233.028 921.64 233.028ZM930.587 234.216C929.435 234.216 928.529 233.7 927.869 232.668C927.221 231.624 926.897 230.142 926.897 228.222C926.897 226.29 927.221 224.82 927.869 223.812C928.529 222.804 929.435 222.3 930.587 222.3C931.727 222.3 932.621 222.804 933.269 223.812C933.929 224.82 934.259 226.29 934.259 228.222C934.259 230.142 933.929 231.624 933.269 232.668C932.621 233.7 931.727 234.216 930.587 234.216ZM930.587 233.028C931.259 233.028 931.799 232.65 932.207 231.894C932.615 231.126 932.819 229.902 932.819 228.222C932.819 226.542 932.615 225.336 932.207 224.604C931.799 223.86 931.259 223.488 930.587 223.488C929.915 223.488 929.369 223.86 928.949 224.604C928.541 225.336 928.337 226.542 928.337 228.222C928.337 229.902 928.541 231.126 928.949 231.894C929.369 232.65 929.915 233.028 930.587 233.028ZM939.535 234.216C938.383 234.216 937.477 233.7 936.817 232.668C936.169 231.624 935.845 230.142 935.845 228.222C935.845 226.29 936.169 224.82 936.817 223.812C937.477 222.804 938.383 222.3 939.535 222.3C940.675 222.3 941.569 222.804 942.217 223.812C942.877 224.82 943.207 226.29 943.207 228.222C943.207 230.142 942.877 231.624 942.217 232.668C941.569 233.7 940.675 234.216 939.535 234.216ZM939.535 233.028C940.207 233.028 940.747 232.65 941.155 231.894C941.563 231.126 941.767 229.902 941.767 228.222C941.767 226.542 941.563 225.336 941.155 224.604C940.747 223.86 940.207 223.488 939.535 223.488C938.863 223.488 938.317 223.86 937.897 224.604C937.489 225.336 937.285 226.542 937.285 228.222C937.285 229.902 937.489 231.126 937.897 231.894C938.317 232.65 938.863 233.028 939.535 233.028Z"
     fill="#1A1B24"
     id="path166" />
  <path
     d="M912.711 146.216C911.991 146.216 911.349 146.084 910.785 145.82C910.221 145.544 909.771 145.166 909.435 144.686C909.111 144.206 908.949 143.666 908.949 143.066C908.949 142.562 909.051 142.118 909.255 141.734C909.471 141.338 909.741 140.996 910.065 140.708C910.401 140.408 910.749 140.162 911.109 139.97V139.898C910.689 139.598 910.317 139.232 909.993 138.8C909.669 138.368 909.507 137.852 909.507 137.252C909.507 136.664 909.651 136.148 909.939 135.704C910.227 135.26 910.617 134.918 911.109 134.678C911.601 134.426 912.153 134.3 912.765 134.3C913.761 134.3 914.547 134.588 915.123 135.164C915.711 135.74 916.005 136.472 916.005 137.36C916.005 137.756 915.921 138.134 915.753 138.494C915.585 138.842 915.381 139.16 915.141 139.448C914.901 139.724 914.661 139.952 914.421 140.132V140.204C914.769 140.396 915.093 140.624 915.393 140.888C915.693 141.152 915.939 141.47 916.131 141.842C916.323 142.202 916.419 142.64 916.419 143.156C916.419 143.72 916.263 144.236 915.951 144.704C915.651 145.172 915.219 145.544 914.655 145.82C914.103 146.084 913.455 146.216 912.711 146.216ZM913.521 139.736C913.905 139.388 914.199 139.022 914.403 138.638C914.619 138.254 914.727 137.852 914.727 137.432C914.727 136.868 914.553 136.388 914.205 135.992C913.857 135.596 913.365 135.398 912.729 135.398C912.201 135.398 911.757 135.566 911.397 135.902C911.049 136.238 910.875 136.688 910.875 137.252C910.875 137.708 910.995 138.086 911.235 138.386C911.487 138.686 911.817 138.944 912.225 139.16C912.633 139.364 913.065 139.556 913.521 139.736ZM912.747 145.118C913.419 145.118 913.959 144.932 914.367 144.56C914.787 144.176 914.997 143.69 914.997 143.102C914.997 142.61 914.853 142.208 914.565 141.896C914.277 141.584 913.893 141.314 913.413 141.086C912.945 140.858 912.435 140.636 911.883 140.42C911.427 140.72 911.043 141.08 910.731 141.5C910.431 141.92 910.281 142.394 910.281 142.922C910.281 143.558 910.515 144.086 910.983 144.506C911.463 144.914 912.051 145.118 912.747 145.118ZM921.64 146.216C920.488 146.216 919.582 145.7 918.922 144.668C918.274 143.624 917.95 142.142 917.95 140.222C917.95 138.29 918.274 136.82 918.922 135.812C919.582 134.804 920.488 134.3 921.64 134.3C922.78 134.3 923.674 134.804 924.322 135.812C924.982 136.82 925.312 138.29 925.312 140.222C925.312 142.142 924.982 143.624 924.322 144.668C923.674 145.7 922.78 146.216 921.64 146.216ZM921.64 145.028C922.312 145.028 922.852 144.65 923.26 143.894C923.668 143.126 923.872 141.902 923.872 140.222C923.872 138.542 923.668 137.336 923.26 136.604C922.852 135.86 922.312 135.488 921.64 135.488C920.968 135.488 920.422 135.86 920.002 136.604C919.594 137.336 919.39 138.542 919.39 140.222C919.39 141.902 919.594 143.126 920.002 143.894C920.422 144.65 920.968 145.028 921.64 145.028ZM930.587 146.216C929.435 146.216 928.529 145.7 927.869 144.668C927.221 143.624 926.897 142.142 926.897 140.222C926.897 138.29 927.221 136.82 927.869 135.812C928.529 134.804 929.435 134.3 930.587 134.3C931.727 134.3 932.621 134.804 933.269 135.812C933.929 136.82 934.259 138.29 934.259 140.222C934.259 142.142 933.929 143.624 933.269 144.668C932.621 145.7 931.727 146.216 930.587 146.216ZM930.587 145.028C931.259 145.028 931.799 144.65 932.207 143.894C932.615 143.126 932.819 141.902 932.819 140.222C932.819 138.542 932.615 137.336 932.207 136.604C931.799 135.86 931.259 135.488 930.587 135.488C929.915 135.488 929.369 135.86 928.949 136.604C928.541 137.336 928.337 138.542 928.337 140.222C928.337 141.902 928.541 143.126 928.949 143.894C929.369 144.65 929.915 145.028 930.587 145.028ZM939.535 146.216C938.383 146.216 937.477 145.7 936.817 144.668C936.169 143.624 935.845 142.142 935.845 140.222C935.845 138.29 936.169 136.82 936.817 135.812C937.477 134.804 938.383 134.3 939.535 134.3C940.675 134.3 941.569 134.804 942.217 135.812C942.877 136.82 943.207 138.29 943.207 140.222C943.207 142.142 942.877 143.624 942.217 144.668C941.569 145.7 940.675 146.216 939.535 146.216ZM939.535 145.028C940.207 145.028 940.747 144.65 941.155 143.894C941.563 143.126 941.767 141.902 941.767 140.222C941.767 138.542 941.563 137.336 941.155 136.604C940.747 135.86 940.207 135.488 939.535 135.488C938.863 135.488 938.317 135.86 937.897 136.604C937.489 137.336 937.285 138.542 937.285 140.222C937.285 141.902 937.489 143.126 937.897 143.894C938.317 144.65 938.863 145.028 939.535 145.028Z"
     fill="#1A1B24"
     id="path168" />
  <line
     x1="1010.5"
     y1="491"
     x2="1010.5"
     y2="497"
     stroke="#1A1B24"
     id="line170" />
  <line
     x1="1112.5"
     y1="491"
     x2="1112.5"
     y2="497"
     stroke="#1A1B24"
     id="line172" />
  <line
     x1="1214.5"
     y1="491"
     x2="1214.5"
     y2="497"
     stroke="#1A1B24"
     id="line174" />
  <line
     x1="1316.5"
     y1="489"
     x2="1316.5"
     y2="495"
     stroke="#1A1B24"
     id="line176" />
  <line
     x1="1418.5"
     y1="489"
     x2="1418.5"
     y2="495"
     stroke="#1A1B24"
     id="line178" />
  <line
     x1="1520.5"
     y1="491"
     x2="1520.5"
     y2="497"
     stroke="#1A1B24"
     id="line180" />
  <path
     d="M1009.51 515.216C1008.36 515.216 1007.45 514.7 1006.79 513.668C1006.14 512.624 1005.82 511.142 1005.82 509.222C1005.82 507.29 1006.14 505.82 1006.79 504.812C1007.45 503.804 1008.36 503.3 1009.51 503.3C1010.65 503.3 1011.54 503.804 1012.19 504.812C1012.85 505.82 1013.18 507.29 1013.18 509.222C1013.18 511.142 1012.85 512.624 1012.19 513.668C1011.54 514.7 1010.65 515.216 1009.51 515.216ZM1009.51 514.028C1010.18 514.028 1010.72 513.65 1011.13 512.894C1011.54 512.126 1011.74 510.902 1011.74 509.222C1011.74 507.542 1011.54 506.336 1011.13 505.604C1010.72 504.86 1010.18 504.488 1009.51 504.488C1008.84 504.488 1008.29 504.86 1007.87 505.604C1007.46 506.336 1007.26 507.542 1007.26 509.222C1007.26 510.902 1007.46 512.126 1007.87 512.894C1008.29 513.65 1008.84 514.028 1009.51 514.028Z"
     fill="#1A1B24"
     id="path182" />
  <path
     d="M1099.5 515V513.776H1102.13V505.316H1100.04V504.362C1100.57 504.266 1101.03 504.152 1101.41 504.02C1101.81 503.876 1102.16 503.708 1102.47 503.516H1103.61V513.776H1105.98V515H1099.5ZM1111.51 515.216C1110.36 515.216 1109.45 514.7 1108.79 513.668C1108.14 512.624 1107.82 511.142 1107.82 509.222C1107.82 507.29 1108.14 505.82 1108.79 504.812C1109.45 503.804 1110.36 503.3 1111.51 503.3C1112.65 503.3 1113.54 503.804 1114.19 504.812C1114.85 505.82 1115.18 507.29 1115.18 509.222C1115.18 511.142 1114.85 512.624 1114.19 513.668C1113.54 514.7 1112.65 515.216 1111.51 515.216ZM1111.51 514.028C1112.18 514.028 1112.72 513.65 1113.13 512.894C1113.54 512.126 1113.74 510.902 1113.74 509.222C1113.74 507.542 1113.54 506.336 1113.13 505.604C1112.72 504.86 1112.18 504.488 1111.51 504.488C1110.84 504.488 1110.29 504.86 1109.87 505.604C1109.46 506.336 1109.26 507.542 1109.26 509.222C1109.26 510.902 1109.46 512.126 1109.87 512.894C1110.29 513.65 1110.84 514.028 1111.51 514.028ZM1120.46 515.216C1119.3 515.216 1118.4 514.7 1117.74 513.668C1117.09 512.624 1116.77 511.142 1116.77 509.222C1116.77 507.29 1117.09 505.82 1117.74 504.812C1118.4 503.804 1119.3 503.3 1120.46 503.3C1121.6 503.3 1122.49 503.804 1123.14 504.812C1123.8 505.82 1124.13 507.29 1124.13 509.222C1124.13 511.142 1123.8 512.624 1123.14 513.668C1122.49 514.7 1121.6 515.216 1120.46 515.216ZM1120.46 514.028C1121.13 514.028 1121.67 513.65 1122.08 512.894C1122.48 512.126 1122.69 510.902 1122.69 509.222C1122.69 507.542 1122.48 506.336 1122.08 505.604C1121.67 504.86 1121.13 504.488 1120.46 504.488C1119.78 504.488 1119.24 504.86 1118.82 505.604C1118.41 506.336 1118.21 507.542 1118.21 509.222C1118.21 510.902 1118.41 512.126 1118.82 512.894C1119.24 513.65 1119.78 514.028 1120.46 514.028Z"
     fill="#1A1B24"
     id="path184" />
  <path
     d="M1201.8 515V514.118C1202.95 512.966 1203.93 511.958 1204.73 511.094C1205.54 510.218 1206.15 509.432 1206.57 508.736C1206.99 508.028 1207.2 507.368 1207.2 506.756C1207.2 506.096 1207.02 505.556 1206.66 505.136C1206.3 504.716 1205.75 504.506 1205.02 504.506C1204.54 504.506 1204.1 504.644 1203.69 504.92C1203.28 505.184 1202.91 505.508 1202.57 505.892L1201.73 505.046C1202.21 504.518 1202.72 504.098 1203.26 503.786C1203.81 503.462 1204.46 503.3 1205.2 503.3C1206.27 503.3 1207.11 503.612 1207.72 504.236C1208.33 504.848 1208.64 505.664 1208.64 506.684C1208.64 507.404 1208.44 508.136 1208.03 508.88C1207.63 509.612 1207.08 510.386 1206.37 511.202C1205.68 512.006 1204.87 512.882 1203.96 513.83C1204.27 513.806 1204.6 513.782 1204.93 513.758C1205.27 513.734 1205.59 513.722 1205.89 513.722H1209.22V515H1201.8ZM1214.51 515.216C1213.36 515.216 1212.45 514.7 1211.79 513.668C1211.14 512.624 1210.82 511.142 1210.82 509.222C1210.82 507.29 1211.14 505.82 1211.79 504.812C1212.45 503.804 1213.36 503.3 1214.51 503.3C1215.65 503.3 1216.54 503.804 1217.19 504.812C1217.85 505.82 1218.18 507.29 1218.18 509.222C1218.18 511.142 1217.85 512.624 1217.19 513.668C1216.54 514.7 1215.65 515.216 1214.51 515.216ZM1214.51 514.028C1215.18 514.028 1215.72 513.65 1216.13 512.894C1216.54 512.126 1216.74 510.902 1216.74 509.222C1216.74 507.542 1216.54 506.336 1216.13 505.604C1215.72 504.86 1215.18 504.488 1214.51 504.488C1213.84 504.488 1213.29 504.86 1212.87 505.604C1212.46 506.336 1212.26 507.542 1212.26 509.222C1212.26 510.902 1212.46 512.126 1212.87 512.894C1213.29 513.65 1213.84 514.028 1214.51 514.028ZM1223.46 515.216C1222.3 515.216 1221.4 514.7 1220.74 513.668C1220.09 512.624 1219.77 511.142 1219.77 509.222C1219.77 507.29 1220.09 505.82 1220.74 504.812C1221.4 503.804 1222.3 503.3 1223.46 503.3C1224.6 503.3 1225.49 503.804 1226.14 504.812C1226.8 505.82 1227.13 507.29 1227.13 509.222C1227.13 511.142 1226.8 512.624 1226.14 513.668C1225.49 514.7 1224.6 515.216 1223.46 515.216ZM1223.46 514.028C1224.13 514.028 1224.67 513.65 1225.08 512.894C1225.48 512.126 1225.69 510.902 1225.69 509.222C1225.69 507.542 1225.48 506.336 1225.08 505.604C1224.67 504.86 1224.13 504.488 1223.46 504.488C1222.78 504.488 1222.24 504.86 1221.82 505.604C1221.41 506.336 1221.21 507.542 1221.21 509.222C1221.21 510.902 1221.41 512.126 1221.82 512.894C1222.24 513.65 1222.78 514.028 1223.46 514.028Z"
     fill="#1A1B24"
     id="path186" />
  <path
     d="M1307.33 515.216C1306.42 515.216 1305.65 515.054 1305.04 514.73C1304.43 514.394 1303.93 514.016 1303.55 513.596L1304.3 512.624C1304.65 512.984 1305.06 513.302 1305.53 513.578C1306 513.854 1306.57 513.992 1307.24 513.992C1307.93 513.992 1308.5 513.8 1308.95 513.416C1309.39 513.032 1309.61 512.522 1309.61 511.886C1309.61 511.43 1309.49 511.034 1309.25 510.698C1309.03 510.35 1308.64 510.08 1308.1 509.888C1307.57 509.696 1306.85 509.6 1305.94 509.6V508.466C1306.76 508.466 1307.4 508.37 1307.87 508.178C1308.35 507.986 1308.69 507.728 1308.89 507.404C1309.1 507.08 1309.2 506.72 1309.2 506.324C1309.2 505.76 1309.02 505.316 1308.66 504.992C1308.31 504.668 1307.83 504.506 1307.22 504.506C1306.74 504.506 1306.3 504.614 1305.89 504.83C1305.49 505.046 1305.12 505.328 1304.77 505.676L1303.98 504.74C1304.42 504.32 1304.92 503.978 1305.46 503.714C1306 503.438 1306.6 503.3 1307.27 503.3C1308.27 503.3 1309.09 503.558 1309.74 504.074C1310.39 504.578 1310.71 505.292 1310.71 506.216C1310.71 506.912 1310.52 507.482 1310.14 507.926C1309.75 508.37 1309.25 508.712 1308.62 508.952V509.024C1309.32 509.18 1309.91 509.51 1310.39 510.014C1310.87 510.506 1311.11 511.148 1311.11 511.94C1311.11 512.612 1310.94 513.194 1310.6 513.686C1310.27 514.178 1309.81 514.556 1309.24 514.82C1308.67 515.084 1308.04 515.216 1307.33 515.216ZM1316.51 515.216C1315.36 515.216 1314.45 514.7 1313.79 513.668C1313.14 512.624 1312.82 511.142 1312.82 509.222C1312.82 507.29 1313.14 505.82 1313.79 504.812C1314.45 503.804 1315.36 503.3 1316.51 503.3C1317.65 503.3 1318.54 503.804 1319.19 504.812C1319.85 505.82 1320.18 507.29 1320.18 509.222C1320.18 511.142 1319.85 512.624 1319.19 513.668C1318.54 514.7 1317.65 515.216 1316.51 515.216ZM1316.51 514.028C1317.18 514.028 1317.72 513.65 1318.13 512.894C1318.54 512.126 1318.74 510.902 1318.74 509.222C1318.74 507.542 1318.54 506.336 1318.13 505.604C1317.72 504.86 1317.18 504.488 1316.51 504.488C1315.84 504.488 1315.29 504.86 1314.87 505.604C1314.46 506.336 1314.26 507.542 1314.26 509.222C1314.26 510.902 1314.46 512.126 1314.87 512.894C1315.29 513.65 1315.84 514.028 1316.51 514.028ZM1325.46 515.216C1324.3 515.216 1323.4 514.7 1322.74 513.668C1322.09 512.624 1321.77 511.142 1321.77 509.222C1321.77 507.29 1322.09 505.82 1322.74 504.812C1323.4 503.804 1324.3 503.3 1325.46 503.3C1326.6 503.3 1327.49 503.804 1328.14 504.812C1328.8 505.82 1329.13 507.29 1329.13 509.222C1329.13 511.142 1328.8 512.624 1328.14 513.668C1327.49 514.7 1326.6 515.216 1325.46 515.216ZM1325.46 514.028C1326.13 514.028 1326.67 513.65 1327.08 512.894C1327.48 512.126 1327.69 510.902 1327.69 509.222C1327.69 507.542 1327.48 506.336 1327.08 505.604C1326.67 504.86 1326.13 504.488 1325.46 504.488C1324.78 504.488 1324.24 504.86 1323.82 505.604C1323.41 506.336 1323.21 507.542 1323.21 509.222C1323.21 510.902 1323.41 512.126 1323.82 512.894C1324.24 513.65 1324.78 514.028 1325.46 514.028Z"
     fill="#1A1B24"
     id="path188" />
  <path
     d="M1406.95 510.644H1410.55V507.314C1410.55 507.002 1410.56 506.63 1410.59 506.198C1410.61 505.766 1410.63 505.4 1410.64 505.1H1410.57C1410.43 505.376 1410.28 505.646 1410.12 505.91C1409.96 506.174 1409.8 506.444 1409.63 506.72L1406.95 510.644ZM1410.55 515V511.832H1405.39V510.86L1410.3 503.516H1411.96V510.644H1413.52V511.832H1411.96V515H1410.55ZM1418.51 515.216C1417.36 515.216 1416.45 514.7 1415.79 513.668C1415.14 512.624 1414.82 511.142 1414.82 509.222C1414.82 507.29 1415.14 505.82 1415.79 504.812C1416.45 503.804 1417.36 503.3 1418.51 503.3C1419.65 503.3 1420.54 503.804 1421.19 504.812C1421.85 505.82 1422.18 507.29 1422.18 509.222C1422.18 511.142 1421.85 512.624 1421.19 513.668C1420.54 514.7 1419.65 515.216 1418.51 515.216ZM1418.51 514.028C1419.18 514.028 1419.72 513.65 1420.13 512.894C1420.54 512.126 1420.74 510.902 1420.74 509.222C1420.74 507.542 1420.54 506.336 1420.13 505.604C1419.72 504.86 1419.18 504.488 1418.51 504.488C1417.84 504.488 1417.29 504.86 1416.87 505.604C1416.46 506.336 1416.26 507.542 1416.26 509.222C1416.26 510.902 1416.46 512.126 1416.87 512.894C1417.29 513.65 1417.84 514.028 1418.51 514.028ZM1427.46 515.216C1426.3 515.216 1425.4 514.7 1424.74 513.668C1424.09 512.624 1423.77 511.142 1423.77 509.222C1423.77 507.29 1424.09 505.82 1424.74 504.812C1425.4 503.804 1426.3 503.3 1427.46 503.3C1428.6 503.3 1429.49 503.804 1430.14 504.812C1430.8 505.82 1431.13 507.29 1431.13 509.222C1431.13 511.142 1430.8 512.624 1430.14 513.668C1429.49 514.7 1428.6 515.216 1427.46 515.216ZM1427.46 514.028C1428.13 514.028 1428.67 513.65 1429.08 512.894C1429.48 512.126 1429.69 510.902 1429.69 509.222C1429.69 507.542 1429.48 506.336 1429.08 505.604C1428.67 504.86 1428.13 504.488 1427.46 504.488C1426.78 504.488 1426.24 504.86 1425.82 505.604C1425.41 506.336 1425.21 507.542 1425.21 509.222C1425.21 510.902 1425.41 512.126 1425.82 512.894C1426.24 513.65 1426.78 514.028 1427.46 514.028Z"
     fill="#1A1B24"
     id="path190" />
  <path
     d="M1512.29 515.216C1511.38 515.216 1510.62 515.054 1510.02 514.73C1509.42 514.406 1508.93 514.046 1508.53 513.65L1509.25 512.678C1509.6 513.014 1510 513.32 1510.46 513.596C1510.91 513.86 1511.48 513.992 1512.15 513.992C1512.86 513.992 1513.45 513.758 1513.93 513.29C1514.42 512.81 1514.67 512.168 1514.67 511.364C1514.67 510.572 1514.45 509.954 1514 509.51C1513.56 509.066 1512.96 508.844 1512.22 508.844C1511.82 508.844 1511.48 508.904 1511.19 509.024C1510.92 509.144 1510.61 509.318 1510.26 509.546L1509.47 509.042L1509.84 503.516H1515.59V504.794H1511.14L1510.83 508.196C1511.11 508.052 1511.39 507.938 1511.66 507.854C1511.94 507.77 1512.25 507.728 1512.6 507.728C1513.26 507.728 1513.85 507.86 1514.38 508.124C1514.92 508.376 1515.35 508.766 1515.68 509.294C1516 509.822 1516.16 510.5 1516.16 511.328C1516.16 512.156 1515.98 512.864 1515.6 513.452C1515.24 514.028 1514.77 514.466 1514.18 514.766C1513.59 515.066 1512.96 515.216 1512.29 515.216ZM1521.51 515.216C1520.36 515.216 1519.45 514.7 1518.79 513.668C1518.14 512.624 1517.82 511.142 1517.82 509.222C1517.82 507.29 1518.14 505.82 1518.79 504.812C1519.45 503.804 1520.36 503.3 1521.51 503.3C1522.65 503.3 1523.54 503.804 1524.19 504.812C1524.85 505.82 1525.18 507.29 1525.18 509.222C1525.18 511.142 1524.85 512.624 1524.19 513.668C1523.54 514.7 1522.65 515.216 1521.51 515.216ZM1521.51 514.028C1522.18 514.028 1522.72 513.65 1523.13 512.894C1523.54 512.126 1523.74 510.902 1523.74 509.222C1523.74 507.542 1523.54 506.336 1523.13 505.604C1522.72 504.86 1522.18 504.488 1521.51 504.488C1520.84 504.488 1520.29 504.86 1519.87 505.604C1519.46 506.336 1519.26 507.542 1519.26 509.222C1519.26 510.902 1519.46 512.126 1519.87 512.894C1520.29 513.65 1520.84 514.028 1521.51 514.028ZM1530.46 515.216C1529.3 515.216 1528.4 514.7 1527.74 513.668C1527.09 512.624 1526.77 511.142 1526.77 509.222C1526.77 507.29 1527.09 505.82 1527.74 504.812C1528.4 503.804 1529.3 503.3 1530.46 503.3C1531.6 503.3 1532.49 503.804 1533.14 504.812C1533.8 505.82 1534.13 507.29 1534.13 509.222C1534.13 511.142 1533.8 512.624 1533.14 513.668C1532.49 514.7 1531.6 515.216 1530.46 515.216ZM1530.46 514.028C1531.13 514.028 1531.67 513.65 1532.08 512.894C1532.48 512.126 1532.69 510.902 1532.69 509.222C1532.69 507.542 1532.48 506.336 1532.08 505.604C1531.67 504.86 1531.13 504.488 1530.46 504.488C1529.78 504.488 1529.24 504.86 1528.82 505.604C1528.41 506.336 1528.21 507.542 1528.21 509.222C1528.21 510.902 1528.41 512.126 1528.82 512.894C1529.24 513.65 1529.78 514.028 1530.46 514.028Z"
     fill="#1A1B24"
     id="path192" />
  <rect
     x="1011"
     y="93"
     width="27"
     height="396"
     fill="#FFDFCA"
     id="rect194" />
  <rect
     x="1038"
     y="271"
     width="27"
     height="218"
     fill="#FFDFCA"
     id="rect196" />
  <rect
     x="1065"
     y="414"
     width="27"
     height="75"
     fill="#FFDFCA"
     id="rect198" />
  <rect
     x="1092"
     y="445"
     width="20"
     height="44"
     fill="#FFDFCA"
     id="rect200" />
  <rect
     x="1113"
     y="461"
     width="20"
     height="28"
     fill="#FFDFCA"
     id="rect202" />
  <rect
     x="1133"
     y="471"
     width="20"
     height="18"
     fill="#FFDFCA"
     id="rect204" />
  <rect
     x="1153"
     y="477"
     width="14"
     height="12"
     fill="#FFDFCA"
     id="rect206" />
  <text
     xml:space="preserve"
     style="font-size:18.6667px;font-family:'Sans Serif Collection';-inkscape-font-specification:'Sans Serif Collection';fill:#000000"
     x="406.80463"
     y="32.504974"
     id="text473"><tspan
       sodipodi:role="line"
       id="tspan471"
       x="406.80463"
       y="32.504974"
       style="font-size:18.6667px"></tspan></text>
  <text
     xml:space="preserve"
     style="font-size:18.6667px;font-family:'Sans Serif Collection';-inkscape-font-specification:'Sans Serif Collection';fill:#000000"
     x="1260.799"
     y="33.489971"
     id="text527"><tspan
       sodipodi:role="line"
       id="tspan525"
       x="1260.799"
       y="33.489971"
       style="font-size:18.6667px"></tspan></text>
  <text
     xml:space="preserve"
     style="font-size:18.6667px;font-family:'Sans Serif Collection';-inkscape-font-specification:'Sans Serif Collection';fill:#000000"
     x="408.77469"
     y="544.70453"
     id="text531"><tspan
       sodipodi:role="line"
       id="tspan529"
       x="408.77469"
       y="544.70453"
       style="font-size:18.6667px"></tspan></text>
  <text
     xml:space="preserve"
     style="font-size:18.6667px;font-family:'Sans Serif Collection';-inkscape-font-specification:'Sans Serif Collection';fill:#000000"
     x="1261.7841"
     y="544.70459"
     id="text535"><tspan
       sodipodi:role="line"
       id="tspan533"
       x="1261.7841"
       y="544.70459"
       style="font-size:18.6667px"></tspan></text>
  <text
     xml:space="preserve"
     style="font-size:18.6667px;font-family:'Sans Serif Collection';-inkscape-font-specification:'Sans Serif Collection';writing-mode:tb-rl;fill:#000000"
     x="878.61926"
     y="250.18979"
     id="text539"><tspan
       sodipodi:role="line"
       id="tspan537"
       x="878.61926"
       y="250.18979"
       style="font-size:18.6667px"></tspan></text>
  <text
     xml:space="preserve"
     style="font-size:18.6667px;font-family:'Sans Serif Collection';-inkscape-font-specification:'Sans Serif Collection';writing-mode:tb-rl;fill:#000000"
     x="39.35442"
     y="248.0303"
     id="text539-0"><tspan
       sodipodi:role="line"
       id="tspan537-6"
       x="39.35442"
       y="248.0303"
       style="font-size:18.6667px"></tspan></text>
</svg>
