<?xml version="1.0" encoding="utf-8"?>
<!-- Generator: Adobe Illustrator 24.1.1, SVG Export Plug-In . SVG Version: 6.00 Build 0)  -->
<svg version="1.1" id="图层_1" xmlns="http://www.w3.org/2000/svg" xmlns:xlink="http://www.w3.org/1999/xlink" x="0px" y="0px"
	 viewBox="0 0 1839 748" style="enable-background:new 0 0 1839 748;" xml:space="preserve">
<style type="text/css">
	.st0{fill:#FFFFFF;}
	.st1{fill:#F5F1FF;}
	.st2{fill:none;stroke:#D7DDFF;stroke-width:2;}
	.st3{fill:#FFF5DD;}
	.st4{fill:none;stroke:#FFE1B4;stroke-width:2;}
	.st5{fill:#FFFBEF;stroke:#FFE7C4;stroke-width:2;}
	.st6{fill:#B4B4B4;}
	.st7{fill:none;stroke:#959595;stroke-width:5;}
	.st8{fill:none;stroke:#959595;stroke-width:4;}
	.st9{font-family:'HarmonyOS_Sans_SC';}
	.st10{font-size:32px;}
</style>
<rect x="1" class="st0" width="1839" height="748"/>
<path class="st1" d="M203,91h82c16,0,29,13,29,29v492c0,16-13,29-29,29h-82c-16,0-29-13-29-29V120C174,104,187,91,203,91z"/>
<path class="st2" d="M203,91h82c16,0,29,13,29,29v492c0,16-13,29-29,29h-82c-16,0-29-13-29-29V120C174,104,187,91,203,91z"/>
<path class="st1" d="M1088,91h82c16,0,29,13,29,29v492c0,16-13,29-29,29h-82c-16,0-29-13-29-29V120C1059,104,1072,91,1088,91z"/>
<path class="st2" d="M1088,91h82c16,0,29,13,29,29v492c0,16-13,29-29,29h-82c-16,0-29-13-29-29V120C1059,104,1072,91,1088,91z"/>
<path class="st1" d="M1554,91h82c16,0,29,13,29,29v492c0,16-13,29-29,29h-82c-16,0-29-13-29-29V120C1525,104,1538,91,1554,91z"/>
<path class="st2" d="M1554,91h82c16,0,29,13,29,29v492c0,16-13,29-29,29h-82c-16,0-29-13-29-29V120C1525,104,1538,91,1554,91z"/>
<path class="st3" d="M1301,91h122c16,0,29,13,29,29v492c0,16-13,29-29,29h-122c-16,0-29-13-29-29V120C1272,104,1285,91,1301,91z"/>
<path class="st4" d="M1301,91h122c16,0,29,13,29,29v492c0,16-13,29-29,29h-122c-16,0-29-13-29-29V120C1272,104,1285,91,1301,91z"/>
<path class="st5" d="M427,91h520c21.5,0,39,17.5,39,39v472c0,21.5-17.5,39-39,39H427c-21.5,0-39-17.5-39-39V130
	C388,108.5,405.5,91,427,91z"/>
<path class="st3" d="M444,113h143c16,0,29,13,29,29v448c0,16-13,29-29,29H444c-16,0-29-13-29-29V142C415,126,428,113,444,113z"/>
<path class="st4" d="M444,113h143c16,0,29,13,29,29v448c0,16-13,29-29,29H444c-16,0-29-13-29-29V142C415,126,428,113,444,113z"/>
<path class="st3" d="M673,113h264c16,0,29,13,29,29v448c0,16-13,29-29,29H673c-16,0-29-13-29-29V142C644,126,657,113,673,113z"/>
<path class="st4" d="M673,113h264c16,0,29,13,29,29v448c0,16-13,29-29,29H673c-16,0-29-13-29-29V142C644,126,657,113,673,113z"/>
<path class="st6" d="M385.7,366.7c0.4-0.4,0.4-1,0-1.4l-6.4-6.4c-0.4-0.4-1-0.4-1.4,0c-0.4,0.4-0.4,1,0,1.4l5.7,5.7l-5.7,5.7
	c-0.4,0.4-0.4,1,0,1.4c0.4,0.4,1,0.4,1.4,0L385.7,366.7z M315,367h70v-2h-70V367z"/>
<path class="st6" d="M1057.7,366.7c0.4-0.4,0.4-1,0-1.4l-6.4-6.4c-0.4-0.4-1-0.4-1.4,0c-0.4,0.4-0.4,1,0,1.4l5.7,5.7l-5.7,5.7
	c-0.4,0.4-0.4,1,0,1.4c0.4,0.4,1,0.4,1.4,0L1057.7,366.7z M987,367h70v-2h-70V367z"/>
<path class="st6" d="M1270.7,366.7c0.4-0.4,0.4-1,0-1.4l-6.4-6.4c-0.4-0.4-1-0.4-1.4,0c-0.4,0.4-0.4,1,0,1.4l5.7,5.7l-5.7,5.7
	c-0.4,0.4-0.4,1,0,1.4c0.4,0.4,1,0.4,1.4,0L1270.7,366.7z M1200,367h70v-2h-70V367z"/>
<path class="st6" d="M1523.7,366.7c0.4-0.4,0.4-1,0-1.4l-6.4-6.4c-0.4-0.4-1-0.4-1.4,0c-0.4,0.4-0.4,1,0,1.4l5.7,5.7l-5.7,5.7
	c-0.4,0.4-0.4,1,0,1.4c0.4,0.4,1,0.4,1.4,0L1523.7,366.7z M1453,367h70v-2h-70V367z"/>
<path class="st7" d="M387,658v8c0,7.7,6.3,14,14,14h1038c7.7,0,14-6.3,14-14v-8"/>
<line class="st8" x1="920.5" y1="682" x2="920.5" y2="702"/>
<line class="st8" x1="687.5" y1="46" x2="687.5" y2="66"/>
<path class="st8" d="M387,90V80c0-7.7,6.3-14,14-14h572c7.7,0,14,6.3,14,14v10"/>
<text transform="matrix(1 0 0 1 858.381 733)" class="st9 st10">完整模型</text>
<text transform="matrix(1 0 0 1 567 43)" class="st9 st10">Transform 网络</text>
<text transform="matrix(1 0 0 1 194.1125 359.3599)"><tspan x="0" y="0" class="st9 st10">Model </tspan><tspan x="0" y="38.4" class="st9 st10">input</tspan></text>
<text transform="matrix(1 0 0 1 434 378.5601)" class="st9 st10">Embedings</text>
<text transform="matrix(1 0 0 1 744.095 378.5601)" class="st9 st10">layers</text>
<text transform="matrix(1 0 0 1 1075.7686 359.3599)"><tspan x="0" y="0" class="st9 st10">Hidden</tspan><tspan x="0" y="38.4" class="st9 st10">states</tspan></text>
<text transform="matrix(1 0 0 1 1322.8804 378.5601)" class="st9 st10">Head</text>
<text transform="matrix(1 0 0 1 1545.4648 359.3601)"><tspan x="0" y="0" class="st9 st10">Model</tspan><tspan x="0" y="38.4" class="st9 st10">output</tspan></text>
</svg>
