<?xml version="1.0" encoding="UTF-8" standalone="no"?>
<svg
   width="1816"
   height="1135"
   viewBox="0 0 1816 1135"
   fill="none"
   version="1.1"
   id="svg222"
   sodipodi:docname="transformers_blocks.svg"
   inkscape:version="1.2.2 (732a01da63, 2022-12-09)"
   inkscape:export-filename="transformers_blocks.png"
   inkscape:export-xdpi="96"
   inkscape:export-ydpi="96"
   xmlns:inkscape="http://www.inkscape.org/namespaces/inkscape"
   xmlns:sodipodi="http://sodipodi.sourceforge.net/DTD/sodipodi-0.dtd"
   xmlns="http://www.w3.org/2000/svg"
   xmlns:svg="http://www.w3.org/2000/svg">
  <defs
     id="defs226" />
  <sodipodi:namedview
     id="namedview224"
     pagecolor="#ffffff"
     bordercolor="#000000"
     borderopacity="0.25"
     inkscape:showpageshadow="2"
     inkscape:pageopacity="0.0"
     inkscape:pagecheckerboard="0"
     inkscape:deskcolor="#d1d1d1"
     showgrid="false"
     inkscape:zoom="0.6921806"
     inkscape:cx="986.01434"
     inkscape:cy="546.10025"
     inkscape:window-width="2560"
     inkscape:window-height="1369"
     inkscape:window-x="2872"
     inkscape:window-y="-8"
     inkscape:window-maximized="1"
     inkscape:current-layer="svg222" />
  <rect
     width="1816"
     height="1135"
     fill="white"
     id="rect198" />
  <rect
     x="584"
     y="426"
     width="296"
     height="550"
     rx="40"
     fill="#FFF6DF"
     id="rect200" />
  <path
     d="M732.707 997.293C732.317 996.902 731.683 996.902 731.293 997.293L724.929 1003.66C724.538 1004.05 724.538 1004.68 724.929 1005.07C725.319 1005.46 725.953 1005.46 726.343 1005.07L732 999.414L737.657 1005.07C738.047 1005.46 738.681 1005.46 739.071 1005.07C739.462 1004.68 739.462 1004.05 739.071 1003.66L732.707 997.293ZM733 1028L733 998L731 998L731 1028L733 1028Z"
     fill="black"
     id="path204" />
  <rect
     x="936"
     y="123"
     width="296"
     height="853"
     rx="40"
     fill="#FFF6DF"
     id="rect208" />
  <path
     d="M1084.71 997.293C1084.32 996.902 1083.68 996.902 1083.29 997.293L1076.93 1003.66C1076.54 1004.05 1076.54 1004.68 1076.93 1005.07C1077.32 1005.46 1077.95 1005.46 1078.34 1005.07L1084 999.414L1089.66 1005.07C1090.05 1005.46 1090.68 1005.46 1091.07 1005.07C1091.46 1004.68 1091.46 1004.05 1091.07 1003.66L1084.71 997.293ZM1085 1028L1085 998L1083 998L1083 1028L1085 1028Z"
     fill="black"
     id="path212" />
  <path
     d="M1084.71 88.2929C1084.32 87.9024 1083.68 87.9024 1083.29 88.2929L1076.93 94.6569C1076.54 95.0474 1076.54 95.6805 1076.93 96.0711C1077.32 96.4616 1077.95 96.4616 1078.34 96.0711L1084 90.4142L1089.66 96.0711C1090.05 96.4616 1090.68 96.4616 1091.07 96.0711C1091.46 95.6805 1091.46 95.0474 1091.07 94.6569L1084.71 88.2929ZM1085 113L1085 89L1083 89L1083 113L1085 113Z"
     fill="black"
     id="path218" />
  <path
     d="M730 425.5V421.5C730 408.245 740.745 397.5 754 397.5H875.5C888.755 397.5 899.5 408.245 899.5 421.5V579C899.5 592.255 910.245 603 923.5 603H935.5"
     stroke="#B4B4B4"
     stroke-width="4"
     id="path220" />
  <text
     xml:space="preserve"
     style="font-size:42.6667px;font-family:'MS UI Gothic';-inkscape-font-specification:'MS UI Gothic';fill:#000000"
     x="689.12653"
     y="1076.3087"
     id="text663"><tspan
       sodipodi:role="line"
       id="tspan661"
       x="689.12653"
       y="1076.3087"
       style="font-size:42.6667px">输入</tspan></text>
  <text
     xml:space="preserve"
     style="font-size:42.6667px;font-family:'MS UI Gothic';-inkscape-font-specification:'MS UI Gothic';fill:#000000"
     x="1002.9674"
     y="1076.9722"
     id="text667"><tspan
       sodipodi:role="line"
       id="tspan665"
       x="1002.9674"
       y="1076.9722"
       style="font-size:42.6667px">输出（右移）</tspan></text>
  <text
     xml:space="preserve"
     style="font-size:42.6667px;font-family:'MS UI Gothic';-inkscape-font-specification:'MS UI Gothic';fill:#000000"
     x="955.24261"
     y="71.680191"
     id="text671"><tspan
       sodipodi:role="line"
       id="tspan669"
       x="955.24261"
       y="71.680191">输出的概率（logit）</tspan></text>
  <text
     xml:space="preserve"
     style="font-size:42.6667px;font-family:'Sans Serif Collection';-inkscape-font-specification:'Sans Serif Collection';text-align:center;text-anchor:middle;fill:#000000"
     x="732.13367"
     y="642.00641"
     id="text282"><tspan
       sodipodi:role="line"
       id="tspan280"
       x="732.13367"
       y="642.00641" /><tspan
       sodipodi:role="line"
       x="732.13367"
       y="700.80621"
       id="tspan292">Encoder</tspan><tspan
       sodipodi:role="line"
       x="732.13367"
       y="758.53143"
       id="tspan298">（编码器）</tspan></text>
  <text
     xml:space="preserve"
     style="font-size:42.6667px;font-family:'Sans Serif Collection';-inkscape-font-specification:'Sans Serif Collection';text-align:center;text-anchor:middle;fill:#000000"
     x="1080.0876"
     y="526.75891"
     id="text286"><tspan
       sodipodi:role="line"
       id="tspan284"
       x="1080.0876"
       y="526.75891">Decoder</tspan><tspan
       sodipodi:role="line"
       x="1080.0876"
       y="584.48413"
       id="tspan300">（解码器）</tspan></text>
</svg>
