<?xml version="1.0" encoding="UTF-8" standalone="no"?>
<svg
   width="1784"
   height="428"
   viewBox="0 0 1784 428"
   fill="none"
   version="1.1"
   id="svg43"
   sodipodi:docname="ulmfit.svg"
   inkscape:version="1.2.2 (732a01da63, 2022-12-09)"
   inkscape:export-filename="ulmfit.png"
   inkscape:export-xdpi="200"
   inkscape:export-ydpi="200"
   xmlns:inkscape="http://www.inkscape.org/namespaces/inkscape"
   xmlns:sodipodi="http://sodipodi.sourceforge.net/DTD/sodipodi-0.dtd"
   xmlns="http://www.w3.org/2000/svg"
   xmlns:svg="http://www.w3.org/2000/svg">
  <defs
     id="defs47" />
  <sodipodi:namedview
     id="namedview45"
     pagecolor="#ffffff"
     bordercolor="#000000"
     borderopacity="0.25"
     inkscape:showpageshadow="2"
     inkscape:pageopacity="0.0"
     inkscape:pagecheckerboard="0"
     inkscape:deskcolor="#d1d1d1"
     showgrid="false"
     inkscape:zoom="0.9964498"
     inkscape:cx="898.69053"
     inkscape:cy="218.7767"
     inkscape:window-width="2560"
     inkscape:window-height="1369"
     inkscape:window-x="2872"
     inkscape:window-y="-8"
     inkscape:window-maximized="1"
     inkscape:current-layer="svg43" />
  <rect
     width="1784"
     height="428"
     fill="#ffffff"
     id="rect2"
     x="0"
     y="0" />
  <mask
     id="path-1-inside-1_378_1302"
     fill="white">
    <path
       fill-rule="evenodd"
       clip-rule="evenodd"
       d="M424.033 345.465L580.208 215.053L424.323 82L424.269 131.184H153V289.184H424.095L424.033 345.465Z"
       id="path4" />
  </mask>
  <path
     fill-rule="evenodd"
     clip-rule="evenodd"
     d="m 424.42798,342.53379 156.175,-130.412 -155.885,-133.053003 -0.054,49.184003 h -271.269 v 158 h 271.095 z"
     fill="#f6f3ff"
     id="path7" />
  <path
     d="m 580.208,215.053 2.564,3.07 3.637,-3.037 -3.604,-3.076 z m -156.175,130.412 -4,-0.004 -0.01,8.564 6.573,-5.489 z M 424.323,82 l 2.597,-3.0425 -6.587,-5.6224 -0.01,8.6605 z m -0.054,49.184 v 4 h 3.995 l 0.005,-3.995 z m -271.269,0 v -4 h -4 v 4 z m 0,158 h -4 v 4 h 4 z m 271.095,0 4,0.005 0.004,-4.005 h -4.004 z m 153.55,-77.201 -156.176,130.412 5.127,6.141 156.176,-130.413 z M 421.726,85.0425 577.612,218.095 582.805,212.01 426.92,78.9575 Z m 6.543,46.1465 0.054,-49.1846 -8,-0.0088 -0.054,49.1844 z M 153,135.184 h 271.269 v -8 H 153 Z m 4,154 v -158 h -8 v 158 z m 267.095,-4 H 153 v 8 h 271.095 z m 3.938,60.286 0.062,-56.281 -8,-0.009 -0.062,56.281 z"
     fill="#dbceff"
     mask="url(#path-1-inside-1_378_1302)"
     id="path9"
     transform="translate(0.39498831,-1.8649723)" />
  <mask
     id="path-3-inside-2_378_1302"
     fill="white">
    <path
       fill-rule="evenodd"
       clip-rule="evenodd"
       d="M979.033 345.465L1135.21 215.053L979.323 82L979.269 131.184H708V289.184H979.095L979.033 345.465Z"
       id="path11" />
  </mask>
  <path
     fill-rule="evenodd"
     clip-rule="evenodd"
     d="M 979.42798,344.66626 1135.605,214.25426 979.71798,81.201267 l -0.054,49.183993 h -271.269 v 158 h 271.095 z"
     fill="#fff6df"
     id="path14" />
  <path
     d="m 1135.21,215.053 2.56,3.07 3.64,-3.037 -3.6,-3.076 z m -156.177,130.412 -4,-0.004 -0.01,8.564 6.573,-5.489 z M 979.323,82 l 2.597,-3.0425 -6.587,-5.6224 -0.01,8.6605 z m -0.054,49.184 v 4 h 3.995 l 0.005,-3.995 z m -271.269,0 v -4 h -4 v 4 z m 0,158 h -4 v 4 h 4 z m 271.095,0 4,0.005 0.004,-4.005 h -4.004 z m 153.545,-77.201 -156.171,130.412 5.127,6.141 156.174,-130.413 z M 976.726,85.0425 1132.61,218.095 1137.81,212.01 981.92,78.9575 Z m 6.543,46.1465 0.054,-49.1846 -8,-0.0088 -0.054,49.1844 z M 708,135.184 h 271.269 v -8 H 708 Z m 4,154 v -158 h -8 v 158 z m 267.095,-4 H 708 v 8 h 271.095 z m 3.938,60.286 0.062,-56.281 -8,-0.009 -0.062,56.281 z"
     fill="#ffe1b4"
     mask="url(#path-3-inside-2_378_1302)"
     id="path16"
     transform="translate(0.39498831,0.26750186)" />
  <mask
     id="path-5-inside-3_378_1302"
     fill="white">
    <path
       fill-rule="evenodd"
       clip-rule="evenodd"
       d="M1534.03 345.465L1690.21 215.053L1534.32 82L1534.27 131.184H1263V289.184H1534.09L1534.03 345.465Z"
       id="path18" />
  </mask>
  <path
     fill-rule="evenodd"
     clip-rule="evenodd"
     d="m 1534.425,346.79874 156.18,-130.412 -155.89,-133.053004 -0.05,49.184004 h -271.27 v 158 h 271.09 z"
     fill="#fff4ec"
     id="path21" />
  <path
     d="m 1690.21,215.053 2.56,3.07 3.64,-3.037 -3.6,-3.076 z m -156.18,130.412 -4,-0.004 -0.01,8.564 6.58,-5.489 z M 1534.32,82 l 2.6,-3.0425 -6.59,-5.6224 -0.01,8.6605 z m -0.05,49.184 v 4 h 3.99 l 0.01,-3.995 z m -271.27,0 v -4 h -4 v 4 z m 0,158 h -4 v 4 h 4 z m 271.09,0 4,0.005 0.01,-4.005 h -4.01 z m 153.55,-77.201 -156.17,130.412 5.13,6.141 156.17,-130.413 z m -155.91,-126.9405 155.88,133.0525 5.2,-6.085 -155.89,-133.0525 z m 6.54,46.1465 0.05,-49.1846 -8,-0.0088 -0.05,49.1844 z M 1263,135.184 h 271.27 v -8 H 1263 Z m 4,154 v -158 h -8 v 158 z m 267.09,-4 H 1263 v 8 h 271.09 z m 3.94,60.286 0.06,-56.281 -8,-0.009 -0.06,56.281 z"
     fill="#ffdfca"
     mask="url(#path-5-inside-3_378_1302)"
     id="path23"
     transform="translate(0.39498831,3.466213)" />
  <circle
     cx="153.395"
     cy="218.26495"
     r="58"
     fill="#f6f3ff"
     stroke="#dbceff"
     stroke-width="4"
     id="circle25" />
  <circle
     cx="708.39502"
     cy="219.33118"
     r="58"
     fill="#fff6df"
     stroke="#ffe1b4"
     stroke-width="4"
     id="circle27" />
  <circle
     cx="1263.395"
     cy="220.39742"
     r="58"
     fill="#fff4ec"
     stroke="#ffdfca"
     stroke-width="4"
     id="circle29" />
  <text
     xml:space="preserve"
     style="font-size:29.3333px;font-family:'Sans Serif Collection';-inkscape-font-specification:'Sans Serif Collection';writing-mode:tb-rl;fill:#000000"
     x="261.53738"
     y="224.34114"
     id="text308"><tspan
       sodipodi:role="line"
       id="tspan306"
       x="261.53738"
       y="224.34114"
       style="font-size:29.3333px;writing-mode:lr-tb">语言模型</tspan></text>
  <text
     xml:space="preserve"
     style="font-size:29.3333px;font-family:'Sans Serif Collection';-inkscape-font-specification:'Sans Serif Collection';writing-mode:tb-rl;fill:#000000"
     x="818.21686"
     y="224.34114"
     id="text308-2"><tspan
       sodipodi:role="line"
       id="tspan306-5"
       x="818.21686"
       y="224.34114"
       style="font-size:29.3333px;writing-mode:lr-tb">语言模型</tspan></text>
  <text
     xml:space="preserve"
     style="font-size:29.3333px;font-family:'Sans Serif Collection';-inkscape-font-specification:'Sans Serif Collection';writing-mode:lr-tb;fill:#000000"
     x="1392.6814"
     y="224.21223"
     id="text362"><tspan
       sodipodi:role="line"
       id="tspan360"
       x="1392.6814"
       y="224.21223">分类器</tspan></text>
  <text
     xml:space="preserve"
     style="font-size:26.6667px;font-family:'Sans Serif Collection';-inkscape-font-specification:'Sans Serif Collection';text-align:center;text-anchor:middle;fill:#000000"
     x="706.90326"
     y="227.92839"
     id="text242"><tspan
       sodipodi:role="line"
       id="tspan240"
       x="706.90326"
       y="227.92839"
       style="font-size:26.6667px">IMDb</tspan></text>
  <text
     xml:space="preserve"
     style="font-size:26.6667px;font-family:'Sans Serif Collection';-inkscape-font-specification:'Sans Serif Collection';text-align:center;text-anchor:middle;fill:#000000"
     x="1260.6812"
     y="229.92839"
     id="text242-5"><tspan
       sodipodi:role="line"
       id="tspan240-3"
       x="1260.6812"
       y="229.92839"
       style="font-size:26.6667px">IMDb</tspan></text>
  <text
     xml:space="preserve"
     style="font-size:26.6667px;font-family:'Sans Serif Collection';-inkscape-font-specification:'Sans Serif Collection';text-align:center;text-anchor:middle;fill:#000000"
     x="150.92943"
     y="209.92181"
     id="text296"><tspan
       sodipodi:role="line"
       id="tspan294"
       x="150.92943"
       y="209.92181"
       style="font-size:26.6667px">Wikitext</tspan><tspan
       sodipodi:role="line"
       x="150.92943"
       y="246.00009"
       id="tspan298"
       style="font-size:26.6667px">103</tspan></text>
</svg>
