<svg width="1893" height="596" xmlns="http://www.w3.org/2000/svg" fill="none">

 <g>
  <title>Layer 1</title>
  <rect id="svg_2" stroke="#F5F5F5" height="345" width="1357" y="91.5" x="479.5"/>
  <line id="svg_3" stroke="#D6D6D6" y2="448" x2="479.5" y1="437" x1="479.5"/>
  <path id="svg_4" fill="black" d="m479.51,481.264c-1.408,0 -2.515,-0.631 -3.322,-1.892c-0.792,-1.276 -1.188,-3.087 -1.188,-5.434c0,-2.361 0.396,-4.158 1.188,-5.39c0.807,-1.232 1.914,-1.848 3.322,-1.848c1.394,0 2.486,0.616 3.278,1.848c0.807,1.232 1.21,3.029 1.21,5.39c0,2.347 -0.403,4.158 -1.21,5.434c-0.792,1.261 -1.884,1.892 -3.278,1.892zm0,-1.452c0.822,0 1.482,-0.462 1.98,-1.386c0.499,-0.939 0.748,-2.435 0.748,-4.488c0,-2.053 -0.249,-3.527 -0.748,-4.422c-0.498,-0.909 -1.158,-1.364 -1.98,-1.364c-0.821,0 -1.488,0.455 -2.002,1.364c-0.498,0.895 -0.748,2.369 -0.748,4.422c0,2.053 0.25,3.549 0.748,4.488c0.514,0.924 1.181,1.386 2.002,1.386z"/>
  <line id="svg_5" stroke="#D6D6D6" y2="448" x2="633.5" y1="437" x1="633.5"/>
  <path id="svg_6" fill="black" d="m607.899,481l0,-1.496l3.212,0l0,-10.34l-2.552,0l0,-1.166c0.645,-0.117 1.203,-0.257 1.672,-0.418c0.484,-0.176 0.917,-0.381 1.298,-0.616l1.386,0l0,12.54l2.904,0l0,1.496l-7.92,0zm14.676,0.264c-1.408,0 -2.516,-0.631 -3.322,-1.892c-0.792,-1.276 -1.188,-3.087 -1.188,-5.434c0,-2.361 0.396,-4.158 1.188,-5.39c0.806,-1.232 1.914,-1.848 3.322,-1.848c1.393,0 2.486,0.616 3.278,1.848c0.806,1.232 1.21,3.029 1.21,5.39c0,2.347 -0.404,4.158 -1.21,5.434c-0.792,1.261 -1.885,1.892 -3.278,1.892zm0,-1.452c0.821,0 1.481,-0.462 1.98,-1.386c0.498,-0.939 0.748,-2.435 0.748,-4.488c0,-2.053 -0.25,-3.527 -0.748,-4.422c-0.499,-0.909 -1.159,-1.364 -1.98,-1.364c-0.822,0 -1.489,0.455 -2.002,1.364c-0.499,0.895 -0.748,2.369 -0.748,4.422c0,2.053 0.249,3.549 0.748,4.488c0.513,0.924 1.18,1.386 2.002,1.386zm10.935,1.452c-1.408,0 -2.515,-0.631 -3.322,-1.892c-0.792,-1.276 -1.188,-3.087 -1.188,-5.434c0,-2.361 0.396,-4.158 1.188,-5.39c0.807,-1.232 1.914,-1.848 3.322,-1.848c1.394,0 2.486,0.616 3.278,1.848c0.807,1.232 1.21,3.029 1.21,5.39c0,2.347 -0.403,4.158 -1.21,5.434c-0.792,1.261 -1.884,1.892 -3.278,1.892zm0,-1.452c0.822,0 1.482,-0.462 1.98,-1.386c0.499,-0.939 0.748,-2.435 0.748,-4.488c0,-2.053 -0.249,-3.527 -0.748,-4.422c-0.498,-0.909 -1.158,-1.364 -1.98,-1.364c-0.821,0 -1.488,0.455 -2.002,1.364c-0.498,0.895 -0.748,2.369 -0.748,4.422c0,2.053 0.25,3.549 0.748,4.488c0.514,0.924 1.181,1.386 2.002,1.386zm10.936,1.452c-1.408,0 -2.516,-0.631 -3.322,-1.892c-0.792,-1.276 -1.188,-3.087 -1.188,-5.434c0,-2.361 0.396,-4.158 1.188,-5.39c0.806,-1.232 1.914,-1.848 3.322,-1.848c1.393,0 2.486,0.616 3.278,1.848c0.806,1.232 1.21,3.029 1.21,5.39c0,2.347 -0.404,4.158 -1.21,5.434c-0.792,1.261 -1.885,1.892 -3.278,1.892zm0,-1.452c0.821,0 1.481,-0.462 1.98,-1.386c0.498,-0.939 0.748,-2.435 0.748,-4.488c0,-2.053 -0.25,-3.527 -0.748,-4.422c-0.499,-0.909 -1.159,-1.364 -1.98,-1.364c-0.822,0 -1.489,0.455 -2.002,1.364c-0.499,0.895 -0.748,2.369 -0.748,4.422c0,2.053 0.249,3.549 0.748,4.488c0.513,0.924 1.18,1.386 2.002,1.386zm10.935,1.452c-1.408,0 -2.515,-0.631 -3.322,-1.892c-0.792,-1.276 -1.188,-3.087 -1.188,-5.434c0,-2.361 0.396,-4.158 1.188,-5.39c0.807,-1.232 1.914,-1.848 3.322,-1.848c1.394,0 2.486,0.616 3.278,1.848c0.807,1.232 1.21,3.029 1.21,5.39c0,2.347 -0.403,4.158 -1.21,5.434c-0.792,1.261 -1.884,1.892 -3.278,1.892zm0,-1.452c0.822,0 1.482,-0.462 1.98,-1.386c0.499,-0.939 0.748,-2.435 0.748,-4.488c0,-2.053 -0.249,-3.527 -0.748,-4.422c-0.498,-0.909 -1.158,-1.364 -1.98,-1.364c-0.821,0 -1.488,0.455 -2.002,1.364c-0.498,0.895 -0.748,2.369 -0.748,4.422c0,2.053 0.25,3.549 0.748,4.488c0.514,0.924 1.181,1.386 2.002,1.386z"/>
  <line id="svg_7" stroke="#D6D6D6" y2="448" x2="806.5" y1="437" x1="806.5"/>
  <path id="svg_8" fill="black" d="m780.041,481l0,-1.078c1.408,-1.408 2.603,-2.64 3.586,-3.696c0.983,-1.071 1.731,-2.031 2.244,-2.882c0.513,-0.865 0.77,-1.672 0.77,-2.42c0,-0.807 -0.22,-1.467 -0.66,-1.98c-0.44,-0.513 -1.107,-0.77 -2.002,-0.77c-0.587,0 -1.129,0.169 -1.628,0.506c-0.499,0.323 -0.953,0.719 -1.364,1.188l-1.034,-1.034c0.587,-0.645 1.21,-1.159 1.87,-1.54c0.675,-0.396 1.467,-0.594 2.376,-0.594c1.305,0 2.332,0.381 3.08,1.144c0.748,0.748 1.122,1.745 1.122,2.992c0,0.88 -0.249,1.775 -0.748,2.684c-0.484,0.895 -1.159,1.841 -2.024,2.838c-0.851,0.983 -1.833,2.053 -2.948,3.212c0.381,-0.029 0.777,-0.059 1.188,-0.088c0.411,-0.029 0.799,-0.044 1.166,-0.044l4.07,0l0,1.562l-9.064,0zm15.534,0.264c-1.408,0 -2.516,-0.631 -3.322,-1.892c-0.792,-1.276 -1.188,-3.087 -1.188,-5.434c0,-2.361 0.396,-4.158 1.188,-5.39c0.806,-1.232 1.914,-1.848 3.322,-1.848c1.393,0 2.486,0.616 3.278,1.848c0.806,1.232 1.21,3.029 1.21,5.39c0,2.347 -0.404,4.158 -1.21,5.434c-0.792,1.261 -1.885,1.892 -3.278,1.892zm0,-1.452c0.821,0 1.481,-0.462 1.98,-1.386c0.498,-0.939 0.748,-2.435 0.748,-4.488c0,-2.053 -0.25,-3.527 -0.748,-4.422c-0.499,-0.909 -1.159,-1.364 -1.98,-1.364c-0.822,0 -1.489,0.455 -2.002,1.364c-0.499,0.895 -0.748,2.369 -0.748,4.422c0,2.053 0.249,3.549 0.748,4.488c0.513,0.924 1.18,1.386 2.002,1.386zm10.935,1.452c-1.408,0 -2.515,-0.631 -3.322,-1.892c-0.792,-1.276 -1.188,-3.087 -1.188,-5.434c0,-2.361 0.396,-4.158 1.188,-5.39c0.807,-1.232 1.914,-1.848 3.322,-1.848c1.394,0 2.486,0.616 3.278,1.848c0.807,1.232 1.21,3.029 1.21,5.39c0,2.347 -0.403,4.158 -1.21,5.434c-0.792,1.261 -1.884,1.892 -3.278,1.892zm0,-1.452c0.822,0 1.482,-0.462 1.98,-1.386c0.499,-0.939 0.748,-2.435 0.748,-4.488c0,-2.053 -0.249,-3.527 -0.748,-4.422c-0.498,-0.909 -1.158,-1.364 -1.98,-1.364c-0.821,0 -1.488,0.455 -2.002,1.364c-0.498,0.895 -0.748,2.369 -0.748,4.422c0,2.053 0.25,3.549 0.748,4.488c0.514,0.924 1.181,1.386 2.002,1.386zm10.936,1.452c-1.408,0 -2.516,-0.631 -3.322,-1.892c-0.792,-1.276 -1.188,-3.087 -1.188,-5.434c0,-2.361 0.396,-4.158 1.188,-5.39c0.806,-1.232 1.914,-1.848 3.322,-1.848c1.393,0 2.486,0.616 3.278,1.848c0.806,1.232 1.21,3.029 1.21,5.39c0,2.347 -0.404,4.158 -1.21,5.434c-0.792,1.261 -1.885,1.892 -3.278,1.892zm0,-1.452c0.821,0 1.481,-0.462 1.98,-1.386c0.498,-0.939 0.748,-2.435 0.748,-4.488c0,-2.053 -0.25,-3.527 -0.748,-4.422c-0.499,-0.909 -1.159,-1.364 -1.98,-1.364c-0.822,0 -1.489,0.455 -2.002,1.364c-0.499,0.895 -0.748,2.369 -0.748,4.422c0,2.053 0.249,3.549 0.748,4.488c0.513,0.924 1.18,1.386 2.002,1.386zm10.935,1.452c-1.408,0 -2.515,-0.631 -3.322,-1.892c-0.792,-1.276 -1.188,-3.087 -1.188,-5.434c0,-2.361 0.396,-4.158 1.188,-5.39c0.807,-1.232 1.914,-1.848 3.322,-1.848c1.394,0 2.486,0.616 3.278,1.848c0.807,1.232 1.21,3.029 1.21,5.39c0,2.347 -0.403,4.158 -1.21,5.434c-0.792,1.261 -1.884,1.892 -3.278,1.892zm0,-1.452c0.822,0 1.482,-0.462 1.98,-1.386c0.499,-0.939 0.748,-2.435 0.748,-4.488c0,-2.053 -0.249,-3.527 -0.748,-4.422c-0.498,-0.909 -1.158,-1.364 -1.98,-1.364c-0.821,0 -1.488,0.455 -2.002,1.364c-0.498,0.895 -0.748,2.369 -0.748,4.422c0,2.053 0.25,3.549 0.748,4.488c0.514,0.924 1.181,1.386 2.002,1.386z"/>
  <line id="svg_9" stroke="#D6D6D6" y2="448" x2="979.5" y1="437" x1="979.5"/>
  <path id="svg_10" fill="black" d="m957.353,481.264c-1.115,0 -2.046,-0.198 -2.794,-0.594c-0.748,-0.411 -1.357,-0.873 -1.826,-1.386l0.924,-1.188c0.425,0.44 0.924,0.829 1.496,1.166c0.572,0.337 1.269,0.506 2.09,0.506c0.851,0 1.547,-0.235 2.09,-0.704c0.543,-0.469 0.814,-1.093 0.814,-1.87c0,-0.557 -0.147,-1.041 -0.44,-1.452c-0.279,-0.425 -0.748,-0.755 -1.408,-0.99c-0.645,-0.235 -1.525,-0.352 -2.64,-0.352l0,-1.386c0.997,0 1.782,-0.117 2.354,-0.352c0.587,-0.235 1.005,-0.55 1.254,-0.946c0.249,-0.396 0.374,-0.836 0.374,-1.32c0,-0.689 -0.22,-1.232 -0.66,-1.628c-0.425,-0.396 -1.012,-0.594 -1.76,-0.594c-0.587,0 -1.129,0.132 -1.628,0.396c-0.484,0.264 -0.939,0.609 -1.364,1.034l-0.968,-1.144c0.543,-0.513 1.144,-0.931 1.804,-1.254c0.66,-0.337 1.401,-0.506 2.222,-0.506c1.217,0 2.222,0.315 3.014,0.946c0.792,0.616 1.188,1.489 1.188,2.618c0,0.851 -0.235,1.547 -0.704,2.09c-0.469,0.543 -1.085,0.961 -1.848,1.254l0,0.088c0.851,0.191 1.569,0.594 2.156,1.21c0.587,0.601 0.88,1.386 0.88,2.354c0,0.821 -0.205,1.533 -0.616,2.134c-0.411,0.601 -0.968,1.063 -1.672,1.386c-0.689,0.323 -1.467,0.484 -2.332,0.484zm11.222,0c-1.408,0 -2.516,-0.631 -3.322,-1.892c-0.792,-1.276 -1.188,-3.087 -1.188,-5.434c0,-2.361 0.396,-4.158 1.188,-5.39c0.806,-1.232 1.914,-1.848 3.322,-1.848c1.393,0 2.486,0.616 3.278,1.848c0.806,1.232 1.21,3.029 1.21,5.39c0,2.347 -0.404,4.158 -1.21,5.434c-0.792,1.261 -1.885,1.892 -3.278,1.892zm0,-1.452c0.821,0 1.481,-0.462 1.98,-1.386c0.498,-0.939 0.748,-2.435 0.748,-4.488c0,-2.053 -0.25,-3.527 -0.748,-4.422c-0.499,-0.909 -1.159,-1.364 -1.98,-1.364c-0.822,0 -1.489,0.455 -2.002,1.364c-0.499,0.895 -0.748,2.369 -0.748,4.422c0,2.053 0.249,3.549 0.748,4.488c0.513,0.924 1.18,1.386 2.002,1.386zm10.935,1.452c-1.408,0 -2.515,-0.631 -3.322,-1.892c-0.792,-1.276 -1.188,-3.087 -1.188,-5.434c0,-2.361 0.396,-4.158 1.188,-5.39c0.807,-1.232 1.914,-1.848 3.322,-1.848c1.394,0 2.486,0.616 3.278,1.848c0.807,1.232 1.21,3.029 1.21,5.39c0,2.347 -0.403,4.158 -1.21,5.434c-0.792,1.261 -1.884,1.892 -3.278,1.892zm0,-1.452c0.822,0 1.482,-0.462 1.98,-1.386c0.499,-0.939 0.748,-2.435 0.748,-4.488c0,-2.053 -0.249,-3.527 -0.748,-4.422c-0.498,-0.909 -1.158,-1.364 -1.98,-1.364c-0.821,0 -1.488,0.455 -2.002,1.364c-0.498,0.895 -0.748,2.369 -0.748,4.422c0,2.053 0.25,3.549 0.748,4.488c0.514,0.924 1.181,1.386 2.002,1.386zm10.936,1.452c-1.408,0 -2.516,-0.631 -3.322,-1.892c-0.792,-1.276 -1.188,-3.087 -1.188,-5.434c0,-2.361 0.396,-4.158 1.188,-5.39c0.806,-1.232 1.914,-1.848 3.322,-1.848c1.393,0 2.486,0.616 3.278,1.848c0.806,1.232 1.21,3.029 1.21,5.39c0,2.347 -0.404,4.158 -1.21,5.434c-0.792,1.261 -1.885,1.892 -3.278,1.892zm0,-1.452c0.821,0 1.481,-0.462 1.98,-1.386c0.498,-0.939 0.748,-2.435 0.748,-4.488c0,-2.053 -0.25,-3.527 -0.748,-4.422c-0.499,-0.909 -1.159,-1.364 -1.98,-1.364c-0.822,0 -1.489,0.455 -2.002,1.364c-0.499,0.895 -0.748,2.369 -0.748,4.422c0,2.053 0.249,3.549 0.748,4.488c0.513,0.924 1.18,1.386 2.002,1.386zm10.934,1.452c-1.407,0 -2.514,-0.631 -3.321,-1.892c-0.792,-1.276 -1.188,-3.087 -1.188,-5.434c0,-2.361 0.396,-4.158 1.188,-5.39c0.807,-1.232 1.914,-1.848 3.321,-1.848c1.39,0 2.49,0.616 3.28,1.848c0.81,1.232 1.21,3.029 1.21,5.39c0,2.347 -0.4,4.158 -1.21,5.434c-0.79,1.261 -1.89,1.892 -3.28,1.892zm0,-1.452c0.82,0 1.48,-0.462 1.98,-1.386c0.5,-0.939 0.75,-2.435 0.75,-4.488c0,-2.053 -0.25,-3.527 -0.75,-4.422c-0.5,-0.909 -1.16,-1.364 -1.98,-1.364c-0.82,0 -1.487,0.455 -2.001,1.364c-0.498,0.895 -0.748,2.369 -0.748,4.422c0,2.053 0.25,3.549 0.748,4.488c0.514,0.924 1.181,1.386 2.001,1.386z"/>
  <line id="svg_11" stroke="#D6D6D6" y2="448" x2="1152.5" y1="437" x1="1152.5"/>
  <path id="svg_12" fill="black" d="m1127.45,475.676l4.4,0l0,-4.07c0,-0.381 0.01,-0.836 0.04,-1.364c0.03,-0.528 0.05,-0.975 0.07,-1.342l-0.09,0c-0.17,0.337 -0.36,0.667 -0.55,0.99c-0.19,0.323 -0.39,0.653 -0.59,0.99l-3.28,4.796zm4.4,5.324l0,-3.872l-6.31,0l0,-1.188l6,-8.976l2.03,0l0,8.712l1.91,0l0,1.452l-1.91,0l0,3.872l-1.72,0zm9.72,0.264c-1.4,0 -2.51,-0.631 -3.32,-1.892c-0.79,-1.276 -1.19,-3.087 -1.19,-5.434c0,-2.361 0.4,-4.158 1.19,-5.39c0.81,-1.232 1.92,-1.848 3.32,-1.848c1.4,0 2.49,0.616 3.28,1.848c0.81,1.232 1.21,3.029 1.21,5.39c0,2.347 -0.4,4.158 -1.21,5.434c-0.79,1.261 -1.88,1.892 -3.28,1.892zm0,-1.452c0.83,0 1.49,-0.462 1.98,-1.386c0.5,-0.939 0.75,-2.435 0.75,-4.488c0,-2.053 -0.25,-3.527 -0.75,-4.422c-0.49,-0.909 -1.15,-1.364 -1.98,-1.364c-0.82,0 -1.48,0.455 -2,1.364c-0.5,0.895 -0.75,2.369 -0.75,4.422c0,2.053 0.25,3.549 0.75,4.488c0.52,0.924 1.18,1.386 2,1.386zm10.94,1.452c-1.41,0 -2.52,-0.631 -3.32,-1.892c-0.79,-1.276 -1.19,-3.087 -1.19,-5.434c0,-2.361 0.4,-4.158 1.19,-5.39c0.8,-1.232 1.91,-1.848 3.32,-1.848c1.39,0 2.49,0.616 3.28,1.848c0.8,1.232 1.21,3.029 1.21,5.39c0,2.347 -0.41,4.158 -1.21,5.434c-0.79,1.261 -1.89,1.892 -3.28,1.892zm0,-1.452c0.82,0 1.48,-0.462 1.98,-1.386c0.5,-0.939 0.75,-2.435 0.75,-4.488c0,-2.053 -0.25,-3.527 -0.75,-4.422c-0.5,-0.909 -1.16,-1.364 -1.98,-1.364c-0.82,0 -1.49,0.455 -2,1.364c-0.5,0.895 -0.75,2.369 -0.75,4.422c0,2.053 0.25,3.549 0.75,4.488c0.51,0.924 1.18,1.386 2,1.386zm10.94,1.452c-1.41,0 -2.52,-0.631 -3.33,-1.892c-0.79,-1.276 -1.18,-3.087 -1.18,-5.434c0,-2.361 0.39,-4.158 1.18,-5.39c0.81,-1.232 1.92,-1.848 3.33,-1.848c1.39,0 2.48,0.616 3.27,1.848c0.81,1.232 1.21,3.029 1.21,5.39c0,2.347 -0.4,4.158 -1.21,5.434c-0.79,1.261 -1.88,1.892 -3.27,1.892zm0,-1.452c0.82,0 1.48,-0.462 1.98,-1.386c0.49,-0.939 0.74,-2.435 0.74,-4.488c0,-2.053 -0.25,-3.527 -0.74,-4.422c-0.5,-0.909 -1.16,-1.364 -1.98,-1.364c-0.83,0 -1.49,0.455 -2.01,1.364c-0.49,0.895 -0.74,2.369 -0.74,4.422c0,2.053 0.25,3.549 0.74,4.488c0.52,0.924 1.18,1.386 2.01,1.386zm10.93,1.452c-1.41,0 -2.51,-0.631 -3.32,-1.892c-0.79,-1.276 -1.19,-3.087 -1.19,-5.434c0,-2.361 0.4,-4.158 1.19,-5.39c0.81,-1.232 1.91,-1.848 3.32,-1.848c1.39,0 2.49,0.616 3.28,1.848c0.81,1.232 1.21,3.029 1.21,5.39c0,2.347 -0.4,4.158 -1.21,5.434c-0.79,1.261 -1.89,1.892 -3.28,1.892zm0,-1.452c0.82,0 1.48,-0.462 1.98,-1.386c0.5,-0.939 0.75,-2.435 0.75,-4.488c0,-2.053 -0.25,-3.527 -0.75,-4.422c-0.5,-0.909 -1.16,-1.364 -1.98,-1.364c-0.82,0 -1.49,0.455 -2,1.364c-0.5,0.895 -0.75,2.369 -0.75,4.422c0,2.053 0.25,3.549 0.75,4.488c0.51,0.924 1.18,1.386 2,1.386z"/>
  <line id="svg_13" stroke="#D6D6D6" y2="448" x2="1325.5" y1="437" x1="1325.5"/>
  <path id="svg_14" fill="black" d="m1303.31,481.264c-1.12,0 -2.04,-0.198 -2.77,-0.594c-0.74,-0.396 -1.34,-0.836 -1.83,-1.32l0.88,-1.188c0.43,0.411 0.92,0.785 1.48,1.122c0.55,0.323 1.24,0.484 2.06,0.484c0.87,0 1.59,-0.286 2.18,-0.858c0.6,-0.587 0.9,-1.371 0.9,-2.354c0,-0.968 -0.27,-1.723 -0.81,-2.266c-0.54,-0.543 -1.27,-0.814 -2.18,-0.814c-0.48,0 -0.9,0.073 -1.25,0.22c-0.34,0.147 -0.72,0.359 -1.15,0.638l-0.96,-0.616l0.46,-6.754l7.02,0l0,1.562l-5.44,0l-0.37,4.158c0.33,-0.176 0.67,-0.315 1.01,-0.418c0.34,-0.103 0.72,-0.154 1.14,-0.154c0.81,0 1.54,0.161 2.18,0.484c0.66,0.308 1.19,0.785 1.59,1.43c0.39,0.645 0.59,1.474 0.59,2.486c0,1.012 -0.23,1.877 -0.68,2.596c-0.44,0.704 -1.02,1.239 -1.74,1.606c-0.72,0.367 -1.49,0.55 -2.31,0.55zm11.26,0c-1.4,0 -2.51,-0.631 -3.32,-1.892c-0.79,-1.276 -1.19,-3.087 -1.19,-5.434c0,-2.361 0.4,-4.158 1.19,-5.39c0.81,-1.232 1.92,-1.848 3.32,-1.848c1.4,0 2.49,0.616 3.28,1.848c0.81,1.232 1.21,3.029 1.21,5.39c0,2.347 -0.4,4.158 -1.21,5.434c-0.79,1.261 -1.88,1.892 -3.28,1.892zm0,-1.452c0.83,0 1.49,-0.462 1.98,-1.386c0.5,-0.939 0.75,-2.435 0.75,-4.488c0,-2.053 -0.25,-3.527 -0.75,-4.422c-0.49,-0.909 -1.15,-1.364 -1.98,-1.364c-0.82,0 -1.48,0.455 -2,1.364c-0.5,0.895 -0.75,2.369 -0.75,4.422c0,2.053 0.25,3.549 0.75,4.488c0.52,0.924 1.18,1.386 2,1.386zm10.94,1.452c-1.41,0 -2.52,-0.631 -3.32,-1.892c-0.79,-1.276 -1.19,-3.087 -1.19,-5.434c0,-2.361 0.4,-4.158 1.19,-5.39c0.8,-1.232 1.91,-1.848 3.32,-1.848c1.39,0 2.49,0.616 3.28,1.848c0.8,1.232 1.21,3.029 1.21,5.39c0,2.347 -0.41,4.158 -1.21,5.434c-0.79,1.261 -1.89,1.892 -3.28,1.892zm0,-1.452c0.82,0 1.48,-0.462 1.98,-1.386c0.5,-0.939 0.75,-2.435 0.75,-4.488c0,-2.053 -0.25,-3.527 -0.75,-4.422c-0.5,-0.909 -1.16,-1.364 -1.98,-1.364c-0.82,0 -1.49,0.455 -2,1.364c-0.5,0.895 -0.75,2.369 -0.75,4.422c0,2.053 0.25,3.549 0.75,4.488c0.51,0.924 1.18,1.386 2,1.386zm10.94,1.452c-1.41,0 -2.52,-0.631 -3.33,-1.892c-0.79,-1.276 -1.18,-3.087 -1.18,-5.434c0,-2.361 0.39,-4.158 1.18,-5.39c0.81,-1.232 1.92,-1.848 3.33,-1.848c1.39,0 2.48,0.616 3.27,1.848c0.81,1.232 1.21,3.029 1.21,5.39c0,2.347 -0.4,4.158 -1.21,5.434c-0.79,1.261 -1.88,1.892 -3.27,1.892zm0,-1.452c0.82,0 1.48,-0.462 1.98,-1.386c0.49,-0.939 0.74,-2.435 0.74,-4.488c0,-2.053 -0.25,-3.527 -0.74,-4.422c-0.5,-0.909 -1.16,-1.364 -1.98,-1.364c-0.83,0 -1.49,0.455 -2.01,1.364c-0.49,0.895 -0.74,2.369 -0.74,4.422c0,2.053 0.25,3.549 0.74,4.488c0.52,0.924 1.18,1.386 2.01,1.386zm10.93,1.452c-1.41,0 -2.51,-0.631 -3.32,-1.892c-0.79,-1.276 -1.19,-3.087 -1.19,-5.434c0,-2.361 0.4,-4.158 1.19,-5.39c0.81,-1.232 1.91,-1.848 3.32,-1.848c1.39,0 2.49,0.616 3.28,1.848c0.81,1.232 1.21,3.029 1.21,5.39c0,2.347 -0.4,4.158 -1.21,5.434c-0.79,1.261 -1.89,1.892 -3.28,1.892zm0,-1.452c0.82,0 1.48,-0.462 1.98,-1.386c0.5,-0.939 0.75,-2.435 0.75,-4.488c0,-2.053 -0.25,-3.527 -0.75,-4.422c-0.5,-0.909 -1.16,-1.364 -1.98,-1.364c-0.82,0 -1.49,0.455 -2,1.364c-0.5,0.895 -0.75,2.369 -0.75,4.422c0,2.053 0.25,3.549 0.75,4.488c0.51,0.924 1.18,1.386 2,1.386z"/>
  <line id="svg_15" stroke="#D6D6D6" y2="448" x2="1498.5" y1="437" x1="1498.5"/>
  <path id="svg_16" fill="black" d="m1476.9,473.784c-0.45,0 -0.94,0.147 -1.47,0.44c-0.53,0.293 -1.01,0.763 -1.45,1.408c0.11,1.364 0.43,2.405 0.94,3.124c0.53,0.719 1.24,1.078 2.14,1.078c0.69,0 1.27,-0.279 1.74,-0.836c0.46,-0.572 0.7,-1.32 0.7,-2.244c0,-0.909 -0.22,-1.628 -0.66,-2.156c-0.43,-0.543 -1.07,-0.814 -1.94,-0.814zm0.16,7.48c-0.91,0 -1.73,-0.249 -2.47,-0.748c-0.73,-0.499 -1.31,-1.247 -1.73,-2.244c-0.43,-1.012 -0.64,-2.266 -0.64,-3.762c0,-1.877 0.25,-3.388 0.75,-4.532c0.51,-1.144 1.17,-1.973 1.98,-2.486c0.82,-0.528 1.69,-0.792 2.61,-0.792c0.77,0 1.42,0.147 1.96,0.44c0.56,0.279 1.04,0.631 1.43,1.056l-1.01,1.122c-0.28,-0.337 -0.62,-0.601 -1.03,-0.792c-0.42,-0.205 -0.84,-0.308 -1.28,-0.308c-0.66,0 -1.26,0.191 -1.8,0.572c-0.55,0.367 -0.99,0.99 -1.35,1.87c-0.33,0.865 -0.52,2.039 -0.55,3.52c0.44,-0.543 0.96,-0.968 1.54,-1.276c0.59,-0.323 1.17,-0.484 1.74,-0.484c1.22,0 2.19,0.367 2.91,1.1c0.73,0.719 1.1,1.797 1.1,3.234c0,0.895 -0.2,1.679 -0.58,2.354c-0.38,0.675 -0.88,1.203 -1.51,1.584c-0.62,0.381 -1.31,0.572 -2.07,0.572zm10.51,0c-1.4,0 -2.51,-0.631 -3.32,-1.892c-0.79,-1.276 -1.19,-3.087 -1.19,-5.434c0,-2.361 0.4,-4.158 1.19,-5.39c0.81,-1.232 1.92,-1.848 3.32,-1.848c1.4,0 2.49,0.616 3.28,1.848c0.81,1.232 1.21,3.029 1.21,5.39c0,2.347 -0.4,4.158 -1.21,5.434c-0.79,1.261 -1.88,1.892 -3.28,1.892zm0,-1.452c0.83,0 1.49,-0.462 1.98,-1.386c0.5,-0.939 0.75,-2.435 0.75,-4.488c0,-2.053 -0.25,-3.527 -0.75,-4.422c-0.49,-0.909 -1.15,-1.364 -1.98,-1.364c-0.82,0 -1.48,0.455 -2,1.364c-0.5,0.895 -0.75,2.369 -0.75,4.422c0,2.053 0.25,3.549 0.75,4.488c0.52,0.924 1.18,1.386 2,1.386zm10.94,1.452c-1.41,0 -2.52,-0.631 -3.32,-1.892c-0.79,-1.276 -1.19,-3.087 -1.19,-5.434c0,-2.361 0.4,-4.158 1.19,-5.39c0.8,-1.232 1.91,-1.848 3.32,-1.848c1.39,0 2.49,0.616 3.28,1.848c0.8,1.232 1.21,3.029 1.21,5.39c0,2.347 -0.41,4.158 -1.21,5.434c-0.79,1.261 -1.89,1.892 -3.28,1.892zm0,-1.452c0.82,0 1.48,-0.462 1.98,-1.386c0.5,-0.939 0.75,-2.435 0.75,-4.488c0,-2.053 -0.25,-3.527 -0.75,-4.422c-0.5,-0.909 -1.16,-1.364 -1.98,-1.364c-0.82,0 -1.49,0.455 -2,1.364c-0.5,0.895 -0.75,2.369 -0.75,4.422c0,2.053 0.25,3.549 0.75,4.488c0.51,0.924 1.18,1.386 2,1.386zm10.94,1.452c-1.41,0 -2.52,-0.631 -3.33,-1.892c-0.79,-1.276 -1.18,-3.087 -1.18,-5.434c0,-2.361 0.39,-4.158 1.18,-5.39c0.81,-1.232 1.92,-1.848 3.33,-1.848c1.39,0 2.48,0.616 3.27,1.848c0.81,1.232 1.21,3.029 1.21,5.39c0,2.347 -0.4,4.158 -1.21,5.434c-0.79,1.261 -1.88,1.892 -3.27,1.892zm0,-1.452c0.82,0 1.48,-0.462 1.98,-1.386c0.49,-0.939 0.74,-2.435 0.74,-4.488c0,-2.053 -0.25,-3.527 -0.74,-4.422c-0.5,-0.909 -1.16,-1.364 -1.98,-1.364c-0.83,0 -1.49,0.455 -2.01,1.364c-0.49,0.895 -0.74,2.369 -0.74,4.422c0,2.053 0.25,3.549 0.74,4.488c0.52,0.924 1.18,1.386 2.01,1.386zm10.93,1.452c-1.41,0 -2.51,-0.631 -3.32,-1.892c-0.79,-1.276 -1.19,-3.087 -1.19,-5.434c0,-2.361 0.4,-4.158 1.19,-5.39c0.81,-1.232 1.91,-1.848 3.32,-1.848c1.39,0 2.49,0.616 3.28,1.848c0.81,1.232 1.21,3.029 1.21,5.39c0,2.347 -0.4,4.158 -1.21,5.434c-0.79,1.261 -1.89,1.892 -3.28,1.892zm0,-1.452c0.82,0 1.48,-0.462 1.98,-1.386c0.5,-0.939 0.75,-2.435 0.75,-4.488c0,-2.053 -0.25,-3.527 -0.75,-4.422c-0.5,-0.909 -1.16,-1.364 -1.98,-1.364c-0.82,0 -1.49,0.455 -2,1.364c-0.5,0.895 -0.75,2.369 -0.75,4.422c0,2.053 0.25,3.549 0.75,4.488c0.51,0.924 1.18,1.386 2,1.386z"/>
  <line id="svg_17" stroke="#D6D6D6" y2="448" x2="1671.5" y1="437" x1="1671.5"/>
  <path id="svg_18" fill="black" d="m1648.06,481c0.08,-1.76 0.27,-3.337 0.55,-4.73c0.29,-1.408 0.71,-2.728 1.27,-3.96c0.57,-1.247 1.32,-2.508 2.25,-3.784l-7,0l0,-1.562l9.04,0l0,1.122c-0.83,1.056 -1.52,2.075 -2.04,3.058c-0.53,0.968 -0.94,1.951 -1.24,2.948c-0.29,0.983 -0.51,2.039 -0.66,3.168c-0.14,1.129 -0.25,2.376 -0.3,3.74l-1.87,0zm12.51,0.264c-1.4,0 -2.51,-0.631 -3.32,-1.892c-0.79,-1.276 -1.19,-3.087 -1.19,-5.434c0,-2.361 0.4,-4.158 1.19,-5.39c0.81,-1.232 1.92,-1.848 3.32,-1.848c1.4,0 2.49,0.616 3.28,1.848c0.81,1.232 1.21,3.029 1.21,5.39c0,2.347 -0.4,4.158 -1.21,5.434c-0.79,1.261 -1.88,1.892 -3.28,1.892zm0,-1.452c0.83,0 1.49,-0.462 1.98,-1.386c0.5,-0.939 0.75,-2.435 0.75,-4.488c0,-2.053 -0.25,-3.527 -0.75,-4.422c-0.49,-0.909 -1.15,-1.364 -1.98,-1.364c-0.82,0 -1.48,0.455 -2,1.364c-0.5,0.895 -0.75,2.369 -0.75,4.422c0,2.053 0.25,3.549 0.75,4.488c0.52,0.924 1.18,1.386 2,1.386zm10.94,1.452c-1.41,0 -2.52,-0.631 -3.32,-1.892c-0.79,-1.276 -1.19,-3.087 -1.19,-5.434c0,-2.361 0.4,-4.158 1.19,-5.39c0.8,-1.232 1.91,-1.848 3.32,-1.848c1.39,0 2.49,0.616 3.28,1.848c0.8,1.232 1.21,3.029 1.21,5.39c0,2.347 -0.41,4.158 -1.21,5.434c-0.79,1.261 -1.89,1.892 -3.28,1.892zm0,-1.452c0.82,0 1.48,-0.462 1.98,-1.386c0.5,-0.939 0.75,-2.435 0.75,-4.488c0,-2.053 -0.25,-3.527 -0.75,-4.422c-0.5,-0.909 -1.16,-1.364 -1.98,-1.364c-0.82,0 -1.49,0.455 -2,1.364c-0.5,0.895 -0.75,2.369 -0.75,4.422c0,2.053 0.25,3.549 0.75,4.488c0.51,0.924 1.18,1.386 2,1.386zm10.94,1.452c-1.41,0 -2.52,-0.631 -3.33,-1.892c-0.79,-1.276 -1.18,-3.087 -1.18,-5.434c0,-2.361 0.39,-4.158 1.18,-5.39c0.81,-1.232 1.92,-1.848 3.33,-1.848c1.39,0 2.48,0.616 3.27,1.848c0.81,1.232 1.21,3.029 1.21,5.39c0,2.347 -0.4,4.158 -1.21,5.434c-0.79,1.261 -1.88,1.892 -3.27,1.892zm0,-1.452c0.82,0 1.48,-0.462 1.98,-1.386c0.49,-0.939 0.74,-2.435 0.74,-4.488c0,-2.053 -0.25,-3.527 -0.74,-4.422c-0.5,-0.909 -1.16,-1.364 -1.98,-1.364c-0.83,0 -1.49,0.455 -2.01,1.364c-0.49,0.895 -0.74,2.369 -0.74,4.422c0,2.053 0.25,3.549 0.74,4.488c0.52,0.924 1.18,1.386 2.01,1.386zm10.93,1.452c-1.41,0 -2.51,-0.631 -3.32,-1.892c-0.79,-1.276 -1.19,-3.087 -1.19,-5.434c0,-2.361 0.4,-4.158 1.19,-5.39c0.81,-1.232 1.91,-1.848 3.32,-1.848c1.39,0 2.49,0.616 3.28,1.848c0.81,1.232 1.21,3.029 1.21,5.39c0,2.347 -0.4,4.158 -1.21,5.434c-0.79,1.261 -1.89,1.892 -3.28,1.892zm0,-1.452c0.82,0 1.48,-0.462 1.98,-1.386c0.5,-0.939 0.75,-2.435 0.75,-4.488c0,-2.053 -0.25,-3.527 -0.75,-4.422c-0.5,-0.909 -1.16,-1.364 -1.98,-1.364c-0.82,0 -1.49,0.455 -2,1.364c-0.5,0.895 -0.75,2.369 -0.75,4.422c0,2.053 0.25,3.549 0.75,4.488c0.51,0.924 1.18,1.386 2,1.386z"/>
  <rect id="svg_19" fill="#FFDFCA" height="42" width="1277" y="379" x="480"/>
  <line id="svg_20" stroke="#D6D6D6" y2="400.5" x2="455.004" y1="400.5" x1="479.135"/>
  <rect id="svg_21" fill="#FFDFCA" height="42" width="948.487" y="311" x="479.514"/>
  <line id="svg_22" stroke="#D6D6D6" y2="332.5" x2="463" y1="332.5" x1="479.514"/>
  <rect id="svg_23" fill="#FFDFCA" height="42" width="228" y="243" x="479"/>
  <line id="svg_24" stroke="#D6D6D6" y2="264.5" x2="463" y1="264.5" x1="479"/>
  <rect id="svg_25" fill="#FFDFCA" height="42" width="53" y="175" x="479"/>
  <line id="svg_26" stroke="#D6D6D6" y2="196.5" x2="463" y1="196.5" x1="479"/>
  <rect id="svg_27" fill="#FFDFCA" height="42" width="20" y="107" x="479"/>
  <line id="svg_28" stroke="#D6D6D6" y2="128.5" x2="463" y1="128.5" x1="479"/>
  <path id="svg_29" fill="black" d="m1761.45,409c0.07,-1.356 0.22,-2.568 0.43,-3.636c0.22,-1.08 0.55,-2.106 0.99,-3.078c0.45,-0.972 1.04,-1.968 1.77,-2.988l-5.42,0l0,-1.746l7.69,0l0,1.26c-0.68,0.828 -1.22,1.62 -1.64,2.376c-0.41,0.756 -0.73,1.524 -0.97,2.304c-0.23,0.768 -0.4,1.602 -0.51,2.502c-0.11,0.888 -0.18,1.89 -0.23,3.006l-2.11,0zm10.54,0.216c-0.92,0 -1.7,-0.156 -2.34,-0.468c-0.62,-0.324 -1.14,-0.696 -1.56,-1.116l0.95,-1.332c0.35,0.324 0.74,0.612 1.17,0.864c0.43,0.24 0.94,0.36 1.51,0.36c0.64,0 1.17,-0.192 1.59,-0.576c0.42,-0.384 0.63,-0.924 0.63,-1.62c0,-0.684 -0.19,-1.212 -0.58,-1.584c-0.38,-0.372 -0.89,-0.558 -1.53,-0.558c-0.37,0 -0.68,0.054 -0.93,0.162c-0.26,0.096 -0.56,0.258 -0.9,0.486l-0.99,-0.63l0.34,-5.652l6.12,0l0,1.746l-4.32,0l-0.24,2.772c0.24,-0.12 0.48,-0.21 0.71,-0.27c0.24,-0.072 0.51,-0.108 0.81,-0.108c0.66,0 1.26,0.126 1.8,0.378c0.54,0.252 0.97,0.642 1.29,1.17c0.34,0.528 0.51,1.206 0.51,2.034c0,0.828 -0.2,1.536 -0.58,2.124c-0.37,0.588 -0.86,1.038 -1.48,1.35c-0.61,0.312 -1.27,0.468 -1.98,0.468zm5.58,-0.216l0,-1.206c1.07,-1.032 1.98,-1.95 2.75,-2.754c0.78,-0.816 1.38,-1.554 1.8,-2.214c0.42,-0.672 0.63,-1.296 0.63,-1.872c0,-0.6 -0.16,-1.08 -0.48,-1.44c-0.33,-0.36 -0.8,-0.54 -1.41,-0.54c-0.44,0 -0.85,0.126 -1.22,0.378c-0.36,0.252 -0.7,0.552 -1.01,0.9l-1.15,-1.152c0.53,-0.564 1.07,-0.996 1.64,-1.296c0.56,-0.312 1.23,-0.468 2.01,-0.468c1.11,0 1.98,0.318 2.63,0.954c0.66,0.636 0.99,1.488 0.99,2.556c0,0.672 -0.19,1.362 -0.58,2.07c-0.37,0.696 -0.87,1.41 -1.51,2.142c-0.62,0.732 -1.31,1.5 -2.07,2.304c0.3,-0.024 0.63,-0.048 0.97,-0.072c0.35,-0.036 0.66,-0.054 0.94,-0.054l2.81,0l0,1.764l-7.74,0zm13.15,0.216c-1.19,0 -2.13,-0.516 -2.84,-1.548c-0.7,-1.032 -1.05,-2.514 -1.05,-4.446c0,-1.932 0.35,-3.396 1.05,-4.392c0.71,-0.996 1.65,-1.494 2.84,-1.494c1.19,0 2.13,0.498 2.83,1.494c0.71,0.996 1.06,2.46 1.06,4.392c0,1.932 -0.35,3.414 -1.06,4.446c-0.7,1.032 -1.64,1.548 -2.83,1.548zm0,-1.62c0.37,0 0.7,-0.138 0.99,-0.414c0.29,-0.288 0.51,-0.75 0.67,-1.386c0.17,-0.636 0.25,-1.494 0.25,-2.574c0,-1.08 -0.08,-1.932 -0.25,-2.556c-0.16,-0.624 -0.38,-1.062 -0.67,-1.314c-0.29,-0.264 -0.62,-0.396 -0.99,-0.396c-0.36,0 -0.68,0.132 -0.97,0.396c-0.29,0.252 -0.52,0.69 -0.68,1.314c-0.17,0.624 -0.26,1.476 -0.26,2.556c0,1.08 0.09,1.938 0.26,2.574c0.16,0.636 0.39,1.098 0.68,1.386c0.29,0.276 0.61,0.414 0.97,0.414zm9.23,1.62c-1.19,0 -2.14,-0.516 -2.84,-1.548c-0.7,-1.032 -1.05,-2.514 -1.05,-4.446c0,-1.932 0.35,-3.396 1.05,-4.392c0.7,-0.996 1.65,-1.494 2.84,-1.494c1.19,0 2.13,0.498 2.83,1.494c0.7,0.996 1.06,2.46 1.06,4.392c0,1.932 -0.36,3.414 -1.06,4.446c-0.7,1.032 -1.64,1.548 -2.83,1.548zm0,-1.62c0.37,0 0.7,-0.138 0.99,-0.414c0.29,-0.288 0.51,-0.75 0.67,-1.386c0.16,-0.636 0.25,-1.494 0.25,-2.574c0,-1.08 -0.09,-1.932 -0.25,-2.556c-0.16,-0.624 -0.38,-1.062 -0.67,-1.314c-0.29,-0.264 -0.62,-0.396 -0.99,-0.396c-0.36,0 -0.68,0.132 -0.97,0.396c-0.29,0.252 -0.52,0.69 -0.69,1.314c-0.16,0.624 -0.25,1.476 -0.25,2.556c0,1.08 0.09,1.938 0.25,2.574c0.17,0.636 0.4,1.098 0.69,1.386c0.29,0.276 0.61,0.414 0.97,0.414z"/>
  <path id="svg_30" fill="black" d="m1441.34,341.216c-0.93,0 -1.71,-0.156 -2.34,-0.468c-0.63,-0.324 -1.15,-0.696 -1.57,-1.116l0.96,-1.332c0.34,0.324 0.73,0.612 1.17,0.864c0.43,0.24 0.93,0.36 1.51,0.36c0.63,0 1.16,-0.192 1.58,-0.576c0.42,-0.384 0.63,-0.924 0.63,-1.62c0,-0.684 -0.19,-1.212 -0.57,-1.584c-0.39,-0.372 -0.9,-0.558 -1.53,-0.558c-0.38,0 -0.69,0.054 -0.94,0.162c-0.25,0.096 -0.55,0.258 -0.9,0.486l-0.99,-0.63l0.34,-5.652l6.12,0l0,1.746l-4.32,0l-0.23,2.772c0.24,-0.12 0.47,-0.21 0.7,-0.27c0.24,-0.072 0.51,-0.108 0.81,-0.108c0.66,0 1.26,0.126 1.8,0.378c0.54,0.252 0.97,0.642 1.3,1.17c0.33,0.528 0.5,1.206 0.5,2.034c0,0.828 -0.19,1.536 -0.58,2.124c-0.37,0.588 -0.86,1.038 -1.47,1.35c-0.61,0.312 -1.27,0.468 -1.98,0.468zm7.91,-0.216c0.07,-1.356 0.22,-2.568 0.43,-3.636c0.22,-1.08 0.55,-2.106 0.99,-3.078c0.45,-0.972 1.04,-1.968 1.77,-2.988l-5.42,0l0,-1.746l7.69,0l0,1.26c-0.68,0.828 -1.22,1.62 -1.64,2.376c-0.41,0.756 -0.73,1.524 -0.97,2.304c-0.23,0.768 -0.4,1.602 -0.51,2.502c-0.11,0.888 -0.18,1.89 -0.23,3.006l-2.11,0zm7.54,0l0,-1.692l2.56,0l0,-7.524l-2.11,0l0,-1.296c0.56,-0.108 1.06,-0.234 1.48,-0.378c0.42,-0.156 0.81,-0.342 1.17,-0.558l1.54,0l0,9.756l2.25,0l0,1.692l-6.89,0zm12.23,0.216c-0.92,0 -1.7,-0.156 -2.34,-0.468c-0.62,-0.324 -1.14,-0.696 -1.56,-1.116l0.95,-1.332c0.35,0.324 0.74,0.612 1.17,0.864c0.43,0.24 0.94,0.36 1.51,0.36c0.64,0 1.17,-0.192 1.59,-0.576c0.42,-0.384 0.63,-0.924 0.63,-1.62c0,-0.684 -0.19,-1.212 -0.58,-1.584c-0.38,-0.372 -0.89,-0.558 -1.53,-0.558c-0.37,0 -0.68,0.054 -0.93,0.162c-0.26,0.096 -0.56,0.258 -0.9,0.486l-0.99,-0.63l0.34,-5.652l6.12,0l0,1.746l-4.32,0l-0.24,2.772c0.24,-0.12 0.48,-0.21 0.71,-0.27c0.24,-0.072 0.51,-0.108 0.81,-0.108c0.66,0 1.26,0.126 1.8,0.378c0.54,0.252 0.97,0.642 1.29,1.17c0.34,0.528 0.51,1.206 0.51,2.034c0,0.828 -0.2,1.536 -0.58,2.124c-0.37,0.588 -0.86,1.038 -1.48,1.35c-0.61,0.312 -1.27,0.468 -1.98,0.468zm5.58,-0.216l0,-1.206c1.07,-1.032 1.98,-1.95 2.75,-2.754c0.78,-0.816 1.38,-1.554 1.8,-2.214c0.42,-0.672 0.63,-1.296 0.63,-1.872c0,-0.6 -0.16,-1.08 -0.48,-1.44c-0.33,-0.36 -0.8,-0.54 -1.41,-0.54c-0.44,0 -0.85,0.126 -1.22,0.378c-0.36,0.252 -0.7,0.552 -1.01,0.9l-1.15,-1.152c0.53,-0.564 1.07,-0.996 1.64,-1.296c0.56,-0.312 1.23,-0.468 2.01,-0.468c1.11,0 1.98,0.318 2.63,0.954c0.66,0.636 0.99,1.488 0.99,2.556c0,0.672 -0.19,1.362 -0.58,2.07c-0.37,0.696 -0.87,1.41 -1.51,2.142c-0.62,0.732 -1.31,1.5 -2.07,2.304c0.3,-0.024 0.63,-0.048 0.97,-0.072c0.35,-0.036 0.66,-0.054 0.94,-0.054l2.81,0l0,1.764l-7.74,0z"/>
  <path id="svg_31" fill="black" d="m716.332,273l0,-1.692l2.556,0l0,-7.524l-2.106,0l0,-1.296c0.564,-0.108 1.056,-0.234 1.476,-0.378c0.42,-0.156 0.81,-0.342 1.17,-0.558l1.548,0l0,9.756l2.25,0l0,1.692l-6.894,0zm12.721,-5.58c-0.324,0 -0.666,0.102 -1.026,0.306c-0.36,0.192 -0.702,0.528 -1.026,1.008c0.108,1.02 0.354,1.758 0.738,2.214c0.384,0.456 0.852,0.684 1.404,0.684c0.48,0 0.882,-0.186 1.206,-0.558c0.336,-0.384 0.504,-0.924 0.504,-1.62c0,-0.672 -0.162,-1.176 -0.486,-1.512c-0.312,-0.348 -0.75,-0.522 -1.314,-0.522zm0.126,5.796c-0.744,0 -1.434,-0.198 -2.07,-0.594c-0.636,-0.396 -1.146,-1.008 -1.53,-1.836c-0.372,-0.828 -0.558,-1.884 -0.558,-3.168c0,-1.488 0.21,-2.688 0.63,-3.6c0.432,-0.924 0.99,-1.602 1.674,-2.034c0.684,-0.432 1.416,-0.648 2.196,-0.648c0.696,0 1.296,0.126 1.8,0.378c0.504,0.252 0.924,0.558 1.26,0.918l-1.116,1.26c-0.204,-0.252 -0.474,-0.456 -0.81,-0.612c-0.324,-0.168 -0.66,-0.252 -1.008,-0.252c-0.48,0 -0.918,0.132 -1.314,0.396c-0.396,0.264 -0.72,0.708 -0.972,1.332c-0.24,0.612 -0.378,1.446 -0.414,2.502c0.336,-0.42 0.732,-0.75 1.188,-0.99c0.456,-0.24 0.888,-0.36 1.296,-0.36c0.996,0 1.8,0.294 2.412,0.882c0.624,0.576 0.936,1.464 0.936,2.664c0,0.756 -0.168,1.416 -0.504,1.98c-0.324,0.564 -0.756,1.002 -1.296,1.314c-0.54,0.312 -1.14,0.468 -1.8,0.468zm6.654,-4.77l3.006,0l0,-2.592c0,-0.336 0.012,-0.732 0.036,-1.188c0.024,-0.456 0.042,-0.852 0.054,-1.188l-0.072,0c-0.144,0.3 -0.294,0.594 -0.45,0.882c-0.156,0.288 -0.318,0.588 -0.486,0.9l-2.088,3.186zm3.006,4.554l0,-2.952l-5.058,0l0,-1.404l4.536,-7.092l2.466,0l0,6.894l1.44,0l0,1.602l-1.44,0l0,2.952l-1.944,0zm8.455,0.216c-1.188,0 -2.136,-0.516 -2.844,-1.548c-0.696,-1.032 -1.044,-2.514 -1.044,-4.446c0,-1.932 0.348,-3.396 1.044,-4.392c0.708,-0.996 1.656,-1.494 2.844,-1.494c1.188,0 2.13,0.498 2.826,1.494c0.708,0.996 1.062,2.46 1.062,4.392c0,1.932 -0.354,3.414 -1.062,4.446c-0.696,1.032 -1.638,1.548 -2.826,1.548zm0,-1.62c0.372,0 0.702,-0.138 0.99,-0.414c0.288,-0.288 0.51,-0.75 0.666,-1.386c0.168,-0.636 0.252,-1.494 0.252,-2.574c0,-1.08 -0.084,-1.932 -0.252,-2.556c-0.156,-0.624 -0.378,-1.062 -0.666,-1.314c-0.288,-0.264 -0.618,-0.396 -0.99,-0.396c-0.36,0 -0.684,0.132 -0.972,0.396c-0.288,0.252 -0.516,0.69 -0.684,1.314c-0.168,0.624 -0.252,1.476 -0.252,2.556c0,1.08 0.084,1.938 0.252,2.574c0.168,0.636 0.396,1.098 0.684,1.386c0.288,0.276 0.612,0.414 0.972,0.414zm9.228,1.62c-1.188,0 -2.136,-0.516 -2.844,-1.548c-0.696,-1.032 -1.044,-2.514 -1.044,-4.446c0,-1.932 0.348,-3.396 1.044,-4.392c0.708,-0.996 1.656,-1.494 2.844,-1.494c1.188,0 2.13,0.498 2.826,1.494c0.708,0.996 1.062,2.46 1.062,4.392c0,1.932 -0.354,3.414 -1.062,4.446c-0.696,1.032 -1.638,1.548 -2.826,1.548zm0,-1.62c0.372,0 0.702,-0.138 0.99,-0.414c0.288,-0.288 0.51,-0.75 0.666,-1.386c0.168,-0.636 0.252,-1.494 0.252,-2.574c0,-1.08 -0.084,-1.932 -0.252,-2.556c-0.156,-0.624 -0.378,-1.062 -0.666,-1.314c-0.288,-0.264 -0.618,-0.396 -0.99,-0.396c-0.36,0 -0.684,0.132 -0.972,0.396c-0.288,0.252 -0.516,0.69 -0.684,1.314c-0.168,0.624 -0.252,1.476 -0.252,2.556c0,1.08 0.084,1.938 0.252,2.574c0.168,0.636 0.396,1.098 0.684,1.386c0.288,0.276 0.612,0.414 0.972,0.414z"/>
  <path id="svg_32" fill="black" d="m544.338,205.216c-0.924,0 -1.704,-0.156 -2.34,-0.468c-0.624,-0.324 -1.146,-0.696 -1.566,-1.116l0.954,-1.332c0.348,0.324 0.738,0.612 1.17,0.864c0.432,0.24 0.936,0.36 1.512,0.36c0.636,0 1.164,-0.192 1.584,-0.576c0.42,-0.384 0.63,-0.924 0.63,-1.62c0,-0.684 -0.192,-1.212 -0.576,-1.584c-0.384,-0.372 -0.894,-0.558 -1.53,-0.558c-0.372,0 -0.684,0.054 -0.936,0.162c-0.252,0.096 -0.552,0.258 -0.9,0.486l-0.99,-0.63l0.342,-5.652l6.12,0l0,1.746l-4.32,0l-0.234,2.772c0.24,-0.12 0.474,-0.21 0.702,-0.27c0.24,-0.072 0.51,-0.108 0.81,-0.108c0.66,0 1.26,0.126 1.8,0.378c0.54,0.252 0.972,0.642 1.296,1.17c0.336,0.528 0.504,1.206 0.504,2.034c0,0.828 -0.192,1.536 -0.576,2.124c-0.372,0.588 -0.864,1.038 -1.476,1.35c-0.612,0.312 -1.272,0.468 -1.98,0.468zm9.499,0c-1.188,0 -2.136,-0.516 -2.844,-1.548c-0.696,-1.032 -1.044,-2.514 -1.044,-4.446c0,-1.932 0.348,-3.396 1.044,-4.392c0.708,-0.996 1.656,-1.494 2.844,-1.494c1.188,0 2.13,0.498 2.826,1.494c0.708,0.996 1.062,2.46 1.062,4.392c0,1.932 -0.354,3.414 -1.062,4.446c-0.696,1.032 -1.638,1.548 -2.826,1.548zm0,-1.62c0.372,0 0.702,-0.138 0.99,-0.414c0.288,-0.288 0.51,-0.75 0.666,-1.386c0.168,-0.636 0.252,-1.494 0.252,-2.574c0,-1.08 -0.084,-1.932 -0.252,-2.556c-0.156,-0.624 -0.378,-1.062 -0.666,-1.314c-0.288,-0.264 -0.618,-0.396 -0.99,-0.396c-0.36,0 -0.684,0.132 -0.972,0.396c-0.288,0.252 -0.516,0.69 -0.684,1.314c-0.168,0.624 -0.252,1.476 -0.252,2.556c0,1.08 0.084,1.938 0.252,2.574c0.168,0.636 0.396,1.098 0.684,1.386c0.288,0.276 0.612,0.414 0.972,0.414zm9.228,1.62c-1.188,0 -2.136,-0.516 -2.844,-1.548c-0.696,-1.032 -1.044,-2.514 -1.044,-4.446c0,-1.932 0.348,-3.396 1.044,-4.392c0.708,-0.996 1.656,-1.494 2.844,-1.494c1.188,0 2.13,0.498 2.826,1.494c0.708,0.996 1.062,2.46 1.062,4.392c0,1.932 -0.354,3.414 -1.062,4.446c-0.696,1.032 -1.638,1.548 -2.826,1.548zm0,-1.62c0.372,0 0.702,-0.138 0.99,-0.414c0.288,-0.288 0.51,-0.75 0.666,-1.386c0.168,-0.636 0.252,-1.494 0.252,-2.574c0,-1.08 -0.084,-1.932 -0.252,-2.556c-0.156,-0.624 -0.378,-1.062 -0.666,-1.314c-0.288,-0.264 -0.618,-0.396 -0.99,-0.396c-0.36,0 -0.684,0.132 -0.972,0.396c-0.288,0.252 -0.516,0.69 -0.684,1.314c-0.168,0.624 -0.252,1.476 -0.252,2.556c0,1.08 0.084,1.938 0.252,2.574c0.168,0.636 0.396,1.098 0.684,1.386c0.288,0.276 0.612,0.414 0.972,0.414zm9.229,1.62c-1.188,0 -2.136,-0.516 -2.844,-1.548c-0.696,-1.032 -1.044,-2.514 -1.044,-4.446c0,-1.932 0.348,-3.396 1.044,-4.392c0.708,-0.996 1.656,-1.494 2.844,-1.494c1.188,0 2.13,0.498 2.826,1.494c0.708,0.996 1.062,2.46 1.062,4.392c0,1.932 -0.354,3.414 -1.062,4.446c-0.696,1.032 -1.638,1.548 -2.826,1.548zm0,-1.62c0.372,0 0.702,-0.138 0.99,-0.414c0.288,-0.288 0.51,-0.75 0.666,-1.386c0.168,-0.636 0.252,-1.494 0.252,-2.574c0,-1.08 -0.084,-1.932 -0.252,-2.556c-0.156,-0.624 -0.378,-1.062 -0.666,-1.314c-0.288,-0.264 -0.618,-0.396 -0.99,-0.396c-0.36,0 -0.684,0.132 -0.972,0.396c-0.288,0.252 -0.516,0.69 -0.684,1.314c-0.168,0.624 -0.252,1.476 -0.252,2.556c0,1.08 0.084,1.938 0.252,2.574c0.168,0.636 0.396,1.098 0.684,1.386c0.288,0.276 0.612,0.414 0.972,0.414z"/>
  <path id="svg_33" fill="black" d="m508.574,129.08c0,0.672 0.156,1.182 0.468,1.53c0.324,0.348 0.774,0.522 1.35,0.522c0.336,0 0.684,-0.102 1.044,-0.306c0.372,-0.216 0.708,-0.558 1.008,-1.026c-0.108,-1.008 -0.354,-1.74 -0.738,-2.196c-0.384,-0.456 -0.858,-0.684 -1.422,-0.684c-0.468,0 -0.87,0.186 -1.206,0.558c-0.336,0.372 -0.504,0.906 -0.504,1.602zm1.332,8.136c-0.684,0 -1.278,-0.126 -1.782,-0.378c-0.504,-0.252 -0.93,-0.558 -1.278,-0.918l1.116,-1.26c0.216,0.252 0.486,0.462 0.81,0.63c0.336,0.156 0.678,0.234 1.026,0.234c0.48,0 0.918,-0.132 1.314,-0.396c0.396,-0.264 0.72,-0.702 0.972,-1.314c0.252,-0.624 0.39,-1.464 0.414,-2.52c-0.336,0.408 -0.732,0.732 -1.188,0.972c-0.456,0.24 -0.894,0.36 -1.314,0.36c-0.984,0 -1.788,-0.288 -2.412,-0.864c-0.612,-0.588 -0.918,-1.482 -0.918,-2.682c0,-0.768 0.162,-1.428 0.486,-1.98c0.336,-0.564 0.774,-0.996 1.314,-1.296c0.552,-0.312 1.152,-0.468 1.8,-0.468c0.744,0 1.428,0.198 2.052,0.594c0.636,0.396 1.14,1.008 1.512,1.836c0.384,0.816 0.576,1.866 0.576,3.15c0,1.476 -0.21,2.682 -0.63,3.618c-0.42,0.924 -0.972,1.602 -1.656,2.034c-0.684,0.432 -1.422,0.648 -2.214,0.648zm9.931,0c-1.188,0 -2.136,-0.516 -2.844,-1.548c-0.696,-1.032 -1.044,-2.514 -1.044,-4.446c0,-1.932 0.348,-3.396 1.044,-4.392c0.708,-0.996 1.656,-1.494 2.844,-1.494c1.188,0 2.13,0.498 2.826,1.494c0.708,0.996 1.062,2.46 1.062,4.392c0,1.932 -0.354,3.414 -1.062,4.446c-0.696,1.032 -1.638,1.548 -2.826,1.548zm0,-1.62c0.372,0 0.702,-0.138 0.99,-0.414c0.288,-0.288 0.51,-0.75 0.666,-1.386c0.168,-0.636 0.252,-1.494 0.252,-2.574c0,-1.08 -0.084,-1.932 -0.252,-2.556c-0.156,-0.624 -0.378,-1.062 -0.666,-1.314c-0.288,-0.264 -0.618,-0.396 -0.99,-0.396c-0.36,0 -0.684,0.132 -0.972,0.396c-0.288,0.252 -0.516,0.69 -0.684,1.314c-0.168,0.624 -0.252,1.476 -0.252,2.556c0,1.08 0.084,1.938 0.252,2.574c0.168,0.636 0.396,1.098 0.684,1.386c0.288,0.276 0.612,0.414 0.972,0.414zm9.228,1.62c-1.188,0 -2.136,-0.516 -2.844,-1.548c-0.696,-1.032 -1.044,-2.514 -1.044,-4.446c0,-1.932 0.348,-3.396 1.044,-4.392c0.708,-0.996 1.656,-1.494 2.844,-1.494c1.188,0 2.13,0.498 2.826,1.494c0.708,0.996 1.062,2.46 1.062,4.392c0,1.932 -0.354,3.414 -1.062,4.446c-0.696,1.032 -1.638,1.548 -2.826,1.548zm0,-1.62c0.372,0 0.702,-0.138 0.99,-0.414c0.288,-0.288 0.51,-0.75 0.666,-1.386c0.168,-0.636 0.252,-1.494 0.252,-2.574c0,-1.08 -0.084,-1.932 -0.252,-2.556c-0.156,-0.624 -0.378,-1.062 -0.666,-1.314c-0.288,-0.264 -0.618,-0.396 -0.99,-0.396c-0.36,0 -0.684,0.132 -0.972,0.396c-0.288,0.252 -0.516,0.69 -0.684,1.314c-0.168,0.624 -0.252,1.476 -0.252,2.556c0,1.08 0.084,1.938 0.252,2.574c0.168,0.636 0.396,1.098 0.684,1.386c0.288,0.276 0.612,0.414 0.972,0.414z"/>
  <text xml:space="preserve" text-anchor="start" font-family="Noto Sans JP" font-size="24" stroke-width="0" fill="#000000" id="svg_41" y="69.19999" x="819.49997" stroke="#F5F5F5">人类活动带来的CO2排放</text>
  <text xml:space="preserve" text-anchor="start" font-family="Noto Sans JP" font-size="15" id="svg_42" y="542.07498" x="895.49997" fill="black">CO2排放（kg）</text>
  <text xml:space="preserve" text-anchor="start" font-family="Noto Sans JP" font-size="20" id="svg_43" y="137.59383" x="113.53009" fill="black">往返纽约和旧金山的航班（1位乘客）</text>
  <text xml:space="preserve" text-anchor="start" font-family="Noto Sans JP" font-size="20" id="svg_44" y="202.4264" x="244.60464" fill="black">平均人类活动（每年）</text>
  <text xml:space="preserve" text-anchor="start" font-family="Noto Sans JP" font-size="20" id="svg_45" y="268.4649" x="180.57107" fill="black">美国人平均人类活动（每年）</text>
  <text xml:space="preserve" text-anchor="start" font-family="Noto Sans JP" font-size="20" id="svg_46" y="337.52568" x="64.99997" fill="black">美国汽车包括燃油（平均每辆全生命周期）</text>
  <text xml:space="preserve" text-anchor="start" font-family="Noto Sans JP" font-size="20" id="svg_47" y="387.52472" x="282.73772" fill="black">最新的模型训练</text>
  <text xml:space="preserve" text-anchor="start" font-family="Noto Sans JP" font-size="20" id="svg_48" y="413.33067" x="177.90103" fill="black">Bigscience 训练，包括实验</text>
  <text xml:space="preserve" text-anchor="start" font-family="Noto Sans JP" font-size="20" id="svg_49" y="435.91088" x="297.25358" fill="black">约200B参数量</text>
 </g>
</svg>