<?xml version="1.0" encoding="UTF-8" standalone="no"?>
<svg
   width="1816"
   height="1135"
   viewBox="0 0 1816 1135"
   fill="none"
   version="1.1"
   id="svg222"
   sodipodi:docname="transformers_blocks.png"
   inkscape:version="1.2.2 (732a01da63, 2022-12-09)"
   xmlns:inkscape="http://www.inkscape.org/namespaces/inkscape"
   xmlns:sodipodi="http://sodipodi.sourceforge.net/DTD/sodipodi-0.dtd"
   xmlns="http://www.w3.org/2000/svg"
   xmlns:svg="http://www.w3.org/2000/svg">
  <defs
     id="defs226" />
  <sodipodi:namedview
     id="namedview224"
     pagecolor="#ffffff"
     bordercolor="#000000"
     borderopacity="0.25"
     inkscape:showpageshadow="2"
     inkscape:pageopacity="0.0"
     inkscape:pagecheckerboard="0"
     inkscape:deskcolor="#d1d1d1"
     showgrid="false"
     inkscape:zoom="1.3843612"
     inkscape:cx="1032.9674"
     inkscape:cy="903.66587"
     inkscape:window-width="2560"
     inkscape:window-height="1369"
     inkscape:window-x="-8"
     inkscape:window-y="352"
     inkscape:window-maximized="1"
     inkscape:current-layer="svg222" />
  <rect
     width="1816"
     height="1135"
     fill="white"
     id="rect198" />
  <rect
     x="584"
     y="426"
     width="296"
     height="550"
     rx="40"
     fill="#FFF6DF"
     id="rect200" />
  <path
     d="M666.635 715V688.76H681.755V691.56H669.955V699.8H679.915V702.64H669.955V712.16H682.155V715H666.635ZM687.409 715V695.56H690.129L690.409 698.36H690.529C691.462 697.427 692.449 696.653 693.489 696.04C694.529 695.4 695.716 695.08 697.049 695.08C699.102 695.08 700.596 695.733 701.529 697.04C702.489 698.32 702.969 700.2 702.969 702.68V715H699.689V703.12C699.689 701.307 699.396 699.987 698.809 699.16C698.222 698.333 697.289 697.92 696.009 697.92C695.022 697.92 694.129 698.173 693.329 698.68C692.556 699.187 691.676 699.933 690.689 700.92V715H687.409ZM716.964 715.48C715.257 715.48 713.711 715.08 712.324 714.28C710.937 713.48 709.844 712.32 709.044 710.8C708.244 709.28 707.844 707.453 707.844 705.32C707.844 703.133 708.271 701.28 709.124 699.76C710.004 698.24 711.151 697.08 712.564 696.28C714.004 695.48 715.551 695.08 717.204 695.08C718.484 695.08 719.577 695.307 720.484 695.76C721.417 696.213 722.217 696.747 722.884 697.36L721.204 699.52C720.644 699.013 720.044 698.6 719.404 698.28C718.791 697.96 718.097 697.8 717.324 697.8C716.151 697.8 715.097 698.12 714.164 698.76C713.257 699.373 712.537 700.253 712.004 701.4C711.497 702.52 711.244 703.827 711.244 705.32C711.244 707.533 711.791 709.333 712.884 710.72C714.004 712.08 715.457 712.76 717.244 712.76C718.151 712.76 718.991 712.573 719.764 712.2C720.537 711.8 721.217 711.333 721.804 710.8L723.244 713C722.364 713.773 721.391 714.387 720.324 714.84C719.257 715.267 718.137 715.48 716.964 715.48ZM734.227 715.48C732.653 715.48 731.173 715.08 729.787 714.28C728.427 713.48 727.32 712.32 726.467 710.8C725.64 709.28 725.227 707.453 725.227 705.32C725.227 703.133 725.64 701.28 726.467 699.76C727.32 698.24 728.427 697.08 729.787 696.28C731.173 695.48 732.653 695.08 734.227 695.08C735.827 695.08 737.307 695.48 738.667 696.28C740.027 697.08 741.12 698.24 741.947 699.76C742.8 701.28 743.227 703.133 743.227 705.32C743.227 707.453 742.8 709.28 741.947 710.8C741.12 712.32 740.027 713.48 738.667 714.28C737.307 715.08 735.827 715.48 734.227 715.48ZM734.227 712.76C735.907 712.76 737.253 712.08 738.267 710.72C739.307 709.333 739.827 707.533 739.827 705.32C739.827 703.08 739.307 701.267 738.267 699.88C737.253 698.493 735.907 697.8 734.227 697.8C732.573 697.8 731.227 698.493 730.187 699.88C729.147 701.267 728.627 703.08 728.627 705.32C728.627 707.533 729.147 709.333 730.187 710.72C731.227 712.08 732.573 712.76 734.227 712.76ZM754.986 715.48C752.56 715.48 750.613 714.6 749.146 712.84C747.68 711.053 746.946 708.547 746.946 705.32C746.946 703.213 747.333 701.4 748.106 699.88C748.906 698.333 749.946 697.147 751.226 696.32C752.533 695.493 753.92 695.08 755.386 695.08C756.506 695.08 757.48 695.28 758.306 695.68C759.133 696.08 759.973 696.627 760.826 697.32L760.666 694V686.52H763.986V715H761.266L760.986 712.72H760.866C760.12 713.467 759.24 714.12 758.226 714.68C757.213 715.213 756.133 715.48 754.986 715.48ZM755.706 712.72C757.413 712.72 759.066 711.827 760.666 710.04V699.88C759.84 699.133 759.04 698.613 758.266 698.32C757.52 698 756.746 697.84 755.946 697.84C754.906 697.84 753.96 698.16 753.106 698.8C752.28 699.413 751.613 700.28 751.106 701.4C750.6 702.493 750.346 703.787 750.346 705.28C750.346 707.6 750.813 709.427 751.746 710.76C752.68 712.067 754 712.72 755.706 712.72ZM778.414 715.48C776.681 715.48 775.107 715.08 773.694 714.28C772.281 713.453 771.161 712.28 770.334 710.76C769.507 709.24 769.094 707.427 769.094 705.32C769.094 703.187 769.507 701.36 770.334 699.84C771.187 698.32 772.281 697.147 773.614 696.32C774.947 695.493 776.347 695.08 777.814 695.08C780.294 695.08 782.201 695.907 783.534 697.56C784.894 699.213 785.574 701.427 785.574 704.2C785.574 704.547 785.561 704.893 785.534 705.24C785.534 705.56 785.507 705.84 785.454 706.08H772.334C772.467 708.133 773.107 709.773 774.254 711C775.427 712.227 776.947 712.84 778.814 712.84C779.747 712.84 780.601 712.707 781.374 712.44C782.174 712.147 782.934 711.773 783.654 711.32L784.814 713.48C783.987 714.013 783.041 714.48 781.974 714.88C780.934 715.28 779.747 715.48 778.414 715.48ZM772.294 703.72H782.694C782.694 701.747 782.267 700.253 781.414 699.24C780.587 698.2 779.414 697.68 777.894 697.68C776.534 697.68 775.307 698.213 774.214 699.28C773.147 700.32 772.507 701.8 772.294 703.72ZM790.378 715V695.56H793.098L793.378 699.08H793.498C794.164 697.853 794.978 696.88 795.938 696.16C796.898 695.44 797.924 695.08 799.018 695.08C799.791 695.08 800.484 695.213 801.098 695.48L800.458 698.36C800.138 698.253 799.844 698.173 799.578 698.12C799.311 698.067 798.978 698.04 798.578 698.04C797.751 698.04 796.884 698.373 795.978 699.04C795.098 699.707 794.324 700.867 793.658 702.52V715H790.378Z"
     fill="black"
     id="path202" />
  <path
     d="M732.707 997.293C732.317 996.902 731.683 996.902 731.293 997.293L724.929 1003.66C724.538 1004.05 724.538 1004.68 724.929 1005.07C725.319 1005.46 725.953 1005.46 726.343 1005.07L732 999.414L737.657 1005.07C738.047 1005.46 738.681 1005.46 739.071 1005.07C739.462 1004.68 739.462 1004.05 739.071 1003.66L732.707 997.293ZM733 1028L733 998L731 998L731 1028L733 1028Z"
     fill="black"
     id="path204" />
  <rect
     x="936"
     y="123"
     width="296"
     height="853"
     rx="40"
     fill="#FFF6DF"
     id="rect208" />
  <path
     d="M1017.89 563.5V537.26H1024.45C1028.51 537.26 1031.59 538.393 1033.69 540.66C1035.8 542.9 1036.85 546.1 1036.85 550.26C1036.85 554.447 1035.8 557.7 1033.69 560.02C1031.61 562.34 1028.59 563.5 1024.61 563.5H1017.89ZM1021.21 560.78H1024.21C1027.28 560.78 1029.57 559.86 1031.09 558.02C1032.64 556.153 1033.41 553.567 1033.41 550.26C1033.41 546.953 1032.64 544.42 1031.09 542.66C1029.57 540.873 1027.28 539.98 1024.21 539.98H1021.21V560.78ZM1050.06 563.98C1048.33 563.98 1046.76 563.58 1045.34 562.78C1043.93 561.953 1042.81 560.78 1041.98 559.26C1041.16 557.74 1040.74 555.927 1040.74 553.82C1040.74 551.687 1041.16 549.86 1041.98 548.34C1042.84 546.82 1043.93 545.647 1045.26 544.82C1046.6 543.993 1048 543.58 1049.46 543.58C1051.94 543.58 1053.85 544.407 1055.18 546.06C1056.54 547.713 1057.22 549.927 1057.22 552.7C1057.22 553.047 1057.21 553.393 1057.18 553.74C1057.18 554.06 1057.16 554.34 1057.1 554.58H1043.98C1044.12 556.633 1044.76 558.273 1045.9 559.5C1047.08 560.727 1048.6 561.34 1050.46 561.34C1051.4 561.34 1052.25 561.207 1053.02 560.94C1053.82 560.647 1054.58 560.273 1055.3 559.82L1056.46 561.98C1055.64 562.513 1054.69 562.98 1053.62 563.38C1052.58 563.78 1051.4 563.98 1050.06 563.98ZM1043.94 552.22H1054.34C1054.34 550.247 1053.92 548.753 1053.06 547.74C1052.24 546.7 1051.06 546.18 1049.54 546.18C1048.18 546.18 1046.96 546.713 1045.86 547.78C1044.8 548.82 1044.16 550.3 1043.94 552.22ZM1069.71 563.98C1068 563.98 1066.45 563.58 1065.07 562.78C1063.68 561.98 1062.59 560.82 1061.79 559.3C1060.99 557.78 1060.59 555.953 1060.59 553.82C1060.59 551.633 1061.01 549.78 1061.87 548.26C1062.75 546.74 1063.89 545.58 1065.31 544.78C1066.75 543.98 1068.29 543.58 1069.95 543.58C1071.23 543.58 1072.32 543.807 1073.23 544.26C1074.16 544.713 1074.96 545.247 1075.63 545.86L1073.95 548.02C1073.39 547.513 1072.79 547.1 1072.15 546.78C1071.53 546.46 1070.84 546.3 1070.07 546.3C1068.89 546.3 1067.84 546.62 1066.91 547.26C1066 547.873 1065.28 548.753 1064.75 549.9C1064.24 551.02 1063.99 552.327 1063.99 553.82C1063.99 556.033 1064.53 557.833 1065.63 559.22C1066.75 560.58 1068.2 561.26 1069.99 561.26C1070.89 561.26 1071.73 561.073 1072.51 560.7C1073.28 560.3 1073.96 559.833 1074.55 559.3L1075.99 561.5C1075.11 562.273 1074.13 562.887 1073.07 563.34C1072 563.767 1070.88 563.98 1069.71 563.98ZM1086.97 563.98C1085.4 563.98 1083.92 563.58 1082.53 562.78C1081.17 561.98 1080.06 560.82 1079.21 559.3C1078.38 557.78 1077.97 555.953 1077.97 553.82C1077.97 551.633 1078.38 549.78 1079.21 548.26C1080.06 546.74 1081.17 545.58 1082.53 544.78C1083.92 543.98 1085.4 543.58 1086.97 543.58C1088.57 543.58 1090.05 543.98 1091.41 544.78C1092.77 545.58 1093.86 546.74 1094.69 548.26C1095.54 549.78 1095.97 551.633 1095.97 553.82C1095.97 555.953 1095.54 557.78 1094.69 559.3C1093.86 560.82 1092.77 561.98 1091.41 562.78C1090.05 563.58 1088.57 563.98 1086.97 563.98ZM1086.97 561.26C1088.65 561.26 1090 560.58 1091.01 559.22C1092.05 557.833 1092.57 556.033 1092.57 553.82C1092.57 551.58 1092.05 549.767 1091.01 548.38C1090 546.993 1088.65 546.3 1086.97 546.3C1085.32 546.3 1083.97 546.993 1082.93 548.38C1081.89 549.767 1081.37 551.58 1081.37 553.82C1081.37 556.033 1081.89 557.833 1082.93 559.22C1083.97 560.58 1085.32 561.26 1086.97 561.26ZM1107.73 563.98C1105.3 563.98 1103.36 563.1 1101.89 561.34C1100.42 559.553 1099.69 557.047 1099.69 553.82C1099.69 551.713 1100.08 549.9 1100.85 548.38C1101.65 546.833 1102.69 545.647 1103.97 544.82C1105.28 543.993 1106.66 543.58 1108.13 543.58C1109.25 543.58 1110.22 543.78 1111.05 544.18C1111.88 544.58 1112.72 545.127 1113.57 545.82L1113.41 542.5V535.02H1116.73V563.5H1114.01L1113.73 561.22H1113.61C1112.86 561.967 1111.98 562.62 1110.97 563.18C1109.96 563.713 1108.88 563.98 1107.73 563.98ZM1108.45 561.22C1110.16 561.22 1111.81 560.327 1113.41 558.54V548.38C1112.58 547.633 1111.78 547.113 1111.01 546.82C1110.26 546.5 1109.49 546.34 1108.69 546.34C1107.65 546.34 1106.7 546.66 1105.85 547.3C1105.02 547.913 1104.36 548.78 1103.85 549.9C1103.34 550.993 1103.09 552.287 1103.09 553.78C1103.09 556.1 1103.56 557.927 1104.49 559.26C1105.42 560.567 1106.74 561.22 1108.45 561.22ZM1131.16 563.98C1129.42 563.98 1127.85 563.58 1126.44 562.78C1125.02 561.953 1123.9 560.78 1123.08 559.26C1122.25 557.74 1121.84 555.927 1121.84 553.82C1121.84 551.687 1122.25 549.86 1123.08 548.34C1123.93 546.82 1125.02 545.647 1126.36 544.82C1127.69 543.993 1129.09 543.58 1130.56 543.58C1133.04 543.58 1134.94 544.407 1136.28 546.06C1137.64 547.713 1138.32 549.927 1138.32 552.7C1138.32 553.047 1138.3 553.393 1138.28 553.74C1138.28 554.06 1138.25 554.34 1138.2 554.58H1125.08C1125.21 556.633 1125.85 558.273 1127 559.5C1128.17 560.727 1129.69 561.34 1131.56 561.34C1132.49 561.34 1133.34 561.207 1134.12 560.94C1134.92 560.647 1135.68 560.273 1136.4 559.82L1137.56 561.98C1136.73 562.513 1135.78 562.98 1134.72 563.38C1133.68 563.78 1132.49 563.98 1131.16 563.98ZM1125.04 552.22H1135.44C1135.44 550.247 1135.01 548.753 1134.16 547.74C1133.33 546.7 1132.16 546.18 1130.64 546.18C1129.28 546.18 1128.05 546.713 1126.96 547.78C1125.89 548.82 1125.25 550.3 1125.04 552.22ZM1143.12 563.5V544.06H1145.84L1146.12 547.58H1146.24C1146.91 546.353 1147.72 545.38 1148.68 544.66C1149.64 543.94 1150.67 543.58 1151.76 543.58C1152.53 543.58 1153.23 543.713 1153.84 543.98L1153.2 546.86C1152.88 546.753 1152.59 546.673 1152.32 546.62C1152.05 546.567 1151.72 546.54 1151.32 546.54C1150.49 546.54 1149.63 546.873 1148.72 547.54C1147.84 548.207 1147.07 549.367 1146.4 551.02V563.5H1143.12Z"
     fill="black"
     id="path210" />
  <path
     d="M1084.71 997.293C1084.32 996.902 1083.68 996.902 1083.29 997.293L1076.93 1003.66C1076.54 1004.05 1076.54 1004.68 1076.93 1005.07C1077.32 1005.46 1077.95 1005.46 1078.34 1005.07L1084 999.414L1089.66 1005.07C1090.05 1005.46 1090.68 1005.46 1091.07 1005.07C1091.46 1004.68 1091.46 1004.05 1091.07 1003.66L1084.71 997.293ZM1085 1028L1085 998L1083 998L1083 1028L1085 1028Z"
     fill="black"
     id="path212" />
  <path
     d="M1084.71 88.2929C1084.32 87.9024 1083.68 87.9024 1083.29 88.2929L1076.93 94.6569C1076.54 95.0474 1076.54 95.6805 1076.93 96.0711C1077.32 96.4616 1077.95 96.4616 1078.34 96.0711L1084 90.4142L1089.66 96.0711C1090.05 96.4616 1090.68 96.4616 1091.07 96.0711C1091.46 95.6805 1091.46 95.0474 1091.07 94.6569L1084.71 88.2929ZM1085 113L1085 89L1083 89L1083 113L1085 113Z"
     fill="black"
     id="path218" />
  <path
     d="M730 425.5V421.5C730 408.245 740.745 397.5 754 397.5H875.5C888.755 397.5 899.5 408.245 899.5 421.5V579C899.5 592.255 910.245 603 923.5 603H935.5"
     stroke="#B4B4B4"
     stroke-width="4"
     id="path220" />
  <text
     xml:space="preserve"
     style="font-size:26.6667px;font-family:'MS UI Gothic';-inkscape-font-specification:'MS UI Gothic';fill:#000000"
     x="705.01831"
     y="1057.5275"
     id="text663"><tspan
       sodipodi:role="line"
       id="tspan661"
       x="705.01831"
       y="1057.5275">输入</tspan></text>
  <text
     xml:space="preserve"
     style="font-size:26.6667px;font-family:'MS UI Gothic';-inkscape-font-specification:'MS UI Gothic';fill:#000000"
     x="1032.9674"
     y="1058.9722"
     id="text667"><tspan
       sodipodi:role="line"
       id="tspan665"
       x="1032.9674"
       y="1058.9722">输出（右移）</tspan></text>
  <text
     xml:space="preserve"
     style="font-size:26.6667px;font-family:'MS UI Gothic';-inkscape-font-specification:'MS UI Gothic';fill:#000000"
     x="1019.2426"
     y="73.680191"
     id="text671"><tspan
       sodipodi:role="line"
       id="tspan669"
       x="1019.2426"
       y="73.680191">输出的概率</tspan></text>
</svg>
