<svg width="1735" height="385" viewBox="0 0 1735 385" fill="none" xmlns="http://www.w3.org/2000/svg">
<rect width="1735" height="385" fill="white"/>
<rect x="184.5" y="38.5" width="119" height="57" rx="7.5" fill="#FFF6DF" stroke="#FFE1B4"/>
<rect x="340.5" y="38.5" width="119" height="57" rx="7.5" fill="#FFF6DF" stroke="#FFE1B4"/>
<rect x="496.5" y="38.5" width="119" height="57" rx="7.5" fill="#FFF6DF" stroke="#FFE1B4"/>
<rect x="651.5" y="38.5" width="119" height="57" rx="7.5" fill="#FFF6DF" stroke="#FFE1B4"/>
<rect x="963.5" y="38.5" width="119" height="57" rx="7.5" fill="#FFF6DF" stroke="#FFE1B4"/>
<rect x="1119.5" y="38.5" width="119" height="57" rx="7.5" fill="#FFF6DF" stroke="#FFE1B4"/>
<rect x="1275.5" y="38.5" width="119" height="57" rx="7.5" fill="#FFF6DF" stroke="#FFE1B4"/>
<rect x="1431.5" y="38.5" width="119" height="57" rx="7.5" fill="#FFF6DF" stroke="#FFE1B4"/>
<rect x="184.5" y="122.5" width="119" height="57" rx="7.5" fill="#F6F3FF" stroke="#D7DDFF"/>
<rect x="340.5" y="122.5" width="119" height="57" rx="7.5" fill="#F6F3FF" stroke="#D7DDFF"/>
<rect x="496.5" y="122.5" width="119" height="57" rx="7.5" fill="#F6F3FF" stroke="#D7DDFF"/>
<rect x="651.5" y="122.5" width="119" height="57" rx="7.5" fill="#F6F3FF" stroke="#D7DDFF"/>
<rect x="340.5" y="290.5" width="275" height="57" rx="7.5" fill="#FFF6DF" stroke="#FFE1B4"/>
<rect x="963.5" y="290.5" width="275" height="57" rx="7.5" fill="#FFF6DF" stroke="#FFE1B4"/>
<rect x="963.5" y="122.5" width="119" height="57" rx="7.5" fill="#F6F3FF" stroke="#D7DDFF"/>
<rect x="1119.5" y="122.5" width="119" height="57" rx="7.5" fill="#F6F3FF" stroke="#D7DDFF"/>
<rect x="1275.5" y="122.5" width="119" height="57" rx="7.5" fill="#F6F3FF" stroke="#D7DDFF"/>
<rect x="1431.5" y="122.5" width="119" height="57" rx="7.5" fill="#F6F3FF" stroke="#D7DDFF"/>
<rect x="184.5" y="206.5" width="119" height="57" rx="7.5" fill="#FFF4EC" stroke="#FFE1B4"/>
<rect x="340.5" y="206.5" width="119" height="57" rx="7.5" fill="#FFF4EC" stroke="#FFDFCA"/>
<rect x="496.5" y="206.5" width="119" height="57" rx="7.5" fill="#FFF4EC" stroke="#FFDFCA"/>
<rect x="651.5" y="206.5" width="119" height="57" rx="7.5" fill="#FFF4EC" stroke="#FFDFCA"/>
<rect x="963.5" y="206.5" width="119" height="57" rx="7.5" fill="#FFF4EC" stroke="#FFE1B4"/>
<rect x="1119.5" y="206.5" width="119" height="57" rx="7.5" fill="#FFF4EC" stroke="#FFE1B4"/>
<rect x="1275.5" y="206.5" width="119" height="57" rx="7.5" fill="#FFF4EC" stroke="#FFE1B4"/>
<rect x="1431.5" y="206.5" width="119" height="57" rx="7.5" fill="#FFF4EC" stroke="#FFE1B4"/>
<rect x="1275.5" y="290.5" width="275" height="57" rx="7.5" fill="#FFF6DF" stroke="#FFE1B4"/>
<path d="M244.598 74.24C243.678 74.24 242.825 74.0667 242.038 73.72C241.252 73.36 240.572 72.8867 239.998 72.3L240.998 71.14C241.465 71.6333 242.012 72.0333 242.638 72.34C243.278 72.6333 243.938 72.78 244.618 72.78C245.485 72.78 246.158 72.5867 246.638 72.2C247.118 71.8 247.358 71.28 247.358 70.64C247.358 70.1867 247.258 69.8267 247.058 69.56C246.872 69.2933 246.612 69.0667 246.278 68.88C245.958 68.6933 245.592 68.5067 245.178 68.32L243.298 67.5C242.885 67.3267 242.472 67.1 242.058 66.82C241.658 66.54 241.318 66.18 241.038 65.74C240.772 65.3 240.638 64.76 240.638 64.12C240.638 63.4533 240.812 62.86 241.158 62.34C241.518 61.8067 242.012 61.3933 242.638 61.1C243.265 60.7933 243.972 60.64 244.758 60.64C245.545 60.64 246.272 60.7933 246.938 61.1C247.605 61.3933 248.172 61.78 248.638 62.26L247.738 63.34C247.338 62.9533 246.892 62.6533 246.398 62.44C245.918 62.2133 245.372 62.1 244.758 62.1C244.025 62.1 243.432 62.2733 242.978 62.62C242.538 62.9667 242.318 63.4333 242.318 64.02C242.318 64.4333 242.425 64.78 242.638 65.06C242.865 65.3267 243.145 65.5467 243.478 65.72C243.812 65.8933 244.152 66.0533 244.498 66.2L246.358 67C246.865 67.2133 247.318 67.4733 247.718 67.78C248.132 68.0733 248.458 68.44 248.698 68.88C248.938 69.3067 249.058 69.8467 249.058 70.5C249.058 71.1933 248.878 71.8267 248.518 72.4C248.158 72.96 247.645 73.4067 246.978 73.74C246.312 74.0733 245.518 74.24 244.598 74.24Z" fill="black"/>
<path d="M223.937 158V144.88H225.597V158H223.937ZM228.211 153.62V152.36H232.811V153.62H228.211ZM235.402 158V144.88H239.142C240.128 144.88 240.988 145 241.722 145.24C242.455 145.48 243.028 145.887 243.442 146.46C243.855 147.02 244.062 147.78 244.062 148.74C244.062 150.113 243.615 151.133 242.722 151.8C241.828 152.467 240.662 152.8 239.222 152.8H237.062V158H235.402ZM237.062 151.44H239.022C240.168 151.44 241.015 151.227 241.562 150.8C242.122 150.36 242.402 149.673 242.402 148.74C242.402 147.793 242.108 147.14 241.522 146.78C240.948 146.407 240.088 146.22 238.942 146.22H237.062V151.44ZM246.73 158V144.88H254.29V146.28H248.39V150.4H253.37V151.82H248.39V156.58H254.49V158H246.73ZM257.277 158V144.88H261.377C262.27 144.88 263.063 145 263.757 145.24C264.45 145.467 264.99 145.853 265.377 146.4C265.777 146.933 265.977 147.653 265.977 148.56C265.977 149.573 265.71 150.393 265.177 151.02C264.643 151.633 263.923 152.053 263.017 152.28L266.357 158H264.477L261.317 152.46H258.937V158H257.277ZM258.937 151.1H261.137C262.163 151.1 262.95 150.893 263.497 150.48C264.043 150.053 264.317 149.413 264.317 148.56C264.317 147.693 264.043 147.087 263.497 146.74C262.95 146.393 262.163 146.22 261.137 146.22H258.937V151.1Z" fill="black"/>
<path d="M220.185 242V228.88H224.085C224.978 228.88 225.758 228.987 226.425 229.2C227.105 229.413 227.631 229.753 228.005 230.22C228.391 230.687 228.585 231.307 228.585 232.08C228.585 232.733 228.418 233.327 228.085 233.86C227.765 234.38 227.291 234.74 226.665 234.94V235.02C227.451 235.167 228.091 235.5 228.585 236.02C229.091 236.54 229.345 237.253 229.345 238.16C229.345 239.013 229.131 239.727 228.705 240.3C228.291 240.873 227.711 241.3 226.965 241.58C226.218 241.86 225.351 242 224.365 242H220.185ZM221.845 234.46H223.785C224.905 234.46 225.711 234.267 226.205 233.88C226.698 233.493 226.945 232.967 226.945 232.3C226.945 231.54 226.685 231 226.165 230.68C225.658 230.36 224.891 230.2 223.865 230.2H221.845V234.46ZM221.845 240.68H224.125C225.258 240.68 226.138 240.473 226.765 240.06C227.391 239.633 227.705 238.98 227.705 238.1C227.705 237.287 227.391 236.693 226.765 236.32C226.151 235.933 225.271 235.74 224.125 235.74H221.845V240.68ZM230.963 237.62V236.36H235.563V237.62H230.963ZM238.154 242V228.88H241.894C242.88 228.88 243.74 229 244.474 229.24C245.207 229.48 245.78 229.887 246.194 230.46C246.607 231.02 246.814 231.78 246.814 232.74C246.814 234.113 246.367 235.133 245.474 235.8C244.58 236.467 243.414 236.8 241.974 236.8H239.814V242H238.154ZM239.814 235.44H241.774C242.92 235.44 243.767 235.227 244.314 234.8C244.874 234.36 245.154 233.673 245.154 232.74C245.154 231.793 244.86 231.14 244.274 230.78C243.7 230.407 242.84 230.22 241.694 230.22H239.814V235.44ZM249.482 242V228.88H257.042V230.28H251.142V234.4H256.122V235.82H251.142V240.58H257.242V242H249.482ZM260.029 242V228.88H264.129C265.022 228.88 265.815 229 266.509 229.24C267.202 229.467 267.742 229.853 268.129 230.4C268.529 230.933 268.729 231.653 268.729 232.56C268.729 233.573 268.462 234.393 267.929 235.02C267.395 235.633 266.675 236.053 265.769 236.28L269.109 242H267.229L264.069 236.46H261.689V242H260.029ZM261.689 235.1H263.889C264.915 235.1 265.702 234.893 266.249 234.48C266.795 234.053 267.069 233.413 267.069 232.56C267.069 231.693 266.795 231.087 266.249 230.74C265.702 230.393 264.915 230.22 263.889 230.22H261.689V235.1Z" fill="black"/>
<path d="M379.937 158V144.88H381.597V158H379.937ZM384.211 153.62V152.36H388.811V153.62H384.211ZM391.402 158V144.88H395.142C396.128 144.88 396.988 145 397.722 145.24C398.455 145.48 399.028 145.887 399.442 146.46C399.855 147.02 400.062 147.78 400.062 148.74C400.062 150.113 399.615 151.133 398.722 151.8C397.828 152.467 396.662 152.8 395.222 152.8H393.062V158H391.402ZM393.062 151.44H395.022C396.168 151.44 397.015 151.227 397.562 150.8C398.122 150.36 398.402 149.673 398.402 148.74C398.402 147.793 398.108 147.14 397.522 146.78C396.948 146.407 396.088 146.22 394.942 146.22H393.062V151.44ZM402.73 158V144.88H410.29V146.28H404.39V150.4H409.37V151.82H404.39V156.58H410.49V158H402.73ZM413.277 158V144.88H417.377C418.27 144.88 419.063 145 419.757 145.24C420.45 145.467 420.99 145.853 421.377 146.4C421.777 146.933 421.977 147.653 421.977 148.56C421.977 149.573 421.71 150.393 421.177 151.02C420.643 151.633 419.923 152.053 419.017 152.28L422.357 158H420.477L417.317 152.46H414.937V158H413.277ZM414.937 151.1H417.137C418.163 151.1 418.95 150.893 419.497 150.48C420.043 150.053 420.317 149.413 420.317 148.56C420.317 147.693 420.043 147.087 419.497 146.74C418.95 146.393 418.163 146.22 417.137 146.22H414.937V151.1Z" fill="black"/>
<path d="M379.937 242V228.88H381.597V242H379.937ZM384.211 237.62V236.36H388.811V237.62H384.211ZM391.402 242V228.88H395.142C396.128 228.88 396.988 229 397.722 229.24C398.455 229.48 399.028 229.887 399.442 230.46C399.855 231.02 400.062 231.78 400.062 232.74C400.062 234.113 399.615 235.133 398.722 235.8C397.828 236.467 396.662 236.8 395.222 236.8H393.062V242H391.402ZM393.062 235.44H395.022C396.168 235.44 397.015 235.227 397.562 234.8C398.122 234.36 398.402 233.673 398.402 232.74C398.402 231.793 398.108 231.14 397.522 230.78C396.948 230.407 396.088 230.22 394.942 230.22H393.062V235.44ZM402.73 242V228.88H410.29V230.28H404.39V234.4H409.37V235.82H404.39V240.58H410.49V242H402.73ZM413.277 242V228.88H417.377C418.27 228.88 419.063 229 419.757 229.24C420.45 229.467 420.99 229.853 421.377 230.4C421.777 230.933 421.977 231.653 421.977 232.56C421.977 233.573 421.71 234.393 421.177 235.02C420.643 235.633 419.923 236.053 419.017 236.28L422.357 242H420.477L417.317 236.46H414.937V242H413.277ZM414.937 235.1H417.137C418.163 235.1 418.95 234.893 419.497 234.48C420.043 234.053 420.317 233.413 420.317 232.56C420.317 231.693 420.043 231.087 419.497 230.74C418.95 230.393 418.163 230.22 417.137 230.22H414.937V235.1Z" fill="black"/>
<path d="M428.753 326.24C427.833 326.24 426.979 326.067 426.193 325.72C425.406 325.36 424.726 324.887 424.153 324.3L425.153 323.14C425.619 323.633 426.166 324.033 426.793 324.34C427.433 324.633 428.093 324.78 428.773 324.78C429.639 324.78 430.313 324.587 430.793 324.2C431.273 323.8 431.513 323.28 431.513 322.64C431.513 322.187 431.413 321.827 431.213 321.56C431.026 321.293 430.766 321.067 430.433 320.88C430.113 320.693 429.746 320.507 429.333 320.32L427.453 319.5C427.039 319.327 426.626 319.1 426.213 318.82C425.813 318.54 425.473 318.18 425.193 317.74C424.926 317.3 424.793 316.76 424.793 316.12C424.793 315.453 424.966 314.86 425.313 314.34C425.673 313.807 426.166 313.393 426.793 313.1C427.419 312.793 428.126 312.64 428.913 312.64C429.699 312.64 430.426 312.793 431.093 313.1C431.759 313.393 432.326 313.78 432.793 314.26L431.893 315.34C431.493 314.953 431.046 314.653 430.553 314.44C430.073 314.213 429.526 314.1 428.913 314.1C428.179 314.1 427.586 314.273 427.133 314.62C426.693 314.967 426.473 315.433 426.473 316.02C426.473 316.433 426.579 316.78 426.793 317.06C427.019 317.327 427.299 317.547 427.633 317.72C427.966 317.893 428.306 318.053 428.653 318.2L430.513 319C431.019 319.213 431.473 319.473 431.873 319.78C432.286 320.073 432.613 320.44 432.853 320.88C433.093 321.307 433.213 321.847 433.213 322.5C433.213 323.193 433.033 323.827 432.673 324.4C432.313 324.96 431.799 325.407 431.133 325.74C430.466 326.073 429.673 326.24 428.753 326.24ZM435.796 330.18C435.583 330.18 435.376 330.16 435.176 330.12C434.989 330.08 434.816 330.033 434.656 329.98L434.976 328.68C435.083 328.707 435.203 328.733 435.336 328.76C435.469 328.8 435.596 328.82 435.716 328.82C436.263 328.82 436.716 328.62 437.076 328.22C437.436 327.833 437.716 327.34 437.916 326.74L438.136 326.02L434.236 316.28H435.936L437.916 321.66C438.063 322.073 438.216 322.52 438.376 323C438.549 323.48 438.709 323.947 438.856 324.4H438.936C439.083 323.96 439.223 323.5 439.356 323.02C439.489 322.54 439.623 322.087 439.756 321.66L441.496 316.28H443.096L439.436 326.8C439.209 327.44 438.936 328.013 438.616 328.52C438.309 329.027 437.923 329.427 437.456 329.72C437.003 330.027 436.449 330.18 435.796 330.18ZM446.712 326.24C446.099 326.24 445.652 326.053 445.372 325.68C445.105 325.293 444.972 324.747 444.972 324.04V311.76H446.612V324.16C446.612 324.413 446.659 324.6 446.752 324.72C446.845 324.827 446.952 324.88 447.072 324.88C447.125 324.88 447.172 324.88 447.212 324.88C447.265 324.867 447.339 324.853 447.432 324.84L447.652 326.08C447.545 326.133 447.419 326.173 447.272 326.2C447.125 326.227 446.939 326.24 446.712 326.24ZM452.17 326L448.67 316.28H450.37L452.21 321.8C452.356 322.28 452.503 322.76 452.65 323.24C452.81 323.72 452.963 324.193 453.11 324.66H453.19C453.336 324.193 453.483 323.72 453.63 323.24C453.79 322.76 453.936 322.28 454.07 321.8L455.91 316.28H457.53L454.09 326H452.17ZM461.255 326.24C460.442 326.24 459.762 326 459.215 325.52C458.682 325.027 458.415 324.347 458.415 323.48C458.415 322.413 458.888 321.6 459.835 321.04C460.795 320.467 462.308 320.067 464.375 319.84C464.375 319.427 464.315 319.033 464.195 318.66C464.088 318.287 463.888 317.987 463.595 317.76C463.315 317.52 462.908 317.4 462.375 317.4C461.815 317.4 461.288 317.507 460.795 317.72C460.302 317.933 459.862 318.173 459.475 318.44L458.835 317.3C459.288 317.007 459.842 316.727 460.495 316.46C461.162 316.18 461.882 316.04 462.655 316.04C463.842 316.04 464.702 316.407 465.235 317.14C465.768 317.86 466.035 318.827 466.035 320.04V326H464.675L464.535 324.84H464.475C464.022 325.213 463.522 325.54 462.975 325.82C462.442 326.1 461.868 326.24 461.255 326.24ZM461.735 324.92C462.202 324.92 462.642 324.807 463.055 324.58C463.468 324.353 463.908 324.033 464.375 323.62V320.92C462.762 321.12 461.628 321.42 460.975 321.82C460.335 322.22 460.015 322.733 460.015 323.36C460.015 323.907 460.182 324.307 460.515 324.56C460.848 324.8 461.255 324.92 461.735 324.92ZM469.093 326V316.28H470.733V326H469.093ZM469.933 314.28C469.613 314.28 469.346 314.187 469.133 314C468.933 313.8 468.833 313.533 468.833 313.2C468.833 312.88 468.933 312.62 469.133 312.42C469.346 312.22 469.613 312.12 469.933 312.12C470.253 312.12 470.513 312.22 470.713 312.42C470.926 312.62 471.033 312.88 471.033 313.2C471.033 313.533 470.926 313.8 470.713 314C470.513 314.187 470.253 314.28 469.933 314.28ZM474.015 326V316.28H475.375L475.515 317.68H475.575C476.042 317.213 476.535 316.827 477.055 316.52C477.575 316.2 478.168 316.04 478.835 316.04C479.862 316.04 480.608 316.367 481.075 317.02C481.555 317.66 481.795 318.6 481.795 319.84V326H480.155V320.06C480.155 319.153 480.008 318.493 479.715 318.08C479.422 317.667 478.955 317.46 478.315 317.46C477.822 317.46 477.375 317.587 476.975 317.84C476.588 318.093 476.148 318.467 475.655 318.96V326H474.015ZM489.196 329.04V311.84H492.776V312.78H490.436V328.1H492.776V329.04H489.196ZM495.171 326V312.88H498.911C499.898 312.88 500.758 313 501.491 313.24C502.224 313.48 502.798 313.887 503.211 314.46C503.624 315.02 503.831 315.78 503.831 316.74C503.831 318.113 503.384 319.133 502.491 319.8C501.598 320.467 500.431 320.8 498.991 320.8H496.831V326H495.171ZM496.831 319.44H498.791C499.938 319.44 500.784 319.227 501.331 318.8C501.891 318.36 502.171 317.673 502.171 316.74C502.171 315.793 501.878 315.14 501.291 314.78C500.718 314.407 499.858 314.22 498.711 314.22H496.831V319.44ZM506.499 326V312.88H514.059V314.28H508.159V318.4H513.139V319.82H508.159V324.58H514.259V326H506.499ZM517.046 326V312.88H521.146C522.039 312.88 522.833 313 523.526 313.24C524.219 313.467 524.759 313.853 525.146 314.4C525.546 314.933 525.746 315.653 525.746 316.56C525.746 317.573 525.479 318.393 524.946 319.02C524.413 319.633 523.693 320.053 522.786 320.28L526.126 326H524.246L521.086 320.46H518.706V326H517.046ZM518.706 319.1H520.906C521.933 319.1 522.719 318.893 523.266 318.48C523.813 318.053 524.086 317.413 524.086 316.56C524.086 315.693 523.813 315.087 523.266 314.74C522.719 314.393 521.933 314.22 520.906 314.22H518.706V319.1ZM527.253 329.04V328.1H529.573V312.78H527.253V311.84H530.813V329.04H527.253Z" fill="black"/>
<path d="M1061.12 318.66L1060.5 320.66H1064.44L1063.82 318.66C1063.58 317.927 1063.35 317.2 1063.14 316.48C1062.92 315.747 1062.71 315 1062.5 314.24H1062.42C1062.22 315 1062.01 315.747 1061.8 316.48C1061.58 317.2 1061.36 317.927 1061.12 318.66ZM1057.12 326L1061.56 312.88H1063.44L1067.88 326H1066.1L1064.86 322H1060.08L1058.82 326H1057.12ZM1071.32 326.24C1070.7 326.24 1070.26 326.053 1069.98 325.68C1069.71 325.293 1069.58 324.747 1069.58 324.04V311.76H1071.22V324.16C1071.22 324.413 1071.26 324.6 1071.36 324.72C1071.45 324.827 1071.56 324.88 1071.68 324.88C1071.73 324.88 1071.78 324.88 1071.82 324.88C1071.87 324.867 1071.94 324.853 1072.04 324.84L1072.26 326.08C1072.15 326.133 1072.02 326.173 1071.88 326.2C1071.73 326.227 1071.54 326.24 1071.32 326.24ZM1074.67 326V316.28H1076.31V326H1074.67ZM1075.51 314.28C1075.19 314.28 1074.93 314.187 1074.71 314C1074.51 313.8 1074.41 313.533 1074.41 313.2C1074.41 312.88 1074.51 312.62 1074.71 312.42C1074.93 312.22 1075.19 312.12 1075.51 312.12C1075.83 312.12 1076.09 312.22 1076.29 312.42C1076.51 312.62 1076.61 312.88 1076.61 313.2C1076.61 313.533 1076.51 313.8 1076.29 314C1076.09 314.187 1075.83 314.28 1075.51 314.28ZM1083.44 326.24C1082.58 326.24 1081.81 326.04 1081.12 325.64C1080.42 325.24 1079.88 324.66 1079.48 323.9C1079.08 323.14 1078.88 322.227 1078.88 321.16C1078.88 320.067 1079.09 319.14 1079.52 318.38C1079.96 317.62 1080.53 317.04 1081.24 316.64C1081.96 316.24 1082.73 316.04 1083.56 316.04C1084.2 316.04 1084.74 316.153 1085.2 316.38C1085.66 316.607 1086.06 316.873 1086.4 317.18L1085.56 318.26C1085.28 318.007 1084.98 317.8 1084.66 317.64C1084.35 317.48 1084 317.4 1083.62 317.4C1083.03 317.4 1082.5 317.56 1082.04 317.88C1081.58 318.187 1081.22 318.627 1080.96 319.2C1080.7 319.76 1080.58 320.413 1080.58 321.16C1080.58 322.267 1080.85 323.167 1081.4 323.86C1081.96 324.54 1082.68 324.88 1083.58 324.88C1084.03 324.88 1084.45 324.787 1084.84 324.6C1085.22 324.4 1085.56 324.167 1085.86 323.9L1086.58 325C1086.14 325.387 1085.65 325.693 1085.12 325.92C1084.58 326.133 1084.02 326.24 1083.44 326.24ZM1092.23 326.24C1091.36 326.24 1090.57 326.04 1089.87 325.64C1089.16 325.227 1088.6 324.64 1088.19 323.88C1087.77 323.12 1087.57 322.213 1087.57 321.16C1087.57 320.093 1087.77 319.18 1088.19 318.42C1088.61 317.66 1089.16 317.073 1089.83 316.66C1090.49 316.247 1091.19 316.04 1091.93 316.04C1093.17 316.04 1094.12 316.453 1094.79 317.28C1095.47 318.107 1095.81 319.213 1095.81 320.6C1095.81 320.773 1095.8 320.947 1095.79 321.12C1095.79 321.28 1095.77 321.42 1095.75 321.54H1089.19C1089.25 322.567 1089.57 323.387 1090.15 324C1090.73 324.613 1091.49 324.92 1092.43 324.92C1092.89 324.92 1093.32 324.853 1093.71 324.72C1094.11 324.573 1094.49 324.387 1094.85 324.16L1095.43 325.24C1095.01 325.507 1094.54 325.74 1094.01 325.94C1093.49 326.14 1092.89 326.24 1092.23 326.24ZM1089.17 320.36H1094.37C1094.37 319.373 1094.15 318.627 1093.73 318.12C1093.31 317.6 1092.73 317.34 1091.97 317.34C1091.29 317.34 1090.67 317.607 1090.13 318.14C1089.59 318.66 1089.27 319.4 1089.17 320.36ZM1102.45 329.04V311.84H1106.03V312.78H1103.69V328.1H1106.03V329.04H1102.45ZM1108.43 326V312.88H1112.17C1113.15 312.88 1114.01 313 1114.75 313.24C1115.48 313.48 1116.05 313.887 1116.47 314.46C1116.88 315.02 1117.09 315.78 1117.09 316.74C1117.09 318.113 1116.64 319.133 1115.75 319.8C1114.85 320.467 1113.69 320.8 1112.25 320.8H1110.09V326H1108.43ZM1110.09 319.44H1112.05C1113.19 319.44 1114.04 319.227 1114.59 318.8C1115.15 318.36 1115.43 317.673 1115.43 316.74C1115.43 315.793 1115.13 315.14 1114.55 314.78C1113.97 314.407 1113.11 314.22 1111.97 314.22H1110.09V319.44ZM1119.76 326V312.88H1127.32V314.28H1121.42V318.4H1126.4V319.82H1121.42V324.58H1127.52V326H1119.76ZM1130.3 326V312.88H1134.4C1135.3 312.88 1136.09 313 1136.78 313.24C1137.48 313.467 1138.02 313.853 1138.4 314.4C1138.8 314.933 1139 315.653 1139 316.56C1139 317.573 1138.74 318.393 1138.2 319.02C1137.67 319.633 1136.95 320.053 1136.04 320.28L1139.38 326H1137.5L1134.34 320.46H1131.96V326H1130.3ZM1131.96 319.1H1134.16C1135.19 319.1 1135.98 318.893 1136.52 318.48C1137.07 318.053 1137.34 317.413 1137.34 316.56C1137.34 315.693 1137.07 315.087 1136.52 314.74C1135.98 314.393 1135.19 314.22 1134.16 314.22H1131.96V319.1ZM1140.51 329.04V328.1H1142.83V312.78H1140.51V311.84H1144.07V329.04H1140.51Z" fill="black"/>
<path d="M1373.29 326V312.88H1377.19C1378.08 312.88 1378.86 312.987 1379.53 313.2C1380.21 313.413 1380.73 313.753 1381.11 314.22C1381.49 314.687 1381.69 315.307 1381.69 316.08C1381.69 316.733 1381.52 317.327 1381.19 317.86C1380.87 318.38 1380.39 318.74 1379.77 318.94V319.02C1380.55 319.167 1381.19 319.5 1381.69 320.02C1382.19 320.54 1382.45 321.253 1382.45 322.16C1382.45 323.013 1382.23 323.727 1381.81 324.3C1381.39 324.873 1380.81 325.3 1380.07 325.58C1379.32 325.86 1378.45 326 1377.47 326H1373.29ZM1374.95 318.46H1376.89C1378.01 318.46 1378.81 318.267 1379.31 317.88C1379.8 317.493 1380.05 316.967 1380.05 316.3C1380.05 315.54 1379.79 315 1379.27 314.68C1378.76 314.36 1377.99 314.2 1376.97 314.2H1374.95V318.46ZM1374.95 324.68H1377.23C1378.36 324.68 1379.24 324.473 1379.87 324.06C1380.49 323.633 1380.81 322.98 1380.81 322.1C1380.81 321.287 1380.49 320.693 1379.87 320.32C1379.25 319.933 1378.37 319.74 1377.23 319.74H1374.95V324.68ZM1388.66 326.24C1387.88 326.24 1387.14 326.04 1386.44 325.64C1385.76 325.24 1385.21 324.66 1384.78 323.9C1384.37 323.14 1384.16 322.227 1384.16 321.16C1384.16 320.067 1384.37 319.14 1384.78 318.38C1385.21 317.62 1385.76 317.04 1386.44 316.64C1387.14 316.24 1387.88 316.04 1388.66 316.04C1389.46 316.04 1390.2 316.24 1390.88 316.64C1391.56 317.04 1392.11 317.62 1392.52 318.38C1392.95 319.14 1393.16 320.067 1393.16 321.16C1393.16 322.227 1392.95 323.14 1392.52 323.9C1392.11 324.66 1391.56 325.24 1390.88 325.64C1390.2 326.04 1389.46 326.24 1388.66 326.24ZM1388.66 324.88C1389.5 324.88 1390.18 324.54 1390.68 323.86C1391.2 323.167 1391.46 322.267 1391.46 321.16C1391.46 320.04 1391.2 319.133 1390.68 318.44C1390.18 317.747 1389.5 317.4 1388.66 317.4C1387.84 317.4 1387.16 317.747 1386.64 318.44C1386.12 319.133 1385.86 320.04 1385.86 321.16C1385.86 322.267 1386.12 323.167 1386.64 323.86C1387.16 324.54 1387.84 324.88 1388.66 324.88ZM1400.02 326.24C1399.57 326.24 1399.1 326.133 1398.6 325.92C1398.12 325.693 1397.67 325.387 1397.24 325H1397.18L1397.04 326H1395.72V311.76H1397.36V315.64L1397.32 317.4C1397.76 317.013 1398.24 316.693 1398.76 316.44C1399.3 316.173 1399.83 316.04 1400.36 316.04C1401.63 316.04 1402.59 316.487 1403.24 317.38C1403.9 318.273 1404.22 319.473 1404.22 320.98C1404.22 322.087 1404.02 323.033 1403.62 323.82C1403.24 324.607 1402.72 325.207 1402.08 325.62C1401.46 326.033 1400.77 326.24 1400.02 326.24ZM1399.74 324.86C1400.54 324.86 1401.2 324.52 1401.72 323.84C1402.26 323.147 1402.52 322.2 1402.52 321C1402.52 319.933 1402.32 319.073 1401.92 318.42C1401.54 317.753 1400.88 317.42 1399.96 317.42C1399.55 317.42 1399.13 317.533 1398.7 317.76C1398.28 317.987 1397.83 318.313 1397.36 318.74V323.84C1397.79 324.213 1398.21 324.48 1398.62 324.64C1399.05 324.787 1399.42 324.86 1399.74 324.86ZM1411.02 329.04V311.84H1414.6V312.78H1412.26V328.1H1414.6V329.04H1411.02ZM1417 326V312.88H1420.74C1421.72 312.88 1422.58 313 1423.32 313.24C1424.05 313.48 1424.62 313.887 1425.04 314.46C1425.45 315.02 1425.66 315.78 1425.66 316.74C1425.66 318.113 1425.21 319.133 1424.32 319.8C1423.42 320.467 1422.26 320.8 1420.82 320.8H1418.66V326H1417ZM1418.66 319.44H1420.62C1421.76 319.44 1422.61 319.227 1423.16 318.8C1423.72 318.36 1424 317.673 1424 316.74C1424 315.793 1423.7 315.14 1423.12 314.78C1422.54 314.407 1421.68 314.22 1420.54 314.22H1418.66V319.44ZM1428.33 326V312.88H1435.89V314.28H1429.99V318.4H1434.97V319.82H1429.99V324.58H1436.09V326H1428.33ZM1438.87 326V312.88H1442.97C1443.87 312.88 1444.66 313 1445.35 313.24C1446.05 313.467 1446.59 313.853 1446.97 314.4C1447.37 314.933 1447.57 315.653 1447.57 316.56C1447.57 317.573 1447.31 318.393 1446.77 319.02C1446.24 319.633 1445.52 320.053 1444.61 320.28L1447.95 326H1446.07L1442.91 320.46H1440.53V326H1438.87ZM1440.53 319.1H1442.73C1443.76 319.1 1444.55 318.893 1445.09 318.48C1445.64 318.053 1445.91 317.413 1445.91 316.56C1445.91 315.693 1445.64 315.087 1445.09 314.74C1444.55 314.393 1443.76 314.22 1442.73 314.22H1440.53V319.1ZM1449.08 329.04V328.1H1451.4V312.78H1449.08V311.84H1452.64V329.04H1449.08Z" fill="black"/>
<path d="M535.937 242V228.88H537.597V242H535.937ZM540.211 237.62V236.36H544.811V237.62H540.211ZM547.402 242V228.88H551.142C552.128 228.88 552.988 229 553.722 229.24C554.455 229.48 555.028 229.887 555.442 230.46C555.855 231.02 556.062 231.78 556.062 232.74C556.062 234.113 555.615 235.133 554.722 235.8C553.828 236.467 552.662 236.8 551.222 236.8H549.062V242H547.402ZM549.062 235.44H551.022C552.168 235.44 553.015 235.227 553.562 234.8C554.122 234.36 554.402 233.673 554.402 232.74C554.402 231.793 554.108 231.14 553.522 230.78C552.948 230.407 552.088 230.22 550.942 230.22H549.062V235.44ZM558.73 242V228.88H566.29V230.28H560.39V234.4H565.37V235.82H560.39V240.58H566.49V242H558.73ZM569.277 242V228.88H573.377C574.27 228.88 575.063 229 575.757 229.24C576.45 229.467 576.99 229.853 577.377 230.4C577.777 230.933 577.977 231.653 577.977 232.56C577.977 233.573 577.71 234.393 577.177 235.02C576.643 235.633 575.923 236.053 575.017 236.28L578.357 242H576.477L573.317 236.46H570.937V242H569.277ZM570.937 235.1H573.137C574.163 235.1 574.95 234.893 575.497 234.48C576.043 234.053 576.317 233.413 576.317 232.56C576.317 231.693 576.043 231.087 575.497 230.74C574.95 230.393 574.163 230.22 573.137 230.22H570.937V235.1Z" fill="black"/>
<path d="M690.937 242V228.88H692.597V242H690.937ZM695.211 237.62V236.36H699.811V237.62H695.211ZM702.402 242V228.88H706.142C707.128 228.88 707.988 229 708.722 229.24C709.455 229.48 710.028 229.887 710.442 230.46C710.855 231.02 711.062 231.78 711.062 232.74C711.062 234.113 710.615 235.133 709.722 235.8C708.828 236.467 707.662 236.8 706.222 236.8H704.062V242H702.402ZM704.062 235.44H706.022C707.168 235.44 708.015 235.227 708.562 234.8C709.122 234.36 709.402 233.673 709.402 232.74C709.402 231.793 709.108 231.14 708.522 230.78C707.948 230.407 707.088 230.22 705.942 230.22H704.062V235.44ZM713.73 242V228.88H721.29V230.28H715.39V234.4H720.37V235.82H715.39V240.58H721.49V242H713.73ZM724.277 242V228.88H728.377C729.27 228.88 730.063 229 730.757 229.24C731.45 229.467 731.99 229.853 732.377 230.4C732.777 230.933 732.977 231.653 732.977 232.56C732.977 233.573 732.71 234.393 732.177 235.02C731.643 235.633 730.923 236.053 730.017 236.28L733.357 242H731.477L728.317 236.46H725.937V242H724.277ZM725.937 235.1H728.137C729.163 235.1 729.95 234.893 730.497 234.48C731.043 234.053 731.317 233.413 731.317 232.56C731.317 231.693 731.043 231.087 730.497 230.74C729.95 230.393 729.163 230.22 728.137 230.22H725.937V235.1Z" fill="black"/>
<path d="M999.185 242V228.88H1003.08C1003.98 228.88 1004.76 228.987 1005.42 229.2C1006.1 229.413 1006.63 229.753 1007 230.22C1007.39 230.687 1007.58 231.307 1007.58 232.08C1007.58 232.733 1007.42 233.327 1007.08 233.86C1006.76 234.38 1006.29 234.74 1005.66 234.94V235.02C1006.45 235.167 1007.09 235.5 1007.58 236.02C1008.09 236.54 1008.34 237.253 1008.34 238.16C1008.34 239.013 1008.13 239.727 1007.7 240.3C1007.29 240.873 1006.71 241.3 1005.96 241.58C1005.22 241.86 1004.35 242 1003.36 242H999.185ZM1000.84 234.46H1002.78C1003.9 234.46 1004.71 234.267 1005.2 233.88C1005.7 233.493 1005.94 232.967 1005.94 232.3C1005.94 231.54 1005.68 231 1005.16 230.68C1004.66 230.36 1003.89 230.2 1002.86 230.2H1000.84V234.46ZM1000.84 240.68H1003.12C1004.26 240.68 1005.14 240.473 1005.76 240.06C1006.39 239.633 1006.7 238.98 1006.7 238.1C1006.7 237.287 1006.39 236.693 1005.76 236.32C1005.15 235.933 1004.27 235.74 1003.12 235.74H1000.84V240.68ZM1009.96 237.62V236.36H1014.56V237.62H1009.96ZM1017.15 242V228.88H1020.89C1021.88 228.88 1022.74 229 1023.47 229.24C1024.21 229.48 1024.78 229.887 1025.19 230.46C1025.61 231.02 1025.81 231.78 1025.81 232.74C1025.81 234.113 1025.37 235.133 1024.47 235.8C1023.58 236.467 1022.41 236.8 1020.97 236.8H1018.81V242H1017.15ZM1018.81 235.44H1020.77C1021.92 235.44 1022.77 235.227 1023.31 234.8C1023.87 234.36 1024.15 233.673 1024.15 232.74C1024.15 231.793 1023.86 231.14 1023.27 230.78C1022.7 230.407 1021.84 230.22 1020.69 230.22H1018.81V235.44ZM1028.48 242V228.88H1036.04V230.28H1030.14V234.4H1035.12V235.82H1030.14V240.58H1036.24V242H1028.48ZM1039.03 242V228.88H1043.13C1044.02 228.88 1044.82 229 1045.51 229.24C1046.2 229.467 1046.74 229.853 1047.13 230.4C1047.53 230.933 1047.73 231.653 1047.73 232.56C1047.73 233.573 1047.46 234.393 1046.93 235.02C1046.4 235.633 1045.68 236.053 1044.77 236.28L1048.11 242H1046.23L1043.07 236.46H1040.69V242H1039.03ZM1040.69 235.1H1042.89C1043.92 235.1 1044.7 234.893 1045.25 234.48C1045.8 234.053 1046.07 233.413 1046.07 232.56C1046.07 231.693 1045.8 231.087 1045.25 230.74C1044.7 230.393 1043.92 230.22 1042.89 230.22H1040.69V235.1Z" fill="black"/>
<path d="M1158.94 242V228.88H1160.6V242H1158.94ZM1163.21 237.62V236.36H1167.81V237.62H1163.21ZM1170.4 242V228.88H1174.14C1175.13 228.88 1175.99 229 1176.72 229.24C1177.45 229.48 1178.03 229.887 1178.44 230.46C1178.85 231.02 1179.06 231.78 1179.06 232.74C1179.06 234.113 1178.61 235.133 1177.72 235.8C1176.83 236.467 1175.66 236.8 1174.22 236.8H1172.06V242H1170.4ZM1172.06 235.44H1174.02C1175.17 235.44 1176.01 235.227 1176.56 234.8C1177.12 234.36 1177.4 233.673 1177.4 232.74C1177.4 231.793 1177.11 231.14 1176.52 230.78C1175.95 230.407 1175.09 230.22 1173.94 230.22H1172.06V235.44ZM1181.73 242V228.88H1189.29V230.28H1183.39V234.4H1188.37V235.82H1183.39V240.58H1189.49V242H1181.73ZM1192.28 242V228.88H1196.38C1197.27 228.88 1198.06 229 1198.76 229.24C1199.45 229.467 1199.99 229.853 1200.38 230.4C1200.78 230.933 1200.98 231.653 1200.98 232.56C1200.98 233.573 1200.71 234.393 1200.18 235.02C1199.64 235.633 1198.92 236.053 1198.02 236.28L1201.36 242H1199.48L1196.32 236.46H1193.94V242H1192.28ZM1193.94 235.1H1196.14C1197.16 235.1 1197.95 234.893 1198.5 234.48C1199.04 234.053 1199.32 233.413 1199.32 232.56C1199.32 231.693 1199.04 231.087 1198.5 230.74C1197.95 230.393 1197.16 230.22 1196.14 230.22H1193.94V235.1Z" fill="black"/>
<path d="M1314.94 242V228.88H1316.6V242H1314.94ZM1319.21 237.62V236.36H1323.81V237.62H1319.21ZM1326.4 242V228.88H1330.14C1331.13 228.88 1331.99 229 1332.72 229.24C1333.45 229.48 1334.03 229.887 1334.44 230.46C1334.85 231.02 1335.06 231.78 1335.06 232.74C1335.06 234.113 1334.61 235.133 1333.72 235.8C1332.83 236.467 1331.66 236.8 1330.22 236.8H1328.06V242H1326.4ZM1328.06 235.44H1330.02C1331.17 235.44 1332.01 235.227 1332.56 234.8C1333.12 234.36 1333.4 233.673 1333.4 232.74C1333.4 231.793 1333.11 231.14 1332.52 230.78C1331.95 230.407 1331.09 230.22 1329.94 230.22H1328.06V235.44ZM1337.73 242V228.88H1345.29V230.28H1339.39V234.4H1344.37V235.82H1339.39V240.58H1345.49V242H1337.73ZM1348.28 242V228.88H1352.38C1353.27 228.88 1354.06 229 1354.76 229.24C1355.45 229.467 1355.99 229.853 1356.38 230.4C1356.78 230.933 1356.98 231.653 1356.98 232.56C1356.98 233.573 1356.71 234.393 1356.18 235.02C1355.64 235.633 1354.92 236.053 1354.02 236.28L1357.36 242H1355.48L1352.32 236.46H1349.94V242H1348.28ZM1349.94 235.1H1352.14C1353.16 235.1 1353.95 234.893 1354.5 234.48C1355.04 234.053 1355.32 233.413 1355.32 232.56C1355.32 231.693 1355.04 231.087 1354.5 230.74C1353.95 230.393 1353.16 230.22 1352.14 230.22H1349.94V235.1Z" fill="black"/>
<path d="M535.937 158V144.88H537.597V158H535.937ZM540.211 153.62V152.36H544.811V153.62H540.211ZM547.402 158V144.88H551.142C552.128 144.88 552.988 145 553.722 145.24C554.455 145.48 555.028 145.887 555.442 146.46C555.855 147.02 556.062 147.78 556.062 148.74C556.062 150.113 555.615 151.133 554.722 151.8C553.828 152.467 552.662 152.8 551.222 152.8H549.062V158H547.402ZM549.062 151.44H551.022C552.168 151.44 553.015 151.227 553.562 150.8C554.122 150.36 554.402 149.673 554.402 148.74C554.402 147.793 554.108 147.14 553.522 146.78C552.948 146.407 552.088 146.22 550.942 146.22H549.062V151.44ZM558.73 158V144.88H566.29V146.28H560.39V150.4H565.37V151.82H560.39V156.58H566.49V158H558.73ZM569.277 158V144.88H573.377C574.27 144.88 575.063 145 575.757 145.24C576.45 145.467 576.99 145.853 577.377 146.4C577.777 146.933 577.977 147.653 577.977 148.56C577.977 149.573 577.71 150.393 577.177 151.02C576.643 151.633 575.923 152.053 575.017 152.28L578.357 158H576.477L573.317 152.46H570.937V158H569.277ZM570.937 151.1H573.137C574.163 151.1 574.95 150.893 575.497 150.48C576.043 150.053 576.317 149.413 576.317 148.56C576.317 147.693 576.043 147.087 575.497 146.74C574.95 146.393 574.163 146.22 573.137 146.22H570.937V151.1Z" fill="black"/>
<path d="M690.937 158V144.88H692.597V158H690.937ZM695.211 153.62V152.36H699.811V153.62H695.211ZM702.402 158V144.88H706.142C707.128 144.88 707.988 145 708.722 145.24C709.455 145.48 710.028 145.887 710.442 146.46C710.855 147.02 711.062 147.78 711.062 148.74C711.062 150.113 710.615 151.133 709.722 151.8C708.828 152.467 707.662 152.8 706.222 152.8H704.062V158H702.402ZM704.062 151.44H706.022C707.168 151.44 708.015 151.227 708.562 150.8C709.122 150.36 709.402 149.673 709.402 148.74C709.402 147.793 709.108 147.14 708.522 146.78C707.948 146.407 707.088 146.22 705.942 146.22H704.062V151.44ZM713.73 158V144.88H721.29V146.28H715.39V150.4H720.37V151.82H715.39V156.58H721.49V158H713.73ZM724.277 158V144.88H728.377C729.27 144.88 730.063 145 730.757 145.24C731.45 145.467 731.99 145.853 732.377 146.4C732.777 146.933 732.977 147.653 732.977 148.56C732.977 149.573 732.71 150.393 732.177 151.02C731.643 151.633 730.923 152.053 730.017 152.28L733.357 158H731.477L728.317 152.46H725.937V158H724.277ZM725.937 151.1H728.137C729.163 151.1 729.95 150.893 730.497 150.48C731.043 150.053 731.317 149.413 731.317 148.56C731.317 147.693 731.043 147.087 730.497 146.74C729.95 146.393 729.163 146.22 728.137 146.22H725.937V151.1Z" fill="black"/>
<path d="M1002.94 158V144.88H1004.6V158H1002.94ZM1007.21 153.62V152.36H1011.81V153.62H1007.21ZM1014.4 158V144.88H1018.14C1019.13 144.88 1019.99 145 1020.72 145.24C1021.45 145.48 1022.03 145.887 1022.44 146.46C1022.85 147.02 1023.06 147.78 1023.06 148.74C1023.06 150.113 1022.61 151.133 1021.72 151.8C1020.83 152.467 1019.66 152.8 1018.22 152.8H1016.06V158H1014.4ZM1016.06 151.44H1018.02C1019.17 151.44 1020.01 151.227 1020.56 150.8C1021.12 150.36 1021.4 149.673 1021.4 148.74C1021.4 147.793 1021.11 147.14 1020.52 146.78C1019.95 146.407 1019.09 146.22 1017.94 146.22H1016.06V151.44ZM1025.73 158V144.88H1033.29V146.28H1027.39V150.4H1032.37V151.82H1027.39V156.58H1033.49V158H1025.73ZM1036.28 158V144.88H1040.38C1041.27 144.88 1042.06 145 1042.76 145.24C1043.45 145.467 1043.99 145.853 1044.38 146.4C1044.78 146.933 1044.98 147.653 1044.98 148.56C1044.98 149.573 1044.71 150.393 1044.18 151.02C1043.64 151.633 1042.92 152.053 1042.02 152.28L1045.36 158H1043.48L1040.32 152.46H1037.94V158H1036.28ZM1037.94 151.1H1040.14C1041.16 151.1 1041.95 150.893 1042.5 150.48C1043.04 150.053 1043.32 149.413 1043.32 148.56C1043.32 147.693 1043.04 147.087 1042.5 146.74C1041.95 146.393 1041.16 146.22 1040.14 146.22H1037.94V151.1Z" fill="black"/>
<path d="M1158.94 158V144.88H1160.6V158H1158.94ZM1163.21 153.62V152.36H1167.81V153.62H1163.21ZM1170.4 158V144.88H1174.14C1175.13 144.88 1175.99 145 1176.72 145.24C1177.45 145.48 1178.03 145.887 1178.44 146.46C1178.85 147.02 1179.06 147.78 1179.06 148.74C1179.06 150.113 1178.61 151.133 1177.72 151.8C1176.83 152.467 1175.66 152.8 1174.22 152.8H1172.06V158H1170.4ZM1172.06 151.44H1174.02C1175.17 151.44 1176.01 151.227 1176.56 150.8C1177.12 150.36 1177.4 149.673 1177.4 148.74C1177.4 147.793 1177.11 147.14 1176.52 146.78C1175.95 146.407 1175.09 146.22 1173.94 146.22H1172.06V151.44ZM1181.73 158V144.88H1189.29V146.28H1183.39V150.4H1188.37V151.82H1183.39V156.58H1189.49V158H1181.73ZM1192.28 158V144.88H1196.38C1197.27 144.88 1198.06 145 1198.76 145.24C1199.45 145.467 1199.99 145.853 1200.38 146.4C1200.78 146.933 1200.98 147.653 1200.98 148.56C1200.98 149.573 1200.71 150.393 1200.18 151.02C1199.64 151.633 1198.92 152.053 1198.02 152.28L1201.36 158H1199.48L1196.32 152.46H1193.94V158H1192.28ZM1193.94 151.1H1196.14C1197.16 151.1 1197.95 150.893 1198.5 150.48C1199.04 150.053 1199.32 149.413 1199.32 148.56C1199.32 147.693 1199.04 147.087 1198.5 146.74C1197.95 146.393 1197.16 146.22 1196.14 146.22H1193.94V151.1Z" fill="black"/>
<path d="M1314.94 158V144.88H1316.6V158H1314.94ZM1319.21 153.62V152.36H1323.81V153.62H1319.21ZM1326.4 158V144.88H1330.14C1331.13 144.88 1331.99 145 1332.72 145.24C1333.45 145.48 1334.03 145.887 1334.44 146.46C1334.85 147.02 1335.06 147.78 1335.06 148.74C1335.06 150.113 1334.61 151.133 1333.72 151.8C1332.83 152.467 1331.66 152.8 1330.22 152.8H1328.06V158H1326.4ZM1328.06 151.44H1330.02C1331.17 151.44 1332.01 151.227 1332.56 150.8C1333.12 150.36 1333.4 149.673 1333.4 148.74C1333.4 147.793 1333.11 147.14 1332.52 146.78C1331.95 146.407 1331.09 146.22 1329.94 146.22H1328.06V151.44ZM1337.73 158V144.88H1345.29V146.28H1339.39V150.4H1344.37V151.82H1339.39V156.58H1345.49V158H1337.73ZM1348.28 158V144.88H1352.38C1353.27 144.88 1354.06 145 1354.76 145.24C1355.45 145.467 1355.99 145.853 1356.38 146.4C1356.78 146.933 1356.98 147.653 1356.98 148.56C1356.98 149.573 1356.71 150.393 1356.18 151.02C1355.64 151.633 1354.92 152.053 1354.02 152.28L1357.36 158H1355.48L1352.32 152.46H1349.94V158H1348.28ZM1349.94 151.1H1352.14C1353.16 151.1 1353.95 150.893 1354.5 150.48C1355.04 150.053 1355.32 149.413 1355.32 148.56C1355.32 147.693 1355.04 147.087 1354.5 146.74C1353.95 146.393 1353.16 146.22 1352.14 146.22H1349.94V151.1Z" fill="black"/>
<path d="M1467.18 158V144.88H1471.08C1471.98 144.88 1472.76 144.987 1473.42 145.2C1474.1 145.413 1474.63 145.753 1475 146.22C1475.39 146.687 1475.58 147.307 1475.58 148.08C1475.58 148.733 1475.42 149.327 1475.08 149.86C1474.76 150.38 1474.29 150.74 1473.66 150.94V151.02C1474.45 151.167 1475.09 151.5 1475.58 152.02C1476.09 152.54 1476.34 153.253 1476.34 154.16C1476.34 155.013 1476.13 155.727 1475.7 156.3C1475.29 156.873 1474.71 157.3 1473.96 157.58C1473.22 157.86 1472.35 158 1471.36 158H1467.18ZM1468.84 150.46H1470.78C1471.9 150.46 1472.71 150.267 1473.2 149.88C1473.7 149.493 1473.94 148.967 1473.94 148.3C1473.94 147.54 1473.68 147 1473.16 146.68C1472.66 146.36 1471.89 146.2 1470.86 146.2H1468.84V150.46ZM1468.84 156.68H1471.12C1472.26 156.68 1473.14 156.473 1473.76 156.06C1474.39 155.633 1474.7 154.98 1474.7 154.1C1474.7 153.287 1474.39 152.693 1473.76 152.32C1473.15 151.933 1472.27 151.74 1471.12 151.74H1468.84V156.68ZM1477.96 153.62V152.36H1482.56V153.62H1477.96ZM1485.15 158V144.88H1488.89C1489.88 144.88 1490.74 145 1491.47 145.24C1492.21 145.48 1492.78 145.887 1493.19 146.46C1493.61 147.02 1493.81 147.78 1493.81 148.74C1493.81 150.113 1493.37 151.133 1492.47 151.8C1491.58 152.467 1490.41 152.8 1488.97 152.8H1486.81V158H1485.15ZM1486.81 151.44H1488.77C1489.92 151.44 1490.77 151.227 1491.31 150.8C1491.87 150.36 1492.15 149.673 1492.15 148.74C1492.15 147.793 1491.86 147.14 1491.27 146.78C1490.7 146.407 1489.84 146.22 1488.69 146.22H1486.81V151.44ZM1496.48 158V144.88H1504.04V146.28H1498.14V150.4H1503.12V151.82H1498.14V156.58H1504.24V158H1496.48ZM1507.03 158V144.88H1511.13C1512.02 144.88 1512.82 145 1513.51 145.24C1514.2 145.467 1514.74 145.853 1515.13 146.4C1515.53 146.933 1515.73 147.653 1515.73 148.56C1515.73 149.573 1515.46 150.393 1514.93 151.02C1514.4 151.633 1513.68 152.053 1512.77 152.28L1516.11 158H1514.23L1511.07 152.46H1508.69V158H1507.03ZM1508.69 151.1H1510.89C1511.92 151.1 1512.7 150.893 1513.25 150.48C1513.8 150.053 1514.07 149.413 1514.07 148.56C1514.07 147.693 1513.8 147.087 1513.25 146.74C1512.7 146.393 1511.92 146.22 1510.89 146.22H1508.69V151.1Z" fill="black"/>
<path d="M1467.18 242V228.88H1471.08C1471.98 228.88 1472.76 228.987 1473.42 229.2C1474.1 229.413 1474.63 229.753 1475 230.22C1475.39 230.687 1475.58 231.307 1475.58 232.08C1475.58 232.733 1475.42 233.327 1475.08 233.86C1474.76 234.38 1474.29 234.74 1473.66 234.94V235.02C1474.45 235.167 1475.09 235.5 1475.58 236.02C1476.09 236.54 1476.34 237.253 1476.34 238.16C1476.34 239.013 1476.13 239.727 1475.7 240.3C1475.29 240.873 1474.71 241.3 1473.96 241.58C1473.22 241.86 1472.35 242 1471.36 242H1467.18ZM1468.84 234.46H1470.78C1471.9 234.46 1472.71 234.267 1473.2 233.88C1473.7 233.493 1473.94 232.967 1473.94 232.3C1473.94 231.54 1473.68 231 1473.16 230.68C1472.66 230.36 1471.89 230.2 1470.86 230.2H1468.84V234.46ZM1468.84 240.68H1471.12C1472.26 240.68 1473.14 240.473 1473.76 240.06C1474.39 239.633 1474.7 238.98 1474.7 238.1C1474.7 237.287 1474.39 236.693 1473.76 236.32C1473.15 235.933 1472.27 235.74 1471.12 235.74H1468.84V240.68ZM1477.96 237.62V236.36H1482.56V237.62H1477.96ZM1485.15 242V228.88H1488.89C1489.88 228.88 1490.74 229 1491.47 229.24C1492.21 229.48 1492.78 229.887 1493.19 230.46C1493.61 231.02 1493.81 231.78 1493.81 232.74C1493.81 234.113 1493.37 235.133 1492.47 235.8C1491.58 236.467 1490.41 236.8 1488.97 236.8H1486.81V242H1485.15ZM1486.81 235.44H1488.77C1489.92 235.44 1490.77 235.227 1491.31 234.8C1491.87 234.36 1492.15 233.673 1492.15 232.74C1492.15 231.793 1491.86 231.14 1491.27 230.78C1490.7 230.407 1489.84 230.22 1488.69 230.22H1486.81V235.44ZM1496.48 242V228.88H1504.04V230.28H1498.14V234.4H1503.12V235.82H1498.14V240.58H1504.24V242H1496.48ZM1507.03 242V228.88H1511.13C1512.02 228.88 1512.82 229 1513.51 229.24C1514.2 229.467 1514.74 229.853 1515.13 230.4C1515.53 230.933 1515.73 231.653 1515.73 232.56C1515.73 233.573 1515.46 234.393 1514.93 235.02C1514.4 235.633 1513.68 236.053 1512.77 236.28L1516.11 242H1514.23L1511.07 236.46H1508.69V242H1507.03ZM1508.69 235.1H1510.89C1511.92 235.1 1512.7 234.893 1513.25 234.48C1513.8 234.053 1514.07 233.413 1514.07 232.56C1514.07 231.693 1513.8 231.087 1513.25 230.74C1512.7 230.393 1511.92 230.22 1510.89 230.22H1508.69V235.1Z" fill="black"/>
<path d="M385.142 74L385.642 69.92H384.042V68.78H385.782L386.142 65.82H384.442V64.66H386.282L386.742 61H387.802L387.342 64.66H390.002L390.482 61H391.542L391.062 64.66H392.682V65.82H390.942L390.582 68.78H392.282V69.92H390.442L389.942 74H388.882L389.362 69.92H386.722L386.222 74H385.142ZM386.862 68.78H389.502L389.862 65.82H387.222L386.862 68.78ZM395.083 74L395.583 69.92H393.983V68.78H395.723L396.083 65.82H394.383V64.66H396.223L396.683 61H397.743L397.283 64.66H399.943L400.423 61H401.483L401.003 64.66H402.623V65.82H400.883L400.523 68.78H402.223V69.92H400.383L399.883 74H398.823L399.303 69.92H396.663L396.163 74H395.083ZM396.803 68.78H399.443L399.803 65.82H397.163L396.803 68.78ZM405.025 78.18C404.811 78.18 404.605 78.16 404.405 78.12C404.218 78.08 404.045 78.0333 403.885 77.98L404.205 76.68C404.311 76.7067 404.431 76.7333 404.565 76.76C404.698 76.8 404.825 76.82 404.945 76.82C405.491 76.82 405.945 76.62 406.305 76.22C406.665 75.8333 406.945 75.34 407.145 74.74L407.365 74.02L403.465 64.28H405.165L407.145 69.66C407.291 70.0733 407.445 70.52 407.605 71C407.778 71.48 407.938 71.9467 408.085 72.4H408.165C408.311 71.96 408.451 71.5 408.585 71.02C408.718 70.54 408.851 70.0867 408.985 69.66L410.725 64.28H412.325L408.665 74.8C408.438 75.44 408.165 76.0133 407.845 76.52C407.538 77.0267 407.151 77.4267 406.685 77.72C406.231 78.0267 405.678 78.18 405.025 78.18ZM415.941 74.24C415.327 74.24 414.881 74.0533 414.601 73.68C414.334 73.2933 414.201 72.7467 414.201 72.04V59.76H415.841V72.16C415.841 72.4133 415.887 72.6 415.981 72.72C416.074 72.8267 416.181 72.88 416.301 72.88C416.354 72.88 416.401 72.88 416.441 72.88C416.494 72.8667 416.567 72.8533 416.661 72.84L416.881 74.08C416.774 74.1333 416.647 74.1733 416.501 74.2C416.354 74.2267 416.167 74.24 415.941 74.24Z" fill="black"/>
<path d="M539.847 74L540.347 69.92H538.747V68.78H540.487L540.847 65.82H539.147V64.66H540.987L541.447 61H542.507L542.047 64.66H544.707L545.187 61H546.247L545.767 64.66H547.387V65.82H545.647L545.287 68.78H546.987V69.92H545.147L544.647 74H543.587L544.067 69.92H541.427L540.927 74H539.847ZM541.567 68.78H544.207L544.567 65.82H541.927L541.567 68.78ZM549.788 74L550.288 69.92H548.688V68.78H550.428L550.788 65.82H549.088V64.66H550.928L551.388 61H552.448L551.988 64.66H554.648L555.128 61H556.188L555.708 64.66H557.328V65.82H555.588L555.228 68.78H556.928V69.92H555.088L554.588 74H553.528L554.008 69.92H551.368L550.868 74H549.788ZM551.508 68.78H554.148L554.508 65.82H551.868L551.508 68.78ZM561.67 74L558.17 64.28H559.87L561.71 69.8C561.856 70.28 562.003 70.76 562.15 71.24C562.31 71.72 562.463 72.1933 562.61 72.66H562.69C562.836 72.1933 562.983 71.72 563.13 71.24C563.29 70.76 563.436 70.28 563.57 69.8L565.41 64.28H567.03L563.59 74H561.67ZM570.755 74.24C569.942 74.24 569.262 74 568.715 73.52C568.182 73.0267 567.915 72.3467 567.915 71.48C567.915 70.4133 568.388 69.6 569.335 69.04C570.295 68.4667 571.808 68.0667 573.875 67.84C573.875 67.4267 573.815 67.0333 573.695 66.66C573.588 66.2867 573.388 65.9867 573.095 65.76C572.815 65.52 572.408 65.4 571.875 65.4C571.315 65.4 570.788 65.5067 570.295 65.72C569.802 65.9333 569.362 66.1733 568.975 66.44L568.335 65.3C568.788 65.0067 569.342 64.7267 569.995 64.46C570.662 64.18 571.382 64.04 572.155 64.04C573.342 64.04 574.202 64.4067 574.735 65.14C575.268 65.86 575.535 66.8267 575.535 68.04V74H574.175L574.035 72.84H573.975C573.522 73.2133 573.022 73.54 572.475 73.82C571.942 74.1 571.368 74.24 570.755 74.24ZM571.235 72.92C571.702 72.92 572.142 72.8067 572.555 72.58C572.968 72.3533 573.408 72.0333 573.875 71.62V68.92C572.262 69.12 571.128 69.42 570.475 69.82C569.835 70.22 569.515 70.7333 569.515 71.36C569.515 71.9067 569.682 72.3067 570.015 72.56C570.348 72.8 570.755 72.92 571.235 72.92Z" fill="black"/>
<path d="M694.929 74L695.429 69.92H693.829V68.78H695.569L695.929 65.82H694.229V64.66H696.069L696.529 61H697.589L697.129 64.66H699.789L700.269 61H701.329L700.849 64.66H702.469V65.82H700.729L700.369 68.78H702.069V69.92H700.229L699.729 74H698.669L699.149 69.92H696.509L696.009 74H694.929ZM696.649 68.78H699.289L699.649 65.82H697.009L696.649 68.78ZM704.87 74L705.37 69.92H703.77V68.78H705.51L705.87 65.82H704.17V64.66H706.01L706.47 61H707.53L707.07 64.66H709.73L710.21 61H711.27L710.79 64.66H712.41V65.82H710.67L710.31 68.78H712.01V69.92H710.17L709.67 74H708.61L709.09 69.92H706.45L705.95 74H704.87ZM706.59 68.78H709.23L709.59 65.82H706.95L706.59 68.78ZM714.652 74V64.28H716.292V74H714.652ZM715.492 62.28C715.172 62.28 714.905 62.1867 714.692 62C714.492 61.8 714.392 61.5333 714.392 61.2C714.392 60.88 714.492 60.62 714.692 60.42C714.905 60.22 715.172 60.12 715.492 60.12C715.812 60.12 716.072 60.22 716.272 60.42C716.485 60.62 716.592 60.88 716.592 61.2C716.592 61.5333 716.485 61.8 716.272 62C716.072 62.1867 715.812 62.28 715.492 62.28ZM719.574 74V64.28H720.934L721.074 65.68H721.134C721.6 65.2133 722.094 64.8267 722.614 64.52C723.134 64.2 723.727 64.04 724.394 64.04C725.42 64.04 726.167 64.3667 726.634 65.02C727.114 65.66 727.354 66.6 727.354 67.84V74H725.714V68.06C725.714 67.1533 725.567 66.4933 725.274 66.08C724.98 65.6667 724.514 65.46 723.874 65.46C723.38 65.46 722.934 65.5867 722.534 65.84C722.147 66.0933 721.707 66.4667 721.214 66.96V74H719.574Z" fill="black"/>
<path d="M1022.12 66.66L1021.5 68.66H1025.44L1024.82 66.66C1024.58 65.9267 1024.35 65.2 1024.14 64.48C1023.93 63.7467 1023.71 63 1023.5 62.24H1023.42C1023.22 63 1023.01 63.7467 1022.8 64.48C1022.59 65.2 1022.36 65.9267 1022.12 66.66ZM1018.12 74L1022.56 60.88H1024.44L1028.88 74H1027.1L1025.86 70H1021.08L1019.82 74H1018.12Z" fill="black"/>
<path d="M1165.85 74L1166.35 69.92H1164.75V68.78H1166.49L1166.85 65.82H1165.15V64.66H1166.99L1167.45 61H1168.51L1168.05 64.66H1170.71L1171.19 61H1172.25L1171.77 64.66H1173.39V65.82H1171.65L1171.29 68.78H1172.99V69.92H1171.15L1170.65 74H1169.59L1170.07 69.92H1167.43L1166.93 74H1165.85ZM1167.57 68.78H1170.21L1170.57 65.82H1167.93L1167.57 68.78ZM1175.79 74L1176.29 69.92H1174.69V68.78H1176.43L1176.79 65.82H1175.09V64.66H1176.93L1177.39 61H1178.45L1177.99 64.66H1180.65L1181.13 61H1182.19L1181.71 64.66H1183.33V65.82H1181.59L1181.23 68.78H1182.93V69.92H1181.09L1180.59 74H1179.53L1180.01 69.92H1177.37L1176.87 74H1175.79ZM1177.51 68.78H1180.15L1180.51 65.82H1177.87L1177.51 68.78ZM1187.31 74.24C1186.7 74.24 1186.25 74.0533 1185.97 73.68C1185.7 73.2933 1185.57 72.7467 1185.57 72.04V59.76H1187.21V72.16C1187.21 72.4133 1187.26 72.6 1187.35 72.72C1187.44 72.8267 1187.55 72.88 1187.67 72.88C1187.72 72.88 1187.77 72.88 1187.81 72.88C1187.86 72.8667 1187.94 72.8533 1188.03 72.84L1188.25 74.08C1188.14 74.1333 1188.02 74.1733 1187.87 74.2C1187.72 74.2267 1187.54 74.24 1187.31 74.24ZM1190.67 74V64.28H1192.31V74H1190.67ZM1191.51 62.28C1191.19 62.28 1190.92 62.1867 1190.71 62C1190.51 61.8 1190.41 61.5333 1190.41 61.2C1190.41 60.88 1190.51 60.62 1190.71 60.42C1190.92 60.22 1191.19 60.12 1191.51 60.12C1191.83 60.12 1192.09 60.22 1192.29 60.42C1192.5 60.62 1192.61 60.88 1192.61 61.2C1192.61 61.5333 1192.5 61.8 1192.29 62C1192.09 62.1867 1191.83 62.28 1191.51 62.28Z" fill="black"/>
<path d="M1318.05 74L1318.55 69.92H1316.95V68.78H1318.69L1319.05 65.82H1317.35V64.66H1319.19L1319.65 61H1320.71L1320.25 64.66H1322.91L1323.39 61H1324.45L1323.97 64.66H1325.59V65.82H1323.85L1323.49 68.78H1325.19V69.92H1323.35L1322.85 74H1321.79L1322.27 69.92H1319.63L1319.13 74H1318.05ZM1319.77 68.78H1322.41L1322.77 65.82H1320.13L1319.77 68.78ZM1327.99 74L1328.49 69.92H1326.89V68.78H1328.63L1328.99 65.82H1327.29V64.66H1329.13L1329.59 61H1330.65L1330.19 64.66H1332.85L1333.33 61H1334.39L1333.91 64.66H1335.53V65.82H1333.79L1333.43 68.78H1335.13V69.92H1333.29L1332.79 74H1331.73L1332.21 69.92H1329.57L1329.07 74H1327.99ZM1329.71 68.78H1332.35L1332.71 65.82H1330.07L1329.71 68.78ZM1341.61 74.24C1340.76 74.24 1339.99 74.04 1339.29 73.64C1338.6 73.24 1338.05 72.66 1337.65 71.9C1337.25 71.14 1337.05 70.2267 1337.05 69.16C1337.05 68.0667 1337.27 67.14 1337.69 66.38C1338.13 65.62 1338.71 65.04 1339.41 64.64C1340.13 64.24 1340.91 64.04 1341.73 64.04C1342.37 64.04 1342.92 64.1533 1343.37 64.38C1343.84 64.6067 1344.24 64.8733 1344.57 65.18L1343.73 66.26C1343.45 66.0067 1343.15 65.8 1342.83 65.64C1342.53 65.48 1342.18 65.4 1341.79 65.4C1341.21 65.4 1340.68 65.56 1340.21 65.88C1339.76 66.1867 1339.4 66.6267 1339.13 67.2C1338.88 67.76 1338.75 68.4133 1338.75 69.16C1338.75 70.2667 1339.03 71.1667 1339.57 71.86C1340.13 72.54 1340.86 72.88 1341.75 72.88C1342.21 72.88 1342.63 72.7867 1343.01 72.6C1343.4 72.4 1343.74 72.1667 1344.03 71.9L1344.75 73C1344.31 73.3867 1343.83 73.6933 1343.29 73.92C1342.76 74.1333 1342.2 74.24 1341.61 74.24ZM1350.41 74.24C1349.54 74.24 1348.75 74.04 1348.05 73.64C1347.34 73.2267 1346.78 72.64 1346.37 71.88C1345.95 71.12 1345.75 70.2133 1345.75 69.16C1345.75 68.0933 1345.95 67.18 1346.37 66.42C1346.79 65.66 1347.34 65.0733 1348.01 64.66C1348.67 64.2467 1349.37 64.04 1350.11 64.04C1351.35 64.04 1352.3 64.4533 1352.97 65.28C1353.65 66.1067 1353.99 67.2133 1353.99 68.6C1353.99 68.7733 1353.98 68.9467 1353.97 69.12C1353.97 69.28 1353.95 69.42 1353.93 69.54H1347.37C1347.43 70.5667 1347.75 71.3867 1348.33 72C1348.91 72.6133 1349.67 72.92 1350.61 72.92C1351.07 72.92 1351.5 72.8533 1351.89 72.72C1352.29 72.5733 1352.67 72.3867 1353.03 72.16L1353.61 73.24C1353.19 73.5067 1352.72 73.74 1352.19 73.94C1351.67 74.14 1351.07 74.24 1350.41 74.24ZM1347.35 68.36H1352.55C1352.55 67.3733 1352.33 66.6267 1351.91 66.12C1351.49 65.6 1350.91 65.34 1350.15 65.34C1349.47 65.34 1348.85 65.6067 1348.31 66.14C1347.77 66.66 1347.45 67.4 1347.35 68.36Z" fill="black"/>
<path d="M1475.97 74V60.88H1479.87C1480.77 60.88 1481.55 60.9867 1482.21 61.2C1482.89 61.4133 1483.42 61.7533 1483.79 62.22C1484.18 62.6867 1484.37 63.3067 1484.37 64.08C1484.37 64.7333 1484.21 65.3267 1483.87 65.86C1483.55 66.38 1483.08 66.74 1482.45 66.94V67.02C1483.24 67.1667 1483.88 67.5 1484.37 68.02C1484.88 68.54 1485.13 69.2533 1485.13 70.16C1485.13 71.0133 1484.92 71.7267 1484.49 72.3C1484.08 72.8733 1483.5 73.3 1482.75 73.58C1482.01 73.86 1481.14 74 1480.15 74H1475.97ZM1477.63 66.46H1479.57C1480.69 66.46 1481.5 66.2667 1481.99 65.88C1482.49 65.4933 1482.73 64.9667 1482.73 64.3C1482.73 63.54 1482.47 63 1481.95 62.68C1481.45 62.36 1480.68 62.2 1479.65 62.2H1477.63V66.46ZM1477.63 72.68H1479.91C1481.05 72.68 1481.93 72.4733 1482.55 72.06C1483.18 71.6333 1483.49 70.98 1483.49 70.1C1483.49 69.2867 1483.18 68.6933 1482.55 68.32C1481.94 67.9333 1481.06 67.74 1479.91 67.74H1477.63V72.68ZM1491.35 74.24C1490.56 74.24 1489.82 74.04 1489.13 73.64C1488.45 73.24 1487.9 72.66 1487.47 71.9C1487.06 71.14 1486.85 70.2267 1486.85 69.16C1486.85 68.0667 1487.06 67.14 1487.47 66.38C1487.9 65.62 1488.45 65.04 1489.13 64.64C1489.82 64.24 1490.56 64.04 1491.35 64.04C1492.15 64.04 1492.89 64.24 1493.57 64.64C1494.25 65.04 1494.8 65.62 1495.21 66.38C1495.64 67.14 1495.85 68.0667 1495.85 69.16C1495.85 70.2267 1495.64 71.14 1495.21 71.9C1494.8 72.66 1494.25 73.24 1493.57 73.64C1492.89 74.04 1492.15 74.24 1491.35 74.24ZM1491.35 72.88C1492.19 72.88 1492.86 72.54 1493.37 71.86C1493.89 71.1667 1494.15 70.2667 1494.15 69.16C1494.15 68.04 1493.89 67.1333 1493.37 66.44C1492.86 65.7467 1492.19 65.4 1491.35 65.4C1490.52 65.4 1489.85 65.7467 1489.33 66.44C1488.81 67.1333 1488.55 68.04 1488.55 69.16C1488.55 70.2667 1488.81 71.1667 1489.33 71.86C1489.85 72.54 1490.52 72.88 1491.35 72.88ZM1502.71 74.24C1502.26 74.24 1501.78 74.1333 1501.29 73.92C1500.81 73.6933 1500.36 73.3867 1499.93 73H1499.87L1499.73 74H1498.41V59.76H1500.05V63.64L1500.01 65.4C1500.45 65.0133 1500.93 64.6933 1501.45 64.44C1501.98 64.1733 1502.52 64.04 1503.05 64.04C1504.32 64.04 1505.28 64.4867 1505.93 65.38C1506.58 66.2733 1506.91 67.4733 1506.91 68.98C1506.91 70.0867 1506.71 71.0333 1506.31 71.82C1505.92 72.6067 1505.41 73.2067 1504.77 73.62C1504.14 74.0333 1503.46 74.24 1502.71 74.24ZM1502.43 72.86C1503.23 72.86 1503.89 72.52 1504.41 71.84C1504.94 71.1467 1505.21 70.2 1505.21 69C1505.21 67.9333 1505.01 67.0733 1504.61 66.42C1504.22 65.7533 1503.57 65.42 1502.65 65.42C1502.24 65.42 1501.82 65.5333 1501.39 65.76C1500.96 65.9867 1500.52 66.3133 1500.05 66.74V71.84C1500.48 72.2133 1500.9 72.48 1501.31 72.64C1501.74 72.7867 1502.11 72.86 1502.43 72.86Z" fill="black"/>
</svg>
