<?xml version="1.0" encoding="UTF-8" standalone="no"?>
<svg
   width="1784"
   height="280"
   viewBox="0 0 1784 280"
   fill="none"
   version="1.1"
   id="svg72"
   sodipodi:docname="chunking_texts.svg"
   inkscape:version="1.2.2 (732a01da63, 2022-12-09)"
   inkscape:export-filename="chunking_texts.png"
   inkscape:export-xdpi="300"
   inkscape:export-ydpi="300"
   xmlns:inkscape="http://www.inkscape.org/namespaces/inkscape"
   xmlns:sodipodi="http://sodipodi.sourceforge.net/DTD/sodipodi-0.dtd"
   xmlns="http://www.w3.org/2000/svg"
   xmlns:svg="http://www.w3.org/2000/svg">
  <defs
     id="defs76" />
  <sodipodi:namedview
     id="namedview74"
     pagecolor="#ffffff"
     bordercolor="#000000"
     borderopacity="0.25"
     inkscape:showpageshadow="2"
     inkscape:pageopacity="0.0"
     inkscape:pagecheckerboard="0"
     inkscape:deskcolor="#d1d1d1"
     showgrid="false"
     inkscape:zoom="0.70459641"
     inkscape:cx="891.29038"
     inkscape:cy="140.50597"
     inkscape:window-width="2880"
     inkscape:window-height="1694"
     inkscape:window-x="-11"
     inkscape:window-y="-11"
     inkscape:window-maximized="1"
     inkscape:current-layer="svg72" />
  <rect
     width="1784"
     height="280"
     fill="white"
     id="rect2" />
  <rect
     x="400"
     y="99"
     width="1082"
     height="80"
     rx="29"
     fill="#FFF4EC"
     stroke="#FFDFCA"
     stroke-width="2"
     id="rect4" />
  <path
     d="m 337.67277,217.80324 c 0.585,-0.586 0.585,-1.536 0,-2.122 l -9.546,-9.546 c -0.586,-0.585 -1.536,-0.585 -2.122,0 -0.585,0.586 -0.585,1.536 0,2.122 l 8.486,8.485 -8.486,8.485 c -0.585,0.586 -0.585,1.536 0,2.122 0.586,0.585 1.536,0.585 2.122,0 z m -91.061,0.439 h 90 v -3 h -90 z"
     fill="#000000"
     id="path12" />
  <path
     d="M1534.94 138.939C1534.35 139.525 1534.35 140.475 1534.94 141.061L1544.49 150.607C1545.07 151.192 1546.02 151.192 1546.61 150.607C1547.19 150.021 1547.19 149.071 1546.61 148.485L1538.12 140L1546.61 131.515C1547.19 130.929 1547.19 129.979 1546.61 129.393C1546.02 128.808 1545.07 128.808 1544.49 129.393L1534.94 138.939ZM1591 138.5H1536V141.5H1591V138.5Z"
     fill="black"
     id="path14" />
  <rect
     x="1399"
     y="81"
     width="116"
     height="116"
     rx="2"
     fill="#C4C4C4"
     fill-opacity="0.23"
     id="rect16" />
  <line
     x1="1401"
     y1="204"
     x2="1401"
     y2="230"
     stroke="#FFB682"
     stroke-width="4"
     id="line18" />
  <line
     x1="1276"
     y1="204"
     x2="1276"
     y2="230"
     stroke="#FFB682"
     stroke-width="4"
     id="line20" />
  <line
     x1="1151"
     y1="204"
     x2="1151"
     y2="230"
     stroke="#FFB682"
     stroke-width="4"
     id="line22" />
  <line
     x1="1026"
     y1="204"
     x2="1026"
     y2="230"
     stroke="#FFB682"
     stroke-width="4"
     id="line24" />
  <line
     x1="901"
     y1="204"
     x2="901"
     y2="230"
     stroke="#FFB682"
     stroke-width="4"
     id="line26" />
  <line
     x1="776"
     y1="204"
     x2="776"
     y2="230"
     stroke="#FFB682"
     stroke-width="4"
     id="line28" />
  <line
     x1="651"
     y1="204"
     x2="651"
     y2="230"
     stroke="#FFB682"
     stroke-width="4"
     id="line30" />
  <line
     x1="526"
     y1="204"
     x2="526"
     y2="230"
     stroke="#FFB682"
     stroke-width="4"
     id="line32" />
  <line
     x1="401"
     y1="204"
     x2="401"
     y2="230"
     stroke="#FFB682"
     stroke-width="4"
     id="line34" />
  <line
     x1="1513"
     y1="204"
     x2="1513"
     y2="230"
     stroke="#FFB682"
     stroke-width="4"
     id="line36" />
  <line
     x1="1388"
     y1="204"
     x2="1388"
     y2="230"
     stroke="#FFB682"
     stroke-width="4"
     id="line38" />
  <line
     x1="1263"
     y1="204"
     x2="1263"
     y2="230"
     stroke="#FFB682"
     stroke-width="4"
     id="line40" />
  <line
     x1="1138"
     y1="204"
     x2="1138"
     y2="230"
     stroke="#FFB682"
     stroke-width="4"
     id="line42" />
  <line
     x1="1013"
     y1="204"
     x2="1013"
     y2="230"
     stroke="#FFB682"
     stroke-width="4"
     id="line44" />
  <line
     x1="888"
     y1="204"
     x2="888"
     y2="230"
     stroke="#FFB682"
     stroke-width="4"
     id="line46" />
  <line
     x1="763"
     y1="204"
     x2="763"
     y2="230"
     stroke="#FFB682"
     stroke-width="4"
     id="line48" />
  <line
     x1="638"
     y1="204"
     x2="638"
     y2="230"
     stroke="#FFB682"
     stroke-width="4"
     id="line50" />
  <line
     x1="513"
     y1="204"
     x2="513"
     y2="230"
     stroke="#FFB682"
     stroke-width="4"
     id="line52" />
  <line
     x1="1402"
     y1="218"
     x2="1511"
     y2="218"
     stroke="#FFB682"
     stroke-width="4"
     id="line54" />
  <line
     x1="1277"
     y1="218"
     x2="1386"
     y2="218"
     stroke="#FFB682"
     stroke-width="4"
     id="line56" />
  <line
     x1="1152"
     y1="218"
     x2="1261"
     y2="218"
     stroke="#FFB682"
     stroke-width="4"
     id="line58" />
  <line
     x1="1027"
     y1="218"
     x2="1136"
     y2="218"
     stroke="#FFB682"
     stroke-width="4"
     id="line60" />
  <line
     x1="902"
     y1="218"
     x2="1011"
     y2="218"
     stroke="#FFB682"
     stroke-width="4"
     id="line62" />
  <line
     x1="777"
     y1="218"
     x2="886"
     y2="218"
     stroke="#FFB682"
     stroke-width="4"
     id="line64" />
  <line
     x1="652"
     y1="218"
     x2="761"
     y2="218"
     stroke="#FFB682"
     stroke-width="4"
     id="line66" />
  <line
     x1="527"
     y1="218"
     x2="636"
     y2="218"
     stroke="#FFB682"
     stroke-width="4"
     id="line68" />
  <line
     x1="402"
     y1="218"
     x2="511"
     y2="218"
     stroke="#FFB682"
     stroke-width="4"
     id="line70" />
  <text
     xml:space="preserve"
     style="font-size:26.6667px;font-family:'Sans Serif Collection';-inkscape-font-specification:'Sans Serif Collection';fill:#000000"
     x="19.869532"
     y="208.63008"
     id="text337"><tspan
       sodipodi:role="line"
       id="tspan335"
       x="19.869532"
       y="208.63008"
       style="font-size:26.6667px">Context(上下文)</tspan><tspan
       sodipodi:role="line"
       x="19.869532"
       y="244.70836"
       id="tspan339"
       style="font-size:26.6667px">长度</tspan></text>
  <text
     xml:space="preserve"
     style="font-size:26.6667px;font-family:'Sans Serif Collection';-inkscape-font-specification:'Sans Serif Collection';fill:#000000"
     x="1612.5945"
     y="149.41408"
     id="text393"><tspan
       sodipodi:role="line"
       id="tspan391"
       x="1612.5945"
       y="149.41408">长度太短</tspan></text>
  <text
     xml:space="preserve"
     style="font-size:32px;font-family:'Sans Serif Collection';-inkscape-font-specification:'Sans Serif Collection';fill:#000000"
     x="763.98438"
     y="55.350834"
     id="text397"><tspan
       sodipodi:role="line"
       id="tspan395"
       x="763.98438"
       y="55.350834"
       style="font-size:32px">经过 tokenize 的文本</tspan></text>
</svg>
