<?xml version="1.0" encoding="UTF-8" standalone="no"?>
<svg
   width="1784"
   height="428"
   viewBox="0 0 1784 428"
   fill="none"
   version="1.1"
   id="svg43"
   sodipodi:docname="ulmfit.svg"
   inkscape:version="1.2.2 (732a01da63, 2022-12-09)"
   xmlns:inkscape="http://www.inkscape.org/namespaces/inkscape"
   xmlns:sodipodi="http://sodipodi.sourceforge.net/DTD/sodipodi-0.dtd"
   xmlns="http://www.w3.org/2000/svg"
   xmlns:svg="http://www.w3.org/2000/svg">
  <defs
     id="defs47" />
  <sodipodi:namedview
     id="namedview45"
     pagecolor="#ffffff"
     bordercolor="#000000"
     borderopacity="0.25"
     inkscape:showpageshadow="2"
     inkscape:pageopacity="0.0"
     inkscape:pagecheckerboard="0"
     inkscape:deskcolor="#d1d1d1"
     showgrid="false"
     inkscape:zoom="0.70459641"
     inkscape:cx="777.7502"
     inkscape:cy="100.05728"
     inkscape:window-width="1920"
     inkscape:window-height="1111"
     inkscape:window-x="-9"
     inkscape:window-y="-9"
     inkscape:window-maximized="1"
     inkscape:current-layer="svg43" />
  <rect
     width="1784"
     height="428"
     fill="white"
     id="rect2" />
  <mask
     id="path-1-inside-1_378_1302"
     fill="white">
    <path
       fill-rule="evenodd"
       clip-rule="evenodd"
       d="M424.033 345.465L580.208 215.053L424.323 82L424.269 131.184H153V289.184H424.095L424.033 345.465Z"
       id="path4" />
  </mask>
  <path
     fill-rule="evenodd"
     clip-rule="evenodd"
     d="M424.033 345.465L580.208 215.053L424.323 82L424.269 131.184H153V289.184H424.095L424.033 345.465Z"
     fill="#F6F3FF"
     id="path7" />
  <path
     d="M580.208 215.053L582.772 218.123L586.409 215.086L582.805 212.01L580.208 215.053ZM424.033 345.465L420.033 345.461L420.023 354.025L426.596 348.536L424.033 345.465ZM424.323 82L426.92 78.9575L420.333 73.3351L420.323 81.9956L424.323 82ZM424.269 131.184V135.184H428.264L428.269 131.189L424.269 131.184ZM153 131.184V127.184H149V131.184H153ZM153 289.184H149V293.184H153V289.184ZM424.095 289.184L428.095 289.189L428.099 285.184H424.095V289.184ZM577.645 211.983L421.469 342.395L426.596 348.536L582.772 218.123L577.645 211.983ZM421.726 85.0425L577.612 218.095L582.805 212.01L426.92 78.9575L421.726 85.0425ZM428.269 131.189L428.323 82.0044L420.323 81.9956L420.269 131.18L428.269 131.189ZM153 135.184H424.269V127.184H153V135.184ZM157 289.184V131.184H149V289.184H157ZM424.095 285.184H153V293.184H424.095V285.184ZM428.033 345.47L428.095 289.189L420.095 289.18L420.033 345.461L428.033 345.47Z"
     fill="#DBCEFF"
     mask="url(#path-1-inside-1_378_1302)"
     id="path9" />
  <mask
     id="path-3-inside-2_378_1302"
     fill="white">
    <path
       fill-rule="evenodd"
       clip-rule="evenodd"
       d="M979.033 345.465L1135.21 215.053L979.323 82L979.269 131.184H708V289.184H979.095L979.033 345.465Z"
       id="path11" />
  </mask>
  <path
     fill-rule="evenodd"
     clip-rule="evenodd"
     d="M979.033 345.465L1135.21 215.053L979.323 82L979.269 131.184H708V289.184H979.095L979.033 345.465Z"
     fill="#FFF6DF"
     id="path14" />
  <path
     d="M1135.21 215.053L1137.77 218.123L1141.41 215.086L1137.81 212.01L1135.21 215.053ZM979.033 345.465L975.033 345.461L975.023 354.025L981.596 348.536L979.033 345.465ZM979.323 82L981.92 78.9575L975.333 73.3351L975.323 81.9956L979.323 82ZM979.269 131.184V135.184H983.264L983.269 131.189L979.269 131.184ZM708 131.184V127.184H704V131.184H708ZM708 289.184H704V293.184H708V289.184ZM979.095 289.184L983.095 289.189L983.099 285.184H979.095V289.184ZM1132.64 211.983L976.469 342.395L981.596 348.536L1137.77 218.123L1132.64 211.983ZM976.726 85.0425L1132.61 218.095L1137.81 212.01L981.92 78.9575L976.726 85.0425ZM983.269 131.189L983.323 82.0044L975.323 81.9956L975.269 131.18L983.269 131.189ZM708 135.184H979.269V127.184H708V135.184ZM712 289.184V131.184H704V289.184H712ZM979.095 285.184H708V293.184H979.095V285.184ZM983.033 345.47L983.095 289.189L975.095 289.18L975.033 345.461L983.033 345.47Z"
     fill="#FFE1B4"
     mask="url(#path-3-inside-2_378_1302)"
     id="path16" />
  <mask
     id="path-5-inside-3_378_1302"
     fill="white">
    <path
       fill-rule="evenodd"
       clip-rule="evenodd"
       d="M1534.03 345.465L1690.21 215.053L1534.32 82L1534.27 131.184H1263V289.184H1534.09L1534.03 345.465Z"
       id="path18" />
  </mask>
  <path
     fill-rule="evenodd"
     clip-rule="evenodd"
     d="M1534.03 345.465L1690.21 215.053L1534.32 82L1534.27 131.184H1263V289.184H1534.09L1534.03 345.465Z"
     fill="#FFF4EC"
     id="path21" />
  <path
     d="M1690.21 215.053L1692.77 218.123L1696.41 215.086L1692.81 212.01L1690.21 215.053ZM1534.03 345.465L1530.03 345.461L1530.02 354.025L1536.6 348.536L1534.03 345.465ZM1534.32 82L1536.92 78.9575L1530.33 73.3351L1530.32 81.9956L1534.32 82ZM1534.27 131.184V135.184H1538.26L1538.27 131.189L1534.27 131.184ZM1263 131.184V127.184H1259V131.184H1263ZM1263 289.184H1259V293.184H1263V289.184ZM1534.09 289.184L1538.09 289.189L1538.1 285.184H1534.09V289.184ZM1687.64 211.983L1531.47 342.395L1536.6 348.536L1692.77 218.123L1687.64 211.983ZM1531.73 85.0425L1687.61 218.095L1692.81 212.01L1536.92 78.9575L1531.73 85.0425ZM1538.27 131.189L1538.32 82.0044L1530.32 81.9956L1530.27 131.18L1538.27 131.189ZM1263 135.184H1534.27V127.184H1263V135.184ZM1267 289.184V131.184H1259V289.184H1267ZM1534.09 285.184H1263V293.184H1534.09V285.184ZM1538.03 345.47L1538.09 289.189L1530.09 289.18L1530.03 345.461L1538.03 345.47Z"
     fill="#FFDFCA"
     mask="url(#path-5-inside-3_378_1302)"
     id="path23" />
  <circle
     cx="153"
     cy="214"
     r="58"
     fill="#F6F3FF"
     stroke="#DBCEFF"
     stroke-width="4"
     id="circle25" />
  <circle
     cx="708"
     cy="214"
     r="58"
     fill="#FFF6DF"
     stroke="#FFE1B4"
     stroke-width="4"
     id="circle27" />
  <circle
     cx="1263"
     cy="214"
     r="58"
     fill="#FFF4EC"
     stroke="#FFDFCA"
     stroke-width="4"
     id="circle29" />
  <path
     d="M119.751 208L116.693 193.568H118.585L120.103 201.422C120.235 202.199 120.374 202.977 120.521 203.754C120.667 204.531 120.807 205.309 120.939 206.086H121.027C121.188 205.309 121.357 204.531 121.533 203.754C121.709 202.962 121.877 202.185 122.039 201.422L124.041 193.568H125.713L127.715 201.422C127.891 202.185 128.067 202.962 128.243 203.754C128.419 204.531 128.595 205.309 128.771 206.086H128.859C128.991 205.309 129.123 204.531 129.255 203.754C129.387 202.962 129.526 202.185 129.673 201.422L131.191 193.568H132.951L129.959 208H127.759L125.581 199.31C125.449 198.753 125.324 198.21 125.207 197.682C125.104 197.139 124.994 196.589 124.877 196.032H124.789C124.686 196.589 124.569 197.139 124.437 197.682C124.305 198.21 124.18 198.753 124.063 199.31L121.929 208H119.751ZM135.285 208V197.308H137.089V208H135.285ZM136.209 195.108C135.857 195.108 135.564 195.005 135.329 194.8C135.109 194.58 134.999 194.287 134.999 193.92C134.999 193.568 135.109 193.282 135.329 193.062C135.564 192.842 135.857 192.732 136.209 192.732C136.561 192.732 136.847 192.842 137.067 193.062C137.302 193.282 137.419 193.568 137.419 193.92C137.419 194.287 137.302 194.58 137.067 194.8C136.847 195.005 136.561 195.108 136.209 195.108ZM140.7 208V192.336H142.482V202.94H142.548L147.102 197.308H149.104L145.518 201.598L149.588 208H147.608L144.484 202.852L142.482 205.184V208H140.7ZM151.592 208V197.308H153.396V208H151.592ZM152.516 195.108C152.164 195.108 151.871 195.005 151.636 194.8C151.416 194.58 151.306 194.287 151.306 193.92C151.306 193.568 151.416 193.282 151.636 193.062C151.871 192.842 152.164 192.732 152.516 192.732C152.868 192.732 153.154 192.842 153.374 193.062C153.609 193.282 153.726 193.568 153.726 193.92C153.726 194.287 153.609 194.58 153.374 194.8C153.154 195.005 152.868 195.108 152.516 195.108ZM160.372 208.264C159.228 208.264 158.429 207.934 157.974 207.274C157.534 206.614 157.314 205.756 157.314 204.7V198.782H155.73V197.418L157.402 197.308L157.622 194.316H159.14V197.308H162.022V198.782H159.14V204.722C159.14 205.382 159.257 205.895 159.492 206.262C159.741 206.614 160.174 206.79 160.79 206.79C160.981 206.79 161.186 206.761 161.406 206.702C161.626 206.629 161.824 206.563 162 206.504L162.352 207.868C162.059 207.971 161.736 208.059 161.384 208.132C161.047 208.22 160.709 208.264 160.372 208.264ZM168.473 208.264C167.52 208.264 166.654 208.044 165.877 207.604C165.1 207.149 164.484 206.504 164.029 205.668C163.574 204.832 163.347 203.835 163.347 202.676C163.347 201.503 163.574 200.498 164.029 199.662C164.498 198.826 165.1 198.181 165.833 197.726C166.566 197.271 167.336 197.044 168.143 197.044C169.507 197.044 170.556 197.499 171.289 198.408C172.037 199.317 172.411 200.535 172.411 202.06C172.411 202.251 172.404 202.441 172.389 202.632C172.389 202.808 172.374 202.962 172.345 203.094H165.129C165.202 204.223 165.554 205.125 166.185 205.8C166.83 206.475 167.666 206.812 168.693 206.812C169.206 206.812 169.676 206.739 170.101 206.592C170.541 206.431 170.959 206.225 171.355 205.976L171.993 207.164C171.538 207.457 171.018 207.714 170.431 207.934C169.859 208.154 169.206 208.264 168.473 208.264ZM165.107 201.796H170.827C170.827 200.711 170.592 199.889 170.123 199.332C169.668 198.76 169.023 198.474 168.187 198.474C167.439 198.474 166.764 198.767 166.163 199.354C165.576 199.926 165.224 200.74 165.107 201.796ZM173.407 208L176.905 202.412L173.671 197.308H175.629L177.059 199.662C177.22 199.941 177.389 200.234 177.565 200.542C177.741 200.85 177.924 201.151 178.115 201.444H178.203C178.364 201.151 178.525 200.85 178.687 200.542C178.848 200.234 179.009 199.941 179.171 199.662L180.469 197.308H182.361L179.127 202.61L182.603 208H180.645L179.083 205.514C178.892 205.191 178.701 204.869 178.511 204.546C178.32 204.223 178.122 203.908 177.917 203.6H177.829C177.638 203.908 177.455 204.223 177.279 204.546C177.103 204.854 176.927 205.177 176.751 205.514L175.299 208H173.407ZM187.55 208.264C186.406 208.264 185.607 207.934 185.152 207.274C184.712 206.614 184.492 205.756 184.492 204.7V198.782H182.908V197.418L184.58 197.308L184.8 194.316H186.318V197.308H189.2V198.782H186.318V204.722C186.318 205.382 186.435 205.895 186.67 206.262C186.919 206.614 187.352 206.79 187.968 206.79C188.159 206.79 188.364 206.761 188.584 206.702C188.804 206.629 189.002 206.563 189.178 206.504L189.53 207.868C189.237 207.971 188.914 208.059 188.562 208.132C188.225 208.22 187.887 208.264 187.55 208.264ZM138.335 236V234.504H141.547V224.164H138.995V222.998C139.64 222.881 140.197 222.741 140.667 222.58C141.151 222.404 141.583 222.199 141.965 221.964H143.351V234.504H146.255V236H138.335ZM153.01 236.264C151.602 236.264 150.495 235.633 149.688 234.372C148.896 233.096 148.5 231.285 148.5 228.938C148.5 226.577 148.896 224.78 149.688 223.548C150.495 222.316 151.602 221.7 153.01 221.7C154.404 221.7 155.496 222.316 156.288 223.548C157.095 224.78 157.498 226.577 157.498 228.938C157.498 231.285 157.095 233.096 156.288 234.372C155.496 235.633 154.404 236.264 153.01 236.264ZM153.01 234.812C153.832 234.812 154.492 234.35 154.99 233.426C155.489 232.487 155.738 230.991 155.738 228.938C155.738 226.885 155.489 225.411 154.99 224.516C154.492 223.607 153.832 223.152 153.01 223.152C152.189 223.152 151.522 223.607 151.008 224.516C150.51 225.411 150.26 226.885 150.26 228.938C150.26 230.991 150.51 232.487 151.008 233.426C151.522 234.35 152.189 234.812 153.01 234.812ZM163.66 236.264C162.545 236.264 161.614 236.066 160.866 235.67C160.118 235.259 159.509 234.797 159.04 234.284L159.964 233.096C160.389 233.536 160.888 233.925 161.46 234.262C162.032 234.599 162.728 234.768 163.55 234.768C164.4 234.768 165.097 234.533 165.64 234.064C166.182 233.595 166.454 232.971 166.454 232.194C166.454 231.637 166.307 231.153 166.014 230.742C165.735 230.317 165.266 229.987 164.606 229.752C163.96 229.517 163.08 229.4 161.966 229.4V228.014C162.963 228.014 163.748 227.897 164.32 227.662C164.906 227.427 165.324 227.112 165.574 226.716C165.823 226.32 165.948 225.88 165.948 225.396C165.948 224.707 165.728 224.164 165.288 223.768C164.862 223.372 164.276 223.174 163.528 223.174C162.941 223.174 162.398 223.306 161.9 223.57C161.416 223.834 160.961 224.179 160.536 224.604L159.568 223.46C160.11 222.947 160.712 222.529 161.372 222.206C162.032 221.869 162.772 221.7 163.594 221.7C164.811 221.7 165.816 222.015 166.608 222.646C167.4 223.262 167.796 224.135 167.796 225.264C167.796 226.115 167.561 226.811 167.092 227.354C166.622 227.897 166.006 228.315 165.244 228.608V228.696C166.094 228.887 166.813 229.29 167.4 229.906C167.986 230.507 168.28 231.292 168.28 232.26C168.28 233.081 168.074 233.793 167.664 234.394C167.253 234.995 166.696 235.457 165.992 235.78C165.302 236.103 164.525 236.264 163.66 236.264Z"
     fill="black"
     id="path37" />
  <path
     d="M686.251 222V207.568H688.077V222H686.251ZM692.03 222V207.568H694.23L697.002 215.268C697.178 215.767 697.346 216.273 697.508 216.786C697.684 217.285 697.86 217.783 698.036 218.282H698.124C698.3 217.783 698.461 217.285 698.608 216.786C698.769 216.273 698.938 215.767 699.114 215.268L701.842 207.568H704.064V222H702.348V214.058C702.348 213.413 702.377 212.701 702.436 211.924C702.494 211.132 702.546 210.421 702.59 209.79H702.502L701.358 213.068L698.63 220.548H697.42L694.692 213.068L693.548 209.79H693.46C693.504 210.421 693.548 211.132 693.592 211.924C693.65 212.701 693.68 213.413 693.68 214.058V222H692.03ZM708.014 222V207.568H711.622C713.852 207.568 715.546 208.191 716.704 209.438C717.863 210.67 718.442 212.43 718.442 214.718C718.442 217.021 717.863 218.81 716.704 220.086C715.56 221.362 713.896 222 711.71 222H708.014ZM709.84 220.504H711.49C713.177 220.504 714.438 219.998 715.274 218.986C716.125 217.959 716.55 216.537 716.55 214.718C716.55 212.899 716.125 211.506 715.274 210.538C714.438 209.555 713.177 209.064 711.49 209.064H709.84V220.504ZM726.103 222.264C725.605 222.264 725.084 222.147 724.541 221.912C724.013 221.663 723.515 221.325 723.045 220.9H722.979L722.825 222H721.373V206.336H723.177V210.604L723.133 212.54C723.617 212.115 724.145 211.763 724.717 211.484C725.304 211.191 725.891 211.044 726.477 211.044C727.871 211.044 728.927 211.535 729.645 212.518C730.364 213.501 730.723 214.821 730.723 216.478C730.723 217.695 730.503 218.737 730.063 219.602C729.638 220.467 729.073 221.127 728.369 221.582C727.68 222.037 726.925 222.264 726.103 222.264ZM725.795 220.746C726.675 220.746 727.401 220.372 727.973 219.624C728.56 218.861 728.853 217.82 728.853 216.5C728.853 215.327 728.633 214.381 728.193 213.662C727.768 212.929 727.049 212.562 726.037 212.562C725.583 212.562 725.121 212.687 724.651 212.936C724.182 213.185 723.691 213.545 723.177 214.014V219.624C723.647 220.035 724.109 220.328 724.563 220.504C725.033 220.665 725.443 220.746 725.795 220.746Z"
     fill="black"
     id="path39" />
  <path
     d="M1241.25 222V207.568H1243.08V222H1241.25ZM1247.03 222V207.568H1249.23L1252 215.268C1252.18 215.767 1252.35 216.273 1252.51 216.786C1252.68 217.285 1252.86 217.783 1253.04 218.282H1253.12C1253.3 217.783 1253.46 217.285 1253.61 216.786C1253.77 216.273 1253.94 215.767 1254.11 215.268L1256.84 207.568H1259.06V222H1257.35V214.058C1257.35 213.413 1257.38 212.701 1257.44 211.924C1257.49 211.132 1257.55 210.421 1257.59 209.79H1257.5L1256.36 213.068L1253.63 220.548H1252.42L1249.69 213.068L1248.55 209.79H1248.46C1248.5 210.421 1248.55 211.132 1248.59 211.924C1248.65 212.701 1248.68 213.413 1248.68 214.058V222H1247.03ZM1263.01 222V207.568H1266.62C1268.85 207.568 1270.55 208.191 1271.7 209.438C1272.86 210.67 1273.44 212.43 1273.44 214.718C1273.44 217.021 1272.86 218.81 1271.7 220.086C1270.56 221.362 1268.9 222 1266.71 222H1263.01ZM1264.84 220.504H1266.49C1268.18 220.504 1269.44 219.998 1270.27 218.986C1271.12 217.959 1271.55 216.537 1271.55 214.718C1271.55 212.899 1271.12 211.506 1270.27 210.538C1269.44 209.555 1268.18 209.064 1266.49 209.064H1264.84V220.504ZM1281.1 222.264C1280.6 222.264 1280.08 222.147 1279.54 221.912C1279.01 221.663 1278.51 221.325 1278.05 220.9H1277.98L1277.83 222H1276.37V206.336H1278.18V210.604L1278.13 212.54C1278.62 212.115 1279.15 211.763 1279.72 211.484C1280.3 211.191 1280.89 211.044 1281.48 211.044C1282.87 211.044 1283.93 211.535 1284.65 212.518C1285.36 213.501 1285.72 214.821 1285.72 216.478C1285.72 217.695 1285.5 218.737 1285.06 219.602C1284.64 220.467 1284.07 221.127 1283.37 221.582C1282.68 222.037 1281.92 222.264 1281.1 222.264ZM1280.8 220.746C1281.68 220.746 1282.4 220.372 1282.97 219.624C1283.56 218.861 1283.85 217.82 1283.85 216.5C1283.85 215.327 1283.63 214.381 1283.19 213.662C1282.77 212.929 1282.05 212.562 1281.04 212.562C1280.58 212.562 1280.12 212.687 1279.65 212.936C1279.18 213.185 1278.69 213.545 1278.18 214.014V219.624C1278.65 220.035 1279.11 220.328 1279.56 220.504C1280.03 220.665 1280.44 220.746 1280.8 220.746Z"
     fill="black"
     id="path41" />
  <text
     xml:space="preserve"
     style="font-size:29.3333px;font-family:'Sans Serif Collection';-inkscape-font-specification:'Sans Serif Collection';writing-mode:tb-rl;fill:#000000"
     x="261.1424"
     y="222.82259"
     id="text308"><tspan
       sodipodi:role="line"
       id="tspan306"
       x="261.1424"
       y="222.82259"
       style="font-size:29.3333px;writing-mode:lr-tb">语言模型</tspan></text>
  <text
     xml:space="preserve"
     style="font-size:29.3333px;font-family:'Sans Serif Collection';-inkscape-font-specification:'Sans Serif Collection';writing-mode:tb-rl;fill:#000000"
     x="817.82184"
     y="222.51933"
     id="text308-2"><tspan
       sodipodi:role="line"
       id="tspan306-5"
       x="817.82184"
       y="222.51933"
       style="font-size:29.3333px;writing-mode:lr-tb">语言模型</tspan></text>
  <text
     xml:space="preserve"
     style="font-size:29.3333px;font-family:'Sans Serif Collection';-inkscape-font-specification:'Sans Serif Collection';writing-mode:lr-tb;fill:#000000"
     x="1392.2864"
     y="227.08035"
     id="text362"><tspan
       sodipodi:role="line"
       id="tspan360"
       x="1392.2864"
       y="227.08035">分类器</tspan></text>
</svg>
